%TF.GenerationSoftware,Altium Limited,Altium Designer,26.2.0 (7)*%
G04 Layer_Color=16711935*
%FSLAX45Y45*%
%MOMM*%
%TF.SameCoordinates,98F60570-CFD4-4618-BAC5-DA2D18F82F03*%
%TF.FilePolarity,Negative*%
%TF.FileFunction,Soldermask,Bot*%
%TF.Part,Single*%
G01*
G75*
%TA.AperFunction,ComponentPad*%
%ADD38C,1.57000*%
%ADD39R,1.57000X1.57000*%
%ADD64C,1.70000*%
%ADD65R,1.70000X1.70000*%
%ADD66C,1.75000*%
G04:AMPARAMS|DCode=67|XSize=1.75mm|YSize=1.75mm|CornerRadius=0.475mm|HoleSize=0mm|Usage=FLASHONLY|Rotation=0.000|XOffset=0mm|YOffset=0mm|HoleType=Round|Shape=RoundedRectangle|*
%AMROUNDEDRECTD67*
21,1,1.75000,0.80000,0,0,0.0*
21,1,0.80000,1.75000,0,0,0.0*
1,1,0.95000,0.40000,-0.40000*
1,1,0.95000,-0.40000,-0.40000*
1,1,0.95000,-0.40000,0.40000*
1,1,0.95000,0.40000,0.40000*
%
%ADD67ROUNDEDRECTD67*%
%TA.AperFunction,TestPad*%
%ADD68O,1.15000X2.25000*%
%ADD69O,1.35000X1.95000*%
%TA.AperFunction,ViaPad*%
%ADD70C,6.15000*%
%TA.AperFunction,TestPad*%
%ADD71C,0.75000*%
%TA.AperFunction,ViaPad*%
%ADD72C,0.75000*%
D38*
X7700000Y4401000D02*
D03*
Y4147000D02*
D03*
Y3893000D02*
D03*
Y3639000D02*
D03*
Y3385000D02*
D03*
Y3131000D02*
D03*
Y2877000D02*
D03*
Y2623000D02*
D03*
Y2369000D02*
D03*
Y2115000D02*
D03*
Y1861000D02*
D03*
Y1607000D02*
D03*
Y1353000D02*
D03*
D39*
Y1099000D02*
D03*
D64*
X300000Y2369000D02*
D03*
Y2623000D02*
D03*
Y2877000D02*
D03*
Y3131000D02*
D03*
Y2115000D02*
D03*
D65*
Y3385000D02*
D03*
D66*
X5524000Y300000D02*
D03*
X5270000D02*
D03*
X4254000D02*
D03*
X3492000D02*
D03*
X2476000D02*
D03*
X2730000D02*
D03*
X3238000D02*
D03*
X4000000D02*
D03*
X4762000D02*
D03*
X5016000D02*
D03*
X4508000D02*
D03*
X3746000D02*
D03*
X2984000D02*
D03*
X5778000D02*
D03*
D67*
X2222000D02*
D03*
D68*
X3568000Y4919750D02*
D03*
X4432000D02*
D03*
D69*
Y5337750D02*
D03*
X3568000D02*
D03*
D70*
X7640000Y5140000D02*
D03*
Y360000D02*
D03*
X360000D02*
D03*
Y5140000D02*
D03*
D71*
X4289000Y4969750D02*
D03*
X3711000D02*
D03*
D72*
X7802635Y4977365D02*
D03*
X7640000Y4910000D02*
D03*
X7477365Y4977365D02*
D03*
X7410000Y5140000D02*
D03*
X7477365Y5302635D02*
D03*
X7640000Y5370000D02*
D03*
X7802635Y5302635D02*
D03*
X7870000Y5140000D02*
D03*
X7802635Y197365D02*
D03*
X7640000Y130000D02*
D03*
X7477365Y197365D02*
D03*
X7410000Y360000D02*
D03*
X7477365Y522635D02*
D03*
X7640000Y590000D02*
D03*
X7802635Y522635D02*
D03*
X7870000Y360000D02*
D03*
X522635Y197365D02*
D03*
X360000Y130000D02*
D03*
X197365Y197365D02*
D03*
X130000Y360000D02*
D03*
X197365Y522635D02*
D03*
X360000Y590000D02*
D03*
X522635Y522635D02*
D03*
X590000Y360000D02*
D03*
X360000Y5370000D02*
D03*
X522635Y5302635D02*
D03*
X590000Y5140000D02*
D03*
X522635Y4977365D02*
D03*
X360000Y4910000D02*
D03*
X197365Y4977365D02*
D03*
X130000Y5140000D02*
D03*
X197365Y5302635D02*
D03*
%TF.MD5,5b7427e6d1a3456ddd2af33c445bc399*%
M02*
