M48
;Layer_Color=9474304
;FILE_FORMAT=2:5
INCH
;TYPE=PLATED
T01F00S00C0.01575
T03F00S00C0.04016
T04F00S00C0.04331
T05F00S00C0.12598
%
T01
X0484252Y0200787
X0496063
X0507874
X0513779Y0212598
X0501968
X0490157
X0496063Y0224409
X0507874
X0519685
X0531496
X0537401Y0236220
Y0259842
X0513779
X0513091Y0263779
X0507874Y0271654
X0496063
X0501968Y0283465
X0507874Y0295275
X0496063
X0484252
X0513779Y0307086
X0501968Y0259842
X0490157
X0484252Y0248031
X0490157Y0236220
X0501968
X0507874Y0248031
X0519685
X0484252Y0224409
X0453150Y0224016
X0454724Y0212598
X0442913
X0436319Y0225000
X0438189Y0237008
X0441339Y0234646
X0447244
X0438189Y0250590
X0442913Y0259842
X0435039Y0263386
X0437008Y0271654
X0425197
X0427559Y0278346
X0431102Y0283465
X0419291
X0418504Y0299803
Y0305709
X0402756Y0301772
X0395669Y0307086
X0383858
X0372047
X0367323Y0301772
X0365158Y0293701
X0362205Y0283858
X0361811Y0277559
X0354331Y0271654
X0342520
X0336417Y0279134
X0336319Y0287894
X0348425Y0283465
X0355315Y0289764
X0350590Y0297835
X0351575Y0303740
X0348425Y0259842
X0360236
X0370472Y0263386
X0380709Y0269685
X0382087Y0279528
X0389961Y0274803
X0395866
X0397638Y0263386
X0407874
X0400787Y0250590
Y0237008
X0405512Y0231496
X0407677Y0225000
X0397835
X0395669Y0212598
X0407480
X0419291Y0236220
X0383858
X0368110Y0231496
X0363779Y0234646
X0358268
X0348425Y0236220
X0343701Y0233858
X0339764
X0336614Y0236220
X0324803
X0312992
X0318898Y0248031
X0330709
X0342520
X0354331
X0366142
X0369291Y0225000
X0372047Y0212598
X0360236
X0343701Y0212205
Y0215354
X0339764
Y0212205
X0324803Y0212598
X0325000Y0218110
X0321654
Y0222047
X0325000
X0312992Y0212598
X0324803Y0259842
X0336614
X0318898Y0271654
X0391929Y0296850
X0440551Y0295276
X0443701Y0300787
X0454724Y0307086
X0457874Y0292913
X0461811Y0289370
X0457874Y0279528
X0454724Y0259842
X0460630Y0248031
Y0200787
X0301181Y0212598
X0289370
X0289567Y0219094
X0283465Y0224409
X0283661Y0231890
X0277756
X0277559Y0236220
X0289370
X0301181
X0307086Y0224409
X0271654
X0272835Y0219094
Y0201378
X0259842Y0200787
X0253937Y0212598
X0248031Y0224409
X0236220
X0242126Y0236220
X0253937
X0248031Y0248031
X0236220
X0253937Y0259842
X0265748
X0277559
X0289370
X0301181
X0295275Y0271654
X0283465
Y0248031
X0295275Y0295275
X0305315Y0294882
X0289370Y0307086
X0253937
X0259842Y0318898
X0265354Y0322047
Y0325197
Y0328346
X0269291
Y0325197
Y0322047
X0283465Y0318898
X0295275
X0294488Y0352756
X0290551
X0286614
Y0356299
Y0359842
X0282677
Y0356299
Y0352756
X0277559Y0354331
X0265748
X0253937
X0242126
X0248031Y0366142
X0259842
X0271654
X0282677Y0366929
Y0370472
Y0374016
X0286614
Y0370472
Y0366929
X0290551Y0374016
X0294488
X0301181Y0377953
X0312205Y0372539
X0306299Y0362992
X0307086Y0389764
X0295275
X0283465
X0271654
X0259842
X0265748Y0377953
X0253937
X0242126
X0236220Y0366142
Y0342520
X0248031
X0259842
X0253937Y0330709
X0248031Y0318898
X0318898Y0342520
X0330709
X0342520
X0354331
X0362402Y0344094
X0360236Y0354331
X0372047
X0373228Y0348031
X0383858Y0330709
X0389764Y0318898
X0401575
X0398425Y0312598
X0402756Y0327362
X0420079Y0321260
X0423622
X0426772Y0323622
Y0327165
X0427362Y0334252
X0442913Y0330709
X0454724
X0450000Y0318110
X0418504Y0316535
X0419291Y0354331
X0431102
X0442913
X0454724
X0466535
Y0377953
X0454724
X0442913
X0431102
X0419291
X0407480
X0408661Y0381102
X0413386Y0389764
X0425197
X0437008
X0448819
X0460630
X0397638Y0377559
X0401575Y0366142
X0385039Y0371654
X0372441Y0377559
X0365354Y0372441
X0360236Y0376772
X0361417Y0381496
X0352362Y0376772
X0349606Y0372638
X0355512
X0344488Y0376772
X0336614Y0377953
X0339764Y0372441
X0342520Y0389764
X0354331
X0330709
X0318898
X0324016Y0383465
X0324803Y0377953
X0312992
X0316535Y0369291
X0320866Y0365748
X0377953Y0318898
X0472441Y0342520
X0478346Y0354331
X0490157
X0501968
X0513779
X0519685Y0366142
X0507874
X0496063
X0501968Y0377953
X0513779
X0525590
X0537401
Y0354331
Y0330709
X0525590
X0518898Y0333465
X0513779Y0330709
X0519685Y0342520
X0490157Y0330709
Y0377953
X0478346
X0484252Y0389764
X0496063
X0507874
X0472441
T03
X0530709Y0233819
Y0243819
Y0253819
Y0263819
Y0273819
Y0283819
Y0293819
Y0303819
X0239370
Y0293819
Y0283819
Y0273819
Y0313819
Y0323819
X0530709
Y0313819
Y0333819
Y0343819
Y0353819
Y0363819
T04
X0315039Y0202362
X0325039
X0335039
X0345039
X0355039
X0365039
X0375039
X0385039
X0395039
X0405039
X0415039
X0425039
X0435039
X0445039
X0455039
T05
X0528346Y0204724
X0241732
Y0392913
X0528346
M30
