%TF.GenerationSoftware,Altium Limited,Altium Designer,26.2.0 (7)*%
G04 Layer_Physical_Order=2*
G04 Layer_Color=36540*
%FSLAX45Y45*%
%MOMM*%
%TF.SameCoordinates,98F60570-CFD4-4618-BAC5-DA2D18F82F03*%
%TF.FilePolarity,Positive*%
%TF.FileFunction,Copper,L2,Inr,Signal*%
%TF.Part,Single*%
G01*
G75*
%TA.AperFunction,ComponentPad*%
%ADD38C,1.57000*%
%ADD39R,1.57000X1.57000*%
%ADD40C,1.55000*%
%ADD41R,1.55000X1.55000*%
%ADD42C,1.60000*%
G04:AMPARAMS|DCode=43|XSize=1.6mm|YSize=1.6mm|CornerRadius=0.4mm|HoleSize=0mm|Usage=FLASHONLY|Rotation=0.000|XOffset=0mm|YOffset=0mm|HoleType=Round|Shape=RoundedRectangle|*
%AMROUNDEDRECTD43*
21,1,1.60000,0.80000,0,0,0.0*
21,1,0.80000,1.60000,0,0,0.0*
1,1,0.80000,0.40000,-0.40000*
1,1,0.80000,-0.40000,-0.40000*
1,1,0.80000,-0.40000,0.40000*
1,1,0.80000,0.40000,0.40000*
%
%ADD43ROUNDEDRECTD43*%
%TA.AperFunction,TestPad*%
%ADD44O,1.00000X2.10000*%
%ADD45O,1.20000X1.80000*%
%TA.AperFunction,ViaPad*%
%ADD46C,6.00000*%
%TA.AperFunction,TestPad*%
%ADD47C,0.65000*%
%TA.AperFunction,ViaPad*%
%ADD48C,0.60000*%
G36*
X7852389Y5472707D02*
X7885077Y5459167D01*
X7914494Y5439512D01*
X7939512Y5414494D01*
X7959167Y5385077D01*
X7972707Y5352389D01*
X7979610Y5317690D01*
Y5300000D01*
Y200000D01*
Y182310D01*
X7972707Y147611D01*
X7959167Y114923D01*
X7939512Y85506D01*
X7914494Y60488D01*
X7885077Y40833D01*
X7852389Y27293D01*
X7817690Y20391D01*
X182310D01*
X147611Y27293D01*
X114923Y40833D01*
X85506Y60488D01*
X60488Y85506D01*
X40833Y114923D01*
X27293Y147611D01*
X20391Y182310D01*
Y200000D01*
Y5300000D01*
Y5317690D01*
X27293Y5352389D01*
X40833Y5385077D01*
X60488Y5414494D01*
X85506Y5439512D01*
X114923Y5459167D01*
X147611Y5472707D01*
X182310Y5479609D01*
X7817690D01*
X7852389Y5472707D01*
D02*
G37*
%LPC*%
G36*
X4437079Y5437846D02*
Y5342830D01*
X4502765D01*
Y5367750D01*
X4500353Y5386065D01*
X4493284Y5403132D01*
X4482038Y5417788D01*
X4467382Y5429034D01*
X4450315Y5436104D01*
X4437079Y5437846D01*
D02*
G37*
G36*
X4426919D02*
X4413684Y5436104D01*
X4396617Y5429034D01*
X4381961Y5417788D01*
X4370715Y5403132D01*
X4363646Y5386065D01*
X4361234Y5367750D01*
Y5342830D01*
X4426919D01*
Y5437846D01*
D02*
G37*
G36*
X3573079D02*
Y5342830D01*
X3638765D01*
Y5367750D01*
X3636354Y5386065D01*
X3629284Y5403132D01*
X3618038Y5417788D01*
X3603382Y5429034D01*
X3586315Y5436104D01*
X3573079Y5437846D01*
D02*
G37*
G36*
X3562919D02*
X3549684Y5436104D01*
X3532617Y5429034D01*
X3517961Y5417788D01*
X3506715Y5403132D01*
X3499646Y5386065D01*
X3497235Y5367750D01*
Y5342830D01*
X3562919D01*
Y5437846D01*
D02*
G37*
G36*
X4426919Y5332670D02*
X4361234D01*
Y5307750D01*
X4363646Y5289434D01*
X4370715Y5272367D01*
X4381961Y5257711D01*
X4396617Y5246466D01*
X4413684Y5239396D01*
X4426919Y5237653D01*
Y5332670D01*
D02*
G37*
G36*
X3562919Y5332670D02*
X3497235D01*
Y5307750D01*
X3499646Y5289434D01*
X3506715Y5272367D01*
X3517961Y5257711D01*
X3532617Y5246466D01*
X3549684Y5239396D01*
X3562919Y5237653D01*
Y5332670D01*
D02*
G37*
G36*
X3638765D02*
X3573079D01*
Y5237653D01*
X3586315Y5239396D01*
X3603382Y5246466D01*
X3618038Y5257711D01*
X3629284Y5272367D01*
X3636354Y5289434D01*
X3638765Y5307750D01*
Y5332670D01*
D02*
G37*
G36*
X4502765Y5332670D02*
X4437079D01*
Y5237653D01*
X4450315Y5239396D01*
X4467382Y5246466D01*
X4482038Y5257711D01*
X4493284Y5272367D01*
X4500353Y5289434D01*
X4502765Y5307750D01*
Y5332670D01*
D02*
G37*
G36*
X4437079Y5035078D02*
Y4924830D01*
X4493338D01*
Y4974750D01*
X4488669Y4998223D01*
X4475372Y5018123D01*
X4455473Y5031419D01*
X4437079Y5035078D01*
D02*
G37*
G36*
X4426919Y5035078D02*
X4408526Y5031419D01*
X4388627Y5018123D01*
X4375330Y4998223D01*
X4370661Y4974750D01*
Y4924830D01*
X4426919D01*
Y5035078D01*
D02*
G37*
G36*
X3573080Y5035078D02*
Y4924830D01*
X3629338D01*
Y4974750D01*
X3624669Y4998223D01*
X3611373Y5018123D01*
X3591473Y5031419D01*
X3573080Y5035078D01*
D02*
G37*
G36*
X3562920D02*
X3544527Y5031419D01*
X3524627Y5018123D01*
X3511330Y4998223D01*
X3506661Y4974750D01*
Y4924830D01*
X3562920D01*
Y5035078D01*
D02*
G37*
G36*
X4300437Y5027250D02*
X4277562D01*
X4256428Y5018496D01*
X4240253Y5002321D01*
X4231500Y4981187D01*
Y4958312D01*
X4240253Y4937179D01*
X4256428Y4921004D01*
X4277562Y4912250D01*
X4300437D01*
X4321571Y4921004D01*
X4337746Y4937179D01*
X4346500Y4958312D01*
Y4981187D01*
X4337746Y5002321D01*
X4321571Y5018496D01*
X4300437Y5027250D01*
D02*
G37*
G36*
X3722437D02*
X3699562D01*
X3678429Y5018496D01*
X3662254Y5002321D01*
X3653500Y4981187D01*
Y4958312D01*
X3662254Y4937179D01*
X3678429Y4921004D01*
X3699562Y4912250D01*
X3722437D01*
X3743571Y4921004D01*
X3759746Y4937179D01*
X3768500Y4958312D01*
Y4981187D01*
X3759746Y5002321D01*
X3743571Y5018496D01*
X3722437Y5027250D01*
D02*
G37*
G36*
X4426919Y4914670D02*
X4370661D01*
Y4864750D01*
X4375330Y4841277D01*
X4388627Y4821377D01*
X4408526Y4808080D01*
X4426919Y4804422D01*
Y4914670D01*
D02*
G37*
G36*
X3629338Y4914670D02*
X3573080D01*
Y4804422D01*
X3591473Y4808080D01*
X3611373Y4821377D01*
X3624669Y4841277D01*
X3629338Y4864750D01*
Y4914670D01*
D02*
G37*
G36*
X3562920D02*
X3506661D01*
Y4864750D01*
X3511330Y4841277D01*
X3524627Y4821377D01*
X3544527Y4808080D01*
X3562920Y4804422D01*
Y4914670D01*
D02*
G37*
G36*
X4493338Y4914670D02*
X4437079D01*
Y4804422D01*
X4455473Y4808080D01*
X4475372Y4821377D01*
X4488669Y4841277D01*
X4493338Y4864750D01*
Y4914670D01*
D02*
G37*
G36*
X7711672Y4489660D02*
X7688328D01*
X7665779Y4483618D01*
X7645562Y4471946D01*
X7629054Y4455439D01*
X7617382Y4435222D01*
X7611340Y4412672D01*
Y4389328D01*
X7617382Y4366779D01*
X7629054Y4346562D01*
X7645562Y4330054D01*
X7665779Y4318382D01*
X7688328Y4312340D01*
X7711672D01*
X7734222Y4318382D01*
X7754439Y4330054D01*
X7770946Y4346562D01*
X7782618Y4366779D01*
X7788660Y4389328D01*
Y4412672D01*
X7782618Y4435222D01*
X7770946Y4455439D01*
X7754439Y4471946D01*
X7734222Y4483618D01*
X7711672Y4489660D01*
D02*
G37*
G36*
X1508951Y4345000D02*
X1491049D01*
X1474510Y4338149D01*
X1461851Y4325490D01*
X1455000Y4308951D01*
X1445000D01*
X1438149Y4325490D01*
X1425490Y4338149D01*
X1408951Y4345000D01*
X1391049D01*
X1374510Y4338149D01*
X1361851Y4325490D01*
X1355000Y4308951D01*
Y4291049D01*
X1361851Y4274510D01*
X1374510Y4261851D01*
X1377774Y4260499D01*
Y4249501D01*
X1374510Y4248149D01*
X1361851Y4235490D01*
X1355000Y4218951D01*
Y4201049D01*
X1361851Y4184510D01*
X1374510Y4171851D01*
X1377774Y4170499D01*
Y4159501D01*
X1374510Y4158149D01*
X1361851Y4145490D01*
X1355000Y4128951D01*
Y4111049D01*
X1361851Y4094509D01*
X1374510Y4081851D01*
X1391049Y4075000D01*
X1408951D01*
X1425490Y4081851D01*
X1438149Y4094509D01*
X1445000Y4111049D01*
X1455000D01*
X1461851Y4094509D01*
X1474510Y4081851D01*
X1491049Y4075000D01*
X1508951D01*
X1525490Y4081851D01*
X1538149Y4094509D01*
X1545000Y4111049D01*
X1555000D01*
X1561851Y4094509D01*
X1574510Y4081851D01*
X1591049Y4075000D01*
X1608951D01*
X1625491Y4081851D01*
X1638149Y4094509D01*
X1645000Y4111049D01*
X1655000D01*
X1661851Y4094509D01*
X1674509Y4081851D01*
X1691049Y4075000D01*
X1708951D01*
X1725490Y4081851D01*
X1738149Y4094509D01*
X1745000Y4111049D01*
Y4128951D01*
X1738149Y4145490D01*
X1725490Y4158149D01*
X1708951Y4165000D01*
X1691049D01*
X1674509Y4158149D01*
X1661851Y4145490D01*
X1655000Y4128951D01*
X1645000D01*
X1638149Y4145490D01*
X1625491Y4158149D01*
X1608951Y4165000D01*
X1591049D01*
X1574510Y4158149D01*
X1561851Y4145490D01*
X1555000Y4128951D01*
X1545000D01*
X1538149Y4145490D01*
X1525490Y4158149D01*
X1522226Y4159501D01*
Y4170499D01*
X1525490Y4171851D01*
X1538149Y4184510D01*
X1545000Y4201049D01*
Y4218951D01*
X1538149Y4235490D01*
X1525490Y4248149D01*
X1522226Y4249501D01*
Y4260499D01*
X1525490Y4261851D01*
X1538149Y4274510D01*
X1545000Y4291049D01*
Y4308951D01*
X1538149Y4325490D01*
X1525490Y4338149D01*
X1508951Y4345000D01*
D02*
G37*
G36*
X7711672Y4235660D02*
X7688328D01*
X7665779Y4229618D01*
X7645562Y4217946D01*
X7629054Y4201439D01*
X7617382Y4181222D01*
X7611340Y4158672D01*
Y4135328D01*
X7617382Y4112779D01*
X7629054Y4092562D01*
X7645562Y4076054D01*
X7665779Y4064382D01*
X7688328Y4058340D01*
X7711672D01*
X7734222Y4064382D01*
X7754439Y4076054D01*
X7770946Y4092562D01*
X7782618Y4112779D01*
X7788660Y4135328D01*
Y4158672D01*
X7782618Y4181222D01*
X7770946Y4201439D01*
X7754439Y4217946D01*
X7734222Y4229618D01*
X7711672Y4235660D01*
D02*
G37*
G36*
X3433951Y3945000D02*
X3416049D01*
X3399510Y3938149D01*
X3386851Y3925490D01*
X3380000Y3908951D01*
Y3891049D01*
X3386851Y3874510D01*
X3399510Y3861851D01*
X3416049Y3855000D01*
X3433951D01*
X3450490Y3861851D01*
X3463149Y3874510D01*
X3470000Y3891049D01*
Y3908951D01*
X3463149Y3925490D01*
X3450490Y3938149D01*
X3433951Y3945000D01*
D02*
G37*
G36*
X7711672Y3981660D02*
X7688328D01*
X7665779Y3975618D01*
X7645562Y3963946D01*
X7629054Y3947439D01*
X7617382Y3927222D01*
X7611340Y3904672D01*
Y3881328D01*
X7617382Y3858779D01*
X7629054Y3838562D01*
X7645562Y3822054D01*
X7665779Y3810382D01*
X7688328Y3804340D01*
X7711672D01*
X7734222Y3810382D01*
X7754439Y3822054D01*
X7770946Y3838562D01*
X7782618Y3858779D01*
X7788660Y3881328D01*
Y3904672D01*
X7782618Y3927222D01*
X7770946Y3947439D01*
X7754439Y3963946D01*
X7734222Y3975618D01*
X7711672Y3981660D01*
D02*
G37*
G36*
X5083951Y3695000D02*
X5066049D01*
X5049510Y3688149D01*
X5036851Y3675490D01*
X5030000Y3658951D01*
Y3641049D01*
X5036851Y3624510D01*
X5049510Y3611851D01*
X5066049Y3605000D01*
X5083951D01*
X5100490Y3611851D01*
X5113149Y3624510D01*
X5120000Y3641049D01*
Y3658951D01*
X5113149Y3675490D01*
X5100490Y3688149D01*
X5083951Y3695000D01*
D02*
G37*
G36*
X7408951Y3675000D02*
X7391049D01*
X7374510Y3668149D01*
X7361851Y3655491D01*
X7355000Y3638951D01*
Y3621049D01*
X7361851Y3604510D01*
X7374510Y3591851D01*
X7391049Y3585000D01*
X7408951D01*
X7425490Y3591851D01*
X7438149Y3604510D01*
X7445000Y3621049D01*
Y3638951D01*
X7438149Y3655491D01*
X7425490Y3668149D01*
X7408951Y3675000D01*
D02*
G37*
G36*
X7711672Y3727660D02*
X7688328D01*
X7665779Y3721618D01*
X7645562Y3709946D01*
X7629054Y3693439D01*
X7617382Y3673222D01*
X7611340Y3650672D01*
Y3627328D01*
X7617382Y3604779D01*
X7629054Y3584562D01*
X7645562Y3568054D01*
X7665779Y3556382D01*
X7688328Y3550340D01*
X7711672D01*
X7734222Y3556382D01*
X7754439Y3568054D01*
X7770946Y3584562D01*
X7782618Y3604779D01*
X7788660Y3627328D01*
Y3650672D01*
X7782618Y3673222D01*
X7770946Y3693439D01*
X7754439Y3709946D01*
X7734222Y3721618D01*
X7711672Y3727660D01*
D02*
G37*
G36*
X1068951Y3545000D02*
X1051049D01*
X1034509Y3538149D01*
X1021851Y3525491D01*
X1015000Y3508951D01*
X1005000D01*
X998149Y3525491D01*
X985491Y3538149D01*
X968951Y3545000D01*
X951049D01*
X934510Y3538149D01*
X921851Y3525491D01*
X915000Y3508951D01*
Y3491049D01*
X921851Y3474510D01*
X929723Y3466637D01*
X933466Y3460000D01*
X929723Y3453363D01*
X921851Y3445490D01*
X915000Y3428951D01*
Y3411049D01*
X921851Y3394510D01*
X929723Y3386638D01*
X933466Y3380000D01*
X929723Y3373363D01*
X921851Y3365491D01*
X915000Y3348951D01*
Y3331049D01*
X921851Y3314510D01*
X934510Y3301851D01*
X951049Y3295000D01*
X968951D01*
X985491Y3301851D01*
X998149Y3314510D01*
X1005000Y3331049D01*
X1015000D01*
X1021851Y3314510D01*
X1034509Y3301851D01*
X1051049Y3295000D01*
X1068951D01*
X1085490Y3301851D01*
X1098149Y3314510D01*
X1105000Y3331049D01*
Y3348951D01*
X1098149Y3365491D01*
X1090277Y3373363D01*
X1086534Y3380000D01*
X1090277Y3386638D01*
X1098149Y3394510D01*
X1105000Y3411049D01*
Y3428951D01*
X1098149Y3445490D01*
X1090277Y3453363D01*
X1086534Y3460000D01*
X1090277Y3466637D01*
X1098149Y3474510D01*
X1105000Y3491049D01*
Y3508951D01*
X1098149Y3525491D01*
X1085490Y3538149D01*
X1068951Y3545000D01*
D02*
G37*
G36*
X387660Y3472660D02*
X212340D01*
Y3297340D01*
X387660D01*
Y3472660D01*
D02*
G37*
G36*
X7711672Y3473660D02*
X7688328D01*
X7665779Y3467618D01*
X7645562Y3455946D01*
X7629054Y3439439D01*
X7617382Y3419222D01*
X7611340Y3396672D01*
Y3373328D01*
X7617382Y3350779D01*
X7629054Y3330562D01*
X7645562Y3314054D01*
X7665779Y3302382D01*
X7688328Y3296340D01*
X7711672D01*
X7734222Y3302382D01*
X7754439Y3314054D01*
X7770946Y3330562D01*
X7782618Y3350779D01*
X7788660Y3373328D01*
Y3396672D01*
X7782618Y3419222D01*
X7770946Y3439439D01*
X7754439Y3455946D01*
X7734222Y3467618D01*
X7711672Y3473660D01*
D02*
G37*
G36*
X5658951Y3285000D02*
X5641049D01*
X5624509Y3278149D01*
X5611851Y3265491D01*
X5605000Y3248951D01*
Y3231049D01*
X5611851Y3214510D01*
X5624509Y3201851D01*
X5641049Y3195000D01*
X5658951D01*
X5675490Y3201851D01*
X5688149Y3214510D01*
X5695000Y3231049D01*
Y3248951D01*
X5688149Y3265491D01*
X5675490Y3278149D01*
X5658951Y3285000D01*
D02*
G37*
G36*
X4348951Y3145000D02*
X4331049D01*
X4314510Y3138149D01*
X4301851Y3125490D01*
X4295000Y3108951D01*
Y3091049D01*
X4301851Y3074509D01*
X4314510Y3061851D01*
X4331049Y3055000D01*
X4348951D01*
X4365490Y3061851D01*
X4378149Y3074509D01*
X4385000Y3091049D01*
Y3108951D01*
X4378149Y3125490D01*
X4365490Y3138149D01*
X4348951Y3145000D01*
D02*
G37*
G36*
X311541Y3218660D02*
X288459D01*
X266164Y3212686D01*
X246176Y3201145D01*
X229855Y3184824D01*
X218314Y3164836D01*
X212340Y3142541D01*
Y3119459D01*
X218314Y3097164D01*
X229855Y3077176D01*
X246176Y3060855D01*
X266164Y3049314D01*
X288459Y3043340D01*
X311541D01*
X333836Y3049314D01*
X353824Y3060855D01*
X370145Y3077176D01*
X381686Y3097164D01*
X387660Y3119459D01*
Y3142541D01*
X381686Y3164836D01*
X370145Y3184824D01*
X353824Y3201145D01*
X333836Y3212686D01*
X311541Y3218660D01*
D02*
G37*
G36*
X7711672Y3219660D02*
X7688328D01*
X7665779Y3213618D01*
X7645562Y3201946D01*
X7629054Y3185439D01*
X7617382Y3165222D01*
X7611340Y3142672D01*
Y3119328D01*
X7617382Y3096779D01*
X7629054Y3076562D01*
X7645562Y3060054D01*
X7665779Y3048382D01*
X7688328Y3042340D01*
X7711672D01*
X7734222Y3048382D01*
X7754439Y3060054D01*
X7770946Y3076562D01*
X7782618Y3096779D01*
X7788660Y3119328D01*
Y3142672D01*
X7782618Y3165222D01*
X7770946Y3185439D01*
X7754439Y3201946D01*
X7734222Y3213618D01*
X7711672Y3219660D01*
D02*
G37*
G36*
X4858951Y2970000D02*
X4841049D01*
X4824510Y2963149D01*
X4811851Y2950490D01*
X4805000Y2933951D01*
Y2916049D01*
X4811851Y2899510D01*
X4824510Y2886851D01*
X4841049Y2880000D01*
X4858951D01*
X4875490Y2886851D01*
X4888149Y2899510D01*
X4895000Y2916049D01*
Y2933951D01*
X4888149Y2950490D01*
X4875490Y2963149D01*
X4858951Y2970000D01*
D02*
G37*
G36*
X311541Y2964660D02*
X288459D01*
X266164Y2958686D01*
X246176Y2947145D01*
X229855Y2930824D01*
X218314Y2910836D01*
X212340Y2888541D01*
Y2865459D01*
X218314Y2843164D01*
X229855Y2823176D01*
X246176Y2806855D01*
X266164Y2795314D01*
X288459Y2789340D01*
X311541D01*
X333836Y2795314D01*
X353824Y2806855D01*
X370145Y2823176D01*
X381686Y2843164D01*
X387660Y2865459D01*
Y2888541D01*
X381686Y2910836D01*
X370145Y2930824D01*
X353824Y2947145D01*
X333836Y2958686D01*
X311541Y2964660D01*
D02*
G37*
G36*
X7711672Y2965660D02*
X7688328D01*
X7665779Y2959618D01*
X7645562Y2947946D01*
X7629054Y2931439D01*
X7617382Y2911222D01*
X7611340Y2888672D01*
Y2865328D01*
X7617382Y2842779D01*
X7629054Y2822562D01*
X7645562Y2806054D01*
X7665779Y2794382D01*
X7688328Y2788340D01*
X7711672D01*
X7734222Y2794382D01*
X7754439Y2806054D01*
X7770946Y2822562D01*
X7782618Y2842779D01*
X7788660Y2865328D01*
Y2888672D01*
X7782618Y2911222D01*
X7770946Y2931439D01*
X7754439Y2947946D01*
X7734222Y2959618D01*
X7711672Y2965660D01*
D02*
G37*
G36*
X3133951Y2770000D02*
X3116049D01*
X3099510Y2763149D01*
X3086851Y2750490D01*
X3080000Y2733951D01*
Y2716049D01*
X3086851Y2699509D01*
X3099510Y2686851D01*
X3116049Y2680000D01*
X3133951D01*
X3150491Y2686851D01*
X3163149Y2699509D01*
X3170000Y2716049D01*
Y2733951D01*
X3163149Y2750490D01*
X3150491Y2763149D01*
X3133951Y2770000D01*
D02*
G37*
G36*
X1983951Y2695000D02*
X1966049D01*
X1949510Y2688149D01*
X1936851Y2675490D01*
X1930000Y2658951D01*
Y2641049D01*
X1936851Y2624510D01*
X1949510Y2611851D01*
X1966049Y2605000D01*
X1983951D01*
X2000491Y2611851D01*
X2013149Y2624510D01*
X2020000Y2641049D01*
Y2658951D01*
X2013149Y2675490D01*
X2000491Y2688149D01*
X1983951Y2695000D01*
D02*
G37*
G36*
X3503951Y2665000D02*
X3486049D01*
X3469510Y2658149D01*
X3456851Y2645491D01*
X3450000Y2628951D01*
Y2611049D01*
X3456851Y2594510D01*
X3469510Y2581851D01*
X3486049Y2575000D01*
X3503951D01*
X3520491Y2581851D01*
X3533149Y2594510D01*
X3540000Y2611049D01*
Y2628951D01*
X3533149Y2645491D01*
X3520491Y2658149D01*
X3503951Y2665000D01*
D02*
G37*
G36*
X311541Y2710660D02*
X288459D01*
X266164Y2704686D01*
X246176Y2693145D01*
X229855Y2676824D01*
X218314Y2656836D01*
X212340Y2634541D01*
Y2611459D01*
X218314Y2589164D01*
X229855Y2569176D01*
X246176Y2552855D01*
X266164Y2541314D01*
X288459Y2535340D01*
X311541D01*
X333836Y2541314D01*
X353824Y2552855D01*
X370145Y2569176D01*
X381686Y2589164D01*
X387660Y2611459D01*
Y2634541D01*
X381686Y2656836D01*
X370145Y2676824D01*
X353824Y2693145D01*
X333836Y2704686D01*
X311541Y2710660D01*
D02*
G37*
G36*
X7711672Y2711660D02*
X7688328D01*
X7665779Y2705618D01*
X7645562Y2693946D01*
X7629054Y2677439D01*
X7617382Y2657222D01*
X7611340Y2634672D01*
Y2611328D01*
X7617382Y2588779D01*
X7629054Y2568562D01*
X7645562Y2552054D01*
X7665779Y2540382D01*
X7688328Y2534340D01*
X7711672D01*
X7734222Y2540382D01*
X7754439Y2552054D01*
X7770946Y2568562D01*
X7782618Y2588779D01*
X7788660Y2611328D01*
Y2634672D01*
X7782618Y2657222D01*
X7770946Y2677439D01*
X7754439Y2693946D01*
X7734222Y2705618D01*
X7711672Y2711660D01*
D02*
G37*
G36*
X2771451Y2517500D02*
X2753549D01*
X2737010Y2510649D01*
X2724351Y2497990D01*
X2717500Y2481451D01*
Y2463549D01*
X2724351Y2447010D01*
X2737010Y2434351D01*
X2753549Y2427500D01*
X2771451D01*
X2787990Y2434351D01*
X2800649Y2447010D01*
X2807500Y2463549D01*
Y2481451D01*
X2800649Y2497990D01*
X2787990Y2510649D01*
X2771451Y2517500D01*
D02*
G37*
G36*
X311541Y2456660D02*
X288459D01*
X266164Y2450686D01*
X246176Y2439145D01*
X229855Y2422824D01*
X218314Y2402836D01*
X212340Y2380541D01*
Y2357459D01*
X218314Y2335164D01*
X229855Y2315176D01*
X246176Y2298855D01*
X266164Y2287314D01*
X288459Y2281340D01*
X311541D01*
X333836Y2287314D01*
X353824Y2298855D01*
X370145Y2315176D01*
X381686Y2335164D01*
X387660Y2357459D01*
Y2380541D01*
X381686Y2402836D01*
X370145Y2422824D01*
X353824Y2439145D01*
X333836Y2450686D01*
X311541Y2456660D01*
D02*
G37*
G36*
X7711672Y2457660D02*
X7688328D01*
X7665779Y2451618D01*
X7645562Y2439946D01*
X7629054Y2423439D01*
X7617382Y2403222D01*
X7611340Y2380672D01*
Y2357328D01*
X7617382Y2334779D01*
X7629054Y2314562D01*
X7645562Y2298054D01*
X7665779Y2286382D01*
X7688328Y2280340D01*
X7711672D01*
X7734222Y2286382D01*
X7754439Y2298054D01*
X7770946Y2314562D01*
X7782618Y2334779D01*
X7788660Y2357328D01*
Y2380672D01*
X7782618Y2403222D01*
X7770946Y2423439D01*
X7754439Y2439946D01*
X7734222Y2451618D01*
X7711672Y2457660D01*
D02*
G37*
G36*
X5858951Y2305000D02*
X5841049D01*
X5824510Y2298149D01*
X5811851Y2285490D01*
X5805000Y2268951D01*
Y2251049D01*
X5811851Y2234510D01*
X5824510Y2221851D01*
X5841049Y2215000D01*
X5858951D01*
X5875490Y2221851D01*
X5888149Y2234510D01*
X5895000Y2251049D01*
Y2268951D01*
X5888149Y2285490D01*
X5875490Y2298149D01*
X5858951Y2305000D01*
D02*
G37*
G36*
X2773951Y2295000D02*
X2756049D01*
X2739510Y2288149D01*
X2726851Y2275490D01*
X2720000Y2258951D01*
Y2241049D01*
X2726851Y2224510D01*
X2739510Y2211851D01*
X2756049Y2205000D01*
X2773951D01*
X2790490Y2211851D01*
X2803149Y2224510D01*
X2810000Y2241049D01*
Y2258951D01*
X2803149Y2275490D01*
X2790490Y2288149D01*
X2773951Y2295000D01*
D02*
G37*
G36*
X311541Y2202660D02*
X305080D01*
Y2120080D01*
X387660D01*
Y2126541D01*
X381686Y2148836D01*
X370145Y2168824D01*
X353824Y2185145D01*
X333836Y2196686D01*
X311541Y2202660D01*
D02*
G37*
G36*
X294920D02*
X288459D01*
X266164Y2196686D01*
X246176Y2185145D01*
X229855Y2168824D01*
X218314Y2148836D01*
X212340Y2126541D01*
Y2120080D01*
X294920D01*
Y2202660D01*
D02*
G37*
G36*
X4283951Y2185000D02*
X4266049D01*
X4249509Y2178149D01*
X4236851Y2165490D01*
X4230000Y2148951D01*
Y2131049D01*
X4236851Y2114510D01*
X4249509Y2101851D01*
X4266049Y2095000D01*
X4283951D01*
X4300490Y2101851D01*
X4313149Y2114510D01*
X4320000Y2131049D01*
Y2148951D01*
X4313149Y2165490D01*
X4300490Y2178149D01*
X4283951Y2185000D01*
D02*
G37*
G36*
X387660Y2109920D02*
X305080D01*
Y2027340D01*
X311541D01*
X333836Y2033314D01*
X353824Y2044855D01*
X370145Y2061176D01*
X381686Y2081164D01*
X387660Y2103459D01*
Y2109920D01*
D02*
G37*
G36*
X294920D02*
X212340D01*
Y2103459D01*
X218314Y2081164D01*
X229855Y2061176D01*
X246176Y2044855D01*
X266164Y2033314D01*
X288459Y2027340D01*
X294920D01*
Y2109920D01*
D02*
G37*
G36*
X7711672Y2203660D02*
X7688328D01*
X7665779Y2197618D01*
X7645562Y2185946D01*
X7629054Y2169439D01*
X7617382Y2149222D01*
X7611340Y2126672D01*
Y2103328D01*
X7617382Y2080779D01*
X7629054Y2060562D01*
X7645562Y2044054D01*
X7665779Y2032382D01*
X7688328Y2026340D01*
X7711672D01*
X7734222Y2032382D01*
X7754439Y2044054D01*
X7770946Y2060562D01*
X7782618Y2080779D01*
X7788660Y2103328D01*
Y2126672D01*
X7782618Y2149222D01*
X7770946Y2169439D01*
X7754439Y2185946D01*
X7734222Y2197618D01*
X7711672Y2203660D01*
D02*
G37*
G36*
X7261451Y1905000D02*
X7243549D01*
X7227010Y1898149D01*
X7214351Y1885491D01*
X7207500Y1868951D01*
Y1851049D01*
X7214351Y1834510D01*
X7227010Y1821851D01*
X7243549Y1815000D01*
X7261451D01*
X7277991Y1821851D01*
X7290649Y1834510D01*
X7297500Y1851049D01*
Y1868951D01*
X7290649Y1885491D01*
X7277991Y1898149D01*
X7261451Y1905000D01*
D02*
G37*
G36*
X7711672Y1949660D02*
X7688328D01*
X7665779Y1943618D01*
X7645562Y1931946D01*
X7629054Y1915439D01*
X7617382Y1895222D01*
X7611340Y1872672D01*
Y1849328D01*
X7617382Y1826779D01*
X7629054Y1806562D01*
X7645562Y1790054D01*
X7665779Y1778382D01*
X7688328Y1772340D01*
X7711672D01*
X7734222Y1778382D01*
X7754439Y1790054D01*
X7770946Y1806562D01*
X7782618Y1826779D01*
X7788660Y1849328D01*
Y1872672D01*
X7782618Y1895222D01*
X7770946Y1915439D01*
X7754439Y1931946D01*
X7734222Y1943618D01*
X7711672Y1949660D01*
D02*
G37*
G36*
Y1695660D02*
X7688328D01*
X7665779Y1689618D01*
X7645562Y1677946D01*
X7629054Y1661439D01*
X7617382Y1641222D01*
X7611340Y1618672D01*
Y1595328D01*
X7617382Y1572779D01*
X7629054Y1552562D01*
X7645562Y1536054D01*
X7665779Y1524382D01*
X7688328Y1518340D01*
X7711672D01*
X7734222Y1524382D01*
X7754439Y1536054D01*
X7770946Y1552562D01*
X7782618Y1572779D01*
X7788660Y1595328D01*
Y1618672D01*
X7782618Y1641222D01*
X7770946Y1661439D01*
X7754439Y1677946D01*
X7734222Y1689618D01*
X7711672Y1695660D01*
D02*
G37*
G36*
X5358951Y1570000D02*
X5341049D01*
X5324510Y1563149D01*
X5311851Y1550490D01*
X5305000Y1533951D01*
Y1516049D01*
X5311851Y1499510D01*
X5324510Y1486851D01*
X5341049Y1480000D01*
X5358951D01*
X5375490Y1486851D01*
X5388149Y1499510D01*
X5395000Y1516049D01*
Y1533951D01*
X5388149Y1550490D01*
X5375490Y1563149D01*
X5358951Y1570000D01*
D02*
G37*
G36*
X4408951D02*
X4391049D01*
X4374510Y1563149D01*
X4361851Y1550490D01*
X4355000Y1533951D01*
Y1516049D01*
X4361851Y1499510D01*
X4374510Y1486851D01*
X4391049Y1480000D01*
X4408951D01*
X4425491Y1486851D01*
X4438149Y1499510D01*
X4445000Y1516049D01*
Y1533951D01*
X4438149Y1550490D01*
X4425491Y1563149D01*
X4408951Y1570000D01*
D02*
G37*
G36*
X7711672Y1441660D02*
X7705080D01*
Y1358081D01*
X7788660D01*
Y1364672D01*
X7782618Y1387222D01*
X7770946Y1407439D01*
X7754439Y1423946D01*
X7734222Y1435618D01*
X7711672Y1441660D01*
D02*
G37*
G36*
X7694920D02*
X7688328D01*
X7665779Y1435618D01*
X7645562Y1423946D01*
X7629054Y1407439D01*
X7617382Y1387222D01*
X7611340Y1364672D01*
Y1358081D01*
X7694920D01*
Y1441660D01*
D02*
G37*
G36*
X7788660Y1347921D02*
X7705080D01*
Y1264340D01*
X7711672D01*
X7734222Y1270382D01*
X7754439Y1282054D01*
X7770946Y1298562D01*
X7782618Y1318779D01*
X7788660Y1341328D01*
Y1347921D01*
D02*
G37*
G36*
X7694920D02*
X7611340D01*
Y1341328D01*
X7617382Y1318779D01*
X7629054Y1298562D01*
X7645562Y1282054D01*
X7665779Y1270382D01*
X7688328Y1264340D01*
X7694920D01*
Y1347921D01*
D02*
G37*
G36*
X7788660Y1187660D02*
X7611340D01*
Y1010340D01*
X7788660D01*
Y1187660D01*
D02*
G37*
G36*
X5311451Y920000D02*
X5293549D01*
X5277010Y913149D01*
X5264351Y900490D01*
X5257500Y883951D01*
Y866049D01*
X5264351Y849510D01*
X5277010Y836851D01*
X5293549Y830000D01*
X5311451D01*
X5327990Y836851D01*
X5340649Y849510D01*
X5347500Y866049D01*
Y883951D01*
X5340649Y900490D01*
X5327990Y913149D01*
X5311451Y920000D01*
D02*
G37*
G36*
X4583951D02*
X4566049D01*
X4549510Y913149D01*
X4536851Y900490D01*
X4530000Y883951D01*
Y866049D01*
X4536851Y849510D01*
X4549510Y836851D01*
X4566049Y830000D01*
X4583951D01*
X4600490Y836851D01*
X4613149Y849510D01*
X4620000Y866049D01*
Y883951D01*
X4613149Y900490D01*
X4600490Y913149D01*
X4583951Y920000D01*
D02*
G37*
G36*
X4333951D02*
X4316049D01*
X4299510Y913149D01*
X4286851Y900490D01*
X4280000Y883951D01*
Y866049D01*
X4286851Y849510D01*
X4299510Y836851D01*
X4316049Y830000D01*
X4333951D01*
X4350490Y836851D01*
X4363149Y849510D01*
X4370000Y866049D01*
Y883951D01*
X4363149Y900490D01*
X4350490Y913149D01*
X4333951Y920000D01*
D02*
G37*
G36*
X3608951D02*
X3591049D01*
X3574509Y913149D01*
X3561851Y900490D01*
X3555000Y883951D01*
Y866049D01*
X3561851Y849510D01*
X3574509Y836851D01*
X3591049Y830000D01*
X3608951D01*
X3625490Y836851D01*
X3638149Y849510D01*
X3645000Y866049D01*
Y883951D01*
X3638149Y900490D01*
X3625490Y913149D01*
X3608951Y920000D01*
D02*
G37*
G36*
X2483951Y845000D02*
X2466049D01*
X2449509Y838149D01*
X2438474Y827113D01*
X2432500Y826174D01*
X2426526Y827113D01*
X2415490Y838149D01*
X2398951Y845000D01*
X2381049D01*
X2364510Y838149D01*
X2351851Y825490D01*
X2345000Y808951D01*
Y791049D01*
X2351851Y774510D01*
X2364510Y761851D01*
X2381049Y755000D01*
Y745000D01*
X2364510Y738149D01*
X2351851Y725491D01*
X2345000Y708951D01*
Y691049D01*
X2351851Y674510D01*
X2364510Y661851D01*
X2381049Y655000D01*
X2398951D01*
X2415490Y661851D01*
X2426526Y672887D01*
X2432500Y673826D01*
X2438474Y672887D01*
X2449509Y661851D01*
X2466049Y655000D01*
X2483951D01*
X2500490Y661851D01*
X2513149Y674510D01*
X2520000Y691049D01*
Y708951D01*
X2513149Y725491D01*
X2500490Y738149D01*
X2483951Y745000D01*
Y755000D01*
X2500490Y761851D01*
X2513149Y774510D01*
X2520000Y791049D01*
Y808951D01*
X2513149Y825490D01*
X2500490Y838149D01*
X2483951Y845000D01*
D02*
G37*
G36*
X5738951Y895000D02*
X5721049D01*
X5704509Y888149D01*
X5691851Y875490D01*
X5685000Y858951D01*
Y841049D01*
X5691851Y824509D01*
X5704509Y811851D01*
X5721049Y805000D01*
X5738951D01*
X5755490Y811851D01*
X5768149Y824509D01*
X5775000Y841049D01*
Y858951D01*
X5768149Y875490D01*
X5755490Y888149D01*
X5738951Y895000D01*
D02*
G37*
G36*
X1583951Y770000D02*
X1566049D01*
X1549509Y763149D01*
X1536851Y750490D01*
X1530000Y733951D01*
Y716049D01*
X1536851Y699510D01*
X1549509Y686851D01*
X1566049Y680000D01*
X1583951D01*
X1600490Y686851D01*
X1613149Y699510D01*
X1620000Y716049D01*
Y733951D01*
X1613149Y750490D01*
X1600490Y763149D01*
X1583951Y770000D01*
D02*
G37*
G36*
X2958951Y675000D02*
X2941049D01*
X2924510Y668149D01*
X2911851Y655490D01*
X2905000Y638951D01*
X2895000D01*
X2888149Y655490D01*
X2875490Y668149D01*
X2858951Y675000D01*
X2841049D01*
X2824509Y668149D01*
X2811851Y655490D01*
X2805000Y638951D01*
Y621049D01*
X2811851Y604510D01*
X2819723Y596637D01*
X2823466Y590000D01*
X2819723Y583363D01*
X2811851Y575490D01*
X2805000Y558951D01*
Y541049D01*
X2811851Y524509D01*
X2824509Y511851D01*
X2841049Y505000D01*
X2858951D01*
X2875490Y511851D01*
X2888149Y524509D01*
X2895000Y541049D01*
X2905000D01*
X2911851Y524509D01*
X2924510Y511851D01*
X2941049Y505000D01*
X2958951D01*
X2975490Y511851D01*
X2988149Y524509D01*
X2995000Y541049D01*
Y558951D01*
X2988149Y575490D01*
X2980277Y583363D01*
X2976534Y590000D01*
X2980277Y596637D01*
X2988149Y604510D01*
X2995000Y621049D01*
Y638951D01*
X2988149Y655490D01*
X2975490Y668149D01*
X2958951Y675000D01*
D02*
G37*
G36*
X5789870Y390160D02*
X5783080D01*
Y305080D01*
X5868160D01*
Y311870D01*
X5862015Y334800D01*
X5850146Y355359D01*
X5833359Y372146D01*
X5812800Y384015D01*
X5789870Y390160D01*
D02*
G37*
G36*
X5772920D02*
X5766130D01*
X5743200Y384015D01*
X5722640Y372146D01*
X5705854Y355359D01*
X5693984Y334800D01*
X5687840Y311870D01*
Y305080D01*
X5772920D01*
Y390160D01*
D02*
G37*
G36*
X5027870D02*
X5021080D01*
Y305080D01*
X5106160D01*
Y311870D01*
X5100015Y334800D01*
X5088146Y355359D01*
X5071359Y372146D01*
X5050800Y384015D01*
X5027870Y390160D01*
D02*
G37*
G36*
X5010920D02*
X5004130D01*
X4981200Y384015D01*
X4960640Y372146D01*
X4943854Y355359D01*
X4931984Y334800D01*
X4925840Y311870D01*
Y305080D01*
X5010920D01*
Y390160D01*
D02*
G37*
G36*
X4519870D02*
X4513080D01*
Y305080D01*
X4598160D01*
Y311870D01*
X4592015Y334800D01*
X4580146Y355359D01*
X4563359Y372146D01*
X4542800Y384015D01*
X4519870Y390160D01*
D02*
G37*
G36*
X4502920D02*
X4496130D01*
X4473200Y384015D01*
X4452640Y372146D01*
X4435854Y355359D01*
X4423984Y334800D01*
X4417840Y311870D01*
Y305080D01*
X4502920D01*
Y390160D01*
D02*
G37*
G36*
X3757870D02*
X3751080D01*
Y305080D01*
X3836160D01*
Y311870D01*
X3830015Y334800D01*
X3818146Y355359D01*
X3801359Y372146D01*
X3780800Y384015D01*
X3757870Y390160D01*
D02*
G37*
G36*
X3740920D02*
X3734130D01*
X3711200Y384015D01*
X3690640Y372146D01*
X3673854Y355359D01*
X3661984Y334800D01*
X3655840Y311870D01*
Y305080D01*
X3740920D01*
Y390160D01*
D02*
G37*
G36*
X2995870D02*
X2989080D01*
Y305080D01*
X3074160D01*
Y311870D01*
X3068015Y334800D01*
X3056146Y355359D01*
X3039359Y372146D01*
X3018800Y384015D01*
X2995870Y390160D01*
D02*
G37*
G36*
X2978920D02*
X2972130D01*
X2949200Y384015D01*
X2928640Y372146D01*
X2911854Y355359D01*
X2899984Y334800D01*
X2893840Y311870D01*
Y305080D01*
X2978920D01*
Y390160D01*
D02*
G37*
G36*
X5868160Y294920D02*
X5783080D01*
Y209840D01*
X5789870D01*
X5812800Y215984D01*
X5833359Y227854D01*
X5850146Y244640D01*
X5862015Y265200D01*
X5868160Y288130D01*
Y294920D01*
D02*
G37*
G36*
X5772920D02*
X5687840D01*
Y288130D01*
X5693984Y265200D01*
X5705854Y244640D01*
X5722640Y227854D01*
X5743200Y215984D01*
X5766130Y209840D01*
X5772920D01*
Y294920D01*
D02*
G37*
G36*
X5535870Y390160D02*
X5512130D01*
X5489200Y384015D01*
X5468640Y372146D01*
X5451854Y355359D01*
X5439984Y334800D01*
X5433840Y311870D01*
Y288130D01*
X5439984Y265200D01*
X5451854Y244640D01*
X5468640Y227854D01*
X5489200Y215984D01*
X5512130Y209840D01*
X5535870D01*
X5558800Y215984D01*
X5579359Y227854D01*
X5596146Y244640D01*
X5608015Y265200D01*
X5614160Y288130D01*
Y311870D01*
X5608015Y334800D01*
X5596146Y355359D01*
X5579359Y372146D01*
X5558800Y384015D01*
X5535870Y390160D01*
D02*
G37*
G36*
X5281870D02*
X5258130D01*
X5235200Y384015D01*
X5214640Y372146D01*
X5197854Y355359D01*
X5185984Y334800D01*
X5179840Y311870D01*
Y288130D01*
X5185984Y265200D01*
X5197854Y244640D01*
X5214640Y227854D01*
X5235200Y215984D01*
X5258130Y209840D01*
X5281870D01*
X5304800Y215984D01*
X5325359Y227854D01*
X5342146Y244640D01*
X5354015Y265200D01*
X5360160Y288130D01*
Y311870D01*
X5354015Y334800D01*
X5342146Y355359D01*
X5325359Y372146D01*
X5304800Y384015D01*
X5281870Y390160D01*
D02*
G37*
G36*
X5106160Y294920D02*
X5021080D01*
Y209840D01*
X5027870D01*
X5050800Y215984D01*
X5071359Y227854D01*
X5088146Y244640D01*
X5100015Y265200D01*
X5106160Y288130D01*
Y294920D01*
D02*
G37*
G36*
X5010920D02*
X4925840D01*
Y288130D01*
X4931984Y265200D01*
X4943854Y244640D01*
X4960640Y227854D01*
X4981200Y215984D01*
X5004130Y209840D01*
X5010920D01*
Y294920D01*
D02*
G37*
G36*
X4773870Y390160D02*
X4750130D01*
X4727200Y384015D01*
X4706640Y372146D01*
X4689854Y355359D01*
X4677984Y334800D01*
X4671840Y311870D01*
Y288130D01*
X4677984Y265200D01*
X4689854Y244640D01*
X4706640Y227854D01*
X4727200Y215984D01*
X4750130Y209840D01*
X4773870D01*
X4796800Y215984D01*
X4817359Y227854D01*
X4834146Y244640D01*
X4846015Y265200D01*
X4852160Y288130D01*
Y311870D01*
X4846015Y334800D01*
X4834146Y355359D01*
X4817359Y372146D01*
X4796800Y384015D01*
X4773870Y390160D01*
D02*
G37*
G36*
X4598160Y294920D02*
X4513080D01*
Y209840D01*
X4519870D01*
X4542800Y215984D01*
X4563359Y227854D01*
X4580146Y244640D01*
X4592015Y265200D01*
X4598160Y288130D01*
Y294920D01*
D02*
G37*
G36*
X4502920D02*
X4417840D01*
Y288130D01*
X4423984Y265200D01*
X4435854Y244640D01*
X4452640Y227854D01*
X4473200Y215984D01*
X4496130Y209840D01*
X4502920D01*
Y294920D01*
D02*
G37*
G36*
X4265870Y390160D02*
X4242130D01*
X4219200Y384015D01*
X4198640Y372146D01*
X4181854Y355359D01*
X4169984Y334800D01*
X4163840Y311870D01*
Y288130D01*
X4169984Y265200D01*
X4181854Y244640D01*
X4198640Y227854D01*
X4219200Y215984D01*
X4242130Y209840D01*
X4265870D01*
X4288800Y215984D01*
X4309359Y227854D01*
X4326146Y244640D01*
X4338015Y265200D01*
X4344160Y288130D01*
Y311870D01*
X4338015Y334800D01*
X4326146Y355359D01*
X4309359Y372146D01*
X4288800Y384015D01*
X4265870Y390160D01*
D02*
G37*
G36*
X4011870D02*
X3988130D01*
X3965200Y384015D01*
X3944640Y372146D01*
X3927854Y355359D01*
X3915984Y334800D01*
X3909840Y311870D01*
Y288130D01*
X3915984Y265200D01*
X3927854Y244640D01*
X3944640Y227854D01*
X3965200Y215984D01*
X3988130Y209840D01*
X4011870D01*
X4034800Y215984D01*
X4055359Y227854D01*
X4072146Y244640D01*
X4084015Y265200D01*
X4090160Y288130D01*
Y311870D01*
X4084015Y334800D01*
X4072146Y355359D01*
X4055359Y372146D01*
X4034800Y384015D01*
X4011870Y390160D01*
D02*
G37*
G36*
X3836160Y294920D02*
X3751080D01*
Y209840D01*
X3757870D01*
X3780800Y215984D01*
X3801359Y227854D01*
X3818146Y244640D01*
X3830015Y265200D01*
X3836160Y288130D01*
Y294920D01*
D02*
G37*
G36*
X3740920D02*
X3655840D01*
Y288130D01*
X3661984Y265200D01*
X3673854Y244640D01*
X3690640Y227854D01*
X3711200Y215984D01*
X3734130Y209840D01*
X3740920D01*
Y294920D01*
D02*
G37*
G36*
X3503870Y390160D02*
X3480130D01*
X3457200Y384015D01*
X3436640Y372146D01*
X3419854Y355359D01*
X3407984Y334800D01*
X3401840Y311870D01*
Y288130D01*
X3407984Y265200D01*
X3419854Y244640D01*
X3436640Y227854D01*
X3457200Y215984D01*
X3480130Y209840D01*
X3503870D01*
X3526800Y215984D01*
X3547359Y227854D01*
X3564146Y244640D01*
X3576015Y265200D01*
X3582160Y288130D01*
Y311870D01*
X3576015Y334800D01*
X3564146Y355359D01*
X3547359Y372146D01*
X3526800Y384015D01*
X3503870Y390160D01*
D02*
G37*
G36*
X3249870D02*
X3226130D01*
X3203200Y384015D01*
X3182640Y372146D01*
X3165854Y355359D01*
X3153984Y334800D01*
X3147840Y311870D01*
Y288130D01*
X3153984Y265200D01*
X3165854Y244640D01*
X3182640Y227854D01*
X3203200Y215984D01*
X3226130Y209840D01*
X3249870D01*
X3272800Y215984D01*
X3293359Y227854D01*
X3310146Y244640D01*
X3322015Y265200D01*
X3328160Y288130D01*
Y311870D01*
X3322015Y334800D01*
X3310146Y355359D01*
X3293359Y372146D01*
X3272800Y384015D01*
X3249870Y390160D01*
D02*
G37*
G36*
X3074160Y294920D02*
X2989080D01*
Y209840D01*
X2995870D01*
X3018800Y215984D01*
X3039359Y227854D01*
X3056146Y244640D01*
X3068015Y265200D01*
X3074160Y288130D01*
Y294920D01*
D02*
G37*
G36*
X2978920D02*
X2893840D01*
Y288130D01*
X2899984Y265200D01*
X2911854Y244640D01*
X2928640Y227854D01*
X2949200Y215984D01*
X2972130Y209840D01*
X2978920D01*
Y294920D01*
D02*
G37*
G36*
X2741870Y390160D02*
X2718130D01*
X2695200Y384015D01*
X2674640Y372146D01*
X2657854Y355359D01*
X2645984Y334800D01*
X2639840Y311870D01*
Y288130D01*
X2645984Y265200D01*
X2657854Y244640D01*
X2674640Y227854D01*
X2695200Y215984D01*
X2718130Y209840D01*
X2741870D01*
X2764800Y215984D01*
X2785359Y227854D01*
X2802146Y244640D01*
X2814015Y265200D01*
X2820160Y288130D01*
Y311870D01*
X2814015Y334800D01*
X2802146Y355359D01*
X2785359Y372146D01*
X2764800Y384015D01*
X2741870Y390160D01*
D02*
G37*
G36*
X2487870D02*
X2464130D01*
X2441200Y384015D01*
X2420640Y372146D01*
X2403854Y355359D01*
X2391984Y334800D01*
X2385840Y311870D01*
Y288130D01*
X2391984Y265200D01*
X2403854Y244640D01*
X2420640Y227854D01*
X2441200Y215984D01*
X2464130Y209840D01*
X2487870D01*
X2510800Y215984D01*
X2531359Y227854D01*
X2548146Y244640D01*
X2560015Y265200D01*
X2566160Y288130D01*
Y311870D01*
X2560015Y334800D01*
X2548146Y355359D01*
X2531359Y372146D01*
X2510800Y384015D01*
X2487870Y390160D01*
D02*
G37*
G36*
X2262000Y391142D02*
X2182000D01*
X2162428Y387249D01*
X2145837Y376163D01*
X2134750Y359571D01*
X2130857Y340000D01*
Y260000D01*
X2134750Y240429D01*
X2145837Y223837D01*
X2162428Y212750D01*
X2182000Y208857D01*
X2262000D01*
X2281571Y212750D01*
X2298163Y223837D01*
X2309249Y240429D01*
X2313142Y260000D01*
Y340000D01*
X2309249Y359571D01*
X2298163Y376163D01*
X2281571Y387249D01*
X2262000Y391142D01*
D02*
G37*
%LPD*%
D38*
X7700000Y4401000D02*
D03*
Y4147000D02*
D03*
Y3893000D02*
D03*
Y3639000D02*
D03*
Y3385000D02*
D03*
Y3131000D02*
D03*
Y2877000D02*
D03*
Y2623000D02*
D03*
Y2369000D02*
D03*
Y2115000D02*
D03*
Y1861000D02*
D03*
Y1607000D02*
D03*
Y1353000D02*
D03*
D39*
Y1099000D02*
D03*
D40*
X300000Y2369000D02*
D03*
Y2623000D02*
D03*
Y2877000D02*
D03*
Y3131000D02*
D03*
Y2115000D02*
D03*
D41*
Y3385000D02*
D03*
D42*
X5524000Y300000D02*
D03*
X5270000D02*
D03*
X4254000D02*
D03*
X3492000D02*
D03*
X2476000D02*
D03*
X2730000D02*
D03*
X3238000D02*
D03*
X4000000D02*
D03*
X4762000D02*
D03*
X5016000D02*
D03*
X4508000D02*
D03*
X3746000D02*
D03*
X2984000D02*
D03*
X5778000D02*
D03*
D43*
X2222000D02*
D03*
D44*
X3568000Y4919750D02*
D03*
X4432000D02*
D03*
D45*
Y5337750D02*
D03*
X3568000D02*
D03*
D46*
X7640000Y5140000D02*
D03*
Y360000D02*
D03*
X360000D02*
D03*
Y5140000D02*
D03*
D47*
X4289000Y4969750D02*
D03*
X3711000D02*
D03*
D48*
X7869996Y4759997D02*
D03*
Y4159997D02*
D03*
Y3559997D02*
D03*
Y1759998D02*
D03*
Y1159998D02*
D03*
X7719996Y859998D02*
D03*
X7569996Y4759997D02*
D03*
X7419996Y4459997D02*
D03*
X7569996Y4159997D02*
D03*
X7419996Y3859997D02*
D03*
X7569996Y3559997D02*
D03*
X7419996Y3259998D02*
D03*
X7569996Y2359998D02*
D03*
X7419996Y1459998D02*
D03*
Y859998D02*
D03*
X7119996Y5059997D02*
D03*
X7269996Y4759997D02*
D03*
X7119996Y4459997D02*
D03*
X7269996Y4159997D02*
D03*
Y3559997D02*
D03*
Y2959998D02*
D03*
X7119996Y2659998D02*
D03*
Y2059998D02*
D03*
X7269996Y1759998D02*
D03*
X7119996Y1459998D02*
D03*
Y859998D02*
D03*
X7269996Y559998D02*
D03*
X7119996Y259998D02*
D03*
X6819996Y5059997D02*
D03*
X6969996Y4759997D02*
D03*
X6819996Y4459997D02*
D03*
X6969996Y4159997D02*
D03*
X6819996Y2659998D02*
D03*
X6969996Y2359998D02*
D03*
X6819996Y2059998D02*
D03*
X6969996Y1759998D02*
D03*
Y1159998D02*
D03*
X6819996Y859998D02*
D03*
X6969996Y559998D02*
D03*
X6819996Y259998D02*
D03*
X6519996Y5059997D02*
D03*
X6669996Y4759997D02*
D03*
Y4159997D02*
D03*
Y3559997D02*
D03*
X6519996Y2659998D02*
D03*
Y2059998D02*
D03*
X6669996Y1759998D02*
D03*
X6519996Y1459998D02*
D03*
X6669996Y1159998D02*
D03*
X6519996Y859998D02*
D03*
X6669996Y559998D02*
D03*
X6519996Y259998D02*
D03*
X6219996Y5059997D02*
D03*
X6369996Y4759997D02*
D03*
Y4159997D02*
D03*
X6219996Y3859997D02*
D03*
X5919997Y5059997D02*
D03*
X6069996Y4759997D02*
D03*
Y4159997D02*
D03*
X5919997Y3259998D02*
D03*
Y2659998D02*
D03*
Y1459998D02*
D03*
Y259998D02*
D03*
X5619997Y5059997D02*
D03*
X5769997Y4759997D02*
D03*
Y4159997D02*
D03*
Y3559997D02*
D03*
Y2959998D02*
D03*
Y1759998D02*
D03*
Y559998D02*
D03*
X5319997Y5059997D02*
D03*
X5469997Y4759997D02*
D03*
Y4159997D02*
D03*
Y3559997D02*
D03*
X5319997Y2659998D02*
D03*
X5469997Y2359998D02*
D03*
X5319997Y2059998D02*
D03*
X5469997Y1759998D02*
D03*
Y559998D02*
D03*
X5019997Y5059997D02*
D03*
X5169997Y4759997D02*
D03*
Y4159997D02*
D03*
Y2359998D02*
D03*
X5019997Y2059998D02*
D03*
X4719997Y5059997D02*
D03*
X4869997Y4759997D02*
D03*
Y4159997D02*
D03*
X4719997Y2659998D02*
D03*
X4869997Y2359998D02*
D03*
Y1159998D02*
D03*
X4419997Y4459997D02*
D03*
Y3259998D02*
D03*
X4569997Y1759998D02*
D03*
X4419997Y859998D02*
D03*
X4569997Y559998D02*
D03*
X4119997Y3259998D02*
D03*
X4269997Y2959998D02*
D03*
X4119997Y2059998D02*
D03*
X4269997Y559998D02*
D03*
X3819997Y4459997D02*
D03*
X3969997Y3559997D02*
D03*
X3819997Y3259998D02*
D03*
X3969997Y2959998D02*
D03*
Y1159998D02*
D03*
X3669997Y4159997D02*
D03*
Y2959998D02*
D03*
Y1759998D02*
D03*
X3519997Y1459998D02*
D03*
X3669997Y559998D02*
D03*
X3219997Y5059997D02*
D03*
X3369997Y4159997D02*
D03*
X3219997Y3859997D02*
D03*
Y2059998D02*
D03*
X3369997Y1759998D02*
D03*
X3219997Y1459998D02*
D03*
X3369997Y559998D02*
D03*
X2919997Y5059997D02*
D03*
Y3859997D02*
D03*
X3069997Y2359998D02*
D03*
X2919997Y2059998D02*
D03*
X3069997Y1759998D02*
D03*
X2919997Y1459998D02*
D03*
X3069997Y1159998D02*
D03*
X2619998Y5059997D02*
D03*
Y3859997D02*
D03*
X2769998Y1759998D02*
D03*
X2619998Y1459998D02*
D03*
X2769998Y1159998D02*
D03*
X2319998Y5059997D02*
D03*
X2469998Y4759997D02*
D03*
X2319998Y3859997D02*
D03*
Y2059998D02*
D03*
X2469998Y1759998D02*
D03*
X2319998Y1459998D02*
D03*
X2469998Y1159998D02*
D03*
Y559998D02*
D03*
X2019998Y5059997D02*
D03*
X2169998Y4759997D02*
D03*
Y1159998D02*
D03*
X2019998Y859998D02*
D03*
X2169998Y559998D02*
D03*
X1719998Y5059997D02*
D03*
X1869998Y4759997D02*
D03*
X1719998Y3259998D02*
D03*
Y2659998D02*
D03*
Y2059998D02*
D03*
X1869998Y1759998D02*
D03*
Y1159998D02*
D03*
Y559998D02*
D03*
X1419998Y5059997D02*
D03*
Y3259998D02*
D03*
X1569998Y2959998D02*
D03*
X1419998Y2059998D02*
D03*
X1569998Y1759998D02*
D03*
X1419998Y1459998D02*
D03*
X1569998Y1159998D02*
D03*
X1419998Y859998D02*
D03*
X1569998Y559998D02*
D03*
X1119998Y5059997D02*
D03*
Y4459997D02*
D03*
X1269998Y4159997D02*
D03*
Y1759998D02*
D03*
Y1159998D02*
D03*
X1119998Y859998D02*
D03*
X819998Y5059997D02*
D03*
X969998Y4759997D02*
D03*
X819998Y4459997D02*
D03*
X969998Y4159997D02*
D03*
X819998Y3859997D02*
D03*
Y3259998D02*
D03*
X969998Y1759998D02*
D03*
X819998Y259998D02*
D03*
X669998Y4759997D02*
D03*
X519998Y4459997D02*
D03*
X669998Y4159997D02*
D03*
X519998Y3859997D02*
D03*
X669998Y3559997D02*
D03*
X519998Y3259998D02*
D03*
X669998Y2959998D02*
D03*
Y1759998D02*
D03*
X519998Y1459998D02*
D03*
X669998Y1159998D02*
D03*
X519998Y859998D02*
D03*
X669998Y559998D02*
D03*
X369998Y4759997D02*
D03*
X219998Y4459997D02*
D03*
X369998Y4159997D02*
D03*
X219998Y3859997D02*
D03*
X369998Y3559997D02*
D03*
X219998Y1459998D02*
D03*
X369998Y1159998D02*
D03*
X219998Y859998D02*
D03*
X2850000Y2470000D02*
D03*
Y2250000D02*
D03*
X5687500Y3162500D02*
D03*
X3125000Y2725000D02*
D03*
X5075000Y3650000D02*
D03*
X4850000Y2925000D02*
D03*
X3425000Y3900000D02*
D03*
X1975000Y2650000D02*
D03*
X1575000Y725000D02*
D03*
X2475000Y800000D02*
D03*
Y700000D02*
D03*
X3495000Y2620000D02*
D03*
X2390000Y800000D02*
D03*
Y700000D02*
D03*
X1600000Y4120000D02*
D03*
X1500000D02*
D03*
X1400000D02*
D03*
X1700000D02*
D03*
X1500000Y4210000D02*
D03*
X1400000D02*
D03*
Y4300000D02*
D03*
X1500000D02*
D03*
X4400000Y1525000D02*
D03*
X5350000D02*
D03*
X4275000Y2140000D02*
D03*
X5730000Y850000D02*
D03*
X5850000Y2260000D02*
D03*
X2850000Y630000D02*
D03*
X2950000D02*
D03*
X2850000Y550000D02*
D03*
X2950000D02*
D03*
X960000Y3500000D02*
D03*
X1060000D02*
D03*
Y3340000D02*
D03*
X960000D02*
D03*
Y3420000D02*
D03*
X1060000D02*
D03*
X2765000Y2250000D02*
D03*
X2762500Y2472500D02*
D03*
X3460000Y1120000D02*
D03*
X5950000Y2510000D02*
D03*
X5850000Y2600000D02*
D03*
X7802635Y4977365D02*
D03*
X7640000Y4910000D02*
D03*
X7477365Y4977365D02*
D03*
X7410000Y5140000D02*
D03*
X7477365Y5302635D02*
D03*
X7640000Y5370000D02*
D03*
X7802635Y5302635D02*
D03*
X7870000Y5140000D02*
D03*
X7802635Y197365D02*
D03*
X7640000Y130000D02*
D03*
X7477365Y197365D02*
D03*
X7410000Y360000D02*
D03*
X7477365Y522635D02*
D03*
X7640000Y590000D02*
D03*
X7802635Y522635D02*
D03*
X7870000Y360000D02*
D03*
X522635Y197365D02*
D03*
X360000Y130000D02*
D03*
X197365Y197365D02*
D03*
X130000Y360000D02*
D03*
X197365Y522635D02*
D03*
X360000Y590000D02*
D03*
X522635Y522635D02*
D03*
X590000Y360000D02*
D03*
X360000Y5370000D02*
D03*
X522635Y5302635D02*
D03*
X590000Y5140000D02*
D03*
X522635Y4977365D02*
D03*
X360000Y4910000D02*
D03*
X197365Y4977365D02*
D03*
X130000Y5140000D02*
D03*
X197365Y5302635D02*
D03*
X3550000Y2825000D02*
D03*
X2370000Y4540000D02*
D03*
X3370000Y4730000D02*
D03*
X3500000Y4620000D02*
D03*
X2850000D02*
D03*
X2970000Y4730000D02*
D03*
X2260000Y4540000D02*
D03*
X2370000Y4450000D02*
D03*
X1400000Y4480000D02*
D03*
X1500000D02*
D03*
X1400000Y4570000D02*
D03*
X1500000D02*
D03*
X1400000Y4660000D02*
D03*
X1500000D02*
D03*
X1600000D02*
D03*
X1700000D02*
D03*
X2000000Y4380000D02*
D03*
X4980000Y3320000D02*
D03*
X5060000Y3470000D02*
D03*
Y3380000D02*
D03*
X4890000Y3320000D02*
D03*
X4600000Y4840000D02*
D03*
X3400000Y4850000D02*
D03*
X3680000Y4750000D02*
D03*
X4320000D02*
D03*
X4125000Y2140000D02*
D03*
X2850000Y1100000D02*
D03*
X2950000D02*
D03*
X2450000Y4900000D02*
D03*
X4450000Y3475000D02*
D03*
Y2825000D02*
D03*
X4175000Y2700000D02*
D03*
X3100000Y4625000D02*
D03*
X3250000D02*
D03*
X2150000Y4622500D02*
D03*
X4850000Y2775000D02*
D03*
X3420000Y2370000D02*
D03*
X3410000Y2210000D02*
D03*
X3890000Y2010000D02*
D03*
X3630000Y1850000D02*
D03*
X4320000D02*
D03*
X5270000D02*
D03*
X4580000D02*
D03*
X4400000Y1180000D02*
D03*
X1425000Y1050000D02*
D03*
X1275000D02*
D03*
X1150000Y275000D02*
D03*
Y725000D02*
D03*
X4000000Y4600000D02*
D03*
X5580000Y1120000D02*
D03*
X5430000D02*
D03*
X3320000D02*
D03*
X5410000Y2660000D02*
D03*
X5080000Y2230000D02*
D03*
X5490000Y2800000D02*
D03*
X3925000Y2260000D02*
D03*
X5350000Y1180000D02*
D03*
X4520000Y1040000D02*
D03*
X3570000D02*
D03*
X3245000Y2520000D02*
D03*
X3700000Y4000000D02*
D03*
X3150000Y2875000D02*
D03*
X4850000Y3200000D02*
D03*
X3500000Y4730000D02*
D03*
X2850000D02*
D03*
X3100000D02*
D03*
X3250000D02*
D03*
X3590000Y4670000D02*
D03*
X4440000D02*
D03*
X4530000Y4730000D02*
D03*
Y4620000D02*
D03*
X4340000Y3100000D02*
D03*
X5650000Y3240000D02*
D03*
X7400000Y3630000D02*
D03*
X7252500Y1860000D02*
D03*
X4325000Y875000D02*
D03*
X3600000D02*
D03*
X4575000D02*
D03*
X5302500D02*
D03*
%TF.MD5,6e9f4c2c8d1d684f64aa578c5b3c37c6*%
M02*
