G04*
G04 #@! TF.GenerationSoftware,Altium Limited,Altium Designer,26.1.1 (7)*
G04*
G04 Layer_Color=32896*
%FSLAX25Y25*%
%MOIN*%
G70*
G04*
G04 #@! TF.SameCoordinates,80A9187B-927A-44A2-B289-347268ADEE1A*
G04*
G04*
G04 #@! TF.FilePolarity,Positive*
G04*
G01*
G75*
%ADD13C,0.00787*%
D13*
X290354Y54223D02*
X290846Y54715D01*
X291830D01*
X292322Y54223D01*
Y52255D01*
X291830Y51763D01*
X290846D01*
X290354Y52255D01*
Y53239D01*
X291338D01*
X289370Y51763D02*
Y54715D01*
X287402Y51763D01*
Y54715D01*
X286418D02*
Y51763D01*
X284942D01*
X284450Y52255D01*
Y54223D01*
X284942Y54715D01*
X286418D01*
X292520Y112499D02*
X290552D01*
X291536Y113484D02*
Y111516D01*
X289568Y113484D02*
X289076Y113975D01*
X288092D01*
X287600Y113484D01*
Y112991D01*
X288092Y112499D01*
X288584D01*
X288092D01*
X287600Y112008D01*
Y111516D01*
X288092Y111024D01*
X289076D01*
X289568Y111516D01*
X286616Y113975D02*
Y112008D01*
X285632Y111024D01*
X284648Y112008D01*
Y113975D01*
X283664Y113484D02*
X283172Y113975D01*
X282188D01*
X281696Y113484D01*
Y112991D01*
X282188Y112499D01*
X282680D01*
X282188D01*
X281696Y112008D01*
Y111516D01*
X282188Y111024D01*
X283172D01*
X283664Y111516D01*
X292520Y104133D02*
X290552D01*
X291536D01*
Y101181D01*
X287600Y104133D02*
X289568D01*
Y102657D01*
X288584D01*
X289568D01*
Y101181D01*
X286616Y104133D02*
X284648D01*
X285632D01*
Y101181D01*
X278745Y103641D02*
X279237Y104133D01*
X280221D01*
X280712Y103641D01*
Y103149D01*
X280221Y102657D01*
X279237D01*
X278745Y102165D01*
Y101673D01*
X279237Y101181D01*
X280221D01*
X280712Y101673D01*
X275793Y103641D02*
X276285Y104133D01*
X277269D01*
X277761Y103641D01*
Y101673D01*
X277269Y101181D01*
X276285D01*
X275793Y101673D01*
X274809Y104133D02*
Y101181D01*
Y102165D01*
X272841Y104133D01*
X274317Y102657D01*
X272841Y101181D01*
X292520Y42618D02*
X290552D01*
X291536Y43602D02*
Y41634D01*
X289568Y43602D02*
X289076Y44093D01*
X288092D01*
X287600Y43602D01*
Y43110D01*
X288092Y42618D01*
X288584D01*
X288092D01*
X287600Y42126D01*
Y41634D01*
X288092Y41142D01*
X289076D01*
X289568Y41634D01*
X286616Y44093D02*
Y42126D01*
X285632Y41142D01*
X284648Y42126D01*
Y44093D01*
X283664Y43602D02*
X283172Y44093D01*
X282188D01*
X281696Y43602D01*
Y43110D01*
X282188Y42618D01*
X282680D01*
X282188D01*
X281696Y42126D01*
Y41634D01*
X282188Y41142D01*
X283172D01*
X283664Y41634D01*
X292520Y64763D02*
X290552D01*
X291536D01*
Y61811D01*
X287600Y64763D02*
X289568D01*
Y63287D01*
X288584D01*
X289568D01*
Y61811D01*
X286616Y64763D02*
X284648D01*
X285632D01*
Y61811D01*
X278745Y64271D02*
X279237Y64763D01*
X280221D01*
X280712Y64271D01*
Y62303D01*
X280221Y61811D01*
X279237D01*
X278745Y62303D01*
X275793Y64271D02*
X276285Y64763D01*
X277269D01*
X277761Y64271D01*
Y63779D01*
X277269Y63287D01*
X276285D01*
X275793Y62795D01*
Y62303D01*
X276285Y61811D01*
X277269D01*
X277761Y62303D01*
X292520Y74605D02*
X290552D01*
X291536D01*
Y71653D01*
X287600Y74605D02*
X289568D01*
Y73129D01*
X288584D01*
X289568D01*
Y71653D01*
X286616Y74605D02*
X284648D01*
X285632D01*
Y71653D01*
X280712D02*
Y74605D01*
X279237D01*
X278745Y74113D01*
Y73129D01*
X279237Y72637D01*
X280712D01*
X279729D02*
X278745Y71653D01*
X275793Y74113D02*
X276285Y74605D01*
X277269D01*
X277761Y74113D01*
Y73621D01*
X277269Y73129D01*
X276285D01*
X275793Y72637D01*
Y72145D01*
X276285Y71653D01*
X277269D01*
X277761Y72145D01*
X274809Y74605D02*
X272841D01*
X273825D01*
Y71653D01*
X292520Y84448D02*
X290552D01*
X291536D01*
Y81496D01*
X287600Y84448D02*
X289568D01*
Y82972D01*
X288584D01*
X289568D01*
Y81496D01*
X286616Y84448D02*
X284648D01*
X285632D01*
Y81496D01*
X280712Y84448D02*
Y81496D01*
X279237D01*
X278745Y81988D01*
Y83956D01*
X279237Y84448D01*
X280712D01*
X275793Y83956D02*
X276285Y84448D01*
X277269D01*
X277761Y83956D01*
Y81988D01*
X277269Y81496D01*
X276285D01*
X275793Y81988D01*
X292520Y94290D02*
X290552D01*
X291536D01*
Y91339D01*
X287600Y94290D02*
X289568D01*
Y92814D01*
X288584D01*
X289568D01*
Y91339D01*
X286616Y94290D02*
X284648D01*
X285632D01*
Y91339D01*
X280712D02*
Y94290D01*
X279729Y93306D01*
X278745Y94290D01*
Y91339D01*
X276285Y94290D02*
X277269D01*
X277761Y93798D01*
Y91831D01*
X277269Y91339D01*
X276285D01*
X275793Y91831D01*
Y93798D01*
X276285Y94290D01*
X272841Y93798D02*
X273333Y94290D01*
X274317D01*
X274809Y93798D01*
Y93306D01*
X274317Y92814D01*
X273333D01*
X272841Y92322D01*
Y91831D01*
X273333Y91339D01*
X274317D01*
X274809Y91831D01*
X271857Y94290D02*
X270873D01*
X271365D01*
Y91339D01*
X271857D01*
X270873D01*
X227657Y23425D02*
X228149Y22933D01*
Y21949D01*
X227657Y21457D01*
X225689D01*
X225197Y21949D01*
Y22933D01*
X225689Y23425D01*
X226673D01*
Y22441D01*
X225197Y24408D02*
X228149D01*
X225197Y26376D01*
X228149D01*
Y27360D02*
X225197D01*
Y28836D01*
X225689Y29328D01*
X227657D01*
X228149Y28836D01*
Y27360D01*
X217912Y21654D02*
Y22637D01*
Y22145D01*
X214961D01*
Y21654D01*
Y22637D01*
Y26081D02*
Y24113D01*
X216929Y26081D01*
X217421D01*
X217912Y25589D01*
Y24605D01*
X217421Y24113D01*
Y29033D02*
X217912Y28541D01*
Y27557D01*
X217421Y27065D01*
X215453D01*
X214961Y27557D01*
Y28541D01*
X215453Y29033D01*
X217421Y34937D02*
X217912Y34445D01*
Y33461D01*
X217421Y32969D01*
X216929D01*
X216437Y33461D01*
Y34445D01*
X215945Y34937D01*
X215453D01*
X214961Y34445D01*
Y33461D01*
X215453Y32969D01*
X217912Y35921D02*
X214961D01*
Y37396D01*
X215453Y37889D01*
X217421D01*
X217912Y37396D01*
Y35921D01*
X214961Y38872D02*
X216929D01*
X217912Y39856D01*
X216929Y40840D01*
X214961D01*
X216437D01*
Y38872D01*
X208464Y21457D02*
Y22441D01*
Y21949D01*
X205512D01*
Y21457D01*
Y22441D01*
Y25884D02*
Y23916D01*
X207480Y25884D01*
X207972D01*
X208464Y25392D01*
Y24408D01*
X207972Y23916D01*
Y28836D02*
X208464Y28344D01*
Y27360D01*
X207972Y26868D01*
X206004D01*
X205512Y27360D01*
Y28344D01*
X206004Y28836D01*
X207972Y34740D02*
X208464Y34248D01*
Y33264D01*
X207972Y32772D01*
X207480D01*
X206988Y33264D01*
Y34248D01*
X206496Y34740D01*
X206004D01*
X205512Y34248D01*
Y33264D01*
X206004Y32772D01*
X207972Y37692D02*
X208464Y37200D01*
Y36216D01*
X207972Y35724D01*
X206004D01*
X205512Y36216D01*
Y37200D01*
X206004Y37692D01*
X208464Y38676D02*
X205512D01*
Y40644D01*
X138090Y23425D02*
X138582Y22933D01*
Y21949D01*
X138090Y21457D01*
X136122D01*
X135630Y21949D01*
Y22933D01*
X136122Y23425D01*
X138582Y24408D02*
X135630D01*
X137106D01*
Y26376D01*
X138582D01*
X135630D01*
Y27360D02*
X137598D01*
X138582Y28344D01*
X137598Y29328D01*
X135630D01*
X137106D01*
Y27360D01*
X135630Y30312D02*
X138582D01*
X135630Y32280D01*
X138582D01*
X135630Y33264D02*
Y34248D01*
Y33756D01*
X138582D01*
X138090Y33264D01*
X137106Y35724D02*
Y37692D01*
X128247Y23425D02*
X128739Y22933D01*
Y21949D01*
X128247Y21457D01*
X126279D01*
X125787Y21949D01*
Y22933D01*
X126279Y23425D01*
X128739Y24408D02*
X125787D01*
X127263D01*
Y26376D01*
X128739D01*
X125787D01*
Y27360D02*
X127755D01*
X128739Y28344D01*
X127755Y29328D01*
X125787D01*
X127263D01*
Y27360D01*
X125787Y30312D02*
X128739D01*
X125787Y32280D01*
X128739D01*
X125787Y33264D02*
Y34248D01*
Y33756D01*
X128739D01*
X128247Y33264D01*
X127263Y35724D02*
Y37692D01*
X128247Y36708D02*
X126279D01*
X118405Y23425D02*
X118897Y22933D01*
Y21949D01*
X118405Y21457D01*
X116437D01*
X115945Y21949D01*
Y22933D01*
X116437Y23425D01*
X117421D01*
Y22441D01*
X115945Y24408D02*
X118897D01*
X115945Y26376D01*
X118897D01*
Y27360D02*
X115945D01*
Y28836D01*
X116437Y29328D01*
X118405D01*
X118897Y28836D01*
Y27360D01*
X107185Y21063D02*
Y23031D01*
X108168Y22047D02*
X106201D01*
X108660Y25983D02*
Y24015D01*
X107185D01*
X107676Y24999D01*
Y25491D01*
X107185Y25983D01*
X106201D01*
X105709Y25491D01*
Y24507D01*
X106201Y24015D01*
X108660Y26967D02*
X106693D01*
X105709Y27951D01*
X106693Y28934D01*
X108660D01*
X96751Y20472D02*
Y22440D01*
X97735Y21456D02*
X95768D01*
X98227Y25392D02*
Y23424D01*
X96751D01*
X97243Y24408D01*
Y24900D01*
X96751Y25392D01*
X95768D01*
X95276Y24900D01*
Y23916D01*
X95768Y23424D01*
X98227Y26376D02*
X96259D01*
X95276Y27360D01*
X96259Y28344D01*
X98227D01*
X86909Y20472D02*
Y22440D01*
X87893Y21456D02*
X85925D01*
X88385Y25392D02*
Y23424D01*
X86909D01*
X87401Y24408D01*
Y24900D01*
X86909Y25392D01*
X85925D01*
X85433Y24900D01*
Y23916D01*
X85925Y23424D01*
X88385Y26376D02*
X86417D01*
X85433Y27360D01*
X86417Y28344D01*
X88385D01*
X147932Y23425D02*
X148424Y22933D01*
Y21949D01*
X147932Y21457D01*
X145964D01*
X145472Y21949D01*
Y22933D01*
X145964Y23425D01*
X146948D01*
Y22441D01*
X145472Y24408D02*
X148424D01*
X145472Y26376D01*
X148424D01*
Y27360D02*
X145472D01*
Y28836D01*
X145964Y29328D01*
X147932D01*
X148424Y28836D01*
Y27360D01*
X157775Y23425D02*
X158267Y22933D01*
Y21949D01*
X157775Y21457D01*
X155807D01*
X155315Y21949D01*
Y22933D01*
X155807Y23425D01*
X158267Y24408D02*
X155315D01*
X156791D01*
Y26376D01*
X158267D01*
X155315D01*
Y27360D02*
X157283D01*
X158267Y28344D01*
X157283Y29328D01*
X155315D01*
X156791D01*
Y27360D01*
X155315Y30312D02*
X158267D01*
X155315Y32280D01*
X158267D01*
X155315Y35232D02*
Y33264D01*
X157283Y35232D01*
X157775D01*
X158267Y34740D01*
Y33756D01*
X157775Y33264D01*
X156791Y36216D02*
Y38184D01*
X157775Y37200D02*
X155807D01*
X168602Y23425D02*
X169094Y22933D01*
Y21949D01*
X168602Y21457D01*
X166634D01*
X166142Y21949D01*
Y22933D01*
X166634Y23425D01*
X169094Y24408D02*
X166142D01*
X167618D01*
Y26376D01*
X169094D01*
X166142D01*
Y27360D02*
X168110D01*
X169094Y28344D01*
X168110Y29328D01*
X166142D01*
X167618D01*
Y27360D01*
X166142Y30312D02*
X169094D01*
X166142Y32280D01*
X169094D01*
X166142Y35232D02*
Y33264D01*
X168110Y35232D01*
X168602D01*
X169094Y34740D01*
Y33756D01*
X168602Y33264D01*
X167618Y36216D02*
Y38184D01*
X178444Y23425D02*
X178936Y22933D01*
Y21949D01*
X178444Y21457D01*
X176476D01*
X175984Y21949D01*
Y22933D01*
X176476Y23425D01*
X177460D01*
Y22441D01*
X175984Y24408D02*
X178936D01*
X175984Y26376D01*
X178936D01*
Y27360D02*
X175984D01*
Y28836D01*
X176476Y29328D01*
X178444D01*
X178936Y28836D01*
Y27360D01*
X188779Y21457D02*
X186811D01*
X185827Y22441D01*
X186811Y23425D01*
X188779D01*
X188287Y26376D02*
X188779Y25884D01*
Y24901D01*
X188287Y24408D01*
X186319D01*
X185827Y24901D01*
Y25884D01*
X186319Y26376D01*
X188779Y28836D02*
Y27852D01*
X188287Y27360D01*
X186319D01*
X185827Y27852D01*
Y28836D01*
X186319Y29328D01*
X188287D01*
X188779Y28836D01*
Y33264D02*
Y35232D01*
Y34248D01*
X185827D01*
X188779Y36216D02*
X186319D01*
X185827Y36708D01*
Y37692D01*
X186319Y38184D01*
X188779D01*
X185827Y39167D02*
X188779D01*
X185827Y41135D01*
X188779D01*
Y44087D02*
Y42119D01*
X185827D01*
Y44087D01*
X187303Y42119D02*
Y43103D01*
X198129Y23425D02*
X198621Y22933D01*
Y21949D01*
X198129Y21457D01*
X196161D01*
X195669Y21949D01*
Y22933D01*
X196161Y23425D01*
X197145D01*
Y22441D01*
X195669Y24408D02*
X198621D01*
X195669Y26376D01*
X198621D01*
Y27360D02*
X195669D01*
Y28836D01*
X196161Y29328D01*
X198129D01*
X198621Y28836D01*
Y27360D01*
M02*
