G04*
G04 #@! TF.GenerationSoftware,Altium Limited,Altium Designer,26.1.1 (7)*
G04*
G04 Layer_Physical_Order=2*
G04 Layer_Color=36540*
%FSLAX25Y25*%
%MOIN*%
G70*
G04*
G04 #@! TF.SameCoordinates,80A9187B-927A-44A2-B289-347268ADEE1A*
G04*
G04*
G04 #@! TF.FilePolarity,Positive*
G04*
G01*
G75*
%ADD48R,0.06181X0.06181*%
%ADD49C,0.06181*%
%ADD59O,0.03937X0.08268*%
%ADD60C,0.02559*%
%ADD61O,0.04724X0.07087*%
%ADD62R,0.06102X0.06102*%
%ADD63C,0.06102*%
%ADD64C,0.06299*%
G04:AMPARAMS|DCode=65|XSize=62.99mil|YSize=62.99mil|CornerRadius=15.75mil|HoleSize=0mil|Usage=FLASHONLY|Rotation=0.000|XOffset=0mil|YOffset=0mil|HoleType=Round|Shape=RoundedRectangle|*
%AMROUNDEDRECTD65*
21,1,0.06299,0.03150,0,0,0.0*
21,1,0.03150,0.06299,0,0,0.0*
1,1,0.03150,0.01575,-0.01575*
1,1,0.03150,-0.01575,-0.01575*
1,1,0.03150,-0.01575,0.01575*
1,1,0.03150,0.01575,0.01575*
%
%ADD65ROUNDEDRECTD65*%
%ADD66C,0.23622*%
%ADD67C,0.02362*%
G36*
X309149Y215461D02*
X310436Y214928D01*
X311594Y214154D01*
X312579Y213169D01*
X313353Y212011D01*
X313886Y210724D01*
X314158Y209358D01*
Y208661D01*
Y7874D01*
Y7177D01*
X313886Y5811D01*
X313353Y4524D01*
X312579Y3366D01*
X311594Y2381D01*
X310436Y1608D01*
X309149Y1075D01*
X307783Y803D01*
X7177D01*
X5812Y1075D01*
X4524Y1608D01*
X3366Y2381D01*
X2381Y3366D01*
X1608Y4524D01*
X1075Y5811D01*
X803Y7177D01*
Y7874D01*
Y208661D01*
Y209358D01*
X1075Y210724D01*
X1608Y212011D01*
X2381Y213169D01*
X3366Y214154D01*
X4524Y214928D01*
X5811Y215461D01*
X7177Y215733D01*
X307783D01*
X309149Y215461D01*
D02*
G37*
%LPC*%
G36*
X175079Y214428D02*
Y210738D01*
X177665D01*
Y211329D01*
X177557Y212151D01*
X177239Y212917D01*
X176734Y213575D01*
X176077Y214080D01*
X175310Y214397D01*
X175079Y214428D01*
D02*
G37*
G36*
X173898D02*
X173666Y214397D01*
X172900Y214080D01*
X172242Y213575D01*
X171737Y212917D01*
X171420Y212151D01*
X171311Y211329D01*
Y210738D01*
X173898D01*
Y214428D01*
D02*
G37*
G36*
X141063D02*
Y210738D01*
X143649D01*
Y211329D01*
X143541Y212151D01*
X143224Y212917D01*
X142719Y213575D01*
X142061Y214080D01*
X141295Y214397D01*
X141063Y214428D01*
D02*
G37*
G36*
X139882D02*
X139650Y214397D01*
X138884Y214080D01*
X138226Y213575D01*
X137721Y212917D01*
X137404Y212151D01*
X137296Y211329D01*
Y210738D01*
X139882D01*
Y214428D01*
D02*
G37*
G36*
X173898Y209557D02*
X171311D01*
Y208966D01*
X171420Y208144D01*
X171737Y207378D01*
X172242Y206720D01*
X172900Y206215D01*
X173666Y205898D01*
X173898Y205868D01*
Y209557D01*
D02*
G37*
G36*
X139882Y209557D02*
X137296D01*
Y208966D01*
X137404Y208144D01*
X137721Y207378D01*
X138226Y206720D01*
X138884Y206215D01*
X139650Y205898D01*
X139882Y205868D01*
Y209557D01*
D02*
G37*
G36*
X143649D02*
X141063D01*
Y205868D01*
X141295Y205898D01*
X142061Y206215D01*
X142719Y206720D01*
X143224Y207378D01*
X143541Y208144D01*
X143649Y208966D01*
Y209557D01*
D02*
G37*
G36*
X177665Y209557D02*
X175079D01*
Y205868D01*
X175310Y205898D01*
X176077Y206215D01*
X176734Y206720D01*
X177239Y207378D01*
X177557Y208144D01*
X177665Y208966D01*
Y209557D01*
D02*
G37*
G36*
X175079Y198558D02*
Y194281D01*
X177268D01*
Y195856D01*
X177173Y196576D01*
X176895Y197246D01*
X176454Y197822D01*
X175878Y198264D01*
X175208Y198541D01*
X175079Y198558D01*
D02*
G37*
G36*
X173898D02*
X173769Y198541D01*
X173098Y198264D01*
X172523Y197822D01*
X172081Y197246D01*
X171803Y196576D01*
X171709Y195856D01*
Y194281D01*
X173898D01*
Y198558D01*
D02*
G37*
G36*
X141063D02*
Y194281D01*
X143252D01*
Y195856D01*
X143157Y196576D01*
X142880Y197246D01*
X142438Y197822D01*
X141862Y198264D01*
X141192Y198541D01*
X141063Y198558D01*
D02*
G37*
G36*
X139882D02*
X139753Y198541D01*
X139083Y198264D01*
X138507Y197822D01*
X138065Y197246D01*
X137787Y196576D01*
X137693Y195856D01*
Y194281D01*
X139882D01*
Y198558D01*
D02*
G37*
G36*
X169308Y197923D02*
X168408D01*
X167576Y197579D01*
X166939Y196942D01*
X166595Y196110D01*
Y195209D01*
X166939Y194377D01*
X167576Y193740D01*
X168408Y193396D01*
X169308D01*
X170141Y193740D01*
X170777Y194377D01*
X171122Y195209D01*
Y196110D01*
X170777Y196942D01*
X170141Y197579D01*
X169308Y197923D01*
D02*
G37*
G36*
X146553D02*
X145652D01*
X144820Y197579D01*
X144183Y196942D01*
X143839Y196110D01*
Y195209D01*
X144183Y194377D01*
X144820Y193740D01*
X145652Y193396D01*
X146553D01*
X147385Y193740D01*
X148021Y194377D01*
X148366Y195209D01*
Y196110D01*
X148021Y196942D01*
X147385Y197579D01*
X146553Y197923D01*
D02*
G37*
G36*
X173898Y193100D02*
X171709D01*
Y191526D01*
X171803Y190806D01*
X172081Y190136D01*
X172523Y189560D01*
X173098Y189118D01*
X173769Y188841D01*
X173898Y188824D01*
Y193100D01*
D02*
G37*
G36*
X143252Y193100D02*
X141063D01*
Y188824D01*
X141192Y188841D01*
X141862Y189118D01*
X142438Y189560D01*
X142880Y190136D01*
X143157Y190806D01*
X143252Y191526D01*
Y193100D01*
D02*
G37*
G36*
X139882D02*
X137693D01*
Y191526D01*
X137787Y190806D01*
X138065Y190136D01*
X138507Y189560D01*
X139083Y189118D01*
X139753Y188841D01*
X139882Y188824D01*
Y193100D01*
D02*
G37*
G36*
X177268Y193100D02*
X175079D01*
Y188824D01*
X175208Y188841D01*
X175878Y189118D01*
X176454Y189560D01*
X176895Y190136D01*
X177173Y190806D01*
X177268Y191526D01*
Y193100D01*
D02*
G37*
G36*
X303609Y176758D02*
X302690D01*
X301802Y176520D01*
X301006Y176061D01*
X300357Y175411D01*
X299897Y174615D01*
X299659Y173727D01*
Y172808D01*
X299897Y171920D01*
X300357Y171124D01*
X301006Y170475D01*
X301802Y170015D01*
X302690Y169777D01*
X303609D01*
X304497Y170015D01*
X305293Y170475D01*
X305943Y171124D01*
X306402Y171920D01*
X306640Y172808D01*
Y173727D01*
X306402Y174615D01*
X305943Y175411D01*
X305293Y176061D01*
X304497Y176520D01*
X303609Y176758D01*
D02*
G37*
G36*
X59408Y171063D02*
X58703D01*
X58052Y170793D01*
X57553Y170295D01*
X57284Y169644D01*
X56890D01*
X56620Y170295D01*
X56122Y170793D01*
X55471Y171063D01*
X54766D01*
X54115Y170793D01*
X53616Y170295D01*
X53347Y169644D01*
Y168939D01*
X53616Y168288D01*
X54115Y167789D01*
X54243Y167736D01*
Y167303D01*
X54115Y167250D01*
X53616Y166752D01*
X53347Y166100D01*
Y165396D01*
X53616Y164744D01*
X54115Y164246D01*
X54243Y164193D01*
Y163760D01*
X54115Y163707D01*
X53616Y163208D01*
X53347Y162557D01*
Y161852D01*
X53616Y161201D01*
X54115Y160703D01*
X54766Y160433D01*
X55471D01*
X56122Y160703D01*
X56620Y161201D01*
X56890Y161852D01*
X57284D01*
X57553Y161201D01*
X58052Y160703D01*
X58703Y160433D01*
X59408D01*
X60059Y160703D01*
X60557Y161201D01*
X60827Y161852D01*
X61221D01*
X61490Y161201D01*
X61989Y160703D01*
X62640Y160433D01*
X63345D01*
X63996Y160703D01*
X64494Y161201D01*
X64764Y161852D01*
X65158D01*
X65427Y161201D01*
X65926Y160703D01*
X66577Y160433D01*
X67282D01*
X67933Y160703D01*
X68431Y161201D01*
X68701Y161852D01*
Y162557D01*
X68431Y163208D01*
X67933Y163707D01*
X67282Y163976D01*
X66577D01*
X65926Y163707D01*
X65427Y163208D01*
X65158Y162557D01*
X64764D01*
X64494Y163208D01*
X63996Y163707D01*
X63345Y163976D01*
X62640D01*
X61989Y163707D01*
X61490Y163208D01*
X61221Y162557D01*
X60827D01*
X60557Y163208D01*
X60059Y163707D01*
X59930Y163760D01*
Y164193D01*
X60059Y164246D01*
X60557Y164744D01*
X60827Y165396D01*
Y166100D01*
X60557Y166752D01*
X60059Y167250D01*
X59930Y167303D01*
Y167736D01*
X60059Y167789D01*
X60557Y168288D01*
X60827Y168939D01*
Y169644D01*
X60557Y170295D01*
X60059Y170793D01*
X59408Y171063D01*
D02*
G37*
G36*
X303609Y166758D02*
X302690D01*
X301802Y166520D01*
X301006Y166061D01*
X300357Y165411D01*
X299897Y164615D01*
X299659Y163727D01*
Y162808D01*
X299897Y161920D01*
X300357Y161125D01*
X301006Y160475D01*
X301802Y160015D01*
X302690Y159777D01*
X303609D01*
X304497Y160015D01*
X305293Y160475D01*
X305943Y161125D01*
X306402Y161920D01*
X306640Y162808D01*
Y163727D01*
X306402Y164615D01*
X305943Y165411D01*
X305293Y166061D01*
X304497Y166520D01*
X303609Y166758D01*
D02*
G37*
G36*
X135195Y155315D02*
X134490D01*
X133839Y155045D01*
X133341Y154547D01*
X133071Y153896D01*
Y153191D01*
X133341Y152540D01*
X133839Y152041D01*
X134490Y151772D01*
X135195D01*
X135846Y152041D01*
X136345Y152540D01*
X136614Y153191D01*
Y153896D01*
X136345Y154547D01*
X135846Y155045D01*
X135195Y155315D01*
D02*
G37*
G36*
X303609Y156758D02*
X302690D01*
X301802Y156520D01*
X301006Y156061D01*
X300357Y155411D01*
X299897Y154615D01*
X299659Y153727D01*
Y152808D01*
X299897Y151920D01*
X300357Y151125D01*
X301006Y150475D01*
X301802Y150015D01*
X302690Y149777D01*
X303609D01*
X304497Y150015D01*
X305293Y150475D01*
X305943Y151125D01*
X306402Y151920D01*
X306640Y152808D01*
Y153727D01*
X306402Y154615D01*
X305943Y155411D01*
X305293Y156061D01*
X304497Y156520D01*
X303609Y156758D01*
D02*
G37*
G36*
X200155Y145472D02*
X199451D01*
X198800Y145203D01*
X198301Y144704D01*
X198031Y144053D01*
Y143348D01*
X198301Y142697D01*
X198800Y142199D01*
X199451Y141929D01*
X200155D01*
X200807Y142199D01*
X201305Y142697D01*
X201575Y143348D01*
Y144053D01*
X201305Y144704D01*
X200807Y145203D01*
X200155Y145472D01*
D02*
G37*
G36*
X291691Y144685D02*
X290986D01*
X290335Y144415D01*
X289837Y143917D01*
X289567Y143266D01*
Y142561D01*
X289837Y141910D01*
X290335Y141411D01*
X290986Y141142D01*
X291691D01*
X292342Y141411D01*
X292841Y141910D01*
X293110Y142561D01*
Y143266D01*
X292841Y143917D01*
X292342Y144415D01*
X291691Y144685D01*
D02*
G37*
G36*
X303609Y146758D02*
X302690D01*
X301802Y146520D01*
X301006Y146061D01*
X300357Y145411D01*
X299897Y144615D01*
X299659Y143727D01*
Y142808D01*
X299897Y141920D01*
X300357Y141124D01*
X301006Y140475D01*
X301802Y140015D01*
X302690Y139777D01*
X303609D01*
X304497Y140015D01*
X305293Y140475D01*
X305943Y141124D01*
X306402Y141920D01*
X306640Y142808D01*
Y143727D01*
X306402Y144615D01*
X305943Y145411D01*
X305293Y146061D01*
X304497Y146520D01*
X303609Y146758D01*
D02*
G37*
G36*
X42085Y139567D02*
X41380D01*
X40729Y139297D01*
X40230Y138799D01*
X39961Y138148D01*
X39567D01*
X39297Y138799D01*
X38799Y139297D01*
X38148Y139567D01*
X37443D01*
X36792Y139297D01*
X36293Y138799D01*
X36024Y138148D01*
Y137443D01*
X36293Y136792D01*
X36603Y136482D01*
X36751Y136221D01*
X36603Y135959D01*
X36293Y135649D01*
X36024Y134998D01*
Y134293D01*
X36293Y133642D01*
X36603Y133332D01*
X36751Y133071D01*
X36603Y132809D01*
X36293Y132500D01*
X36024Y131849D01*
Y131144D01*
X36293Y130492D01*
X36792Y129994D01*
X37443Y129724D01*
X38148D01*
X38799Y129994D01*
X39297Y130492D01*
X39567Y131144D01*
X39961D01*
X40230Y130492D01*
X40729Y129994D01*
X41380Y129724D01*
X42085D01*
X42736Y129994D01*
X43234Y130492D01*
X43504Y131144D01*
Y131849D01*
X43234Y132500D01*
X42924Y132809D01*
X42777Y133071D01*
X42924Y133332D01*
X43234Y133642D01*
X43504Y134293D01*
Y134998D01*
X43234Y135649D01*
X42924Y135959D01*
X42777Y136221D01*
X42924Y136482D01*
X43234Y136792D01*
X43504Y137443D01*
Y138148D01*
X43234Y138799D01*
X42736Y139297D01*
X42085Y139567D01*
D02*
G37*
G36*
X15262Y136719D02*
X8360D01*
Y129816D01*
X15262D01*
Y136719D01*
D02*
G37*
G36*
X303609Y136758D02*
X302690D01*
X301802Y136520D01*
X301006Y136061D01*
X300357Y135411D01*
X299897Y134615D01*
X299659Y133727D01*
Y132808D01*
X299897Y131920D01*
X300357Y131124D01*
X301006Y130475D01*
X301802Y130015D01*
X302690Y129777D01*
X303609D01*
X304497Y130015D01*
X305293Y130475D01*
X305943Y131124D01*
X306402Y131920D01*
X306640Y132808D01*
Y133727D01*
X306402Y134615D01*
X305943Y135411D01*
X305293Y136061D01*
X304497Y136520D01*
X303609Y136758D01*
D02*
G37*
G36*
X222793Y129331D02*
X222089D01*
X221437Y129061D01*
X220939Y128563D01*
X220669Y127911D01*
Y127207D01*
X220939Y126556D01*
X221437Y126057D01*
X222089Y125787D01*
X222793D01*
X223445Y126057D01*
X223943Y126556D01*
X224213Y127207D01*
Y127911D01*
X223943Y128563D01*
X223445Y129061D01*
X222793Y129331D01*
D02*
G37*
G36*
X171219Y123819D02*
X170514D01*
X169863Y123549D01*
X169364Y123051D01*
X169095Y122400D01*
Y121695D01*
X169364Y121044D01*
X169863Y120545D01*
X170514Y120276D01*
X171219D01*
X171870Y120545D01*
X172368Y121044D01*
X172638Y121695D01*
Y122400D01*
X172368Y123051D01*
X171870Y123549D01*
X171219Y123819D01*
D02*
G37*
G36*
X12265Y126719D02*
X11357D01*
X10479Y126484D01*
X9692Y126029D01*
X9049Y125387D01*
X8595Y124600D01*
X8360Y123722D01*
Y122813D01*
X8595Y121936D01*
X9049Y121149D01*
X9692Y120506D01*
X10479Y120052D01*
X11357Y119817D01*
X12265D01*
X13143Y120052D01*
X13930Y120506D01*
X14573Y121149D01*
X15027Y121936D01*
X15262Y122813D01*
Y123722D01*
X15027Y124600D01*
X14573Y125387D01*
X13930Y126029D01*
X13143Y126484D01*
X12265Y126719D01*
D02*
G37*
G36*
X303609Y126758D02*
X302690D01*
X301802Y126520D01*
X301006Y126061D01*
X300357Y125411D01*
X299897Y124615D01*
X299659Y123727D01*
Y122808D01*
X299897Y121920D01*
X300357Y121124D01*
X301006Y120475D01*
X301802Y120015D01*
X302690Y119777D01*
X303609D01*
X304497Y120015D01*
X305293Y120475D01*
X305943Y121124D01*
X306402Y121920D01*
X306640Y122808D01*
Y123727D01*
X306402Y124615D01*
X305943Y125411D01*
X305293Y126061D01*
X304497Y126520D01*
X303609Y126758D01*
D02*
G37*
G36*
X191297Y116929D02*
X190593D01*
X189941Y116659D01*
X189443Y116161D01*
X189173Y115510D01*
Y114805D01*
X189443Y114154D01*
X189941Y113655D01*
X190593Y113386D01*
X191297D01*
X191948Y113655D01*
X192447Y114154D01*
X192717Y114805D01*
Y115510D01*
X192447Y116161D01*
X191948Y116659D01*
X191297Y116929D01*
D02*
G37*
G36*
X12265Y116719D02*
X11357D01*
X10479Y116484D01*
X9692Y116029D01*
X9049Y115387D01*
X8595Y114600D01*
X8360Y113722D01*
Y112813D01*
X8595Y111936D01*
X9049Y111149D01*
X9692Y110506D01*
X10479Y110052D01*
X11357Y109817D01*
X12265D01*
X13143Y110052D01*
X13930Y110506D01*
X14573Y111149D01*
X15027Y111936D01*
X15262Y112813D01*
Y113722D01*
X15027Y114600D01*
X14573Y115387D01*
X13930Y116029D01*
X13143Y116484D01*
X12265Y116719D01*
D02*
G37*
G36*
X303609Y116758D02*
X302690D01*
X301802Y116520D01*
X301006Y116061D01*
X300357Y115411D01*
X299897Y114615D01*
X299659Y113727D01*
Y112808D01*
X299897Y111920D01*
X300357Y111125D01*
X301006Y110475D01*
X301802Y110015D01*
X302690Y109777D01*
X303609D01*
X304497Y110015D01*
X305293Y110475D01*
X305943Y111125D01*
X306402Y111920D01*
X306640Y112808D01*
Y113727D01*
X306402Y114615D01*
X305943Y115411D01*
X305293Y116061D01*
X304497Y116520D01*
X303609Y116758D01*
D02*
G37*
G36*
X123384Y109055D02*
X122679D01*
X122028Y108785D01*
X121530Y108287D01*
X121260Y107636D01*
Y106931D01*
X121530Y106280D01*
X122028Y105781D01*
X122679Y105512D01*
X123384D01*
X124035Y105781D01*
X124533Y106280D01*
X124803Y106931D01*
Y107636D01*
X124533Y108287D01*
X124035Y108785D01*
X123384Y109055D01*
D02*
G37*
G36*
X78108Y106102D02*
X77403D01*
X76752Y105833D01*
X76254Y105334D01*
X75984Y104683D01*
Y103978D01*
X76254Y103327D01*
X76752Y102829D01*
X77403Y102559D01*
X78108D01*
X78759Y102829D01*
X79258Y103327D01*
X79528Y103978D01*
Y104683D01*
X79258Y105334D01*
X78759Y105833D01*
X78108Y106102D01*
D02*
G37*
G36*
X137951Y104921D02*
X137246D01*
X136595Y104651D01*
X136097Y104153D01*
X135827Y103502D01*
Y102797D01*
X136097Y102146D01*
X136595Y101648D01*
X137246Y101378D01*
X137951D01*
X138602Y101648D01*
X139100Y102146D01*
X139370Y102797D01*
Y103502D01*
X139100Y104153D01*
X138602Y104651D01*
X137951Y104921D01*
D02*
G37*
G36*
X12265Y106719D02*
X11357D01*
X10479Y106484D01*
X9692Y106029D01*
X9049Y105387D01*
X8595Y104600D01*
X8360Y103722D01*
Y102813D01*
X8595Y101936D01*
X9049Y101149D01*
X9692Y100506D01*
X10479Y100052D01*
X11357Y99817D01*
X12265D01*
X13143Y100052D01*
X13930Y100506D01*
X14573Y101149D01*
X15027Y101936D01*
X15262Y102813D01*
Y103722D01*
X15027Y104600D01*
X14573Y105387D01*
X13930Y106029D01*
X13143Y106484D01*
X12265Y106719D01*
D02*
G37*
G36*
X303609Y106758D02*
X302690D01*
X301802Y106520D01*
X301006Y106061D01*
X300357Y105411D01*
X299897Y104615D01*
X299659Y103727D01*
Y102808D01*
X299897Y101920D01*
X300357Y101125D01*
X301006Y100475D01*
X301802Y100015D01*
X302690Y99777D01*
X303609D01*
X304497Y100015D01*
X305293Y100475D01*
X305943Y101125D01*
X306402Y101920D01*
X306640Y102808D01*
Y103727D01*
X306402Y104615D01*
X305943Y105411D01*
X305293Y106061D01*
X304497Y106520D01*
X303609Y106758D01*
D02*
G37*
G36*
X109112Y99114D02*
X108407D01*
X107756Y98844D01*
X107258Y98346D01*
X106988Y97695D01*
Y96990D01*
X107258Y96339D01*
X107756Y95841D01*
X108407Y95571D01*
X109112D01*
X109763Y95841D01*
X110262Y96339D01*
X110531Y96990D01*
Y97695D01*
X110262Y98346D01*
X109763Y98844D01*
X109112Y99114D01*
D02*
G37*
G36*
X12265Y96719D02*
X11357D01*
X10479Y96484D01*
X9692Y96029D01*
X9049Y95387D01*
X8595Y94600D01*
X8360Y93722D01*
Y92813D01*
X8595Y91936D01*
X9049Y91149D01*
X9692Y90506D01*
X10479Y90052D01*
X11357Y89816D01*
X12265D01*
X13143Y90052D01*
X13930Y90506D01*
X14573Y91149D01*
X15027Y91936D01*
X15262Y92813D01*
Y93722D01*
X15027Y94600D01*
X14573Y95387D01*
X13930Y96029D01*
X13143Y96484D01*
X12265Y96719D01*
D02*
G37*
G36*
X303609Y96758D02*
X302690D01*
X301802Y96520D01*
X301006Y96061D01*
X300357Y95411D01*
X299897Y94615D01*
X299659Y93727D01*
Y92808D01*
X299897Y91920D01*
X300357Y91124D01*
X301006Y90475D01*
X301802Y90015D01*
X302690Y89777D01*
X303609D01*
X304497Y90015D01*
X305293Y90475D01*
X305943Y91124D01*
X306402Y91920D01*
X306640Y92808D01*
Y93727D01*
X306402Y94615D01*
X305943Y95411D01*
X305293Y96061D01*
X304497Y96520D01*
X303609Y96758D01*
D02*
G37*
G36*
X230667Y90748D02*
X229963D01*
X229311Y90478D01*
X228813Y89980D01*
X228543Y89329D01*
Y88624D01*
X228813Y87973D01*
X229311Y87475D01*
X229963Y87205D01*
X230667D01*
X231318Y87475D01*
X231817Y87973D01*
X232087Y88624D01*
Y89329D01*
X231817Y89980D01*
X231318Y90478D01*
X230667Y90748D01*
D02*
G37*
G36*
X109211Y90354D02*
X108506D01*
X107855Y90085D01*
X107356Y89586D01*
X107087Y88935D01*
Y88230D01*
X107356Y87579D01*
X107855Y87081D01*
X108506Y86811D01*
X109211D01*
X109862Y87081D01*
X110360Y87579D01*
X110630Y88230D01*
Y88935D01*
X110360Y89586D01*
X109862Y90085D01*
X109211Y90354D01*
D02*
G37*
G36*
X12402Y87084D02*
Y83858D01*
X15627D01*
X15388Y84749D01*
X14883Y85625D01*
X14168Y86339D01*
X13293Y86845D01*
X12402Y87084D01*
D02*
G37*
G36*
X11220Y87084D02*
X10329Y86845D01*
X9454Y86339D01*
X8739Y85625D01*
X8234Y84749D01*
X7995Y83858D01*
X11220D01*
Y87084D01*
D02*
G37*
G36*
X168659Y86024D02*
X167955D01*
X167304Y85754D01*
X166805Y85255D01*
X166535Y84604D01*
Y83900D01*
X166805Y83248D01*
X167304Y82750D01*
X167955Y82480D01*
X168659D01*
X169311Y82750D01*
X169809Y83248D01*
X170079Y83900D01*
Y84604D01*
X169809Y85255D01*
X169311Y85754D01*
X168659Y86024D01*
D02*
G37*
G36*
X303609Y86758D02*
X302690D01*
X301802Y86520D01*
X301006Y86061D01*
X300357Y85411D01*
X299897Y84615D01*
X299659Y83727D01*
Y82808D01*
X299897Y81920D01*
X300357Y81125D01*
X301006Y80475D01*
X301802Y80015D01*
X302690Y79777D01*
X303609D01*
X304497Y80015D01*
X305293Y80475D01*
X305943Y81125D01*
X306402Y81920D01*
X306640Y82808D01*
Y83727D01*
X306402Y84615D01*
X305943Y85411D01*
X305293Y86061D01*
X304497Y86520D01*
X303609Y86758D01*
D02*
G37*
G36*
X15627Y82677D02*
X12402D01*
Y79452D01*
X13293Y79691D01*
X14168Y80196D01*
X14883Y80911D01*
X15388Y81786D01*
X15627Y82677D01*
D02*
G37*
G36*
X11220D02*
X7995D01*
X8234Y81786D01*
X8739Y80911D01*
X9454Y80196D01*
X10329Y79691D01*
X11220Y79452D01*
Y82677D01*
D02*
G37*
G36*
X285884Y75000D02*
X285179D01*
X284528Y74730D01*
X284030Y74232D01*
X283760Y73581D01*
Y72876D01*
X284030Y72225D01*
X284528Y71726D01*
X285179Y71457D01*
X285884D01*
X286535Y71726D01*
X287033Y72225D01*
X287303Y72876D01*
Y73581D01*
X287033Y74232D01*
X286535Y74730D01*
X285884Y75000D01*
D02*
G37*
G36*
X303609Y76758D02*
X302690D01*
X301802Y76520D01*
X301006Y76061D01*
X300357Y75411D01*
X299897Y74615D01*
X299659Y73727D01*
Y72808D01*
X299897Y71920D01*
X300357Y71125D01*
X301006Y70475D01*
X301802Y70015D01*
X302690Y69777D01*
X303609D01*
X304497Y70015D01*
X305293Y70475D01*
X305943Y71125D01*
X306402Y71920D01*
X306640Y72808D01*
Y73727D01*
X306402Y74615D01*
X305943Y75411D01*
X305293Y76061D01*
X304497Y76520D01*
X303609Y76758D01*
D02*
G37*
G36*
Y66758D02*
X302690D01*
X301802Y66520D01*
X301006Y66061D01*
X300357Y65411D01*
X299897Y64615D01*
X299659Y63727D01*
Y62808D01*
X299897Y61920D01*
X300357Y61124D01*
X301006Y60475D01*
X301802Y60015D01*
X302690Y59777D01*
X303609D01*
X304497Y60015D01*
X305293Y60475D01*
X305943Y61124D01*
X306402Y61920D01*
X306640Y62808D01*
Y63727D01*
X306402Y64615D01*
X305943Y65411D01*
X305293Y66061D01*
X304497Y66520D01*
X303609Y66758D01*
D02*
G37*
G36*
X210982Y61811D02*
X210278D01*
X209626Y61541D01*
X209128Y61043D01*
X208858Y60392D01*
Y59687D01*
X209128Y59036D01*
X209626Y58537D01*
X210278Y58268D01*
X210982D01*
X211633Y58537D01*
X212132Y59036D01*
X212402Y59687D01*
Y60392D01*
X212132Y61043D01*
X211633Y61541D01*
X210982Y61811D01*
D02*
G37*
G36*
X173581D02*
X172876D01*
X172225Y61541D01*
X171726Y61043D01*
X171457Y60392D01*
Y59687D01*
X171726Y59036D01*
X172225Y58537D01*
X172876Y58268D01*
X173581D01*
X174232Y58537D01*
X174730Y59036D01*
X175000Y59687D01*
Y60392D01*
X174730Y61043D01*
X174232Y61541D01*
X173581Y61811D01*
D02*
G37*
G36*
X303740Y57124D02*
Y53858D01*
X307006D01*
X306763Y54764D01*
X306253Y55649D01*
X305531Y56371D01*
X304646Y56881D01*
X303740Y57124D01*
D02*
G37*
G36*
X302559Y57124D02*
X301653Y56881D01*
X300768Y56371D01*
X300046Y55649D01*
X299536Y54764D01*
X299293Y53858D01*
X302559D01*
Y57124D01*
D02*
G37*
G36*
Y52677D02*
X299293D01*
X299536Y51771D01*
X300046Y50887D01*
X300768Y50165D01*
X301653Y49654D01*
X302559Y49411D01*
Y52677D01*
D02*
G37*
G36*
X307006D02*
X303740D01*
Y49411D01*
X304646Y49654D01*
X305531Y50165D01*
X306253Y50887D01*
X306763Y51771D01*
X307006Y52677D01*
D02*
G37*
G36*
X306640Y46758D02*
X299659D01*
Y39777D01*
X306640D01*
Y46758D01*
D02*
G37*
G36*
X209112Y36220D02*
X208407D01*
X207756Y35951D01*
X207258Y35452D01*
X206988Y34801D01*
Y34096D01*
X207258Y33445D01*
X207756Y32947D01*
X208407Y32677D01*
X209112D01*
X209763Y32947D01*
X210262Y33445D01*
X210531Y34096D01*
Y34801D01*
X210262Y35452D01*
X209763Y35951D01*
X209112Y36220D01*
D02*
G37*
G36*
X180471D02*
X179766D01*
X179115Y35951D01*
X178616Y35452D01*
X178347Y34801D01*
Y34096D01*
X178616Y33445D01*
X179115Y32947D01*
X179766Y32677D01*
X180471D01*
X181122Y32947D01*
X181620Y33445D01*
X181890Y34096D01*
Y34801D01*
X181620Y35452D01*
X181122Y35951D01*
X180471Y36220D01*
D02*
G37*
G36*
X170628D02*
X169923D01*
X169272Y35951D01*
X168774Y35452D01*
X168504Y34801D01*
Y34096D01*
X168774Y33445D01*
X169272Y32947D01*
X169923Y32677D01*
X170628D01*
X171279Y32947D01*
X171777Y33445D01*
X172047Y34096D01*
Y34801D01*
X171777Y35452D01*
X171279Y35951D01*
X170628Y36220D01*
D02*
G37*
G36*
X142085D02*
X141380D01*
X140729Y35951D01*
X140230Y35452D01*
X139961Y34801D01*
Y34096D01*
X140230Y33445D01*
X140729Y32947D01*
X141380Y32677D01*
X142085D01*
X142736Y32947D01*
X143234Y33445D01*
X143504Y34096D01*
Y34801D01*
X143234Y35452D01*
X142736Y35951D01*
X142085Y36220D01*
D02*
G37*
G36*
X97793Y33268D02*
X97088D01*
X96437Y32998D01*
X96003Y32563D01*
X95768Y32526D01*
X95533Y32563D01*
X95098Y32998D01*
X94447Y33268D01*
X93742D01*
X93091Y32998D01*
X92593Y32500D01*
X92323Y31848D01*
Y31144D01*
X92593Y30492D01*
X93091Y29994D01*
X93742Y29724D01*
Y29331D01*
X93091Y29061D01*
X92593Y28563D01*
X92323Y27911D01*
Y27207D01*
X92593Y26555D01*
X93091Y26057D01*
X93742Y25787D01*
X94447D01*
X95098Y26057D01*
X95533Y26492D01*
X95768Y26529D01*
X96003Y26492D01*
X96437Y26057D01*
X97088Y25787D01*
X97793D01*
X98444Y26057D01*
X98943Y26555D01*
X99213Y27207D01*
Y27911D01*
X98943Y28563D01*
X98444Y29061D01*
X97793Y29331D01*
Y29724D01*
X98444Y29994D01*
X98943Y30492D01*
X99213Y31144D01*
Y31848D01*
X98943Y32500D01*
X98444Y32998D01*
X97793Y33268D01*
D02*
G37*
G36*
X225943Y35236D02*
X225238D01*
X224587Y34966D01*
X224089Y34468D01*
X223819Y33817D01*
Y33112D01*
X224089Y32461D01*
X224587Y31963D01*
X225238Y31693D01*
X225943D01*
X226594Y31963D01*
X227093Y32461D01*
X227362Y33112D01*
Y33817D01*
X227093Y34468D01*
X226594Y34966D01*
X225943Y35236D01*
D02*
G37*
G36*
X62360Y30315D02*
X61655D01*
X61004Y30045D01*
X60506Y29547D01*
X60236Y28896D01*
Y28191D01*
X60506Y27540D01*
X61004Y27041D01*
X61655Y26772D01*
X62360D01*
X63011Y27041D01*
X63510Y27540D01*
X63779Y28191D01*
Y28896D01*
X63510Y29547D01*
X63011Y30045D01*
X62360Y30315D01*
D02*
G37*
G36*
X116494Y26575D02*
X115789D01*
X115138Y26305D01*
X114640Y25807D01*
X114370Y25156D01*
X113976D01*
X113707Y25807D01*
X113208Y26305D01*
X112557Y26575D01*
X111852D01*
X111201Y26305D01*
X110703Y25807D01*
X110433Y25155D01*
Y24451D01*
X110703Y23800D01*
X111013Y23490D01*
X111160Y23228D01*
X111013Y22967D01*
X110703Y22657D01*
X110433Y22006D01*
Y21301D01*
X110703Y20650D01*
X111201Y20152D01*
X111852Y19882D01*
X112557D01*
X113208Y20152D01*
X113707Y20650D01*
X113976Y21301D01*
X114370D01*
X114640Y20650D01*
X115138Y20152D01*
X115789Y19882D01*
X116494D01*
X117145Y20152D01*
X117644Y20650D01*
X117913Y21301D01*
Y22006D01*
X117644Y22657D01*
X117334Y22967D01*
X117186Y23228D01*
X117334Y23490D01*
X117644Y23800D01*
X117913Y24451D01*
Y25155D01*
X117644Y25807D01*
X117145Y26305D01*
X116494Y26575D01*
D02*
G37*
G36*
X228071Y15729D02*
Y12402D01*
X231398D01*
X231149Y13331D01*
X230631Y14228D01*
X229898Y14961D01*
X229000Y15480D01*
X228071Y15729D01*
D02*
G37*
G36*
X226890D02*
X225961Y15480D01*
X225063Y14961D01*
X224330Y14228D01*
X223812Y13331D01*
X223563Y12402D01*
X226890D01*
Y15729D01*
D02*
G37*
G36*
X198071D02*
Y12402D01*
X201398D01*
X201149Y13331D01*
X200631Y14228D01*
X199898Y14961D01*
X199000Y15480D01*
X198071Y15729D01*
D02*
G37*
G36*
X196890D02*
X195961Y15480D01*
X195063Y14961D01*
X194330Y14228D01*
X193812Y13331D01*
X193563Y12402D01*
X196890D01*
Y15729D01*
D02*
G37*
G36*
X178071D02*
Y12402D01*
X181398D01*
X181149Y13331D01*
X180631Y14228D01*
X179898Y14961D01*
X179000Y15480D01*
X178071Y15729D01*
D02*
G37*
G36*
X176890D02*
X175961Y15480D01*
X175063Y14961D01*
X174330Y14228D01*
X173812Y13331D01*
X173563Y12402D01*
X176890D01*
Y15729D01*
D02*
G37*
G36*
X148071D02*
Y12402D01*
X151398D01*
X151149Y13331D01*
X150631Y14228D01*
X149898Y14961D01*
X149000Y15480D01*
X148071Y15729D01*
D02*
G37*
G36*
X146890D02*
X145961Y15480D01*
X145063Y14961D01*
X144330Y14228D01*
X143812Y13331D01*
X143563Y12402D01*
X146890D01*
Y15729D01*
D02*
G37*
G36*
X118071D02*
Y12402D01*
X121398D01*
X121149Y13331D01*
X120631Y14228D01*
X119898Y14961D01*
X119000Y15480D01*
X118071Y15729D01*
D02*
G37*
G36*
X116890D02*
X115961Y15480D01*
X115063Y14961D01*
X114330Y14228D01*
X113812Y13331D01*
X113563Y12402D01*
X116890D01*
Y15729D01*
D02*
G37*
G36*
X217948Y15361D02*
X217013D01*
X216110Y15119D01*
X215301Y14651D01*
X214640Y13991D01*
X214173Y13181D01*
X213931Y12278D01*
Y11344D01*
X214173Y10441D01*
X214640Y9631D01*
X215301Y8971D01*
X216110Y8503D01*
X217013Y8261D01*
X217948D01*
X218850Y8503D01*
X219660Y8971D01*
X220321Y9631D01*
X220788Y10441D01*
X221030Y11344D01*
Y12278D01*
X220788Y13181D01*
X220321Y13991D01*
X219660Y14651D01*
X218850Y15119D01*
X217948Y15361D01*
D02*
G37*
G36*
X207948D02*
X207013D01*
X206110Y15119D01*
X205301Y14651D01*
X204640Y13991D01*
X204173Y13181D01*
X203931Y12278D01*
Y11344D01*
X204173Y10441D01*
X204640Y9631D01*
X205301Y8971D01*
X206110Y8503D01*
X207013Y8261D01*
X207948D01*
X208850Y8503D01*
X209660Y8971D01*
X210321Y9631D01*
X210788Y10441D01*
X211030Y11344D01*
Y12278D01*
X210788Y13181D01*
X210321Y13991D01*
X209660Y14651D01*
X208850Y15119D01*
X207948Y15361D01*
D02*
G37*
G36*
X187948D02*
X187013D01*
X186110Y15119D01*
X185301Y14651D01*
X184640Y13991D01*
X184173Y13181D01*
X183931Y12278D01*
Y11344D01*
X184173Y10441D01*
X184640Y9631D01*
X185301Y8971D01*
X186110Y8503D01*
X187013Y8261D01*
X187948D01*
X188850Y8503D01*
X189660Y8971D01*
X190321Y9631D01*
X190788Y10441D01*
X191030Y11344D01*
Y12278D01*
X190788Y13181D01*
X190321Y13991D01*
X189660Y14651D01*
X188850Y15119D01*
X187948Y15361D01*
D02*
G37*
G36*
X167948D02*
X167013D01*
X166110Y15119D01*
X165301Y14651D01*
X164640Y13991D01*
X164173Y13181D01*
X163931Y12278D01*
Y11344D01*
X164173Y10441D01*
X164640Y9631D01*
X165301Y8971D01*
X166110Y8503D01*
X167013Y8261D01*
X167948D01*
X168850Y8503D01*
X169660Y8971D01*
X170321Y9631D01*
X170788Y10441D01*
X171030Y11344D01*
Y12278D01*
X170788Y13181D01*
X170321Y13991D01*
X169660Y14651D01*
X168850Y15119D01*
X167948Y15361D01*
D02*
G37*
G36*
X157948D02*
X157013D01*
X156110Y15119D01*
X155301Y14651D01*
X154640Y13991D01*
X154173Y13181D01*
X153931Y12278D01*
Y11344D01*
X154173Y10441D01*
X154640Y9631D01*
X155301Y8971D01*
X156110Y8503D01*
X157013Y8261D01*
X157948D01*
X158850Y8503D01*
X159660Y8971D01*
X160321Y9631D01*
X160788Y10441D01*
X161030Y11344D01*
Y12278D01*
X160788Y13181D01*
X160321Y13991D01*
X159660Y14651D01*
X158850Y15119D01*
X157948Y15361D01*
D02*
G37*
G36*
X137948D02*
X137013D01*
X136110Y15119D01*
X135301Y14651D01*
X134640Y13991D01*
X134173Y13181D01*
X133931Y12278D01*
Y11344D01*
X134173Y10441D01*
X134640Y9631D01*
X135301Y8971D01*
X136110Y8503D01*
X137013Y8261D01*
X137948D01*
X138850Y8503D01*
X139660Y8971D01*
X140321Y9631D01*
X140788Y10441D01*
X141030Y11344D01*
Y12278D01*
X140788Y13181D01*
X140321Y13991D01*
X139660Y14651D01*
X138850Y15119D01*
X137948Y15361D01*
D02*
G37*
G36*
X127948D02*
X127013D01*
X126110Y15119D01*
X125301Y14651D01*
X124640Y13991D01*
X124173Y13181D01*
X123931Y12278D01*
Y11344D01*
X124173Y10441D01*
X124640Y9631D01*
X125301Y8971D01*
X126110Y8503D01*
X127013Y8261D01*
X127948D01*
X128850Y8503D01*
X129660Y8971D01*
X130321Y9631D01*
X130788Y10441D01*
X131030Y11344D01*
Y12278D01*
X130788Y13181D01*
X130321Y13991D01*
X129660Y14651D01*
X128850Y15119D01*
X127948Y15361D01*
D02*
G37*
G36*
X107948D02*
X107013D01*
X106110Y15119D01*
X105301Y14651D01*
X104640Y13991D01*
X104173Y13181D01*
X103931Y12278D01*
Y11344D01*
X104173Y10441D01*
X104640Y9631D01*
X105301Y8971D01*
X106110Y8503D01*
X107013Y8261D01*
X107948D01*
X108850Y8503D01*
X109660Y8971D01*
X110321Y9631D01*
X110788Y10441D01*
X111030Y11344D01*
Y12278D01*
X110788Y13181D01*
X110321Y13991D01*
X109660Y14651D01*
X108850Y15119D01*
X107948Y15361D01*
D02*
G37*
G36*
X97948D02*
X97013D01*
X96110Y15119D01*
X95301Y14651D01*
X94640Y13991D01*
X94173Y13181D01*
X93931Y12278D01*
Y11344D01*
X94173Y10441D01*
X94640Y9631D01*
X95301Y8971D01*
X96110Y8503D01*
X97013Y8261D01*
X97948D01*
X98850Y8503D01*
X99660Y8971D01*
X100321Y9631D01*
X100788Y10441D01*
X101030Y11344D01*
Y12278D01*
X100788Y13181D01*
X100321Y13991D01*
X99660Y14651D01*
X98850Y15119D01*
X97948Y15361D01*
D02*
G37*
G36*
X89055Y15399D02*
X85905D01*
X85135Y15246D01*
X84482Y14810D01*
X84045Y14156D01*
X83892Y13386D01*
Y10236D01*
X84045Y9466D01*
X84482Y8812D01*
X85135Y8376D01*
X85905Y8223D01*
X89055D01*
X89826Y8376D01*
X90479Y8812D01*
X90915Y9466D01*
X91069Y10236D01*
Y13386D01*
X90915Y14156D01*
X90479Y14810D01*
X89826Y15246D01*
X89055Y15399D01*
D02*
G37*
G36*
X231398Y11220D02*
X228071D01*
Y7893D01*
X229000Y8142D01*
X229898Y8661D01*
X230631Y9394D01*
X231149Y10291D01*
X231398Y11220D01*
D02*
G37*
G36*
X226890D02*
X223563D01*
X223812Y10291D01*
X224330Y9394D01*
X225063Y8661D01*
X225961Y8142D01*
X226890Y7893D01*
Y11220D01*
D02*
G37*
G36*
X201398D02*
X198071D01*
Y7893D01*
X199000Y8142D01*
X199898Y8661D01*
X200631Y9394D01*
X201149Y10291D01*
X201398Y11220D01*
D02*
G37*
G36*
X196890D02*
X193563D01*
X193812Y10291D01*
X194330Y9394D01*
X195063Y8661D01*
X195961Y8142D01*
X196890Y7893D01*
Y11220D01*
D02*
G37*
G36*
X181398D02*
X178071D01*
Y7893D01*
X179000Y8142D01*
X179898Y8661D01*
X180631Y9394D01*
X181149Y10291D01*
X181398Y11220D01*
D02*
G37*
G36*
X176890D02*
X173563D01*
X173812Y10291D01*
X174330Y9394D01*
X175063Y8661D01*
X175961Y8142D01*
X176890Y7893D01*
Y11220D01*
D02*
G37*
G36*
X151398D02*
X148071D01*
Y7893D01*
X149000Y8142D01*
X149898Y8661D01*
X150631Y9394D01*
X151149Y10291D01*
X151398Y11220D01*
D02*
G37*
G36*
X146890D02*
X143563D01*
X143812Y10291D01*
X144330Y9394D01*
X145063Y8661D01*
X145961Y8142D01*
X146890Y7893D01*
Y11220D01*
D02*
G37*
G36*
X121398D02*
X118071D01*
Y7893D01*
X119000Y8142D01*
X119898Y8661D01*
X120631Y9394D01*
X121149Y10291D01*
X121398Y11220D01*
D02*
G37*
G36*
X116890D02*
X113563D01*
X113812Y10291D01*
X114330Y9394D01*
X115063Y8661D01*
X115961Y8142D01*
X116890Y7893D01*
Y11220D01*
D02*
G37*
%LPD*%
D48*
X303150Y43268D02*
D03*
D49*
Y53268D02*
D03*
Y63268D02*
D03*
Y73268D02*
D03*
Y83268D02*
D03*
Y93268D02*
D03*
Y103268D02*
D03*
Y113268D02*
D03*
Y123268D02*
D03*
Y133268D02*
D03*
Y143268D02*
D03*
Y153268D02*
D03*
Y163268D02*
D03*
Y173268D02*
D03*
D59*
X140472Y193691D02*
D03*
X174488D02*
D03*
D60*
X168858Y195659D02*
D03*
X146102D02*
D03*
D61*
X174488Y210148D02*
D03*
X140472D02*
D03*
D62*
X11811Y133268D02*
D03*
D63*
Y123268D02*
D03*
Y113268D02*
D03*
Y103268D02*
D03*
Y93268D02*
D03*
Y83268D02*
D03*
D64*
X197480Y11811D02*
D03*
X187480D02*
D03*
X177480D02*
D03*
X157480D02*
D03*
X147480D02*
D03*
X127480D02*
D03*
X107480D02*
D03*
X97480D02*
D03*
X117480D02*
D03*
X137480D02*
D03*
X167480D02*
D03*
X207480D02*
D03*
X217480D02*
D03*
X227480D02*
D03*
D65*
X87480D02*
D03*
D66*
X300787Y202362D02*
D03*
Y14173D02*
D03*
X14173D02*
D03*
Y202362D02*
D03*
D67*
X291339Y142913D02*
D03*
X309842Y187401D02*
D03*
Y163779D02*
D03*
Y140157D02*
D03*
Y69291D02*
D03*
Y45669D02*
D03*
X303937Y33858D02*
D03*
X298031Y187401D02*
D03*
X292126Y175590D02*
D03*
Y151968D02*
D03*
X298031Y140157D02*
D03*
X292126Y57480D02*
D03*
Y33858D02*
D03*
X280315Y199213D02*
D03*
X286220Y187401D02*
D03*
X280315Y175590D02*
D03*
X286220Y163779D02*
D03*
Y140157D02*
D03*
Y116535D02*
D03*
X280315Y104724D02*
D03*
Y81102D02*
D03*
X286220Y69291D02*
D03*
X280315Y57480D02*
D03*
Y33858D02*
D03*
X286220Y22047D02*
D03*
X280315Y10236D02*
D03*
X268504Y199213D02*
D03*
X274409Y187401D02*
D03*
X268504Y175590D02*
D03*
X274409Y163779D02*
D03*
X268504Y104724D02*
D03*
X274409Y92913D02*
D03*
X268504Y81102D02*
D03*
X274409Y69291D02*
D03*
Y45669D02*
D03*
X268504Y33858D02*
D03*
X274409Y22047D02*
D03*
X268504Y10236D02*
D03*
X256693Y199213D02*
D03*
X262598Y187401D02*
D03*
Y163779D02*
D03*
Y140157D02*
D03*
X256693Y104724D02*
D03*
X262598Y69291D02*
D03*
X256693Y57480D02*
D03*
X262598Y45669D02*
D03*
X256693Y33858D02*
D03*
X262598Y22047D02*
D03*
X256693Y10236D02*
D03*
X244882Y199213D02*
D03*
X250787Y187401D02*
D03*
Y163779D02*
D03*
X244882Y151968D02*
D03*
X233071Y199213D02*
D03*
X238976Y187401D02*
D03*
Y163779D02*
D03*
X233071Y57480D02*
D03*
Y10236D02*
D03*
X221260Y199213D02*
D03*
X227165Y187401D02*
D03*
Y163779D02*
D03*
Y140157D02*
D03*
Y116535D02*
D03*
Y69291D02*
D03*
Y22047D02*
D03*
X209449Y199213D02*
D03*
X215354Y187401D02*
D03*
Y163779D02*
D03*
Y140157D02*
D03*
X209449Y81102D02*
D03*
X215354Y69291D02*
D03*
Y22047D02*
D03*
X197638Y199213D02*
D03*
X203543Y187401D02*
D03*
Y163779D02*
D03*
Y92913D02*
D03*
X197638Y81102D02*
D03*
X185827Y199213D02*
D03*
X191732Y187401D02*
D03*
Y163779D02*
D03*
Y92913D02*
D03*
Y45669D02*
D03*
X179921Y187401D02*
D03*
X174016Y175590D02*
D03*
Y128346D02*
D03*
X179921Y22047D02*
D03*
X162205Y128346D02*
D03*
X168110Y116535D02*
D03*
Y22047D02*
D03*
X156299Y140157D02*
D03*
X150394Y128346D02*
D03*
X156299Y116535D02*
D03*
Y45669D02*
D03*
X144488Y163779D02*
D03*
Y116535D02*
D03*
X138583Y57480D02*
D03*
X144488Y22047D02*
D03*
X126772Y199213D02*
D03*
X132677Y163779D02*
D03*
X126772Y151968D02*
D03*
Y81102D02*
D03*
X132677Y69291D02*
D03*
X126772Y57480D02*
D03*
X132677Y22047D02*
D03*
X114961Y199213D02*
D03*
Y151968D02*
D03*
X120866Y92913D02*
D03*
X114961Y81102D02*
D03*
X120866Y69291D02*
D03*
X114961Y57480D02*
D03*
X120866Y45669D02*
D03*
X103149Y199213D02*
D03*
X109055Y187401D02*
D03*
X103149Y151968D02*
D03*
X109055Y69291D02*
D03*
X103149Y57480D02*
D03*
X109055Y45669D02*
D03*
X91338Y199213D02*
D03*
X97244Y187401D02*
D03*
X91338Y151968D02*
D03*
Y81102D02*
D03*
X97244Y69291D02*
D03*
X91338Y57480D02*
D03*
X97244Y45669D02*
D03*
Y22047D02*
D03*
X79527Y199213D02*
D03*
X85433Y187401D02*
D03*
Y45669D02*
D03*
X79527Y33858D02*
D03*
X85433Y22047D02*
D03*
X67716Y199213D02*
D03*
X73622Y187401D02*
D03*
X67716Y128346D02*
D03*
Y104724D02*
D03*
Y81102D02*
D03*
X73622Y69291D02*
D03*
Y45669D02*
D03*
Y22047D02*
D03*
X55905Y199213D02*
D03*
Y128346D02*
D03*
X61811Y116535D02*
D03*
X55905Y81102D02*
D03*
X61811Y69291D02*
D03*
X55905Y57480D02*
D03*
X61811Y45669D02*
D03*
X55905Y33858D02*
D03*
X61811Y22047D02*
D03*
X44094Y199213D02*
D03*
Y175590D02*
D03*
X50000Y163779D02*
D03*
Y69291D02*
D03*
Y45669D02*
D03*
X44094Y33858D02*
D03*
X32283Y199213D02*
D03*
X38189Y187401D02*
D03*
X32283Y175590D02*
D03*
X38189Y163779D02*
D03*
X32283Y151968D02*
D03*
Y128346D02*
D03*
X38189Y69291D02*
D03*
X32283Y10236D02*
D03*
X26378Y187401D02*
D03*
X20472Y175590D02*
D03*
X26378Y163779D02*
D03*
X20472Y151968D02*
D03*
X26378Y140157D02*
D03*
X20472Y128346D02*
D03*
X26378Y116535D02*
D03*
Y69291D02*
D03*
X20472Y57480D02*
D03*
X26378Y45669D02*
D03*
X20472Y33858D02*
D03*
X26378Y22047D02*
D03*
X14567Y187401D02*
D03*
X8661Y175590D02*
D03*
X14567Y163779D02*
D03*
X8661Y151968D02*
D03*
Y57480D02*
D03*
X14567Y45669D02*
D03*
X8661Y33858D02*
D03*
X230315Y102362D02*
D03*
X234252Y98819D02*
D03*
X132677Y186221D02*
D03*
X124803D02*
D03*
X137795Y181890D02*
D03*
X112205D02*
D03*
X116929Y186221D02*
D03*
X88976Y178740D02*
D03*
X93307Y175197D02*
D03*
X55118Y176378D02*
D03*
X59055D02*
D03*
X55118Y179921D02*
D03*
X59055D02*
D03*
X55118Y183465D02*
D03*
X59055D02*
D03*
X62992D02*
D03*
X66929D02*
D03*
X59055Y169291D02*
D03*
X55118D02*
D03*
Y165748D02*
D03*
X59055D02*
D03*
X66929Y162205D02*
D03*
X55118D02*
D03*
X59055D02*
D03*
X62992D02*
D03*
X78740Y172441D02*
D03*
X196063Y130709D02*
D03*
X199213Y136614D02*
D03*
Y133071D02*
D03*
X192520Y130709D02*
D03*
X181102Y190551D02*
D03*
X41732Y134646D02*
D03*
X37795D02*
D03*
Y131496D02*
D03*
X41732D02*
D03*
X94095Y27559D02*
D03*
Y31496D02*
D03*
X116142Y21654D02*
D03*
X112205D02*
D03*
X116142Y24803D02*
D03*
X112205D02*
D03*
X41732Y137795D02*
D03*
X37795D02*
D03*
X133858Y190945D02*
D03*
X144882Y187008D02*
D03*
X170079D02*
D03*
X137598Y103150D02*
D03*
X230315Y88976D02*
D03*
X225590Y33465D02*
D03*
X168307Y84252D02*
D03*
X162402D02*
D03*
X210630Y60039D02*
D03*
X97441Y27559D02*
D03*
Y31496D02*
D03*
X173228Y60039D02*
D03*
X112205Y43307D02*
D03*
X116142D02*
D03*
X208760Y34449D02*
D03*
X180118D02*
D03*
X141732D02*
D03*
X170276D02*
D03*
X62008Y28543D02*
D03*
X77756Y104331D02*
D03*
X96457Y192913D02*
D03*
X134843Y153543D02*
D03*
X190945Y115157D02*
D03*
X199803Y143701D02*
D03*
X123031Y107283D02*
D03*
X175197Y136811D02*
D03*
Y111221D02*
D03*
X139764D02*
D03*
X164370Y106299D02*
D03*
X122047Y182087D02*
D03*
X127953D02*
D03*
X84646Y181988D02*
D03*
X285531Y73228D02*
D03*
X108760Y97342D02*
D03*
X108858Y88583D02*
D03*
X222441Y127559D02*
D03*
X170866Y122047D02*
D03*
X190945Y109252D02*
D03*
X134646Y93307D02*
D03*
X134252Y87008D02*
D03*
X153150Y79134D02*
D03*
X142913Y72835D02*
D03*
X170079D02*
D03*
X207480D02*
D03*
X180315D02*
D03*
X173228Y46457D02*
D03*
X56102Y41339D02*
D03*
X50197D02*
D03*
X45276Y10827D02*
D03*
Y28543D02*
D03*
X157480Y181102D02*
D03*
X219685Y44094D02*
D03*
X213779D02*
D03*
X130709D02*
D03*
X136221D02*
D03*
X212992Y104724D02*
D03*
X200000Y87795D02*
D03*
X216142Y110236D02*
D03*
X154528Y88976D02*
D03*
X210630Y46457D02*
D03*
X177953Y40945D02*
D03*
X140551D02*
D03*
X127756Y99213D02*
D03*
X145669Y157480D02*
D03*
X124016Y113189D02*
D03*
X190945Y125984D02*
D03*
M02*
