G04*
G04 #@! TF.GenerationSoftware,Altium Limited,Altium Designer,26.1.1 (7)*
G04*
G04 Layer_Color=16711935*
%FSLAX25Y25*%
%MOIN*%
G70*
G04*
G04 #@! TF.SameCoordinates,80A9187B-927A-44A2-B289-347268ADEE1A*
G04*
G04*
G04 #@! TF.FilePolarity,Negative*
G04*
G01*
G75*
%ADD41O,0.04528X0.08858*%
%ADD42C,0.02953*%
%ADD43O,0.05315X0.07677*%
%ADD44R,0.06693X0.06693*%
%ADD45C,0.06693*%
%ADD46C,0.06890*%
G04:AMPARAMS|DCode=47|XSize=68.9mil|YSize=68.9mil|CornerRadius=18.7mil|HoleSize=0mil|Usage=FLASHONLY|Rotation=0.000|XOffset=0mil|YOffset=0mil|HoleType=Round|Shape=RoundedRectangle|*
%AMROUNDEDRECTD47*
21,1,0.06890,0.03150,0,0,0.0*
21,1,0.03150,0.06890,0,0,0.0*
1,1,0.03740,0.01575,-0.01575*
1,1,0.03740,-0.01575,-0.01575*
1,1,0.03740,-0.01575,0.01575*
1,1,0.03740,0.01575,0.01575*
%
%ADD47ROUNDEDRECTD47*%
%ADD48R,0.06181X0.06181*%
%ADD49C,0.06181*%
%ADD50C,0.24213*%
D41*
X140472Y193691D02*
D03*
X174488D02*
D03*
D42*
X168858Y195659D02*
D03*
X146102D02*
D03*
D43*
X174488Y210148D02*
D03*
X140472D02*
D03*
D44*
X11811Y133268D02*
D03*
D45*
Y123268D02*
D03*
Y113268D02*
D03*
Y103268D02*
D03*
Y93268D02*
D03*
Y83268D02*
D03*
D46*
X197480Y11811D02*
D03*
X187480D02*
D03*
X177480D02*
D03*
X157480D02*
D03*
X147480D02*
D03*
X127480D02*
D03*
X107480D02*
D03*
X97480D02*
D03*
X117480D02*
D03*
X137480D02*
D03*
X167480D02*
D03*
X207480D02*
D03*
X217480D02*
D03*
X227480D02*
D03*
D47*
X87480D02*
D03*
D48*
X303150Y43268D02*
D03*
D49*
Y53268D02*
D03*
Y63268D02*
D03*
Y73268D02*
D03*
Y83268D02*
D03*
Y93268D02*
D03*
Y103268D02*
D03*
Y113268D02*
D03*
Y123268D02*
D03*
Y133268D02*
D03*
Y143268D02*
D03*
Y153268D02*
D03*
Y163268D02*
D03*
Y173268D02*
D03*
D50*
X300787Y202362D02*
D03*
Y14173D02*
D03*
X14173D02*
D03*
Y202362D02*
D03*
M02*
