%TF.GenerationSoftware,Altium Limited,Altium Designer,26.2.0 (7)*%
G04 Layer_Physical_Order=1*
G04 Layer_Color=255*
%FSLAX45Y45*%
%MOMM*%
%TF.SameCoordinates,98F60570-CFD4-4618-BAC5-DA2D18F82F03*%
%TF.FilePolarity,Positive*%
%TF.FileFunction,Copper,L1,Top,Signal*%
%TF.Part,Single*%
G01*
G75*
%TA.AperFunction,Conductor*%
%ADD10C,0.28400*%
%TA.AperFunction,SMDPad,CuDef*%
G04:AMPARAMS|DCode=11|XSize=0.8mm|YSize=1mm|CornerRadius=0.1mm|HoleSize=0mm|Usage=FLASHONLY|Rotation=270.000|XOffset=0mm|YOffset=0mm|HoleType=Round|Shape=RoundedRectangle|*
%AMROUNDEDRECTD11*
21,1,0.80000,0.80000,0,0,270.0*
21,1,0.60000,1.00000,0,0,270.0*
1,1,0.20000,-0.40000,-0.30000*
1,1,0.20000,-0.40000,0.30000*
1,1,0.20000,0.40000,0.30000*
1,1,0.20000,0.40000,-0.30000*
%
%ADD11ROUNDEDRECTD11*%
G04:AMPARAMS|DCode=12|XSize=0.8mm|YSize=1mm|CornerRadius=0.1mm|HoleSize=0mm|Usage=FLASHONLY|Rotation=180.000|XOffset=0mm|YOffset=0mm|HoleType=Round|Shape=RoundedRectangle|*
%AMROUNDEDRECTD12*
21,1,0.80000,0.80000,0,0,180.0*
21,1,0.60000,1.00000,0,0,180.0*
1,1,0.20000,-0.30000,0.40000*
1,1,0.20000,0.30000,0.40000*
1,1,0.20000,0.30000,-0.40000*
1,1,0.20000,-0.30000,-0.40000*
%
%ADD12ROUNDEDRECTD12*%
G04:AMPARAMS|DCode=13|XSize=1.3mm|YSize=1.1mm|CornerRadius=0.055mm|HoleSize=0mm|Usage=FLASHONLY|Rotation=180.000|XOffset=0mm|YOffset=0mm|HoleType=Round|Shape=RoundedRectangle|*
%AMROUNDEDRECTD13*
21,1,1.30000,0.99000,0,0,180.0*
21,1,1.19000,1.10000,0,0,180.0*
1,1,0.11000,-0.59500,0.49500*
1,1,0.11000,0.59500,0.49500*
1,1,0.11000,0.59500,-0.49500*
1,1,0.11000,-0.59500,-0.49500*
%
%ADD13ROUNDEDRECTD13*%
G04:AMPARAMS|DCode=14|XSize=1.4mm|YSize=1.7mm|CornerRadius=0.175mm|HoleSize=0mm|Usage=FLASHONLY|Rotation=90.000|XOffset=0mm|YOffset=0mm|HoleType=Round|Shape=RoundedRectangle|*
%AMROUNDEDRECTD14*
21,1,1.40000,1.35000,0,0,90.0*
21,1,1.05000,1.70000,0,0,90.0*
1,1,0.35000,0.67500,0.52500*
1,1,0.35000,0.67500,-0.52500*
1,1,0.35000,-0.67500,-0.52500*
1,1,0.35000,-0.67500,0.52500*
%
%ADD14ROUNDEDRECTD14*%
%ADD15R,0.30480X1.19380*%
%ADD16R,1.19380X0.30480*%
%TA.AperFunction,TestPad*%
G04:AMPARAMS|DCode=17|XSize=1mm|YSize=0.7mm|CornerRadius=0.035mm|HoleSize=0mm|Usage=FLASHONLY|Rotation=90.000|XOffset=0mm|YOffset=0mm|HoleType=Round|Shape=RoundedRectangle|*
%AMROUNDEDRECTD17*
21,1,1.00000,0.63000,0,0,90.0*
21,1,0.93000,0.70000,0,0,90.0*
1,1,0.07000,0.31500,0.46500*
1,1,0.07000,0.31500,-0.46500*
1,1,0.07000,-0.31500,-0.46500*
1,1,0.07000,-0.31500,0.46500*
%
%ADD17ROUNDEDRECTD17*%
%ADD18C,1.00000*%
%TA.AperFunction,SMDPad,CuDef*%
G04:AMPARAMS|DCode=19|XSize=0.6mm|YSize=1.05mm|CornerRadius=0.075mm|HoleSize=0mm|Usage=FLASHONLY|Rotation=270.000|XOffset=0mm|YOffset=0mm|HoleType=Round|Shape=RoundedRectangle|*
%AMROUNDEDRECTD19*
21,1,0.60000,0.90000,0,0,270.0*
21,1,0.45000,1.05000,0,0,270.0*
1,1,0.15000,-0.45000,-0.22500*
1,1,0.15000,-0.45000,0.22500*
1,1,0.15000,0.45000,0.22500*
1,1,0.15000,0.45000,-0.22500*
%
%ADD19ROUNDEDRECTD19*%
%ADD20R,1.00000X1.00000*%
G04:AMPARAMS|DCode=21|XSize=1.8565mm|YSize=0.49798mm|CornerRadius=0.24899mm|HoleSize=0mm|Usage=FLASHONLY|Rotation=270.000|XOffset=0mm|YOffset=0mm|HoleType=Round|Shape=RoundedRectangle|*
%AMROUNDEDRECTD21*
21,1,1.85650,0.00000,0,0,270.0*
21,1,1.35852,0.49798,0,0,270.0*
1,1,0.49798,0.00000,-0.67926*
1,1,0.49798,0.00000,0.67926*
1,1,0.49798,0.00000,0.67926*
1,1,0.49798,0.00000,-0.67926*
%
%ADD21ROUNDEDRECTD21*%
G04:AMPARAMS|DCode=22|XSize=1.55mm|YSize=0.6mm|CornerRadius=0.051mm|HoleSize=0mm|Usage=FLASHONLY|Rotation=0.000|XOffset=0mm|YOffset=0mm|HoleType=Round|Shape=RoundedRectangle|*
%AMROUNDEDRECTD22*
21,1,1.55000,0.49800,0,0,0.0*
21,1,1.44800,0.60000,0,0,0.0*
1,1,0.10200,0.72400,-0.24900*
1,1,0.10200,-0.72400,-0.24900*
1,1,0.10200,-0.72400,0.24900*
1,1,0.10200,0.72400,0.24900*
%
%ADD22ROUNDEDRECTD22*%
G04:AMPARAMS|DCode=23|XSize=0.6mm|YSize=1.2mm|CornerRadius=0.075mm|HoleSize=0mm|Usage=FLASHONLY|Rotation=180.000|XOffset=0mm|YOffset=0mm|HoleType=Round|Shape=RoundedRectangle|*
%AMROUNDEDRECTD23*
21,1,0.60000,1.05000,0,0,180.0*
21,1,0.45000,1.20000,0,0,180.0*
1,1,0.15000,-0.22500,0.52500*
1,1,0.15000,0.22500,0.52500*
1,1,0.15000,0.22500,-0.52500*
1,1,0.15000,-0.22500,-0.52500*
%
%ADD23ROUNDEDRECTD23*%
%TA.AperFunction,TestPad*%
G04:AMPARAMS|DCode=24|XSize=0.6mm|YSize=1mm|CornerRadius=0.075mm|HoleSize=0mm|Usage=FLASHONLY|Rotation=180.000|XOffset=0mm|YOffset=0mm|HoleType=Round|Shape=RoundedRectangle|*
%AMROUNDEDRECTD24*
21,1,0.60000,0.85000,0,0,180.0*
21,1,0.45000,1.00000,0,0,180.0*
1,1,0.15000,-0.22500,0.42500*
1,1,0.15000,0.22500,0.42500*
1,1,0.15000,0.22500,-0.42500*
1,1,0.15000,-0.22500,-0.42500*
%
%ADD24ROUNDEDRECTD24*%
%TA.AperFunction,SMDPad,CuDef*%
%ADD25R,0.49798X1.85650*%
%TA.AperFunction,TestPad*%
G04:AMPARAMS|DCode=26|XSize=0.3mm|YSize=1.15mm|CornerRadius=0.0375mm|HoleSize=0mm|Usage=FLASHONLY|Rotation=180.000|XOffset=0mm|YOffset=0mm|HoleType=Round|Shape=RoundedRectangle|*
%AMROUNDEDRECTD26*
21,1,0.30000,1.07500,0,0,180.0*
21,1,0.22500,1.15000,0,0,180.0*
1,1,0.07500,-0.11250,0.53750*
1,1,0.07500,0.11250,0.53750*
1,1,0.07500,0.11250,-0.53750*
1,1,0.07500,-0.11250,-0.53750*
%
%ADD26ROUNDEDRECTD26*%
%TA.AperFunction,Conductor*%
%ADD27C,0.34900*%
%ADD28C,0.30000*%
%ADD29C,0.50000*%
%ADD30C,1.00000*%
%ADD31C,0.60000*%
%ADD32C,0.70000*%
%ADD33C,0.80000*%
%ADD34C,0.20000*%
%ADD35C,0.21800*%
%ADD36C,0.34930*%
%ADD37C,0.25000*%
%TA.AperFunction,ComponentPad*%
%ADD38C,1.57000*%
%ADD39R,1.57000X1.57000*%
%ADD40C,1.55000*%
%ADD41R,1.55000X1.55000*%
%ADD42C,1.60000*%
G04:AMPARAMS|DCode=43|XSize=1.6mm|YSize=1.6mm|CornerRadius=0.4mm|HoleSize=0mm|Usage=FLASHONLY|Rotation=0.000|XOffset=0mm|YOffset=0mm|HoleType=Round|Shape=RoundedRectangle|*
%AMROUNDEDRECTD43*
21,1,1.60000,0.80000,0,0,0.0*
21,1,0.80000,1.60000,0,0,0.0*
1,1,0.80000,0.40000,-0.40000*
1,1,0.80000,-0.40000,-0.40000*
1,1,0.80000,-0.40000,0.40000*
1,1,0.80000,0.40000,0.40000*
%
%ADD43ROUNDEDRECTD43*%
%TA.AperFunction,TestPad*%
%ADD44O,1.00000X2.10000*%
%ADD45O,1.20000X1.80000*%
%TA.AperFunction,ViaPad*%
%ADD46C,6.00000*%
%TA.AperFunction,TestPad*%
%ADD47C,0.65000*%
%TA.AperFunction,ViaPad*%
%ADD48C,0.60000*%
G36*
X3450135Y5122625D02*
X3450885Y5120500D01*
X3452135Y5118625D01*
X3453885Y5117000D01*
X3456135Y5115625D01*
X3458885Y5114500D01*
X3462135Y5113625D01*
X3465885Y5113000D01*
X3470135Y5112625D01*
X3474885Y5112500D01*
Y5087500D01*
X3470135Y5087375D01*
X3465885Y5087000D01*
X3462135Y5086375D01*
X3458885Y5085500D01*
X3456135Y5084375D01*
X3453885Y5083000D01*
X3452135Y5081375D01*
X3450885Y5079500D01*
X3450135Y5077375D01*
X3449885Y5075000D01*
Y5125000D01*
X3450135Y5122625D01*
D02*
G37*
G36*
X4550115Y5070000D02*
X4549865Y5072375D01*
X4549115Y5074500D01*
X4547865Y5076375D01*
X4546115Y5078000D01*
X4543865Y5079375D01*
X4541115Y5080500D01*
X4537865Y5081375D01*
X4534115Y5082000D01*
X4529865Y5082375D01*
X4525115Y5082500D01*
Y5107500D01*
X4529865Y5107625D01*
X4534115Y5108000D01*
X4537865Y5108625D01*
X4541115Y5109500D01*
X4543865Y5110625D01*
X4546115Y5112000D01*
X4547865Y5113625D01*
X4549115Y5115500D01*
X4549865Y5117625D01*
X4550115Y5120000D01*
Y5070000D01*
D02*
G37*
G36*
X1810592Y4857604D02*
X1809192Y4862354D01*
X1806981Y4866604D01*
X1803960Y4870354D01*
X1800129Y4873604D01*
X1795486Y4876354D01*
X1790034Y4878604D01*
X1783770Y4880354D01*
X1776695Y4881604D01*
X1768811Y4882354D01*
X1765521Y4882448D01*
X1763785Y4882406D01*
X1756081Y4881812D01*
X1748766Y4880822D01*
X1741838Y4879437D01*
X1735298Y4877655D01*
X1729146Y4875477D01*
X1723382Y4872904D01*
X1718006Y4869934D01*
X1713018Y4866569D01*
X1708418Y4862808D01*
X1702373Y4941842D01*
X1705520Y4940087D01*
X1709313Y4938516D01*
X1713752Y4937130D01*
X1718837Y4935929D01*
X1724567Y4934913D01*
X1737966Y4933435D01*
X1753948Y4932696D01*
X1761159Y4932622D01*
X1768435Y4932748D01*
X1783054Y4933898D01*
X1789354Y4934906D01*
X1794980Y4936200D01*
X1799933Y4937783D01*
X1804212Y4939653D01*
X1807818Y4941811D01*
X1810751Y4944257D01*
X1813010Y4946990D01*
X1810592Y4857604D01*
D02*
G37*
G36*
X2138010Y4853010D02*
X2134836Y4857188D01*
X2131192Y4860927D01*
X2127078Y4864225D01*
X2122494Y4867084D01*
X2117439Y4869503D01*
X2111915Y4871482D01*
X2105920Y4873021D01*
X2099455Y4874121D01*
X2092520Y4874780D01*
X2087500Y4874929D01*
X2082480Y4874780D01*
X2075545Y4874121D01*
X2069080Y4873021D01*
X2063085Y4871482D01*
X2057561Y4869503D01*
X2052506Y4867084D01*
X2047922Y4864225D01*
X2043808Y4860927D01*
X2040164Y4857188D01*
X2036990Y4853010D01*
Y4946990D01*
X2040164Y4942812D01*
X2043808Y4939073D01*
X2047922Y4935775D01*
X2052506Y4932916D01*
X2057561Y4930498D01*
X2063085Y4928518D01*
X2069080Y4926979D01*
X2075545Y4925880D01*
X2082480Y4925220D01*
X2087500Y4925071D01*
X2092520Y4925220D01*
X2099455Y4925880D01*
X2105920Y4926979D01*
X2111915Y4928518D01*
X2117439Y4930498D01*
X2122494Y4932916D01*
X2127078Y4935775D01*
X2131192Y4939073D01*
X2134836Y4942812D01*
X2138010Y4946990D01*
Y4853010D01*
D02*
G37*
G36*
X4137520Y4939687D02*
X4138777Y4919376D01*
X4139116Y4918151D01*
X4139495Y4917344D01*
X4110504D01*
X4110884Y4918151D01*
X4111223Y4919376D01*
X4111522Y4921021D01*
X4111781Y4923084D01*
X4112320Y4931789D01*
X4112500Y4944264D01*
X4137500D01*
X4137520Y4939687D01*
D02*
G37*
G36*
X4039495Y4917344D02*
X4010504D01*
X4010560Y4917712D01*
X4010611Y4918639D01*
X4010799Y4946186D01*
X4039200D01*
X4039495Y4917344D01*
D02*
G37*
G36*
X3939495D02*
X3910504D01*
X3910560Y4917712D01*
X3910611Y4918639D01*
X3910800Y4946186D01*
X3939199D01*
X3939495Y4917344D01*
D02*
G37*
G36*
X3837520Y4939687D02*
X3838777Y4919376D01*
X3839116Y4918151D01*
X3839495Y4917344D01*
X3810504D01*
X3810884Y4918151D01*
X3811223Y4919376D01*
X3811522Y4921021D01*
X3811782Y4923084D01*
X3812320Y4931789D01*
X3812500Y4944264D01*
X3837500D01*
X3837520Y4939687D01*
D02*
G37*
G36*
X1644500Y4860380D02*
X1640453Y4863158D01*
X1635910Y4865643D01*
X1630871Y4867836D01*
X1625336Y4869737D01*
X1619304Y4871345D01*
X1612775Y4872661D01*
X1605751Y4873684D01*
X1590212Y4874854D01*
X1581699Y4875000D01*
Y4925000D01*
X1590212Y4925146D01*
X1605751Y4926316D01*
X1612775Y4927339D01*
X1619304Y4928655D01*
X1625336Y4930263D01*
X1630871Y4932164D01*
X1635910Y4934357D01*
X1640453Y4936843D01*
X1644500Y4939620D01*
Y4860380D01*
D02*
G37*
G36*
X2364662Y4943762D02*
X2368139Y4940874D01*
X2372418Y4938325D01*
X2377502Y4936116D01*
X2383390Y4934247D01*
X2390081Y4932718D01*
X2397577Y4931529D01*
X2405876Y4930680D01*
X2424885Y4930000D01*
Y4870000D01*
X2414978Y4869830D01*
X2397577Y4868471D01*
X2390081Y4867282D01*
X2383390Y4865753D01*
X2377502Y4863884D01*
X2372418Y4861675D01*
X2368139Y4859127D01*
X2364662Y4856238D01*
X2361990Y4853010D01*
Y4946990D01*
X2364662Y4943762D01*
D02*
G37*
G36*
X3445662Y4911540D02*
X3444473Y4908996D01*
X3443425Y4905378D01*
X3442516Y4900687D01*
X3441747Y4894922D01*
X3440629Y4880174D01*
X3440000Y4850000D01*
X3360000D01*
X3359930Y4861131D01*
X3357484Y4900687D01*
X3356575Y4905378D01*
X3355527Y4908996D01*
X3354338Y4911540D01*
X3353010Y4913010D01*
X3446990D01*
X3445662Y4911540D01*
D02*
G37*
G36*
X4645662Y4906490D02*
X4644473Y4903795D01*
X4643425Y4899928D01*
X4642516Y4894887D01*
X4641747Y4888672D01*
X4640629Y4872724D01*
X4640000Y4840000D01*
X4560000D01*
X4559930Y4852081D01*
X4556575Y4899928D01*
X4555527Y4903795D01*
X4554338Y4906490D01*
X4553010Y4908011D01*
X4646990D01*
X4645662Y4906490D01*
D02*
G37*
G36*
X4089287Y4806563D02*
X4089101Y4805441D01*
X4088936Y4803789D01*
X4088575Y4795654D01*
X4088400Y4777393D01*
X4060000Y4776587D01*
X4060504Y4807155D01*
X4089495D01*
X4089287Y4806563D01*
D02*
G37*
G36*
X3939999Y4776587D02*
X3911600Y4777393D01*
X3910504Y4807155D01*
X3939495D01*
X3939999Y4776587D01*
D02*
G37*
G36*
X3989439Y4806787D02*
X3989389Y4805860D01*
X3989332Y4797583D01*
X3989484Y4794700D01*
X3990336Y4789872D01*
X3991756Y4785612D01*
X3993744Y4781920D01*
X3996300Y4778796D01*
X3999424Y4776240D01*
X4003116Y4774252D01*
X4007376Y4772832D01*
X4012204Y4771980D01*
X4017600Y4771696D01*
X4037682Y4743296D01*
X4032486Y4743095D01*
X4028261Y4742492D01*
X4025005Y4741488D01*
X4022719Y4740083D01*
X4021402Y4738275D01*
X4021055Y4736066D01*
X4021678Y4733456D01*
X4023270Y4730443D01*
X4025832Y4727029D01*
X4029363Y4723214D01*
X3975000Y4757496D01*
X3981939Y4778314D01*
X3960800D01*
X3960504Y4807155D01*
X3989495D01*
X3989439Y4806787D01*
D02*
G37*
G36*
X2094613Y4666262D02*
X2097943Y4663373D01*
X2101979Y4660825D01*
X2106720Y4658616D01*
X2112168Y4656747D01*
X2118323Y4655218D01*
X2125183Y4654029D01*
X2132749Y4653180D01*
X2150000Y4652500D01*
Y4592500D01*
X2141021Y4592330D01*
X2125183Y4590971D01*
X2118323Y4589782D01*
X2112168Y4588253D01*
X2106720Y4586384D01*
X2101979Y4584175D01*
X2097943Y4581627D01*
X2094613Y4578738D01*
X2091989Y4575510D01*
Y4669490D01*
X2094613Y4666262D01*
D02*
G37*
G36*
X4360000Y4790000D02*
X4570000D01*
X4590000Y4770000D01*
Y4590000D01*
X4570000Y4570000D01*
X4407500D01*
X4290000Y4687500D01*
Y4817500D01*
X4332500D01*
X4360000Y4790000D01*
D02*
G37*
G36*
X3710000Y4687500D02*
X3592500Y4570000D01*
X2820000D01*
X2800000Y4590000D01*
Y4650000D01*
X2800000Y4770000D01*
X2819998Y4789998D01*
X3410000Y4790000D01*
X3640000D01*
X3667500Y4817500D01*
X3710000D01*
Y4687500D01*
D02*
G37*
G36*
X4109334Y4564054D02*
X4109739Y4560122D01*
X4110413Y4556441D01*
X4111358Y4553010D01*
X4112571Y4549830D01*
X4114055Y4546901D01*
X4115808Y4544222D01*
X4117831Y4541793D01*
X4120124Y4539615D01*
X4122687Y4537687D01*
X4067312D01*
X4069875Y4539615D01*
X4072168Y4541793D01*
X4074191Y4544222D01*
X4075944Y4546901D01*
X4077428Y4549830D01*
X4078642Y4553010D01*
X4079586Y4556441D01*
X4080260Y4560122D01*
X4080665Y4564054D01*
X4080800Y4568236D01*
X4109200D01*
X4109334Y4564054D01*
D02*
G37*
G36*
X3919335D02*
X3919739Y4560122D01*
X3920414Y4556441D01*
X3921358Y4553010D01*
X3922572Y4549830D01*
X3924055Y4546901D01*
X3925809Y4544222D01*
X3927832Y4541793D01*
X3930124Y4539615D01*
X3932687Y4537687D01*
X3877313D01*
X3879875Y4539615D01*
X3882168Y4541793D01*
X3884191Y4544222D01*
X3885944Y4546901D01*
X3887428Y4549830D01*
X3888642Y4553010D01*
X3889586Y4556441D01*
X3890260Y4560122D01*
X3890665Y4564054D01*
X3890800Y4568236D01*
X3919200D01*
X3919335Y4564054D01*
D02*
G37*
G36*
X4025042Y4580225D02*
X4027737Y4539517D01*
X4028464Y4537000D01*
X4029277Y4535307D01*
X3970722D01*
X3971535Y4537000D01*
X3972262Y4539517D01*
X3972904Y4542859D01*
X3973460Y4547025D01*
X3974315Y4557831D01*
X3975000Y4589339D01*
X4025000D01*
X4025042Y4580225D01*
D02*
G37*
G36*
X1942397Y4575596D02*
X1940845Y4571700D01*
X1939475Y4567028D01*
X1938287Y4561581D01*
X1937283Y4555358D01*
X1935822Y4540587D01*
X1935091Y4522714D01*
X1935000Y4512615D01*
X1875000D01*
X1874908Y4522714D01*
X1872717Y4555358D01*
X1871712Y4561581D01*
X1870525Y4567028D01*
X1869155Y4571700D01*
X1867602Y4575596D01*
X1865867Y4578717D01*
X1944133D01*
X1942397Y4575596D01*
D02*
G37*
G36*
X2060164Y4452500D02*
X2059964Y4454400D01*
X2059364Y4456100D01*
X2058364Y4457600D01*
X2056964Y4458900D01*
X2055164Y4460000D01*
X2052964Y4460900D01*
X2050364Y4461600D01*
X2047364Y4462100D01*
X2043964Y4462400D01*
X2040164Y4462500D01*
Y4482500D01*
X2043964Y4482600D01*
X2047364Y4482900D01*
X2050364Y4483399D01*
X2052964Y4484099D01*
X2055164Y4484999D01*
X2056964Y4486099D01*
X2058364Y4487399D01*
X2059364Y4488900D01*
X2059964Y4490600D01*
X2060164Y4492500D01*
Y4452500D01*
D02*
G37*
G36*
X3573836Y4435900D02*
X3571093Y4437629D01*
X3567429Y4439176D01*
X3562845Y4440541D01*
X3557342Y4441724D01*
X3550918Y4442725D01*
X3535311Y4444181D01*
X3516024Y4444909D01*
X3505000Y4445000D01*
Y4505000D01*
X3516024Y4505091D01*
X3550918Y4507275D01*
X3557342Y4508276D01*
X3562845Y4509459D01*
X3567429Y4510824D01*
X3571093Y4512371D01*
X3573836Y4514100D01*
Y4435900D01*
D02*
G37*
G36*
X3421904Y4512398D02*
X3425800Y4510845D01*
X3430472Y4509475D01*
X3435919Y4508288D01*
X3442142Y4507283D01*
X3456913Y4505822D01*
X3474786Y4505092D01*
X3484885Y4505000D01*
Y4445000D01*
X3474786Y4444909D01*
X3442142Y4442717D01*
X3435919Y4441712D01*
X3430472Y4440525D01*
X3425800Y4439155D01*
X3421904Y4437603D01*
X3418783Y4435867D01*
Y4514133D01*
X3421904Y4512398D01*
D02*
G37*
G36*
X3289662Y4518762D02*
X3293139Y4515874D01*
X3297419Y4513325D01*
X3302503Y4511116D01*
X3308390Y4509248D01*
X3313207Y4508147D01*
X3314081Y4508288D01*
X3319528Y4509475D01*
X3324200Y4510845D01*
X3328096Y4512398D01*
X3331217Y4514133D01*
Y4505668D01*
X3349885Y4505000D01*
Y4445000D01*
X3339979Y4444830D01*
X3331217Y4444146D01*
Y4435867D01*
X3328096Y4437603D01*
X3324200Y4439155D01*
X3319528Y4440525D01*
X3314081Y4441712D01*
X3313207Y4441853D01*
X3308390Y4440753D01*
X3302503Y4438884D01*
X3297419Y4436675D01*
X3293139Y4434127D01*
X3289662Y4431239D01*
X3286990Y4428010D01*
Y4444427D01*
X3275214Y4444909D01*
X3265115Y4445000D01*
Y4505000D01*
X3275214Y4505092D01*
X3286990Y4505882D01*
Y4521990D01*
X3289662Y4518762D01*
D02*
G37*
G36*
X3066217Y4425867D02*
X3062896Y4427603D01*
X3058400Y4429155D01*
X3052728Y4430525D01*
X3045881Y4431712D01*
X3028660Y4433539D01*
X3006738Y4434635D01*
X2980115Y4435000D01*
Y4515000D01*
X2994014Y4515092D01*
X3045881Y4518288D01*
X3052728Y4519475D01*
X3058400Y4520845D01*
X3062896Y4522398D01*
X3066217Y4524133D01*
Y4425867D01*
D02*
G37*
G36*
X1760000Y4720000D02*
X1760000Y4430000D01*
X1750000Y4420000D01*
X1350000D01*
X1340000Y4430000D01*
X1340000Y4720000D01*
X1350000Y4730000D01*
X1750000D01*
X1760000Y4720000D01*
D02*
G37*
G36*
X3696924Y4524497D02*
X3689193Y4516638D01*
X3666063Y4490420D01*
X3662229Y4485170D01*
X3659174Y4480441D01*
X3656898Y4476235D01*
X3656396Y4475000D01*
X3656898Y4473765D01*
X3659174Y4469558D01*
X3662229Y4464830D01*
X3666063Y4459580D01*
X3676070Y4447515D01*
X3689193Y4433362D01*
X3696924Y4425502D01*
X3654497Y4383076D01*
X3646638Y4390807D01*
X3620419Y4413937D01*
X3615170Y4417771D01*
X3610441Y4420826D01*
X3606235Y4423102D01*
X3602550Y4424598D01*
X3599388Y4425316D01*
X3649072Y4475000D01*
X3599388Y4524684D01*
X3602550Y4525401D01*
X3606235Y4526898D01*
X3610441Y4529174D01*
X3615170Y4532229D01*
X3620419Y4536063D01*
X3632485Y4546070D01*
X3646638Y4559193D01*
X3654497Y4566924D01*
X3696924Y4524497D01*
D02*
G37*
G36*
X2400001Y4599998D02*
X2419999Y4580001D01*
X2420000Y4420000D01*
X2400000Y4400000D01*
X2256689D01*
X2250041Y4397008D01*
X2241556Y4392341D01*
X2233070Y4386826D01*
X2224585Y4380462D01*
X2216100Y4373249D01*
X2207615Y4365188D01*
X2156475Y4398902D01*
X2167906Y4410512D01*
X2200000Y4447594D01*
Y4580000D01*
X2220000Y4600000D01*
X2400001Y4599998D01*
D02*
G37*
G36*
X2099470Y4282629D02*
X2098812Y4282483D01*
X2098079Y4282210D01*
X2097273Y4281808D01*
X2096394Y4281280D01*
X2095441Y4280623D01*
X2093314Y4278928D01*
X2090892Y4276723D01*
X2089571Y4275429D01*
X2075429Y4289571D01*
X2076723Y4290892D01*
X2080624Y4295440D01*
X2081280Y4296393D01*
X2081809Y4297273D01*
X2082210Y4298079D01*
X2082484Y4298811D01*
X2082630Y4299470D01*
X2099470Y4282629D01*
D02*
G37*
G36*
X4089999Y4330000D02*
X4078599Y4329400D01*
X4068400Y4327600D01*
X4059400Y4324600D01*
X4051599Y4320400D01*
X4045000Y4315000D01*
X4039599Y4308400D01*
X4035400Y4300600D01*
X4032400Y4291600D01*
X4030600Y4281400D01*
X4030000Y4270000D01*
X3970000D01*
X3969400Y4281400D01*
X3967600Y4291600D01*
X3964600Y4300600D01*
X3960400Y4308400D01*
X3955000Y4315000D01*
X3948400Y4320400D01*
X3940600Y4324600D01*
X3931600Y4327600D01*
X3921400Y4329400D01*
X3910000Y4330000D01*
X4000000Y4390000D01*
X4089999Y4330000D01*
D02*
G37*
G36*
X2060164Y4262500D02*
X2059964Y4264400D01*
X2059364Y4266100D01*
X2058364Y4267600D01*
X2056964Y4268900D01*
X2055164Y4270000D01*
X2052964Y4270900D01*
X2050364Y4271600D01*
X2047364Y4272100D01*
X2043964Y4272400D01*
X2040164Y4272500D01*
Y4292500D01*
X2043964Y4292600D01*
X2047364Y4292900D01*
X2050364Y4293400D01*
X2052964Y4294100D01*
X2055164Y4295000D01*
X2056964Y4296100D01*
X2058364Y4297400D01*
X2059364Y4298900D01*
X2059964Y4300600D01*
X2060164Y4302500D01*
Y4262500D01*
D02*
G37*
G36*
X2226217Y4258367D02*
X2160115Y4252500D01*
Y4312500D01*
X2169420Y4312720D01*
X2178055Y4313379D01*
X2186020Y4314479D01*
X2193314Y4316018D01*
X2199939Y4317997D01*
X2205893Y4320416D01*
X2211178Y4323275D01*
X2215792Y4326573D01*
X2219736Y4330312D01*
X2223010Y4334490D01*
X2226217Y4258367D01*
D02*
G37*
G36*
X4715234Y4256585D02*
X4716281Y4253618D01*
X4718026Y4251000D01*
X4720469Y4248732D01*
X4723610Y4246812D01*
X4727449Y4245242D01*
X4731986Y4244020D01*
X4737221Y4243148D01*
X4743154Y4242624D01*
X4749785Y4242450D01*
Y4207550D01*
X4743154Y4207375D01*
X4737221Y4206852D01*
X4731986Y4205979D01*
X4727449Y4204758D01*
X4723610Y4203187D01*
X4720469Y4201268D01*
X4718026Y4198999D01*
X4716281Y4196382D01*
X4715234Y4193415D01*
X4714885Y4190100D01*
Y4259900D01*
X4715234Y4256585D01*
D02*
G37*
G36*
X2512819Y4337500D02*
X2502070Y4325952D01*
X2492454Y4313935D01*
X2483969Y4301450D01*
X2476615Y4288496D01*
X2470392Y4275073D01*
X2465301Y4261182D01*
X2461341Y4246823D01*
X2458513Y4231994D01*
X2456816Y4216697D01*
X2456250Y4200931D01*
X2376250Y4177500D01*
X2375450Y4192700D01*
X2373050Y4206300D01*
X2369050Y4218300D01*
X2363450Y4228700D01*
X2356250Y4237500D01*
X2347450Y4244700D01*
X2337050Y4250300D01*
X2325050Y4254300D01*
X2311450Y4256700D01*
X2296250Y4257500D01*
X2319681Y4337500D01*
X2335447Y4338066D01*
X2350744Y4339763D01*
X2365573Y4342591D01*
X2379932Y4346551D01*
X2393824Y4351642D01*
X2407246Y4357865D01*
X2420200Y4365219D01*
X2432685Y4373704D01*
X2444702Y4383320D01*
X2456250Y4394069D01*
X2512819Y4337500D01*
D02*
G37*
G36*
X4519471Y4175115D02*
X4514536Y4174868D01*
X4509601Y4174129D01*
X4504667Y4172897D01*
X4499734Y4171172D01*
X4494802Y4168954D01*
X4489870Y4166243D01*
X4484938Y4163039D01*
X4480008Y4159343D01*
X4475078Y4155153D01*
X4470149Y4150471D01*
X4448098Y4177776D01*
X4455131Y4185056D01*
X4466977Y4198876D01*
X4471789Y4205416D01*
X4475861Y4211708D01*
X4479192Y4217755D01*
X4481784Y4223554D01*
X4483634Y4229106D01*
X4484745Y4234412D01*
X4485115Y4239471D01*
X4519471Y4175115D01*
D02*
G37*
G36*
X1760000Y4360000D02*
Y4336603D01*
X1763174Y4335883D01*
X1773355Y4334192D01*
X1797834Y4331733D01*
X1827801Y4330504D01*
X1844843Y4330350D01*
Y4230350D01*
X1828810Y4230153D01*
X1787598Y4227203D01*
X1776157Y4225432D01*
X1765864Y4223269D01*
X1760000Y4221629D01*
X1760000Y4070000D01*
X1750000Y4060000D01*
X1350000D01*
X1340000Y4070000D01*
X1340000Y4360000D01*
X1350000Y4370000D01*
X1750000D01*
X1760000Y4360000D01*
D02*
G37*
G36*
X4715234Y4056585D02*
X4716281Y4053618D01*
X4718026Y4051001D01*
X4720469Y4048732D01*
X4723610Y4046813D01*
X4727449Y4045242D01*
X4731986Y4044021D01*
X4737221Y4043148D01*
X4743154Y4042625D01*
X4749785Y4042450D01*
Y4007550D01*
X4743154Y4007376D01*
X4737221Y4006852D01*
X4731986Y4005980D01*
X4727449Y4004758D01*
X4723610Y4003188D01*
X4720469Y4001268D01*
X4718026Y3999000D01*
X4716281Y3996382D01*
X4715234Y3993415D01*
X4714885Y3990100D01*
Y4059900D01*
X4715234Y4056585D01*
D02*
G37*
G36*
X3513010Y3853010D02*
X3509836Y3857188D01*
X3506192Y3860927D01*
X3502078Y3864225D01*
X3497494Y3867084D01*
X3492439Y3869503D01*
X3486915Y3871482D01*
X3480920Y3873021D01*
X3474455Y3874121D01*
X3467520Y3874780D01*
X3460115Y3875000D01*
Y3925000D01*
X3467520Y3925220D01*
X3474455Y3925880D01*
X3480920Y3926979D01*
X3486915Y3928518D01*
X3492439Y3930498D01*
X3497494Y3932916D01*
X3502078Y3935775D01*
X3506192Y3939073D01*
X3509836Y3942812D01*
X3513010Y3946990D01*
Y3853010D01*
D02*
G37*
G36*
X3590239Y3895265D02*
X3591299Y3889976D01*
X3593067Y3884477D01*
X3595542Y3878768D01*
X3598724Y3872850D01*
X3602613Y3866722D01*
X3607209Y3860385D01*
X3612512Y3853838D01*
X3625240Y3840115D01*
X3592322Y3802322D01*
X3584088Y3810308D01*
X3560664Y3830000D01*
X3553282Y3835143D01*
X3546114Y3839576D01*
X3539158Y3843298D01*
X3532415Y3846309D01*
X3525886Y3848610D01*
X3519569Y3850201D01*
X3589885Y3900345D01*
X3590239Y3895265D01*
D02*
G37*
G36*
X4389935Y3784385D02*
X4360065D01*
X4361048Y3784570D01*
X4361928Y3785124D01*
X4362704Y3786048D01*
X4363377Y3787340D01*
X4363946Y3789003D01*
X4364412Y3791034D01*
X4364774Y3793435D01*
X4365033Y3796206D01*
X4365240Y3802855D01*
X4390240D01*
X4389935Y3784385D01*
D02*
G37*
G36*
X4337524Y3804635D02*
X4338693Y3786635D01*
X4339058Y3785385D01*
X4339472Y3784635D01*
X4339935Y3784385D01*
X4310065D01*
X4310528Y3784635D01*
X4310942Y3785385D01*
X4311307Y3786635D01*
X4311623Y3788385D01*
X4311891Y3790635D01*
X4312281Y3796635D01*
X4312500Y3809385D01*
X4337500D01*
X4337524Y3804635D01*
D02*
G37*
G36*
X4237524D02*
X4238693Y3786635D01*
X4239059Y3785385D01*
X4239472Y3784635D01*
X4239935Y3784385D01*
X4210065D01*
X4210528Y3784635D01*
X4210942Y3785385D01*
X4211307Y3786635D01*
X4211623Y3788385D01*
X4211891Y3790635D01*
X4212281Y3796635D01*
X4212500Y3809385D01*
X4237500D01*
X4237524Y3804635D01*
D02*
G37*
G36*
X4187524D02*
X4188693Y3786635D01*
X4189058Y3785385D01*
X4189472Y3784635D01*
X4189935Y3784385D01*
X4160065D01*
X4160527Y3784635D01*
X4160941Y3785385D01*
X4161307Y3786635D01*
X4161623Y3788385D01*
X4161891Y3790635D01*
X4162281Y3796635D01*
X4162500Y3809385D01*
X4187500D01*
X4187524Y3804635D01*
D02*
G37*
G36*
X3837623Y3802380D02*
X3838744Y3786385D01*
X3839094Y3785274D01*
X3839491Y3784607D01*
X3839935Y3784385D01*
X3810065D01*
X3809200Y3806601D01*
X3837600D01*
X3837623Y3802380D01*
D02*
G37*
G36*
X3789935Y3784385D02*
X3760065D01*
X3760204Y3784669D01*
X3760329Y3785521D01*
X3760440Y3786941D01*
X3760771Y3802561D01*
X3760800Y3812785D01*
X3789200D01*
X3789935Y3784385D01*
D02*
G37*
G36*
X4139472Y3665365D02*
X4139058Y3664615D01*
X4138693Y3663365D01*
X4138377Y3661615D01*
X4138109Y3659365D01*
X4137719Y3653365D01*
X4137500Y3640615D01*
X4112500D01*
X4112476Y3645365D01*
X4111307Y3663365D01*
X4110941Y3664615D01*
X4110527Y3665365D01*
X4110065Y3665615D01*
X4139935D01*
X4139472Y3665365D01*
D02*
G37*
G36*
X3738952D02*
X3738072Y3664615D01*
X3737296Y3663365D01*
X3736623Y3661615D01*
X3736054Y3659365D01*
X3735588Y3656615D01*
X3735226Y3653365D01*
X3734812Y3645365D01*
X3734760Y3640615D01*
X3709760D01*
X3710065Y3665615D01*
X3739935D01*
X3738952Y3665365D01*
D02*
G37*
G36*
X5010443Y3706213D02*
X5012243Y3701113D01*
X5015243Y3696613D01*
X5019443Y3692713D01*
X5024843Y3689413D01*
X5031443Y3686713D01*
X5039243Y3684613D01*
X5048243Y3683113D01*
X5058443Y3682213D01*
X5069843Y3681913D01*
X5069292Y3621913D01*
X5058891Y3621805D01*
X5025261Y3619205D01*
X5018848Y3618013D01*
X5013232Y3616605D01*
X5008414Y3614980D01*
X5004394Y3613138D01*
X5001172Y3611080D01*
X5009843Y3711913D01*
X5010443Y3706213D01*
D02*
G37*
G36*
X4842916Y3664893D02*
X4849885Y3665000D01*
Y3615000D01*
X4848404Y3614946D01*
X4848829Y3611080D01*
X4847364Y3611825D01*
X4845014Y3612491D01*
X4841779Y3613079D01*
X4837658Y3613589D01*
X4835344Y3613728D01*
X4830603Y3612750D01*
X4824902Y3611000D01*
X4819564Y3608750D01*
X4814589Y3606000D01*
X4809977Y3602750D01*
X4805728Y3599000D01*
X4801842Y3594750D01*
X4798320Y3590000D01*
X4796792Y3614967D01*
X4794343Y3615000D01*
X4790157Y3665000D01*
X4799657Y3665250D01*
X4808157Y3666000D01*
X4815657Y3667250D01*
X4822157Y3669000D01*
X4827657Y3671250D01*
X4832157Y3674000D01*
X4835657Y3677250D01*
X4838157Y3681000D01*
X4839657Y3685250D01*
X4840157Y3690000D01*
X4842916Y3664893D01*
D02*
G37*
G36*
X7376754Y3611036D02*
X7375173Y3612783D01*
X7373429Y3614346D01*
X7371523Y3615725D01*
X7369455Y3616920D01*
X7367225Y3617931D01*
X7364832Y3618759D01*
X7362276Y3619402D01*
X7359559Y3619862D01*
X7356678Y3620138D01*
X7353636Y3620229D01*
X7356153Y3645229D01*
X7359176Y3645306D01*
X7362070Y3645535D01*
X7364835Y3645916D01*
X7367471Y3646451D01*
X7369978Y3647137D01*
X7372356Y3647977D01*
X7374604Y3648969D01*
X7376723Y3650114D01*
X7378714Y3651412D01*
X7380575Y3652862D01*
X7376754Y3611036D01*
D02*
G37*
G36*
X4745345Y3585115D02*
X4740290Y3584787D01*
X4735078Y3583803D01*
X4729707Y3582164D01*
X4724178Y3579868D01*
X4718491Y3576917D01*
X4712645Y3573310D01*
X4706641Y3569047D01*
X4700478Y3564128D01*
X4687678Y3552322D01*
X4652322Y3587678D01*
X4660538Y3596119D01*
X4680703Y3619667D01*
X4685930Y3626926D01*
X4694146Y3640556D01*
X4697133Y3646927D01*
X4699374Y3653003D01*
X4700867Y3658783D01*
X4745345Y3585115D01*
D02*
G37*
G36*
X4671837Y3545068D02*
X4670398Y3544684D01*
X4668478Y3543709D01*
X4666079Y3542143D01*
X4663199Y3539986D01*
X4656428Y3534260D01*
X4634385Y3510065D01*
X4597509Y3539935D01*
X4601752Y3540147D01*
X4605994Y3540784D01*
X4610237Y3541844D01*
X4614479Y3543329D01*
X4618722Y3545239D01*
X4622965Y3547572D01*
X4627207Y3550330D01*
X4629929Y3552371D01*
X4642143Y3566079D01*
X4643709Y3568478D01*
X4644684Y3570398D01*
X4645068Y3571837D01*
X4671837Y3545068D01*
D02*
G37*
G36*
X3365615Y3510065D02*
X3340615Y3509760D01*
Y3534760D01*
X3345365Y3534812D01*
X3356615Y3535588D01*
X3359365Y3536054D01*
X3361615Y3536623D01*
X3363365Y3537296D01*
X3364615Y3538072D01*
X3365365Y3538952D01*
X3365615Y3539935D01*
Y3510065D01*
D02*
G37*
G36*
X4472708Y3494860D02*
X4474208Y3493840D01*
X4475924Y3492940D01*
X4477856Y3492160D01*
X4480004Y3491500D01*
X4482367Y3490960D01*
X4484947Y3490540D01*
X4487742Y3490240D01*
X4493981Y3490000D01*
Y3460000D01*
X4490754Y3459940D01*
X4484947Y3459460D01*
X4482367Y3459040D01*
X4480004Y3458500D01*
X4477856Y3457840D01*
X4475924Y3457060D01*
X4474208Y3456160D01*
X4472708Y3455140D01*
X4471424Y3454000D01*
Y3496000D01*
X4472708Y3494860D01*
D02*
G37*
G36*
X4700115Y3494609D02*
X4701130Y3494789D01*
X4708146Y3496518D01*
X4713919Y3498513D01*
X4718448Y3500775D01*
X4721733Y3503302D01*
Y3446698D01*
X4718448Y3449226D01*
X4713919Y3451487D01*
X4708146Y3453482D01*
X4701130Y3455212D01*
X4700115Y3455391D01*
Y3445000D01*
X4699815Y3447850D01*
X4698915Y3450400D01*
X4697415Y3452650D01*
X4695315Y3454600D01*
X4692615Y3456250D01*
X4691130Y3456857D01*
X4672620Y3458803D01*
X4647396Y3459867D01*
X4632919Y3460000D01*
Y3490000D01*
X4647396Y3490133D01*
X4691309Y3493216D01*
X4692615Y3493750D01*
X4695315Y3495400D01*
X4697415Y3497350D01*
X4698915Y3499600D01*
X4699815Y3502150D01*
X4700115Y3505000D01*
Y3494609D01*
D02*
G37*
G36*
X5776217Y3345867D02*
X5773096Y3347602D01*
X5769200Y3349155D01*
X5764528Y3350525D01*
X5759081Y3351712D01*
X5752858Y3352717D01*
X5738087Y3354178D01*
X5720214Y3354908D01*
X5710115Y3355000D01*
Y3415000D01*
X5720214Y3415091D01*
X5752858Y3417283D01*
X5759081Y3418288D01*
X5764528Y3419475D01*
X5769200Y3420845D01*
X5773096Y3422397D01*
X5776217Y3424133D01*
Y3345867D01*
D02*
G37*
G36*
X5372523Y3374487D02*
X5373541Y3360817D01*
X5374431Y3355264D01*
X5375576Y3350565D01*
X5376975Y3346720D01*
X5378629Y3343730D01*
X5380536Y3341594D01*
X5382699Y3340312D01*
X5385115Y3339885D01*
X5303010Y3336990D01*
X5304794Y3338575D01*
X5306389Y3340821D01*
X5307797Y3343729D01*
X5309017Y3347298D01*
X5310050Y3351529D01*
X5310895Y3356421D01*
X5311551Y3361975D01*
X5312302Y3375066D01*
X5312396Y3382604D01*
X5372396D01*
X5372523Y3374487D01*
D02*
G37*
G36*
X1110001Y3529999D02*
X1110000Y3309999D01*
X1090000Y3290000D01*
X930000Y3290000D01*
X910001Y3309999D01*
Y3530001D01*
X929999Y3549999D01*
X1090000Y3550000D01*
X1110001Y3529999D01*
D02*
G37*
G36*
X5110000Y3510000D02*
Y3290000D01*
X5090000Y3270000D01*
X4860000D01*
X4830000Y3300000D01*
Y3416314D01*
X4825105Y3420600D01*
X4817770Y3425000D01*
X4809039Y3428600D01*
X4798912Y3431400D01*
X4787390Y3433400D01*
X4774471Y3434600D01*
X4760157Y3435000D01*
X4765545Y3515000D01*
X4830000Y3516950D01*
Y3520000D01*
X4850000Y3540000D01*
X5080000D01*
X5110000Y3510000D01*
D02*
G37*
G36*
X5396904Y3337397D02*
X5400800Y3335845D01*
X5405472Y3334475D01*
X5410919Y3333287D01*
X5417142Y3332283D01*
X5431913Y3330822D01*
X5449786Y3330091D01*
X5459885Y3330000D01*
Y3270000D01*
X5449786Y3269908D01*
X5417142Y3267717D01*
X5410919Y3266712D01*
X5405472Y3265525D01*
X5400800Y3264155D01*
X5396904Y3262602D01*
X5393783Y3260867D01*
Y3339133D01*
X5396904Y3337397D01*
D02*
G37*
G36*
X5673934Y3258345D02*
X5675048Y3257633D01*
X5676440Y3257004D01*
X5678112Y3256459D01*
X5680064Y3255998D01*
X5682294Y3255621D01*
X5687593Y3255118D01*
X5690662Y3254992D01*
X5694009Y3254950D01*
X5690405Y3220050D01*
X5687028Y3220022D01*
X5676401Y3219359D01*
X5674465Y3219056D01*
X5672816Y3218696D01*
X5671456Y3218282D01*
X5670384Y3217812D01*
X5669600Y3217288D01*
X5673100Y3259142D01*
X5673934Y3258345D01*
D02*
G37*
G36*
X3365615Y3210065D02*
X3365365Y3210528D01*
X3364615Y3210942D01*
X3363365Y3211307D01*
X3361615Y3211623D01*
X3359365Y3211891D01*
X3353365Y3212281D01*
X3340615Y3212500D01*
Y3237500D01*
X3345365Y3237524D01*
X3363365Y3238693D01*
X3364615Y3239059D01*
X3365365Y3239473D01*
X3365615Y3239935D01*
Y3210065D01*
D02*
G37*
G36*
X5770592Y3202600D02*
X5769614Y3205915D01*
X5768067Y3208882D01*
X5765951Y3211500D01*
X5763266Y3213768D01*
X5760013Y3215687D01*
X5756190Y3217258D01*
X5751800Y3218479D01*
X5746840Y3219352D01*
X5741312Y3219875D01*
X5735215Y3220050D01*
Y3254950D01*
X5740346Y3255120D01*
X5745177Y3255632D01*
X5749708Y3256484D01*
X5753938Y3257676D01*
X5757868Y3259210D01*
X5761497Y3261084D01*
X5764826Y3263300D01*
X5767855Y3265855D01*
X5770583Y3268752D01*
X5773010Y3271990D01*
X5770592Y3202600D01*
D02*
G37*
G36*
X3484635Y3189472D02*
X3485385Y3189059D01*
X3486635Y3188693D01*
X3488385Y3188377D01*
X3490635Y3188109D01*
X3496635Y3187719D01*
X3509385Y3187500D01*
Y3162500D01*
X3504635Y3162476D01*
X3486635Y3161307D01*
X3485385Y3160942D01*
X3484635Y3160528D01*
X3484385Y3160065D01*
Y3189935D01*
X3484635Y3189472D01*
D02*
G37*
G36*
X5300115Y3135100D02*
X5299766Y3138415D01*
X5298719Y3141382D01*
X5296974Y3144000D01*
X5294531Y3146268D01*
X5291390Y3148188D01*
X5287551Y3149758D01*
X5283014Y3150979D01*
X5277779Y3151852D01*
X5271846Y3152375D01*
X5265215Y3152550D01*
X5268799Y3187450D01*
X5306217Y3189133D01*
X5300115Y3135100D01*
D02*
G37*
G36*
X1151902Y3177224D02*
X1144869Y3169944D01*
X1133024Y3156124D01*
X1128211Y3149585D01*
X1124139Y3143292D01*
X1120808Y3137246D01*
X1118217Y3131446D01*
X1116366Y3125894D01*
X1115255Y3120588D01*
X1114885Y3115529D01*
X1075529Y3174885D01*
X1080465Y3175132D01*
X1085400Y3175872D01*
X1090336Y3177106D01*
X1095272Y3178834D01*
X1100207Y3181055D01*
X1105143Y3183769D01*
X1110078Y3186977D01*
X1115014Y3190679D01*
X1119949Y3194874D01*
X1124885Y3199563D01*
X1151902Y3177224D01*
D02*
G37*
G36*
X5400849Y3181584D02*
X5403573Y3178618D01*
X5406559Y3176000D01*
X5409807Y3173732D01*
X5413316Y3171812D01*
X5417087Y3170242D01*
X5421119Y3169020D01*
X5425413Y3168148D01*
X5429968Y3167624D01*
X5434785Y3167450D01*
Y3132550D01*
X5429968Y3132375D01*
X5425413Y3131852D01*
X5421119Y3130979D01*
X5417087Y3129758D01*
X5413316Y3128187D01*
X5409807Y3126268D01*
X5406559Y3123999D01*
X5403573Y3121382D01*
X5400849Y3118415D01*
X5398386Y3115100D01*
Y3184900D01*
X5400849Y3181584D01*
D02*
G37*
G36*
X3365615Y3110065D02*
X3365365Y3110528D01*
X3364615Y3110942D01*
X3363365Y3111307D01*
X3361615Y3111623D01*
X3359365Y3111891D01*
X3353365Y3112281D01*
X3340615Y3112500D01*
Y3137500D01*
X3345365Y3137524D01*
X3363365Y3138693D01*
X3364615Y3139058D01*
X3365365Y3139473D01*
X3365615Y3139935D01*
Y3110065D01*
D02*
G37*
G36*
X885115Y3093100D02*
X884766Y3096415D01*
X883719Y3099382D01*
X881974Y3102000D01*
X879531Y3104268D01*
X876390Y3106188D01*
X872551Y3107758D01*
X868014Y3108980D01*
X862779Y3109852D01*
X856846Y3110376D01*
X850215Y3110550D01*
Y3145450D01*
X856846Y3145625D01*
X862779Y3146148D01*
X868014Y3147021D01*
X872551Y3148242D01*
X876390Y3149813D01*
X879531Y3151732D01*
X881974Y3154001D01*
X883719Y3156618D01*
X884766Y3159585D01*
X885115Y3162900D01*
Y3093100D01*
D02*
G37*
G36*
X4318576Y3079000D02*
X4317740Y3079674D01*
X4316623Y3080278D01*
X4315226Y3080810D01*
X4313549Y3081272D01*
X4311591Y3081662D01*
X4309353Y3081982D01*
X4304036Y3082408D01*
X4297597Y3082550D01*
Y3117450D01*
X4300957Y3117486D01*
X4309353Y3118018D01*
X4311591Y3118337D01*
X4313549Y3118728D01*
X4315226Y3119189D01*
X4316623Y3119722D01*
X4317740Y3120325D01*
X4318576Y3121000D01*
Y3079000D01*
D02*
G37*
G36*
X364198Y3175920D02*
X377606Y3163882D01*
X384219Y3158992D01*
X390773Y3154854D01*
X397267Y3151469D01*
X403700Y3148836D01*
X410074Y3146955D01*
X416387Y3145826D01*
X422641Y3145450D01*
X421253Y3110550D01*
X415168Y3110191D01*
X408924Y3109114D01*
X402519Y3107319D01*
X395954Y3104806D01*
X389229Y3101575D01*
X382344Y3097626D01*
X375299Y3092958D01*
X368095Y3087573D01*
X353205Y3074648D01*
X357404Y3183067D01*
X364198Y3175920D01*
D02*
G37*
G36*
X4634635Y3089472D02*
X4635385Y3089059D01*
X4636635Y3088693D01*
X4638385Y3088377D01*
X4640635Y3088109D01*
X4646635Y3087719D01*
X4659385Y3087500D01*
Y3062500D01*
X4654635Y3062476D01*
X4636635Y3061307D01*
X4635385Y3060941D01*
X4634635Y3060528D01*
X4634385Y3060065D01*
Y3089935D01*
X4634635Y3089472D01*
D02*
G37*
G36*
X3365615Y3060065D02*
X3365365Y3060528D01*
X3364615Y3060942D01*
X3363365Y3061307D01*
X3361615Y3061623D01*
X3359365Y3061891D01*
X3353365Y3062281D01*
X3340615Y3062500D01*
Y3087500D01*
X3345365Y3087524D01*
X3363365Y3088693D01*
X3364615Y3089059D01*
X3365365Y3089472D01*
X3365615Y3089935D01*
Y3060065D01*
D02*
G37*
G36*
Y3010065D02*
X3365365Y3010528D01*
X3364615Y3010942D01*
X3363365Y3011307D01*
X3361615Y3011623D01*
X3359365Y3011891D01*
X3353365Y3012281D01*
X3340615Y3012500D01*
Y3037500D01*
X3345365Y3037524D01*
X3363365Y3038693D01*
X3364615Y3039059D01*
X3365365Y3039472D01*
X3365615Y3039935D01*
Y3010065D01*
D02*
G37*
G36*
X4709525Y3006044D02*
X4708980Y3006320D01*
X4708123Y3006568D01*
X4706953Y3006786D01*
X4705470Y3006976D01*
X4701565Y3007267D01*
X4690000Y3007500D01*
Y3032500D01*
X4693360Y3032515D01*
X4708123Y3033432D01*
X4708980Y3033680D01*
X4709525Y3033956D01*
Y3006044D01*
D02*
G37*
G36*
X4647740Y2965240D02*
X4645203Y2965232D01*
X4634519Y2964548D01*
X4634385Y2964385D01*
Y2989935D01*
X4647740Y2990240D01*
Y2965240D01*
D02*
G37*
G36*
X3365615Y2960065D02*
X3365365Y2960528D01*
X3364615Y2960942D01*
X3363365Y2961307D01*
X3361615Y2961623D01*
X3359365Y2961891D01*
X3353365Y2962281D01*
X3340615Y2962500D01*
Y2987500D01*
X3345365Y2987524D01*
X3363365Y2988693D01*
X3364615Y2989059D01*
X3365365Y2989473D01*
X3365615Y2989935D01*
Y2960065D01*
D02*
G37*
G36*
X2435115Y2915100D02*
X2434766Y2918415D01*
X2433719Y2921382D01*
X2431974Y2923999D01*
X2429531Y2926268D01*
X2426390Y2928187D01*
X2422551Y2929758D01*
X2418014Y2930979D01*
X2412779Y2931852D01*
X2406846Y2932375D01*
X2400215Y2932550D01*
Y2967450D01*
X2406846Y2967624D01*
X2412779Y2968148D01*
X2418014Y2969020D01*
X2422551Y2970242D01*
X2426390Y2971812D01*
X2429531Y2973732D01*
X2431974Y2976000D01*
X2433719Y2978618D01*
X2434766Y2981585D01*
X2435115Y2984900D01*
Y2915100D01*
D02*
G37*
G36*
X2190964Y2920464D02*
X2192287Y2904759D01*
X2193080Y2900920D01*
X2194050Y2897779D01*
X2195197Y2895336D01*
X2196520Y2893591D01*
X2198019Y2892544D01*
X2199695Y2892195D01*
X2138525D01*
X2141841Y2892544D01*
X2144807Y2893591D01*
X2147425Y2895336D01*
X2149693Y2897779D01*
X2151613Y2900920D01*
X2153183Y2904759D01*
X2154405Y2909296D01*
X2155277Y2914531D01*
X2155801Y2920464D01*
X2155975Y2927095D01*
X2190875D01*
X2190964Y2920464D01*
D02*
G37*
G36*
X4798961Y2959712D02*
X4801669Y2957674D01*
X4805115Y2955875D01*
X4809298Y2954316D01*
X4814219Y2952997D01*
X4819878Y2951918D01*
X4826273Y2951079D01*
X4841277Y2950120D01*
X4849885Y2950000D01*
Y2900000D01*
X4841277Y2899880D01*
X4819878Y2898082D01*
X4814219Y2897003D01*
X4809298Y2895684D01*
X4805115Y2894125D01*
X4801669Y2892326D01*
X4798961Y2890288D01*
X4796990Y2888010D01*
Y2961990D01*
X4798961Y2959712D01*
D02*
G37*
G36*
X1113613Y2920023D02*
X1115715Y2918263D01*
X1118297Y2916710D01*
X1121357Y2915365D01*
X1124897Y2914226D01*
X1128916Y2913295D01*
X1133415Y2912570D01*
X1138392Y2912052D01*
X1149785Y2911638D01*
Y2876738D01*
X1143154Y2876564D01*
X1137221Y2876040D01*
X1131986Y2875168D01*
X1127449Y2873946D01*
X1123610Y2872376D01*
X1120469Y2870456D01*
X1118026Y2868188D01*
X1116281Y2865570D01*
X1115234Y2862604D01*
X1114885Y2859288D01*
X1111990Y2921990D01*
X1113613Y2920023D01*
D02*
G37*
G36*
X885115Y2841100D02*
X884766Y2844415D01*
X883719Y2847382D01*
X881974Y2850000D01*
X879531Y2852268D01*
X876390Y2854188D01*
X872551Y2855758D01*
X868014Y2856980D01*
X862779Y2857852D01*
X856846Y2858376D01*
X850215Y2858550D01*
Y2893450D01*
X856846Y2893625D01*
X862779Y2894148D01*
X868014Y2895021D01*
X872551Y2896242D01*
X876390Y2897813D01*
X879531Y2899732D01*
X881974Y2902001D01*
X883719Y2904618D01*
X884766Y2907585D01*
X885115Y2910900D01*
Y2841100D01*
D02*
G37*
G36*
X363079Y2923486D02*
X376875Y2911620D01*
X383634Y2906799D01*
X390300Y2902720D01*
X396872Y2899383D01*
X403352Y2896787D01*
X409739Y2894934D01*
X416033Y2893821D01*
X422234Y2893450D01*
X421772Y2858550D01*
X415627Y2858185D01*
X409356Y2857090D01*
X402959Y2855264D01*
X396435Y2852709D01*
X389785Y2849423D01*
X383009Y2845407D01*
X376106Y2840660D01*
X369078Y2835184D01*
X361923Y2828977D01*
X354641Y2822041D01*
X356041Y2930531D01*
X363079Y2923486D01*
D02*
G37*
G36*
X3350079Y2851664D02*
X3350541Y2850042D01*
X3351173Y2848386D01*
X3351975Y2846696D01*
X3352948Y2844972D01*
X3354091Y2843215D01*
X3355404Y2841423D01*
X3358542Y2837739D01*
X3360366Y2835846D01*
X3339153Y2814633D01*
X3337261Y2816458D01*
X3333577Y2819596D01*
X3331785Y2820909D01*
X3330028Y2822052D01*
X3328304Y2823025D01*
X3326614Y2823827D01*
X3324958Y2824459D01*
X3323336Y2824921D01*
X3321747Y2825212D01*
X3349788Y2853253D01*
X3350079Y2851664D01*
D02*
G37*
G36*
X4472708Y2844860D02*
X4474208Y2843840D01*
X4475924Y2842940D01*
X4477856Y2842160D01*
X4480004Y2841500D01*
X4482367Y2840960D01*
X4484947Y2840540D01*
X4487742Y2840240D01*
X4493981Y2840000D01*
Y2810000D01*
X4490754Y2809940D01*
X4484947Y2809460D01*
X4482367Y2809040D01*
X4480004Y2808500D01*
X4477856Y2807840D01*
X4475924Y2807060D01*
X4474208Y2806160D01*
X4472708Y2805140D01*
X4471424Y2804000D01*
Y2846000D01*
X4472708Y2844860D01*
D02*
G37*
G36*
X3528576Y2804000D02*
X3527292Y2805140D01*
X3525792Y2806160D01*
X3524076Y2807060D01*
X3522144Y2807840D01*
X3519996Y2808500D01*
X3517633Y2809040D01*
X3515053Y2809460D01*
X3512258Y2809760D01*
X3506019Y2810000D01*
Y2840000D01*
X3509246Y2840060D01*
X3515053Y2840540D01*
X3517633Y2840960D01*
X3519996Y2841500D01*
X3522144Y2842160D01*
X3524076Y2842940D01*
X3525792Y2843840D01*
X3527292Y2844860D01*
X3528576Y2846000D01*
Y2804000D01*
D02*
G37*
G36*
X2324942Y2826091D02*
X2325682Y2823492D01*
X2326916Y2820618D01*
X2328644Y2817470D01*
X2330865Y2814046D01*
X2333579Y2810348D01*
X2340489Y2802126D01*
X2349373Y2792805D01*
X2324695Y2768127D01*
X2319897Y2772816D01*
X2307152Y2783921D01*
X2303454Y2786636D01*
X2300030Y2788856D01*
X2296882Y2790584D01*
X2294008Y2791818D01*
X2291409Y2792558D01*
X2289085Y2792805D01*
X2324695Y2828415D01*
X2324942Y2826091D01*
D02*
G37*
G36*
X2691402Y2798724D02*
X2686363Y2793509D01*
X2677878Y2783610D01*
X2674431Y2778925D01*
X2671514Y2774417D01*
X2669128Y2770086D01*
X2667272Y2765932D01*
X2665946Y2761955D01*
X2665150Y2758154D01*
X2664885Y2754530D01*
X2639530Y2799885D01*
X2643062Y2800058D01*
X2646586Y2800578D01*
X2650103Y2801443D01*
X2653613Y2802655D01*
X2657116Y2804213D01*
X2660611Y2806117D01*
X2664099Y2808368D01*
X2667580Y2810964D01*
X2671053Y2813908D01*
X2674519Y2817197D01*
X2691402Y2798724D01*
D02*
G37*
G36*
X2435115Y2740100D02*
X2434766Y2743415D01*
X2433719Y2746382D01*
X2431974Y2749000D01*
X2429531Y2751268D01*
X2426390Y2753188D01*
X2422551Y2754758D01*
X2418014Y2755980D01*
X2412779Y2756852D01*
X2406846Y2757375D01*
X2400215Y2757550D01*
X2400702Y2792450D01*
X2406600Y2792517D01*
X2421832Y2793519D01*
X2426088Y2794121D01*
X2433371Y2795725D01*
X2436396Y2796727D01*
X2439012Y2797863D01*
X2441217Y2799133D01*
X2435115Y2740100D01*
D02*
G37*
G36*
X5574990Y2768848D02*
X5576926Y2741232D01*
X5577531Y2738701D01*
X5578217Y2736762D01*
X5578983Y2735415D01*
X5536016D01*
X5536783Y2736762D01*
X5537468Y2738701D01*
X5538073Y2741232D01*
X5538598Y2744355D01*
X5539404Y2752377D01*
X5539888Y2762766D01*
X5540050Y2775523D01*
X5574950D01*
X5574990Y2768848D01*
D02*
G37*
G36*
X3203010Y2688010D02*
X3201039Y2690288D01*
X3198331Y2692326D01*
X3194885Y2694125D01*
X3190702Y2695684D01*
X3185781Y2697002D01*
X3180122Y2698081D01*
X3173727Y2698921D01*
X3158723Y2699880D01*
X3150115Y2700000D01*
Y2750000D01*
X3158723Y2750120D01*
X3180122Y2751918D01*
X3185781Y2752997D01*
X3190702Y2754316D01*
X3194885Y2755875D01*
X3198331Y2757673D01*
X3201039Y2759712D01*
X3203010Y2761990D01*
Y2688010D01*
D02*
G37*
G36*
X5662905Y2674511D02*
X5664408Y2674106D01*
X5669642Y2673234D01*
X5675576Y2672710D01*
X5682207Y2672536D01*
Y2637636D01*
X5675576Y2637461D01*
X5669642Y2636938D01*
X5664408Y2636065D01*
X5662905Y2635661D01*
Y2620186D01*
X5662556Y2623501D01*
X5661509Y2626467D01*
X5659764Y2629085D01*
X5657321Y2631354D01*
X5655106Y2632707D01*
X5652890Y2631354D01*
X5650447Y2629085D01*
X5648702Y2626467D01*
X5647655Y2623501D01*
X5647306Y2620186D01*
Y2635661D01*
X5645804Y2636065D01*
X5640569Y2636938D01*
X5634636Y2637461D01*
X5628005Y2637636D01*
Y2672536D01*
X5634636Y2672710D01*
X5640569Y2673234D01*
X5645804Y2674106D01*
X5647306Y2674511D01*
Y2689986D01*
X5647655Y2686670D01*
X5648702Y2683704D01*
X5650447Y2681086D01*
X5652890Y2678818D01*
X5655106Y2677464D01*
X5657321Y2678818D01*
X5659764Y2681086D01*
X5661509Y2683704D01*
X5662556Y2686670D01*
X5662905Y2689986D01*
Y2674511D01*
D02*
G37*
G36*
X4196000Y2678576D02*
X4194860Y2677291D01*
X4193840Y2675791D01*
X4192940Y2674075D01*
X4192160Y2672143D01*
X4191500Y2669996D01*
X4190960Y2667632D01*
X4190540Y2665053D01*
X4190240Y2662258D01*
X4190000Y2656019D01*
X4160000Y2656019D01*
X4159940Y2659246D01*
X4159460Y2665053D01*
X4159040Y2667632D01*
X4158500Y2669996D01*
X4157840Y2672144D01*
X4157060Y2674076D01*
X4156160Y2675792D01*
X4155140Y2677292D01*
X4154000Y2678576D01*
X4196000Y2678576D01*
D02*
G37*
G36*
X3937524Y2654635D02*
X3938693Y2636635D01*
X3939058Y2635385D01*
X3939472Y2634635D01*
X3939935Y2634385D01*
X3910065D01*
X3910527Y2634635D01*
X3910941Y2635385D01*
X3911307Y2636635D01*
X3911623Y2638385D01*
X3911891Y2640635D01*
X3912281Y2646635D01*
X3912500Y2659385D01*
X3937500D01*
X3937524Y2654635D01*
D02*
G37*
G36*
X2100305Y2607805D02*
X2099605Y2609172D01*
X2097505Y2610395D01*
X2094005Y2611475D01*
X2089105Y2612410D01*
X2082805Y2613201D01*
X2066005Y2614352D01*
X2030305Y2615000D01*
Y2685000D01*
X2043605Y2685222D01*
X2066005Y2686998D01*
X2075105Y2688551D01*
X2082805Y2690549D01*
X2089105Y2692990D01*
X2094005Y2695876D01*
X2097505Y2699205D01*
X2099605Y2702978D01*
X2100305Y2707195D01*
Y2607805D01*
D02*
G37*
G36*
X5467693Y2605086D02*
X5467193Y2609836D01*
X5465693Y2614086D01*
X5463193Y2617836D01*
X5459693Y2621086D01*
X5455193Y2623836D01*
X5449693Y2626086D01*
X5443193Y2627836D01*
X5435693Y2629086D01*
X5427193Y2629836D01*
X5417693Y2630086D01*
Y2680086D01*
X5427193Y2680336D01*
X5435693Y2681086D01*
X5443193Y2682336D01*
X5449693Y2684086D01*
X5455193Y2686335D01*
X5459693Y2689086D01*
X5463193Y2692335D01*
X5465693Y2696086D01*
X5467193Y2700335D01*
X5467693Y2705086D01*
Y2605086D01*
D02*
G37*
G36*
X1115234Y2656585D02*
X1116281Y2653618D01*
X1118026Y2651001D01*
X1120469Y2648732D01*
X1123610Y2646813D01*
X1127449Y2645242D01*
X1131986Y2644021D01*
X1137221Y2643148D01*
X1143154Y2642625D01*
X1149785Y2642450D01*
Y2607550D01*
X1143154Y2607376D01*
X1137221Y2606852D01*
X1131986Y2605980D01*
X1127449Y2604758D01*
X1123610Y2603188D01*
X1120469Y2601268D01*
X1118026Y2599000D01*
X1116281Y2596382D01*
X1115234Y2593415D01*
X1114885Y2590100D01*
Y2659900D01*
X1115234Y2656585D01*
D02*
G37*
G36*
X885115Y2589100D02*
X884766Y2592415D01*
X883719Y2595382D01*
X881974Y2598000D01*
X879531Y2600268D01*
X876390Y2602188D01*
X872551Y2603758D01*
X868014Y2604980D01*
X862779Y2605852D01*
X856846Y2606376D01*
X850215Y2606550D01*
Y2641450D01*
X856846Y2641625D01*
X862779Y2642148D01*
X868014Y2643021D01*
X872551Y2644242D01*
X876390Y2645813D01*
X879531Y2647732D01*
X881974Y2650001D01*
X883719Y2652618D01*
X884766Y2655585D01*
X885115Y2658900D01*
Y2589100D01*
D02*
G37*
G36*
X2324942Y2652226D02*
X2325682Y2647290D01*
X2326916Y2642354D01*
X2328644Y2637419D01*
X2330865Y2632483D01*
X2333579Y2627547D01*
X2336787Y2622612D01*
X2340489Y2617676D01*
X2344684Y2612741D01*
X2349373Y2607805D01*
X2324695Y2583127D01*
X2319759Y2587816D01*
X2314824Y2592011D01*
X2309888Y2595713D01*
X2304953Y2598921D01*
X2300017Y2601636D01*
X2295082Y2603857D01*
X2290146Y2605584D01*
X2285210Y2606818D01*
X2280275Y2607558D01*
X2275339Y2607805D01*
X2324695Y2657161D01*
X2324942Y2652226D01*
D02*
G37*
G36*
X361923Y2671023D02*
X376106Y2659340D01*
X383009Y2654594D01*
X389785Y2650578D01*
X396435Y2647292D01*
X402959Y2644736D01*
X409356Y2642911D01*
X415627Y2641815D01*
X421772Y2641450D01*
X422234Y2606550D01*
X416033Y2606179D01*
X409739Y2605067D01*
X403352Y2603213D01*
X396872Y2600617D01*
X390300Y2597280D01*
X383634Y2593201D01*
X376875Y2588380D01*
X370024Y2582818D01*
X363079Y2576514D01*
X356041Y2569469D01*
X354641Y2677960D01*
X361923Y2671023D01*
D02*
G37*
G36*
X7643940Y2568050D02*
X7636648Y2575175D01*
X7622420Y2587175D01*
X7615484Y2592050D01*
X7608667Y2596175D01*
X7601969Y2599550D01*
X7595390Y2602175D01*
X7588929Y2604050D01*
X7582587Y2605175D01*
X7576364Y2605550D01*
Y2640450D01*
X7582587Y2640825D01*
X7588929Y2641950D01*
X7595390Y2643825D01*
X7601969Y2646450D01*
X7608667Y2649825D01*
X7615484Y2653950D01*
X7622420Y2658825D01*
X7629474Y2664450D01*
X7636648Y2670825D01*
X7643940Y2677950D01*
Y2568050D01*
D02*
G37*
G36*
X3531990Y2566990D02*
X3458010D01*
X3458388Y2567759D01*
X3458727Y2569536D01*
X3459025Y2572319D01*
X3459682Y2586712D01*
X3460000Y2620000D01*
X3530000D01*
X3531990Y2566990D01*
D02*
G37*
G36*
X2682563Y2599885D02*
X2679204Y2596350D01*
X2676199Y2592814D01*
X2673547Y2589279D01*
X2671249Y2585743D01*
X2669305Y2582207D01*
X2667714Y2578672D01*
X2666476Y2575136D01*
X2665592Y2571601D01*
X2665062Y2568065D01*
X2664885Y2564530D01*
X2629530Y2599885D01*
X2633065Y2600062D01*
X2636601Y2600592D01*
X2640136Y2601476D01*
X2643672Y2602714D01*
X2647208Y2604304D01*
X2650743Y2606249D01*
X2654279Y2608547D01*
X2657814Y2611199D01*
X2661350Y2614204D01*
X2664885Y2617563D01*
X2682563Y2599885D01*
D02*
G37*
G36*
X3535236Y2553193D02*
X3536290Y2551473D01*
X3538046Y2549956D01*
X3540504Y2548641D01*
X3543664Y2547529D01*
X3547527Y2546618D01*
X3552091Y2545910D01*
X3557359Y2545405D01*
X3570000Y2545000D01*
Y2495000D01*
X3555050Y2494303D01*
X3552091Y2494090D01*
X3547527Y2493382D01*
X3543664Y2492472D01*
X3540504Y2491359D01*
X3538046Y2490044D01*
X3536290Y2488527D01*
X3535236Y2486807D01*
X3534885Y2484885D01*
Y2493362D01*
X3516667Y2492513D01*
Y2547487D01*
X3517768Y2547015D01*
X3519810Y2546592D01*
X3522792Y2546219D01*
X3531578Y2545622D01*
X3534885Y2545568D01*
Y2555115D01*
X3535236Y2553193D01*
D02*
G37*
G36*
X5642728Y2573121D02*
X5641659Y2571466D01*
X5640702Y2569435D01*
X5639857Y2567028D01*
X5639126Y2564244D01*
X5638506Y2561085D01*
X5637606Y2553639D01*
X5637324Y2549352D01*
X5637099Y2539649D01*
X5602199D01*
X5601016Y2574756D01*
X5642728Y2573121D01*
D02*
G37*
G36*
X3610065Y2535103D02*
X3614450Y2535000D01*
Y2505000D01*
X3610051Y2504950D01*
X3598796Y2504204D01*
X3595693Y2503756D01*
X3590457Y2502562D01*
X3588324Y2501815D01*
X3586516Y2500969D01*
X3585031Y2500024D01*
Y2506757D01*
X3580065Y2505000D01*
Y2535000D01*
X3585031Y2535131D01*
Y2539976D01*
X3586516Y2539031D01*
X3588324Y2538185D01*
X3590457Y2537438D01*
X3592913Y2536791D01*
X3595251Y2536331D01*
X3595365Y2536350D01*
X3599265Y2537400D01*
X3602565Y2538750D01*
X3605265Y2540400D01*
X3607365Y2542350D01*
X3608865Y2544600D01*
X3609765Y2547150D01*
X3610065Y2550000D01*
Y2535103D01*
D02*
G37*
G36*
X2435115Y2515100D02*
X2434766Y2518415D01*
X2433719Y2521382D01*
X2431974Y2524000D01*
X2429531Y2526268D01*
X2426390Y2528187D01*
X2422551Y2529758D01*
X2418014Y2530979D01*
X2412779Y2531852D01*
X2406846Y2532375D01*
X2400215Y2532550D01*
Y2567450D01*
X2406846Y2567625D01*
X2412779Y2568148D01*
X2418014Y2569021D01*
X2422551Y2570242D01*
X2426390Y2571812D01*
X2429531Y2573732D01*
X2431974Y2576000D01*
X2433719Y2578618D01*
X2434766Y2581585D01*
X2435115Y2584900D01*
Y2515100D01*
D02*
G37*
G36*
X4035751Y2515467D02*
X4035081Y2515021D01*
X4034489Y2514279D01*
X4033976Y2513240D01*
X4033542Y2511904D01*
X4033187Y2510271D01*
X4032911Y2508340D01*
X4032713Y2506114D01*
X4032556Y2500769D01*
X4010755D01*
X4010065Y2515615D01*
X4036501D01*
X4035751Y2515467D01*
D02*
G37*
G36*
X2775085Y2514740D02*
X2775340Y2511853D01*
X2775765Y2509109D01*
X2776360Y2506509D01*
X2777125Y2504052D01*
X2778060Y2501739D01*
X2779165Y2499570D01*
X2780440Y2497544D01*
X2781885Y2495663D01*
X2783500Y2493924D01*
X2741500D01*
X2743115Y2495663D01*
X2744560Y2497544D01*
X2745835Y2499570D01*
X2746940Y2501739D01*
X2747875Y2504052D01*
X2748640Y2506509D01*
X2749235Y2509109D01*
X2749660Y2511853D01*
X2749915Y2514740D01*
X2750000Y2517772D01*
X2775000D01*
X2775085Y2514740D01*
D02*
G37*
G36*
X4088344Y2515397D02*
X4086920Y2514743D01*
X4085664Y2513653D01*
X4084575Y2512127D01*
X4083654Y2510165D01*
X4082900Y2507767D01*
X4082314Y2504933D01*
X4081895Y2501663D01*
X4081644Y2497957D01*
X4081560Y2493815D01*
X4059760D01*
X4060065Y2515615D01*
X4089935D01*
X4088344Y2515397D01*
D02*
G37*
G36*
X4390089Y2536925D02*
X4390552Y2533842D01*
X4391322Y2530759D01*
X4392401Y2527676D01*
X4393789Y2524593D01*
X4395484Y2521510D01*
X4397489Y2518427D01*
X4399801Y2515344D01*
X4402421Y2512261D01*
X4405350Y2509178D01*
X4391206Y2492493D01*
X4360065Y2515615D01*
X4389935Y2540008D01*
X4390089Y2536925D01*
D02*
G37*
G36*
X3308010Y2473010D02*
X3306539Y2474338D01*
X3303995Y2475527D01*
X3300378Y2476575D01*
X3295687Y2477484D01*
X3289923Y2478253D01*
X3275174Y2479371D01*
X3245000Y2480000D01*
Y2560000D01*
X3256131Y2560070D01*
X3295687Y2562516D01*
X3300378Y2563425D01*
X3303995Y2564473D01*
X3306539Y2565662D01*
X3308010Y2566990D01*
Y2473010D01*
D02*
G37*
G36*
X4237739Y2508542D02*
X4241423Y2505404D01*
X4243215Y2504091D01*
X4244972Y2502948D01*
X4246696Y2501975D01*
X4248386Y2501173D01*
X4250042Y2500541D01*
X4251664Y2500079D01*
X4253253Y2499787D01*
X4225212Y2471747D01*
X4224921Y2473336D01*
X4224459Y2474958D01*
X4223827Y2476614D01*
X4223025Y2478304D01*
X4222052Y2480028D01*
X4220909Y2481785D01*
X4219596Y2483577D01*
X4216458Y2487260D01*
X4214633Y2489153D01*
X4235846Y2510366D01*
X4237739Y2508542D01*
D02*
G37*
G36*
X4185366Y2489153D02*
X4183542Y2487260D01*
X4180404Y2483576D01*
X4179091Y2481785D01*
X4177948Y2480028D01*
X4176975Y2478304D01*
X4176173Y2476614D01*
X4175541Y2474958D01*
X4175079Y2473336D01*
X4174787Y2471747D01*
X4146747Y2499787D01*
X4148336Y2500079D01*
X4149958Y2500541D01*
X4151614Y2501173D01*
X4153304Y2501975D01*
X4155028Y2502948D01*
X4156785Y2504091D01*
X4158577Y2505404D01*
X4162261Y2508542D01*
X4164153Y2510366D01*
X4185366Y2489153D01*
D02*
G37*
G36*
X5370849Y2536584D02*
X5373573Y2533618D01*
X5376559Y2531000D01*
X5379807Y2528732D01*
X5383316Y2526812D01*
X5387087Y2525242D01*
X5391119Y2524020D01*
X5395413Y2523148D01*
X5399968Y2522624D01*
X5404785Y2522450D01*
Y2487550D01*
X5399968Y2487375D01*
X5395413Y2486852D01*
X5391119Y2485979D01*
X5387087Y2484758D01*
X5383316Y2483187D01*
X5379807Y2481268D01*
X5376559Y2478999D01*
X5373573Y2476382D01*
X5370849Y2473415D01*
X5368386Y2470100D01*
Y2539900D01*
X5370849Y2536584D01*
D02*
G37*
G36*
X5900000Y2630000D02*
Y2580000D01*
X5920000Y2560000D01*
X5980000D01*
X6000000Y2540000D01*
Y2480000D01*
X5980000Y2460000D01*
X5815001D01*
X5795000Y2480000D01*
Y2630000D01*
X5815000Y2650000D01*
X5880000D01*
X5900000Y2630000D01*
D02*
G37*
G36*
X7809580Y2420862D02*
X7806145Y2417026D01*
X7802709Y2412388D01*
X7799272Y2406948D01*
X7795833Y2400704D01*
X7788952Y2385810D01*
X7785509Y2377158D01*
X7775173Y2346388D01*
X7724111Y2443706D01*
X7732821Y2441214D01*
X7741123Y2439493D01*
X7749016Y2438543D01*
X7756501Y2438363D01*
X7763578Y2438955D01*
X7770246Y2440317D01*
X7776506Y2442450D01*
X7782358Y2445354D01*
X7787801Y2449029D01*
X7792836Y2453474D01*
X7809580Y2420862D01*
D02*
G37*
G36*
X3836098Y2419885D02*
X3832068Y2415643D01*
X3828461Y2411400D01*
X3825279Y2407157D01*
X3822522Y2402915D01*
X3820188Y2398672D01*
X3818279Y2394429D01*
X3816794Y2390187D01*
X3815734Y2385944D01*
X3815097Y2381702D01*
X3814885Y2377459D01*
X3772459Y2419885D01*
X3776701Y2420097D01*
X3780944Y2420734D01*
X3785186Y2421794D01*
X3789429Y2423279D01*
X3793672Y2425188D01*
X3797914Y2427522D01*
X3802157Y2430280D01*
X3806400Y2433461D01*
X3810642Y2437068D01*
X3814885Y2441098D01*
X3836098Y2419885D01*
D02*
G37*
G36*
X1115234Y2406585D02*
X1116281Y2403618D01*
X1118026Y2401001D01*
X1120469Y2398732D01*
X1123610Y2396813D01*
X1127449Y2395242D01*
X1131986Y2394021D01*
X1137221Y2393148D01*
X1143154Y2392625D01*
X1149785Y2392450D01*
Y2357550D01*
X1143154Y2357376D01*
X1137221Y2356852D01*
X1131986Y2355980D01*
X1127449Y2354758D01*
X1123610Y2353188D01*
X1120469Y2351268D01*
X1118026Y2349000D01*
X1116281Y2346382D01*
X1115234Y2343415D01*
X1114885Y2340100D01*
Y2409900D01*
X1115234Y2406585D01*
D02*
G37*
G36*
X885115Y2337100D02*
X884766Y2340415D01*
X883719Y2343382D01*
X881974Y2346000D01*
X879531Y2348268D01*
X876390Y2350188D01*
X872551Y2351758D01*
X868014Y2352980D01*
X862779Y2353852D01*
X856846Y2354376D01*
X850215Y2354550D01*
Y2389450D01*
X856846Y2389625D01*
X862779Y2390148D01*
X868014Y2391021D01*
X872551Y2392242D01*
X876390Y2393813D01*
X879531Y2395732D01*
X881974Y2398001D01*
X883719Y2400618D01*
X884766Y2403585D01*
X885115Y2406900D01*
Y2337100D01*
D02*
G37*
G36*
X3478010Y2323010D02*
X3476589Y2324339D01*
X3474195Y2325527D01*
X3470828Y2326575D01*
X3466487Y2327484D01*
X3461172Y2328253D01*
X3447624Y2329371D01*
X3420000Y2330000D01*
Y2410000D01*
X3430181Y2410070D01*
X3466487Y2412516D01*
X3470828Y2413425D01*
X3474195Y2414473D01*
X3476589Y2415662D01*
X3478010Y2416990D01*
Y2323010D01*
D02*
G37*
G36*
X360730Y2418531D02*
X375299Y2407042D01*
X382344Y2402375D01*
X389229Y2398425D01*
X395954Y2395194D01*
X402519Y2392681D01*
X408924Y2390886D01*
X415168Y2389809D01*
X421253Y2389450D01*
X422641Y2354550D01*
X416387Y2354174D01*
X410074Y2353045D01*
X403700Y2351164D01*
X397267Y2348531D01*
X390773Y2345146D01*
X384219Y2341008D01*
X377606Y2336118D01*
X370932Y2330475D01*
X364198Y2324080D01*
X357404Y2316933D01*
X353205Y2425352D01*
X360730Y2418531D01*
D02*
G37*
G36*
X3678400Y2320115D02*
X3675702Y2319831D01*
X3673288Y2318979D01*
X3671158Y2317559D01*
X3669312Y2315571D01*
X3667750Y2313015D01*
X3666472Y2309891D01*
X3665478Y2306199D01*
X3664768Y2301939D01*
X3664342Y2297111D01*
X3664200Y2291715D01*
X3635800D01*
X3635722Y2296724D01*
X3635099Y2305489D01*
X3634554Y2309246D01*
X3633853Y2312584D01*
X3632996Y2315505D01*
X3631983Y2318008D01*
X3630815Y2320093D01*
X3629490Y2321760D01*
X3628010Y2323010D01*
X3678400Y2320115D01*
D02*
G37*
G36*
X1106585Y2324151D02*
X1103618Y2321427D01*
X1101001Y2318441D01*
X1098732Y2315193D01*
X1096813Y2311684D01*
X1095242Y2307913D01*
X1094021Y2303881D01*
X1093148Y2299587D01*
X1092625Y2295032D01*
X1092450Y2290215D01*
X1057550D01*
X1057376Y2295032D01*
X1056852Y2299587D01*
X1055980Y2303881D01*
X1054758Y2307913D01*
X1053188Y2311684D01*
X1051268Y2315193D01*
X1049000Y2318441D01*
X1046382Y2321427D01*
X1043415Y2324151D01*
X1040100Y2326614D01*
X1109900D01*
X1106585Y2324151D01*
D02*
G37*
G36*
X3802150Y2319815D02*
X3799600Y2318915D01*
X3797350Y2317415D01*
X3795400Y2315315D01*
X3793750Y2312615D01*
X3792400Y2309315D01*
X3791350Y2305415D01*
X3790600Y2300915D01*
X3790150Y2295815D01*
X3790000Y2290115D01*
X3760000D01*
X3759850Y2295815D01*
X3759400Y2300915D01*
X3758650Y2305415D01*
X3757600Y2309315D01*
X3756250Y2312615D01*
X3754600Y2315315D01*
X3752650Y2317415D01*
X3750400Y2318915D01*
X3747850Y2319815D01*
X3745000Y2320115D01*
X3805000D01*
X3802150Y2319815D01*
D02*
G37*
G36*
X5351584Y2314766D02*
X5348618Y2313719D01*
X5346000Y2311974D01*
X5343732Y2309531D01*
X5341812Y2306390D01*
X5340242Y2302551D01*
X5339463Y2299658D01*
X5340242Y2297087D01*
X5341812Y2293316D01*
X5343732Y2289807D01*
X5346000Y2286560D01*
X5348618Y2283574D01*
X5351584Y2280849D01*
X5354900Y2278386D01*
X5285100D01*
X5288415Y2280849D01*
X5291382Y2283574D01*
X5293999Y2286560D01*
X5296268Y2289807D01*
X5298187Y2293316D01*
X5299758Y2297087D01*
X5300537Y2299658D01*
X5299758Y2302551D01*
X5298187Y2306390D01*
X5296268Y2309531D01*
X5293999Y2311974D01*
X5291382Y2313719D01*
X5288415Y2314766D01*
X5285100Y2315115D01*
X5354900D01*
X5351584Y2314766D01*
D02*
G37*
G36*
X4300327Y2353010D02*
X4311990D01*
X4309712Y2351039D01*
X4307673Y2348331D01*
X4305875Y2344885D01*
X4304316Y2340701D01*
X4302997Y2335780D01*
X4301918Y2330122D01*
X4301396Y2326144D01*
X4301400Y2326041D01*
X4301918Y2319878D01*
X4302997Y2314220D01*
X4304316Y2309299D01*
X4305875Y2305115D01*
X4307673Y2301670D01*
X4309711Y2298961D01*
X4311990Y2296990D01*
X4302557D01*
X4303302Y2278267D01*
X4246698D01*
X4247325Y2279691D01*
X4247887Y2282643D01*
X4248382Y2287122D01*
X4248858Y2296990D01*
X4238010D01*
X4240288Y2298961D01*
X4242326Y2301670D01*
X4244125Y2305115D01*
X4245684Y2309299D01*
X4247002Y2314220D01*
X4248081Y2319878D01*
X4248606Y2323878D01*
X4248082Y2330122D01*
X4247002Y2335781D01*
X4245684Y2340701D01*
X4244125Y2344885D01*
X4242327Y2348331D01*
X4240288Y2351039D01*
X4238010Y2353010D01*
X4249916D01*
X4250000Y2361225D01*
X4300000D01*
X4300327Y2353010D01*
D02*
G37*
G36*
X4150327D02*
X4161990D01*
X4159712Y2351039D01*
X4157673Y2348331D01*
X4155875Y2344885D01*
X4154316Y2340701D01*
X4152997Y2335780D01*
X4151918Y2330122D01*
X4151396Y2326144D01*
X4151400Y2326041D01*
X4151918Y2319878D01*
X4152997Y2314220D01*
X4154316Y2309299D01*
X4155875Y2305115D01*
X4157673Y2301670D01*
X4159712Y2298961D01*
X4161990Y2296990D01*
X4152557D01*
X4153302Y2278267D01*
X4096698D01*
X4097325Y2279691D01*
X4097887Y2282643D01*
X4098382Y2287122D01*
X4098858Y2296990D01*
X4088010D01*
X4090288Y2298961D01*
X4092326Y2301670D01*
X4094125Y2305115D01*
X4095684Y2309299D01*
X4097002Y2314220D01*
X4098081Y2319878D01*
X4098606Y2323878D01*
X4098082Y2330122D01*
X4097002Y2335781D01*
X4095684Y2340701D01*
X4094125Y2344885D01*
X4092327Y2348331D01*
X4090288Y2351039D01*
X4088010Y2353010D01*
X4099916D01*
X4100000Y2361225D01*
X4150000D01*
X4150327Y2353010D01*
D02*
G37*
G36*
X5806065Y2323010D02*
X5896989D01*
X5895661Y2321539D01*
X5894473Y2318995D01*
X5893425Y2315378D01*
X5892516Y2310687D01*
X5891747Y2304922D01*
X5890629Y2290173D01*
X5890000Y2260000D01*
X5810000D01*
X5809930Y2271131D01*
X5807483Y2310687D01*
X5806575Y2315378D01*
X5805526Y2318995D01*
X5804675Y2320817D01*
X5750115Y2319046D01*
Y2369046D01*
X5756784Y2369295D01*
X5763103Y2370046D01*
X5769072Y2371295D01*
X5774690Y2373046D01*
X5779958Y2375295D01*
X5784875Y2378046D01*
X5789443Y2381295D01*
X5793659Y2385046D01*
X5797526Y2389295D01*
X5801042Y2394046D01*
X5806065Y2323010D01*
D02*
G37*
G36*
X3790150Y2284097D02*
X3790600Y2278997D01*
X3791350Y2274497D01*
X3792400Y2270597D01*
X3793750Y2267297D01*
X3795400Y2264597D01*
X3797350Y2262497D01*
X3799600Y2260997D01*
X3802150Y2260097D01*
X3805000Y2259797D01*
X3745000D01*
X3747850Y2260097D01*
X3750400Y2260997D01*
X3752650Y2262497D01*
X3754600Y2264597D01*
X3756250Y2267297D01*
X3757600Y2270597D01*
X3758650Y2274497D01*
X3759400Y2278997D01*
X3759850Y2284097D01*
X3760000Y2289797D01*
X3790000D01*
X3790150Y2284097D01*
D02*
G37*
G36*
X5747662Y2317446D02*
X5740944Y2310406D01*
X5729630Y2296516D01*
X5725034Y2289666D01*
X5721145Y2282879D01*
X5717963Y2276155D01*
X5715488Y2269494D01*
X5713721Y2262896D01*
X5712660Y2256361D01*
X5712306Y2249889D01*
X5675096Y2314324D01*
X5721229Y2361723D01*
X5747662Y2317446D01*
D02*
G37*
G36*
X2764700Y2220002D02*
X2763636Y2219887D01*
X2762423Y2219524D01*
X2761062Y2218913D01*
X2759552Y2218053D01*
X2757894Y2216945D01*
X2756087Y2215588D01*
X2752028Y2212128D01*
X2747374Y2207675D01*
X2722675Y2232374D01*
X2725026Y2234775D01*
X2730588Y2241087D01*
X2731945Y2242894D01*
X2733053Y2244552D01*
X2733913Y2246062D01*
X2734524Y2247423D01*
X2734887Y2248636D01*
X2735002Y2249700D01*
X2764700Y2220002D01*
D02*
G37*
G36*
X5467693Y2195100D02*
X5467344Y2198415D01*
X5466297Y2201382D01*
X5464552Y2204000D01*
X5462109Y2206268D01*
X5458968Y2208188D01*
X5455129Y2209758D01*
X5450592Y2210980D01*
X5445357Y2211852D01*
X5439424Y2212376D01*
X5432793Y2212550D01*
Y2247450D01*
X5439424Y2247625D01*
X5445357Y2248148D01*
X5450592Y2249021D01*
X5455129Y2250242D01*
X5458968Y2251813D01*
X5462109Y2253732D01*
X5464552Y2256001D01*
X5466297Y2258618D01*
X5467344Y2261585D01*
X5467693Y2264900D01*
Y2195100D01*
D02*
G37*
G36*
X5360234Y2261585D02*
X5361281Y2258618D01*
X5363026Y2256001D01*
X5365469Y2253732D01*
X5368610Y2251813D01*
X5372449Y2250242D01*
X5376986Y2249021D01*
X5382221Y2248148D01*
X5388154Y2247625D01*
X5394785Y2247450D01*
Y2212550D01*
X5388154Y2212376D01*
X5382221Y2211852D01*
X5376986Y2210980D01*
X5372449Y2209758D01*
X5368610Y2208188D01*
X5365469Y2206268D01*
X5363026Y2204000D01*
X5361281Y2201382D01*
X5360234Y2198415D01*
X5359885Y2195100D01*
Y2264900D01*
X5360234Y2261585D01*
D02*
G37*
G36*
X5133010Y2183010D02*
X5131639Y2184339D01*
X5129395Y2185527D01*
X5126277Y2186575D01*
X5122286Y2187484D01*
X5117422Y2188253D01*
X5105073Y2189371D01*
X5089231Y2189930D01*
X5080000Y2190000D01*
Y2270000D01*
X5089231Y2270070D01*
X5122286Y2272516D01*
X5126277Y2273425D01*
X5129395Y2274473D01*
X5131639Y2275662D01*
X5133010Y2276990D01*
Y2183010D01*
D02*
G37*
G36*
X5632128Y2137907D02*
X5628212Y2133699D01*
X5628920Y2133027D01*
X5628308Y2132732D01*
X5627241Y2131950D01*
X5625719Y2130679D01*
X5625588Y2130556D01*
X5623244Y2127627D01*
X5619542Y2122180D01*
X5616334Y2116529D01*
X5613619Y2110673D01*
X5611398Y2104613D01*
X5609671Y2098349D01*
X5608437Y2091880D01*
X5607697Y2085206D01*
X5607624Y2083175D01*
X5607624Y2083154D01*
X5608148Y2077221D01*
X5609020Y2071986D01*
X5610242Y2067449D01*
X5611812Y2063610D01*
X5613732Y2060469D01*
X5616000Y2058026D01*
X5618618Y2056281D01*
X5621584Y2055234D01*
X5624900Y2054885D01*
X5555100D01*
X5558415Y2055234D01*
X5561382Y2056281D01*
X5563999Y2058026D01*
X5566268Y2060469D01*
X5568187Y2063610D01*
X5569758Y2067449D01*
X5570979Y2071986D01*
X5571852Y2077221D01*
X5572375Y2083154D01*
X5572376Y2083175D01*
X5572303Y2085206D01*
X5571563Y2091880D01*
X5570329Y2098349D01*
X5568601Y2104613D01*
X5566380Y2110673D01*
X5563666Y2116529D01*
X5560458Y2122180D01*
X5556756Y2127627D01*
X5556497Y2127951D01*
X5551079Y2133027D01*
X5551788Y2133699D01*
X5547872Y2137907D01*
X5569839Y2165296D01*
X5573871Y2161667D01*
X5577903Y2158844D01*
X5578171Y2158710D01*
X5582306Y2162630D01*
X5582507Y2160568D01*
X5583108Y2158300D01*
X5583949Y2156224D01*
X5585967Y2155618D01*
X5590000Y2155215D01*
X5594032Y2155618D01*
X5596051Y2156224D01*
X5596892Y2158300D01*
X5597493Y2160568D01*
X5597693Y2162630D01*
X5601828Y2158710D01*
X5602096Y2158844D01*
X5606128Y2161667D01*
X5610161Y2165296D01*
X5632128Y2137907D01*
D02*
G37*
G36*
X3471754Y2151754D02*
X3468942Y2155221D01*
X3465383Y2158323D01*
X3461076Y2161060D01*
X3456022Y2163432D01*
X3450220Y2165438D01*
X3443671Y2167081D01*
X3436374Y2168358D01*
X3428330Y2169270D01*
X3410000Y2170000D01*
Y2250000D01*
X3420742Y2250082D01*
X3453561Y2252061D01*
X3459229Y2252968D01*
X3463882Y2254040D01*
X3467521Y2255277D01*
X3470145Y2256679D01*
X3471754Y2258245D01*
Y2151754D01*
D02*
G37*
G36*
X3619878Y2069797D02*
X3616063Y2065781D01*
X3612649Y2061764D01*
X3609637Y2057748D01*
X3607026Y2053731D01*
X3604817Y2049715D01*
X3603010Y2045699D01*
X3601604Y2041682D01*
X3600600Y2037666D01*
X3599998Y2033650D01*
X3599797Y2029633D01*
X3559633Y2069797D01*
X3563649Y2069998D01*
X3567666Y2070600D01*
X3571682Y2071604D01*
X3575698Y2073010D01*
X3579715Y2074818D01*
X3583731Y2077026D01*
X3587748Y2079637D01*
X3591764Y2082649D01*
X3595780Y2086063D01*
X3599797Y2089879D01*
X3619878Y2069797D01*
D02*
G37*
G36*
X3831057Y2064779D02*
X3834617Y2061677D01*
X3838924Y2058940D01*
X3843978Y2056568D01*
X3849780Y2054562D01*
X3856329Y2052919D01*
X3863625Y2051642D01*
X3871670Y2050730D01*
X3890000Y2050000D01*
Y1970000D01*
X3879258Y1969918D01*
X3846439Y1967939D01*
X3840771Y1967032D01*
X3836117Y1965960D01*
X3832478Y1964723D01*
X3829855Y1963321D01*
X3828245Y1961755D01*
Y2068246D01*
X3831057Y2064779D01*
D02*
G37*
G36*
X4028940Y1911793D02*
X4031902Y1909294D01*
X4034877Y1907088D01*
X4037867Y1905177D01*
X4040872Y1903560D01*
X4043891Y1902237D01*
X4046924Y1901208D01*
X4049971Y1900473D01*
X4053032Y1900032D01*
X4056108Y1899885D01*
X4035115Y1859219D01*
X4034884Y1862379D01*
X4034190Y1865692D01*
X4033035Y1869161D01*
X4031417Y1872782D01*
X4029336Y1876558D01*
X4026794Y1880488D01*
X4023789Y1884572D01*
X4016392Y1893202D01*
X4012000Y1897748D01*
X4025993Y1914586D01*
X4028940Y1911793D01*
D02*
G37*
G36*
X3938007Y1897593D02*
X3933614Y1893045D01*
X3926215Y1884413D01*
X3923209Y1880328D01*
X3920666Y1876397D01*
X3918584Y1872620D01*
X3916966Y1868998D01*
X3915810Y1865530D01*
X3915116Y1862215D01*
X3914885Y1859055D01*
X3894055Y1899885D01*
X3897131Y1900032D01*
X3900191Y1900472D01*
X3903237Y1901206D01*
X3906268Y1902233D01*
X3909285Y1903553D01*
X3912286Y1905168D01*
X3915273Y1907075D01*
X3918244Y1909276D01*
X3921201Y1911771D01*
X3924143Y1914559D01*
X3938007Y1897593D01*
D02*
G37*
G36*
X7231076Y1839000D02*
X7229338Y1840615D01*
X7227456Y1842060D01*
X7225430Y1843335D01*
X7223261Y1844440D01*
X7220948Y1845375D01*
X7218492Y1846140D01*
X7215891Y1846735D01*
X7213147Y1847160D01*
X7210260Y1847415D01*
X7207228Y1847500D01*
Y1872500D01*
X7210260Y1872585D01*
X7213147Y1872840D01*
X7215891Y1873265D01*
X7218492Y1873860D01*
X7220948Y1874625D01*
X7223261Y1875560D01*
X7225430Y1876665D01*
X7227456Y1877940D01*
X7229338Y1879385D01*
X7231076Y1881000D01*
Y1839000D01*
D02*
G37*
G36*
X5213411Y1895662D02*
X5215805Y1894473D01*
X5219172Y1893425D01*
X5223513Y1892516D01*
X5228828Y1891748D01*
X5242376Y1890629D01*
X5270000Y1890000D01*
Y1810000D01*
X5259819Y1809930D01*
X5223513Y1807484D01*
X5219172Y1806575D01*
X5215805Y1805527D01*
X5213411Y1804339D01*
X5211990Y1803010D01*
Y1896990D01*
X5213411Y1895662D01*
D02*
G37*
G36*
X4638010Y1803010D02*
X4636589Y1804339D01*
X4634195Y1805527D01*
X4630828Y1806575D01*
X4626487Y1807484D01*
X4621172Y1808253D01*
X4607623Y1809371D01*
X4580000Y1810000D01*
Y1890000D01*
X4590181Y1890070D01*
X4626487Y1892516D01*
X4630828Y1893425D01*
X4634195Y1894473D01*
X4636589Y1895662D01*
X4638010Y1896990D01*
Y1803010D01*
D02*
G37*
G36*
X4263411Y1895662D02*
X4265805Y1894473D01*
X4269172Y1893425D01*
X4273513Y1892516D01*
X4278828Y1891748D01*
X4292376Y1890629D01*
X4320000Y1890000D01*
Y1810000D01*
X4309819Y1809930D01*
X4273513Y1807484D01*
X4269172Y1806575D01*
X4265805Y1805527D01*
X4263411Y1804339D01*
X4261990Y1803010D01*
Y1896990D01*
X4263411Y1895662D01*
D02*
G37*
G36*
X3688010Y1803010D02*
X3686589Y1804339D01*
X3684195Y1805527D01*
X3680828Y1806575D01*
X3676487Y1807484D01*
X3671172Y1808253D01*
X3657624Y1809371D01*
X3630000Y1810000D01*
Y1890000D01*
X3640181Y1890070D01*
X3676487Y1892516D01*
X3680828Y1893425D01*
X3684195Y1894473D01*
X3686589Y1895662D01*
X3688010Y1896990D01*
Y1803010D01*
D02*
G37*
G36*
X5615702Y1824831D02*
X5613288Y1823979D01*
X5611158Y1822559D01*
X5609312Y1820571D01*
X5607750Y1818015D01*
X5606472Y1814891D01*
X5605478Y1811199D01*
X5604768Y1806939D01*
X5604342Y1802111D01*
X5604200Y1796715D01*
X5575800D01*
X5575658Y1802111D01*
X5575232Y1806939D01*
X5574522Y1811199D01*
X5573528Y1814891D01*
X5572250Y1818015D01*
X5570688Y1820571D01*
X5568842Y1822559D01*
X5566712Y1823979D01*
X5564298Y1824831D01*
X5561600Y1825115D01*
X5618400D01*
X5615702Y1824831D01*
D02*
G37*
G36*
X4985115Y1840945D02*
X5005945Y1800115D01*
X5002869Y1799968D01*
X4999809Y1799528D01*
X4996763Y1798794D01*
X4993732Y1797767D01*
X4990715Y1796447D01*
X4987714Y1794833D01*
X4984727Y1792925D01*
X4981756Y1790724D01*
X4978799Y1788230D01*
X4975857Y1785442D01*
X4961993Y1802408D01*
X4966386Y1806955D01*
X4973785Y1815587D01*
X4976791Y1819672D01*
X4979334Y1823603D01*
X4981415Y1827380D01*
X4983034Y1831002D01*
X4983686Y1832959D01*
X4983153Y1833759D01*
X4981627Y1835176D01*
X4979665Y1836375D01*
X4977267Y1837356D01*
X4974433Y1838119D01*
X4971163Y1838664D01*
X4967457Y1838991D01*
X4963315Y1839100D01*
Y1860900D01*
X4967457Y1861009D01*
X4971163Y1861336D01*
X4974433Y1861881D01*
X4977267Y1862644D01*
X4979665Y1863625D01*
X4981627Y1864824D01*
X4983153Y1866241D01*
X4984243Y1867876D01*
X4984897Y1869729D01*
X4985115Y1871800D01*
Y1840945D01*
D02*
G37*
G36*
X4865103Y1869729D02*
X4865757Y1867876D01*
X4866847Y1866241D01*
X4868373Y1864824D01*
X4870335Y1863625D01*
X4872733Y1862644D01*
X4875567Y1861881D01*
X4878837Y1861336D01*
X4882543Y1861009D01*
X4886685Y1860900D01*
Y1839100D01*
X4882543Y1838991D01*
X4878837Y1838664D01*
X4875567Y1838119D01*
X4872733Y1837356D01*
X4870335Y1836375D01*
X4868373Y1835176D01*
X4866847Y1833759D01*
X4866314Y1832959D01*
X4866966Y1831002D01*
X4868585Y1827380D01*
X4870666Y1823603D01*
X4873209Y1819672D01*
X4876215Y1815587D01*
X4883614Y1806955D01*
X4888007Y1802408D01*
X4874143Y1785442D01*
X4871201Y1788230D01*
X4868245Y1790724D01*
X4865273Y1792925D01*
X4862286Y1794833D01*
X4859285Y1796447D01*
X4856268Y1797767D01*
X4853237Y1798794D01*
X4850191Y1799528D01*
X4847131Y1799968D01*
X4844055Y1800115D01*
X4864885Y1840945D01*
Y1871800D01*
X4865103Y1869729D01*
D02*
G37*
G36*
X4055945Y1800115D02*
X4052869Y1799968D01*
X4049809Y1799528D01*
X4046763Y1798794D01*
X4043732Y1797767D01*
X4040716Y1796447D01*
X4037714Y1794833D01*
X4034728Y1792925D01*
X4031756Y1790724D01*
X4028799Y1788230D01*
X4026865Y1786398D01*
X4026967Y1782543D01*
X4027294Y1778837D01*
X4027839Y1775567D01*
X4028602Y1772733D01*
X4029583Y1770335D01*
X4030782Y1768373D01*
X4032199Y1766847D01*
X4033834Y1765757D01*
X4035687Y1765103D01*
X4037758Y1764885D01*
X4000867Y1758783D01*
X4001663Y1760176D01*
X4002376Y1761845D01*
X4003004Y1763791D01*
X4003549Y1766013D01*
X4004010Y1768513D01*
X4004681Y1774341D01*
X4005016Y1781276D01*
X4005058Y1785158D01*
X4024950Y1786552D01*
X4011992Y1802407D01*
X4016386Y1806955D01*
X4023785Y1815587D01*
X4026791Y1819672D01*
X4029334Y1823603D01*
X4031415Y1827380D01*
X4033034Y1831002D01*
X4034190Y1834470D01*
X4034884Y1837784D01*
X4035115Y1840945D01*
X4055945Y1800115D01*
D02*
G37*
G36*
X3949132Y1758783D02*
X3918199Y1764885D01*
X3920271Y1765103D01*
X3922123Y1765757D01*
X3923758Y1766847D01*
X3925176Y1768373D01*
X3926374Y1770335D01*
X3927355Y1772733D01*
X3928118Y1775567D01*
X3928663Y1778837D01*
X3928990Y1782543D01*
X3929099Y1786685D01*
X3950900D01*
X3949132Y1758783D01*
D02*
G37*
G36*
X5031585Y1534766D02*
X5028618Y1533719D01*
X5026000Y1531974D01*
X5023732Y1529531D01*
X5021812Y1526390D01*
X5020242Y1522551D01*
X5019020Y1518014D01*
X5018148Y1512779D01*
X5017624Y1506846D01*
X5017450Y1500215D01*
X4982550D01*
X4982375Y1506846D01*
X4981852Y1512779D01*
X4980979Y1518014D01*
X4979758Y1522551D01*
X4978187Y1526390D01*
X4976268Y1529531D01*
X4973999Y1531974D01*
X4971382Y1533719D01*
X4968415Y1534766D01*
X4965100Y1535115D01*
X5034900D01*
X5031585Y1534766D01*
D02*
G37*
G36*
X4881585D02*
X4878618Y1533719D01*
X4876000Y1531974D01*
X4873732Y1529531D01*
X4871812Y1526390D01*
X4870242Y1522551D01*
X4869020Y1518014D01*
X4868148Y1512779D01*
X4867625Y1506846D01*
X4867450Y1500215D01*
X4832550D01*
X4832375Y1506846D01*
X4831852Y1512779D01*
X4830979Y1518014D01*
X4829758Y1522551D01*
X4828187Y1526390D01*
X4826268Y1529531D01*
X4823999Y1531974D01*
X4821382Y1533719D01*
X4818415Y1534766D01*
X4815100Y1535115D01*
X4884900D01*
X4881585Y1534766D01*
D02*
G37*
G36*
X4064900Y1535115D02*
X4061585Y1534766D01*
X4058618Y1533719D01*
X4056001Y1531974D01*
X4053732Y1529531D01*
X4051813Y1526390D01*
X4050242Y1522551D01*
X4049021Y1518014D01*
X4048148Y1512779D01*
X4047625Y1506846D01*
X4047450Y1500215D01*
X4012550D01*
X4012455Y1506248D01*
X4011691Y1516813D01*
X4011023Y1521344D01*
X4010165Y1525374D01*
X4009115Y1528903D01*
X4007875Y1531931D01*
X4006444Y1534458D01*
X4004822Y1536485D01*
X4003010Y1538010D01*
X4064900Y1535115D01*
D02*
G37*
G36*
X3943865Y1535654D02*
X3941069Y1532982D01*
X3938602Y1529993D01*
X3936464Y1526688D01*
X3934655Y1523067D01*
X3933175Y1519129D01*
X3932024Y1514875D01*
X3931202Y1510305D01*
X3930708Y1505418D01*
X3930544Y1500215D01*
X3895644D01*
X3895469Y1506846D01*
X3894946Y1512779D01*
X3894073Y1518014D01*
X3892852Y1522551D01*
X3891282Y1526390D01*
X3889362Y1529531D01*
X3887094Y1531974D01*
X3884476Y1533719D01*
X3881509Y1534766D01*
X3878194Y1535115D01*
X3946989Y1538010D01*
X3943865Y1535654D01*
D02*
G37*
G36*
X4727532Y1446785D02*
X4729643Y1444931D01*
X4732188Y1443295D01*
X4735168Y1441877D01*
X4738584Y1440677D01*
X4742435Y1439695D01*
X4746721Y1438932D01*
X4751442Y1438387D01*
X4762189Y1437950D01*
Y1403050D01*
X4756598Y1402941D01*
X4746721Y1402068D01*
X4742435Y1401305D01*
X4738584Y1400323D01*
X4735168Y1399123D01*
X4732188Y1397706D01*
X4729643Y1396070D01*
X4727532Y1394215D01*
X4725857Y1392143D01*
Y1448857D01*
X4727532Y1446785D01*
D02*
G37*
G36*
X3782532D02*
X3784643Y1444931D01*
X3787188Y1443295D01*
X3790168Y1441877D01*
X3793584Y1440677D01*
X3797435Y1439695D01*
X3801721Y1438932D01*
X3806442Y1438387D01*
X3817189Y1437950D01*
Y1403050D01*
X3811598Y1402941D01*
X3801721Y1402068D01*
X3797435Y1401305D01*
X3793584Y1400323D01*
X3790168Y1399123D01*
X3787188Y1397706D01*
X3784643Y1396070D01*
X3782532Y1394215D01*
X3780857Y1392143D01*
Y1448857D01*
X3782532Y1446785D01*
D02*
G37*
G36*
X5390070Y1513869D02*
X5392516Y1474314D01*
X5393425Y1469623D01*
X5394473Y1466005D01*
X5395662Y1463461D01*
X5396990Y1461990D01*
X5306217D01*
Y1385867D01*
X5304321Y1386748D01*
X5301404Y1387535D01*
X5297467Y1388230D01*
X5292510Y1388832D01*
X5271519Y1390083D01*
X5241347Y1390500D01*
X5240115Y1450500D01*
X5249002Y1450636D01*
X5272628Y1452681D01*
X5279491Y1453908D01*
X5285848Y1455408D01*
X5291699Y1457180D01*
X5297045Y1459225D01*
X5301884Y1461543D01*
X5303453Y1462481D01*
X5304338Y1463461D01*
X5305527Y1466005D01*
X5306575Y1469623D01*
X5307484Y1474314D01*
X5308253Y1480078D01*
X5309371Y1494827D01*
X5310000Y1525000D01*
X5390000D01*
X5390070Y1513869D01*
D02*
G37*
G36*
X4440070D02*
X4442516Y1474314D01*
X4443425Y1469623D01*
X4444473Y1466005D01*
X4445661Y1463461D01*
X4446990Y1461990D01*
X4356217D01*
Y1385867D01*
X4354320Y1386748D01*
X4351404Y1387535D01*
X4347467Y1388230D01*
X4342510Y1388832D01*
X4321519Y1390083D01*
X4291347Y1390500D01*
X4290115Y1450500D01*
X4299002Y1450636D01*
X4322627Y1452681D01*
X4329491Y1453908D01*
X4335848Y1455408D01*
X4341699Y1457180D01*
X4347044Y1459225D01*
X4351884Y1461543D01*
X4353453Y1462481D01*
X4354338Y1463461D01*
X4355526Y1466005D01*
X4356575Y1469623D01*
X4357484Y1474314D01*
X4358252Y1480078D01*
X4359371Y1494827D01*
X4360000Y1525000D01*
X4440000D01*
X4440070Y1513869D01*
D02*
G37*
G36*
X4681584Y1390362D02*
X4678618Y1389315D01*
X4676000Y1387570D01*
X4673732Y1385127D01*
X4671812Y1381986D01*
X4670242Y1378147D01*
X4669020Y1373610D01*
X4668148Y1368375D01*
X4667624Y1362442D01*
X4667481Y1357000D01*
X4667624Y1351558D01*
X4668148Y1345625D01*
X4669020Y1340390D01*
X4670242Y1335853D01*
X4671812Y1332014D01*
X4673732Y1328873D01*
X4676000Y1326430D01*
X4678618Y1324685D01*
X4681584Y1323638D01*
X4684900Y1323289D01*
X4615100D01*
X4618415Y1323638D01*
X4621382Y1324685D01*
X4623999Y1326430D01*
X4626268Y1328873D01*
X4628187Y1332014D01*
X4629758Y1335853D01*
X4630979Y1340390D01*
X4631852Y1345625D01*
X4632375Y1351558D01*
X4632519Y1357000D01*
X4632375Y1362442D01*
X4631852Y1368375D01*
X4630979Y1373610D01*
X4629758Y1378147D01*
X4628187Y1381986D01*
X4626268Y1385127D01*
X4623999Y1387570D01*
X4621382Y1389315D01*
X4618415Y1390362D01*
X4615100Y1390711D01*
X4684900D01*
X4681584Y1390362D01*
D02*
G37*
G36*
X3736585D02*
X3733618Y1389315D01*
X3731000Y1387570D01*
X3728732Y1385127D01*
X3726812Y1381986D01*
X3725242Y1378147D01*
X3724020Y1373610D01*
X3723148Y1368375D01*
X3722625Y1362442D01*
X3722481Y1357000D01*
X3722625Y1351558D01*
X3723148Y1345625D01*
X3724020Y1340390D01*
X3725242Y1335853D01*
X3726812Y1332014D01*
X3728732Y1328873D01*
X3731000Y1326430D01*
X3733618Y1324685D01*
X3736585Y1323638D01*
X3739900Y1323289D01*
X3670100D01*
X3673415Y1323638D01*
X3676382Y1324685D01*
X3679000Y1326430D01*
X3681268Y1328873D01*
X3683187Y1332014D01*
X3684758Y1335853D01*
X3685979Y1340390D01*
X3686852Y1345625D01*
X3687375Y1351558D01*
X3687519Y1357000D01*
X3687375Y1362442D01*
X3686852Y1368375D01*
X3685979Y1373610D01*
X3684758Y1378147D01*
X3683187Y1381986D01*
X3681268Y1385127D01*
X3679000Y1387570D01*
X3676382Y1389315D01*
X3673415Y1390362D01*
X3670100Y1390711D01*
X3739900D01*
X3736585Y1390362D01*
D02*
G37*
G36*
X4167711Y1282289D02*
X4167497Y1283027D01*
X4166857Y1283687D01*
X4165791Y1284270D01*
X4164297Y1284775D01*
X4162377Y1285202D01*
X4160031Y1285552D01*
X4154057Y1286017D01*
X4146377Y1286173D01*
Y1321073D01*
X4169143Y1321857D01*
X4167711Y1282289D01*
D02*
G37*
G36*
X5115729Y1322917D02*
X5112711Y1277290D01*
X5112423Y1279439D01*
X5111560Y1281361D01*
X5110122Y1283058D01*
X5108109Y1284528D01*
X5105521Y1285772D01*
X5102357Y1286790D01*
X5098618Y1287582D01*
X5094304Y1288148D01*
X5089415Y1288487D01*
X5083950Y1288600D01*
Y1323500D01*
X5115729Y1322917D01*
D02*
G37*
G36*
X1042625Y1301087D02*
X1043148Y1295657D01*
X1044021Y1290465D01*
X1045242Y1285512D01*
X1046812Y1280797D01*
X1048732Y1276322D01*
X1051000Y1272084D01*
X1053618Y1268086D01*
X1056585Y1264326D01*
X1059900Y1260805D01*
X990100D01*
X993415Y1264326D01*
X996382Y1268086D01*
X999000Y1272084D01*
X1001268Y1276322D01*
X1003187Y1280797D01*
X1004758Y1285512D01*
X1005979Y1290465D01*
X1006852Y1295657D01*
X1007375Y1301087D01*
X1007550Y1306756D01*
X1042450D01*
X1042625Y1301087D01*
D02*
G37*
G36*
X1692640Y1301109D02*
X1693163Y1295676D01*
X1694037Y1290480D01*
X1695259Y1285523D01*
X1696831Y1280803D01*
X1698753Y1276322D01*
X1701023Y1272078D01*
X1703643Y1268073D01*
X1706612Y1264305D01*
X1709930Y1260776D01*
X1640070D01*
X1643388Y1264305D01*
X1646357Y1268073D01*
X1648977Y1272078D01*
X1651247Y1276322D01*
X1653169Y1280803D01*
X1654740Y1285523D01*
X1655963Y1290480D01*
X1656836Y1295676D01*
X1657360Y1301109D01*
X1657535Y1306781D01*
X1692465D01*
X1692640Y1301109D01*
D02*
G37*
G36*
X5221584Y1263362D02*
X5218618Y1262315D01*
X5216000Y1260570D01*
X5213732Y1258127D01*
X5211812Y1254986D01*
X5210242Y1251147D01*
X5209020Y1246610D01*
X5208148Y1241375D01*
X5207624Y1235442D01*
X5207481Y1230000D01*
X5207624Y1224558D01*
X5208148Y1218625D01*
X5209020Y1213390D01*
X5210242Y1208853D01*
X5211812Y1205014D01*
X5213732Y1201873D01*
X5216000Y1199430D01*
X5218618Y1197685D01*
X5221584Y1196638D01*
X5224900Y1196289D01*
X5155100D01*
X5158415Y1196638D01*
X5161382Y1197685D01*
X5163999Y1199430D01*
X5166268Y1201873D01*
X5168187Y1205014D01*
X5169758Y1208853D01*
X5170979Y1213390D01*
X5171852Y1218625D01*
X5172375Y1224558D01*
X5172518Y1230000D01*
X5172375Y1235442D01*
X5171852Y1241375D01*
X5170979Y1246610D01*
X5169758Y1251147D01*
X5168187Y1254986D01*
X5166268Y1258127D01*
X5163999Y1260570D01*
X5161382Y1262315D01*
X5158415Y1263362D01*
X5155100Y1263711D01*
X5224900D01*
X5221584Y1263362D01*
D02*
G37*
G36*
X4276585D02*
X4273618Y1262315D01*
X4271000Y1260570D01*
X4268732Y1258127D01*
X4266812Y1254986D01*
X4265242Y1251147D01*
X4264020Y1246610D01*
X4263148Y1241375D01*
X4262624Y1235442D01*
X4262481Y1230000D01*
X4262624Y1224558D01*
X4263148Y1218625D01*
X4264020Y1213390D01*
X4265242Y1208853D01*
X4266812Y1205014D01*
X4268732Y1201873D01*
X4271000Y1199430D01*
X4273618Y1197685D01*
X4276585Y1196638D01*
X4279900Y1196289D01*
X4210100D01*
X4213415Y1196638D01*
X4216382Y1197685D01*
X4218999Y1199430D01*
X4221268Y1201873D01*
X4223187Y1205014D01*
X4224758Y1208853D01*
X4225979Y1213390D01*
X4226852Y1218625D01*
X4227375Y1224558D01*
X4227519Y1230000D01*
X4227375Y1235442D01*
X4226852Y1241375D01*
X4225979Y1246610D01*
X4224758Y1251147D01*
X4223187Y1254986D01*
X4221268Y1258127D01*
X4218999Y1260570D01*
X4216382Y1262315D01*
X4213415Y1263362D01*
X4210100Y1263711D01*
X4279900D01*
X4276585Y1263362D01*
D02*
G37*
G36*
X5395662Y1236590D02*
X5394473Y1234195D01*
X5393425Y1230828D01*
X5392516Y1226487D01*
X5391747Y1221173D01*
X5390629Y1207624D01*
X5390000Y1180000D01*
X5310000D01*
X5309930Y1190181D01*
X5307484Y1226487D01*
X5306575Y1230828D01*
X5305527Y1234195D01*
X5304338Y1236590D01*
X5303010Y1238010D01*
X5396990D01*
X5395662Y1236590D01*
D02*
G37*
G36*
X4445661D02*
X4444473Y1234195D01*
X4443425Y1230828D01*
X4442516Y1226487D01*
X4441747Y1221173D01*
X4440629Y1207624D01*
X4440000Y1180000D01*
X4360000D01*
X4359930Y1190181D01*
X4357484Y1226487D01*
X4356575Y1230828D01*
X4355526Y1234195D01*
X4354338Y1236590D01*
X4353010Y1238010D01*
X4446990D01*
X4445661Y1236590D01*
D02*
G37*
G36*
X1056585Y1185674D02*
X1053618Y1181914D01*
X1051000Y1177916D01*
X1048732Y1173679D01*
X1046812Y1169203D01*
X1045242Y1164488D01*
X1044021Y1159535D01*
X1043148Y1154343D01*
X1042625Y1148913D01*
X1042450Y1143244D01*
X1007550D01*
X1007375Y1148913D01*
X1006852Y1154343D01*
X1005979Y1159535D01*
X1004758Y1164488D01*
X1003187Y1169203D01*
X1001268Y1173679D01*
X999000Y1177916D01*
X996382Y1181914D01*
X993415Y1185674D01*
X990100Y1189195D01*
X1059900D01*
X1056585Y1185674D01*
D02*
G37*
G36*
X1706612Y1185695D02*
X1703643Y1181928D01*
X1701023Y1177922D01*
X1698753Y1173679D01*
X1696832Y1169197D01*
X1695260Y1164478D01*
X1694037Y1159520D01*
X1693164Y1154325D01*
X1692640Y1148891D01*
X1692465Y1143219D01*
X1657535D01*
X1657360Y1148891D01*
X1656837Y1154324D01*
X1655963Y1159520D01*
X1654741Y1164477D01*
X1653169Y1169197D01*
X1651248Y1173678D01*
X1648977Y1177922D01*
X1646357Y1181928D01*
X1643388Y1185695D01*
X1640070Y1189224D01*
X1709930Y1189225D01*
X1706612Y1185695D01*
D02*
G37*
G36*
X3782502Y1176973D02*
X3783143Y1176313D01*
X3784209Y1175730D01*
X3785703Y1175225D01*
X3787623Y1174798D01*
X3789969Y1174449D01*
X3795943Y1173983D01*
X3803623Y1173827D01*
Y1138927D01*
X3780857Y1138143D01*
X3782289Y1177711D01*
X3782502Y1176973D01*
D02*
G37*
G36*
X4727536Y1181131D02*
X4728276Y1176196D01*
X4729510Y1171260D01*
X4731237Y1166325D01*
X4733458Y1161389D01*
X4736173Y1156453D01*
X4739381Y1151518D01*
X4743083Y1146582D01*
X4747278Y1141647D01*
X4751967Y1136711D01*
X4727289Y1112033D01*
X4722353Y1116722D01*
X4717418Y1120917D01*
X4712482Y1124619D01*
X4707547Y1127827D01*
X4702611Y1130542D01*
X4697675Y1132763D01*
X4692740Y1134490D01*
X4687804Y1135724D01*
X4682868Y1136464D01*
X4677933Y1136711D01*
X4727289Y1186067D01*
X4727536Y1181131D01*
D02*
G37*
G36*
X1042625Y1129968D02*
X1043148Y1125413D01*
X1044021Y1121119D01*
X1045242Y1117087D01*
X1046812Y1113316D01*
X1048732Y1109807D01*
X1051000Y1106559D01*
X1053618Y1103573D01*
X1056585Y1100849D01*
X1059900Y1098386D01*
X990100D01*
X993415Y1100849D01*
X996382Y1103573D01*
X999000Y1106559D01*
X1001268Y1109807D01*
X1003187Y1113316D01*
X1004758Y1117087D01*
X1005979Y1121119D01*
X1006852Y1125413D01*
X1007375Y1129968D01*
X1007550Y1134785D01*
X1042450D01*
X1042625Y1129968D01*
D02*
G37*
G36*
X1692640Y1129990D02*
X1693164Y1125428D01*
X1694037Y1121128D01*
X1695260Y1117089D01*
X1696832Y1113313D01*
X1698753Y1109800D01*
X1701023Y1106548D01*
X1703643Y1103559D01*
X1706612Y1100831D01*
X1709930Y1098366D01*
X1640070D01*
X1643388Y1100831D01*
X1646358Y1103559D01*
X1648977Y1106548D01*
X1651248Y1109800D01*
X1653169Y1113313D01*
X1654741Y1117089D01*
X1655963Y1121128D01*
X1656837Y1125428D01*
X1657360Y1129990D01*
X1657535Y1134815D01*
X1692465D01*
X1692640Y1129990D01*
D02*
G37*
G36*
X5620070Y1109819D02*
X5622516Y1073513D01*
X5623425Y1069172D01*
X5624473Y1065805D01*
X5625662Y1063410D01*
X5626990Y1061989D01*
X5533010D01*
X5534338Y1063410D01*
X5535527Y1065805D01*
X5536575Y1069172D01*
X5537484Y1073513D01*
X5538253Y1078827D01*
X5539371Y1092376D01*
X5540000Y1120000D01*
X5620000D01*
X5620070Y1109819D01*
D02*
G37*
G36*
X5470070D02*
X5472516Y1073513D01*
X5473425Y1069172D01*
X5474473Y1065805D01*
X5475662Y1063410D01*
X5476990Y1061989D01*
X5383010D01*
X5384338Y1063410D01*
X5385527Y1065805D01*
X5386575Y1069172D01*
X5387484Y1073513D01*
X5388253Y1078827D01*
X5389371Y1092376D01*
X5390000Y1120000D01*
X5470000D01*
X5470070Y1109819D01*
D02*
G37*
G36*
X3500070Y1108869D02*
X3502516Y1069313D01*
X3503425Y1064622D01*
X3504473Y1061005D01*
X3505662Y1058461D01*
X3506990Y1056990D01*
X3413010D01*
X3414338Y1058461D01*
X3415527Y1061005D01*
X3416575Y1064622D01*
X3417484Y1069313D01*
X3418252Y1075078D01*
X3419371Y1089827D01*
X3420000Y1120000D01*
X3500000D01*
X3500070Y1108869D01*
D02*
G37*
G36*
X3360070D02*
X3362516Y1069313D01*
X3363425Y1064622D01*
X3364473Y1061005D01*
X3365662Y1058461D01*
X3366990Y1056990D01*
X3273010D01*
X3274338Y1058461D01*
X3275527Y1061005D01*
X3276575Y1064622D01*
X3277484Y1069313D01*
X3278253Y1075078D01*
X3279371Y1089827D01*
X3280000Y1120000D01*
X3360000D01*
X3360070Y1108869D01*
D02*
G37*
G36*
X4169143Y1011143D02*
X4167468Y1013215D01*
X4165357Y1015070D01*
X4162812Y1016706D01*
X4159831Y1018123D01*
X4156416Y1019323D01*
X4152565Y1020305D01*
X4148279Y1021068D01*
X4143558Y1021614D01*
X4132811Y1022050D01*
Y1056950D01*
X4138402Y1057059D01*
X4148279Y1057932D01*
X4152565Y1058695D01*
X4156416Y1059677D01*
X4159831Y1060877D01*
X4162812Y1062295D01*
X4165357Y1063931D01*
X4167468Y1065785D01*
X4169143Y1067857D01*
Y1011143D01*
D02*
G37*
G36*
X5115729Y1010083D02*
X5113237Y1011573D01*
X5110456Y1012907D01*
X5107386Y1014083D01*
X5104028Y1015103D01*
X5100380Y1015966D01*
X5096444Y1016672D01*
X5087705Y1017613D01*
X5082902Y1017848D01*
X5077811Y1017927D01*
Y1052827D01*
X5082906Y1052977D01*
X5087676Y1053428D01*
X5092122Y1054180D01*
X5096242Y1055232D01*
X5100038Y1056585D01*
X5103509Y1058238D01*
X5106655Y1060192D01*
X5109475Y1062446D01*
X5111971Y1065001D01*
X5114143Y1067857D01*
X5115729Y1010083D01*
D02*
G37*
G36*
X1488010Y1003010D02*
X1484837Y1007188D01*
X1481193Y1010927D01*
X1477078Y1014225D01*
X1472494Y1017084D01*
X1467440Y1019503D01*
X1461915Y1021482D01*
X1455920Y1023021D01*
X1449455Y1024120D01*
X1442520Y1024780D01*
X1435115Y1025000D01*
Y1075000D01*
X1442520Y1075220D01*
X1449455Y1075879D01*
X1455920Y1076979D01*
X1461915Y1078518D01*
X1467440Y1080497D01*
X1472494Y1082916D01*
X1477078Y1085775D01*
X1481193Y1089073D01*
X1484837Y1092812D01*
X1488010Y1096990D01*
Y1003010D01*
D02*
G37*
G36*
X1215164Y1092812D02*
X1218808Y1089073D01*
X1222922Y1085775D01*
X1227506Y1082916D01*
X1232561Y1080497D01*
X1238085Y1078518D01*
X1244080Y1076979D01*
X1250545Y1075879D01*
X1257480Y1075220D01*
X1264885Y1075000D01*
Y1025000D01*
X1257480Y1024780D01*
X1250545Y1024120D01*
X1244080Y1023021D01*
X1238085Y1021482D01*
X1232561Y1019503D01*
X1227506Y1017084D01*
X1222922Y1014225D01*
X1218808Y1010927D01*
X1215164Y1007188D01*
X1211990Y1003010D01*
Y1096990D01*
X1215164Y1092812D01*
D02*
G37*
G36*
X1056150Y1000344D02*
X1052835Y999368D01*
X1049868Y997828D01*
X1047251Y995724D01*
X1044982Y993057D01*
X1043063Y989826D01*
X1041492Y986031D01*
X1040271Y981673D01*
X1039398Y976751D01*
X1038875Y971265D01*
X1038700Y965215D01*
X1003800D01*
X1003642Y970497D01*
X1003168Y975445D01*
X1002379Y980059D01*
X1001274Y984339D01*
X999853Y988286D01*
X998116Y991898D01*
X996063Y995177D01*
X993694Y998122D01*
X991010Y1000733D01*
X988010Y1003010D01*
X1056150Y1000344D01*
D02*
G37*
G36*
X1708993Y1000735D02*
X1706311Y998124D01*
X1703945Y995179D01*
X1701894Y991898D01*
X1700159Y988283D01*
X1698739Y984333D01*
X1697635Y980048D01*
X1696846Y975429D01*
X1696373Y970474D01*
X1696215Y965185D01*
X1661285D01*
X1661110Y971241D01*
X1660586Y976733D01*
X1659713Y981660D01*
X1658490Y986023D01*
X1656919Y989821D01*
X1654997Y993056D01*
X1652727Y995726D01*
X1650107Y997831D01*
X1647138Y999373D01*
X1643820Y1000350D01*
X1711990Y1003010D01*
X1708993Y1000735D01*
D02*
G37*
G36*
X5024531Y953154D02*
X5025054Y947221D01*
X5025927Y941986D01*
X5027148Y937449D01*
X5028719Y933610D01*
X5030638Y930469D01*
X5032907Y928026D01*
X5035524Y926281D01*
X5038491Y925234D01*
X5041806Y924885D01*
X4985867Y918783D01*
X4986549Y920140D01*
X4987159Y922064D01*
X4987698Y924555D01*
X4988164Y927612D01*
X4988882Y935427D01*
X4989420Y951399D01*
X4989456Y957856D01*
X5024356Y959785D01*
X5024531Y953154D01*
D02*
G37*
G36*
X4077625D02*
X4078148Y947221D01*
X4079021Y941986D01*
X4080242Y937449D01*
X4081813Y933610D01*
X4083732Y930469D01*
X4086000Y928026D01*
X4088618Y926281D01*
X4091585Y925234D01*
X4094900Y924885D01*
X4035867Y918783D01*
X4037137Y920988D01*
X4038273Y923604D01*
X4039275Y926629D01*
X4040144Y930065D01*
X4040879Y933912D01*
X4041948Y942836D01*
X4042283Y947913D01*
X4042550Y959298D01*
X4077450Y959785D01*
X4077625Y953154D01*
D02*
G37*
G36*
X5531614Y840100D02*
X5529151Y843415D01*
X5526427Y846382D01*
X5523441Y848999D01*
X5520193Y851268D01*
X5516684Y853187D01*
X5512913Y854758D01*
X5508881Y855979D01*
X5505000Y856768D01*
X5501119Y855979D01*
X5497087Y854758D01*
X5493316Y853187D01*
X5489807Y851268D01*
X5486560Y848999D01*
X5483573Y846382D01*
X5480849Y843415D01*
X5478386Y840100D01*
Y909900D01*
X5480849Y906584D01*
X5483573Y903618D01*
X5486560Y901000D01*
X5489807Y898732D01*
X5493316Y896812D01*
X5497087Y895242D01*
X5501119Y894020D01*
X5505000Y893232D01*
X5508881Y894020D01*
X5512913Y895242D01*
X5516684Y896812D01*
X5520193Y898732D01*
X5523441Y901000D01*
X5526427Y903618D01*
X5529151Y906584D01*
X5531614Y909900D01*
Y840100D01*
D02*
G37*
G36*
X4635115Y840100D02*
X4634766Y843415D01*
X4633719Y846382D01*
X4631974Y849000D01*
X4629531Y851268D01*
X4626390Y853188D01*
X4622551Y854758D01*
X4618014Y855979D01*
X4612779Y856852D01*
X4608939Y857191D01*
X4605647Y856982D01*
X4603409Y856662D01*
X4601451Y856272D01*
X4599774Y855811D01*
X4598377Y855278D01*
X4597260Y854674D01*
X4596424Y854000D01*
Y896000D01*
X4597260Y895326D01*
X4598377Y894722D01*
X4599774Y894189D01*
X4601451Y893728D01*
X4603409Y893338D01*
X4605647Y893018D01*
X4608612Y892781D01*
X4612779Y893148D01*
X4618014Y894021D01*
X4622551Y895242D01*
X4626390Y896813D01*
X4629531Y898732D01*
X4631974Y901000D01*
X4633719Y903618D01*
X4634766Y906585D01*
X4635115Y909900D01*
Y840100D01*
D02*
G37*
G36*
X3411614Y835100D02*
X3409151Y838415D01*
X3406427Y841382D01*
X3403440Y844000D01*
X3400193Y846268D01*
X3396684Y848188D01*
X3392913Y849758D01*
X3390000Y850640D01*
X3387087Y849758D01*
X3383316Y848188D01*
X3379807Y846268D01*
X3376559Y844000D01*
X3373573Y841382D01*
X3370849Y838415D01*
X3368386Y835100D01*
Y904900D01*
X3370849Y901585D01*
X3373573Y898618D01*
X3376559Y896000D01*
X3379807Y893732D01*
X3383316Y891813D01*
X3387087Y890242D01*
X3390000Y889360D01*
X3392913Y890242D01*
X3396684Y891813D01*
X3400193Y893732D01*
X3403440Y896000D01*
X3406427Y898618D01*
X3409151Y901585D01*
X3411614Y904900D01*
Y835100D01*
D02*
G37*
G36*
X3000000Y1130000D02*
Y900000D01*
X2980000Y880000D01*
X2820000D01*
X2800000Y900000D01*
Y1130000D01*
X2820000Y1150000D01*
X2980000Y1150000D01*
X3000000Y1130000D01*
D02*
G37*
G36*
X5324760Y895326D02*
X5325877Y894722D01*
X5327274Y894189D01*
X5328951Y893728D01*
X5330909Y893338D01*
X5333147Y893018D01*
X5338464Y892592D01*
X5344903Y892450D01*
Y857550D01*
X5341543Y857514D01*
X5333147Y856982D01*
X5330909Y856662D01*
X5328951Y856272D01*
X5327274Y855811D01*
X5325877Y855278D01*
X5324760Y854674D01*
X5323924Y854000D01*
Y896000D01*
X5324760Y895326D01*
D02*
G37*
G36*
X5281076Y854000D02*
X5280240Y854674D01*
X5279123Y855278D01*
X5277726Y855811D01*
X5276049Y856272D01*
X5274091Y856662D01*
X5271853Y856982D01*
X5266536Y857408D01*
X5260097Y857550D01*
Y892450D01*
X5263457Y892486D01*
X5271853Y893018D01*
X5274091Y893338D01*
X5276049Y893728D01*
X5277726Y894189D01*
X5279123Y894722D01*
X5280240Y895326D01*
X5281076Y896000D01*
Y854000D01*
D02*
G37*
G36*
X4265234Y906585D02*
X4266281Y903618D01*
X4268026Y901000D01*
X4270469Y898732D01*
X4273610Y896813D01*
X4277449Y895242D01*
X4281986Y894021D01*
X4287221Y893148D01*
X4291061Y892809D01*
X4294353Y893018D01*
X4296591Y893338D01*
X4298549Y893728D01*
X4300226Y894189D01*
X4301623Y894722D01*
X4302740Y895326D01*
X4303576Y896000D01*
Y854000D01*
X4302740Y854674D01*
X4301623Y855278D01*
X4300226Y855811D01*
X4298549Y856272D01*
X4296591Y856662D01*
X4294353Y856982D01*
X4291388Y857220D01*
X4287221Y856852D01*
X4281986Y855979D01*
X4277449Y854758D01*
X4273610Y853188D01*
X4270469Y851268D01*
X4268026Y849000D01*
X4266281Y846382D01*
X4265234Y843415D01*
X4264885Y840100D01*
Y909900D01*
X4265234Y906585D01*
D02*
G37*
G36*
X3623934Y893345D02*
X3625047Y892633D01*
X3626440Y892004D01*
X3628112Y891459D01*
X3630064Y890998D01*
X3632294Y890621D01*
X3637593Y890118D01*
X3640662Y889992D01*
X3644009Y889950D01*
X3640405Y855050D01*
X3637028Y855022D01*
X3626401Y854359D01*
X3624465Y854056D01*
X3622816Y853697D01*
X3621456Y853282D01*
X3620384Y852813D01*
X3619600Y852288D01*
X3623099Y894142D01*
X3623934Y893345D01*
D02*
G37*
G36*
X3580400Y852288D02*
X3579616Y852813D01*
X3578544Y853282D01*
X3577183Y853697D01*
X3575535Y854056D01*
X3573598Y854359D01*
X3568861Y854801D01*
X3562972Y855022D01*
X3559595Y855050D01*
X3555991Y889950D01*
X3559338Y889992D01*
X3567706Y890621D01*
X3569936Y890998D01*
X3571887Y891459D01*
X3573560Y892004D01*
X3574952Y892633D01*
X3576066Y893345D01*
X3576900Y894142D01*
X3580400Y852288D01*
D02*
G37*
G36*
X5381614Y840100D02*
X5379151Y843415D01*
X5376426Y846382D01*
X5373440Y849000D01*
X5370193Y851268D01*
X5366684Y853188D01*
X5362913Y854758D01*
X5358881Y855979D01*
X5354587Y856852D01*
X5350032Y857375D01*
X5345215Y857550D01*
Y892450D01*
X5350032Y892625D01*
X5354587Y893148D01*
X5358881Y894021D01*
X5362913Y895242D01*
X5366684Y896813D01*
X5370193Y898732D01*
X5373441Y901000D01*
X5376427Y903618D01*
X5379151Y906585D01*
X5381614Y909900D01*
X5381614Y840100D01*
D02*
G37*
G36*
X5215234Y906585D02*
X5216281Y903618D01*
X5218026Y901000D01*
X5220469Y898732D01*
X5223610Y896813D01*
X5227449Y895242D01*
X5231986Y894021D01*
X5237221Y893148D01*
X5243154Y892625D01*
X5249785Y892450D01*
Y857550D01*
X5243154Y857375D01*
X5237221Y856852D01*
X5231986Y855979D01*
X5227449Y854758D01*
X5223610Y853188D01*
X5220469Y851268D01*
X5218026Y849000D01*
X5216281Y846382D01*
X5215234Y843415D01*
X5214885Y840100D01*
Y909900D01*
X5215234Y906585D01*
D02*
G37*
G36*
X3685115Y837600D02*
X3684766Y840916D01*
X3683719Y843882D01*
X3681974Y846500D01*
X3679531Y848768D01*
X3676390Y850688D01*
X3672550Y852258D01*
X3668013Y853480D01*
X3662779Y854352D01*
X3656845Y854876D01*
X3650214Y855050D01*
Y889950D01*
X3656845Y890125D01*
X3662779Y890648D01*
X3668013Y891521D01*
X3672550Y892742D01*
X3676390Y894313D01*
X3679531Y896232D01*
X3681974Y898501D01*
X3683719Y901118D01*
X3684766Y904085D01*
X3685115Y907400D01*
Y837600D01*
D02*
G37*
G36*
X3509417Y903752D02*
X3512145Y900855D01*
X3515174Y898300D01*
X3518502Y896085D01*
X3522132Y894210D01*
X3526062Y892677D01*
X3530292Y891484D01*
X3534822Y890632D01*
X3539654Y890121D01*
X3544785Y889950D01*
Y855050D01*
X3538688Y854876D01*
X3533160Y854352D01*
X3528200Y853480D01*
X3523810Y852258D01*
X3519987Y850688D01*
X3516734Y848768D01*
X3514049Y846500D01*
X3511933Y843882D01*
X3510386Y840916D01*
X3509408Y837600D01*
X3506990Y906990D01*
X3509417Y903752D01*
D02*
G37*
G36*
X5005945Y825115D02*
X5002869Y824968D01*
X4999809Y824528D01*
X4996763Y823794D01*
X4993732Y822767D01*
X4990715Y821447D01*
X4987714Y819832D01*
X4984727Y817925D01*
X4981756Y815724D01*
X4978799Y813230D01*
X4975857Y810442D01*
X4961993Y827408D01*
X4966386Y831955D01*
X4973785Y840587D01*
X4976791Y844672D01*
X4979334Y848603D01*
X4981415Y852380D01*
X4983034Y856002D01*
X4984190Y859470D01*
X4984884Y862785D01*
X4985115Y865945D01*
X5005945Y825115D01*
D02*
G37*
G36*
X4865116Y862785D02*
X4865810Y859470D01*
X4866966Y856002D01*
X4868584Y852380D01*
X4870665Y848603D01*
X4873209Y844672D01*
X4876215Y840587D01*
X4883614Y831955D01*
X4888007Y827408D01*
X4874143Y810442D01*
X4871201Y813230D01*
X4868244Y815724D01*
X4865272Y817925D01*
X4862286Y819832D01*
X4859284Y821447D01*
X4856268Y822767D01*
X4853237Y823794D01*
X4850191Y824528D01*
X4847131Y824968D01*
X4844055Y825115D01*
X4864885Y865945D01*
X4865116Y862785D01*
D02*
G37*
G36*
X4055945Y825115D02*
X4052869Y824968D01*
X4049809Y824528D01*
X4046763Y823794D01*
X4043732Y822767D01*
X4040715Y821447D01*
X4037714Y819832D01*
X4034727Y817925D01*
X4031755Y815724D01*
X4028799Y813230D01*
X4025857Y810442D01*
X4011992Y827408D01*
X4016386Y831955D01*
X4023785Y840587D01*
X4026791Y844672D01*
X4029334Y848603D01*
X4031415Y852380D01*
X4033034Y856002D01*
X4034190Y859470D01*
X4034884Y862785D01*
X4035115Y865945D01*
X4055945Y825115D01*
D02*
G37*
G36*
X3915116Y862785D02*
X3915810Y859470D01*
X3916966Y856002D01*
X3918584Y852380D01*
X3920665Y848603D01*
X3923209Y844672D01*
X3926215Y840587D01*
X3933614Y831955D01*
X3938007Y827408D01*
X3924143Y810442D01*
X3921201Y813230D01*
X3918244Y815724D01*
X3915272Y817925D01*
X3912286Y819832D01*
X3909284Y821447D01*
X3906268Y822767D01*
X3903237Y823794D01*
X3900191Y824528D01*
X3897130Y824968D01*
X3894055Y825115D01*
X3914885Y865945D01*
X3915116Y862785D01*
D02*
G37*
G36*
X5609085Y834766D02*
X5606118Y833719D01*
X5603500Y831974D01*
X5601232Y829531D01*
X5599312Y826390D01*
X5597742Y822551D01*
X5596816Y819112D01*
X5597676Y816062D01*
X5599210Y812132D01*
X5601084Y808503D01*
X5603299Y805174D01*
X5605855Y802145D01*
X5608752Y799418D01*
X5611990Y796990D01*
X5542600Y799408D01*
X5545915Y800387D01*
X5548882Y801934D01*
X5551499Y804050D01*
X5553768Y806734D01*
X5555687Y809988D01*
X5557258Y813810D01*
X5558454Y818109D01*
X5557258Y822551D01*
X5555687Y826390D01*
X5553768Y829531D01*
X5551499Y831974D01*
X5548882Y833719D01*
X5545915Y834766D01*
X5542600Y835115D01*
X5612400D01*
X5609085Y834766D01*
D02*
G37*
G36*
X3340083Y830115D02*
X3357400D01*
X3354084Y829766D01*
X3351118Y828719D01*
X3348500Y826974D01*
X3346232Y824531D01*
X3344312Y821390D01*
X3342742Y817551D01*
X3342230Y815650D01*
X3342742Y813810D01*
X3344312Y809988D01*
X3346232Y806734D01*
X3348500Y804050D01*
X3351118Y801934D01*
X3354084Y800387D01*
X3357400Y799408D01*
X3340044Y798803D01*
X3339950Y795215D01*
X3305050D01*
X3304988Y797582D01*
X3288010Y796990D01*
X3291247Y799418D01*
X3294144Y802145D01*
X3296700Y805174D01*
X3298915Y808503D01*
X3300790Y812132D01*
X3302323Y816062D01*
X3302495Y816670D01*
X3302258Y817551D01*
X3300687Y821390D01*
X3298768Y824531D01*
X3296499Y826974D01*
X3293882Y828719D01*
X3290915Y829766D01*
X3287600Y830115D01*
X3304895D01*
X3305050Y834785D01*
X3339950D01*
X3340083Y830115D01*
D02*
G37*
G36*
X3000000Y820000D02*
Y803149D01*
X3007575Y799907D01*
X3016273Y796880D01*
X3025309Y794404D01*
X3034685Y792477D01*
X3044399Y791101D01*
X3054452Y790276D01*
X3062915Y790052D01*
X3069014Y790092D01*
X3120880Y793288D01*
X3127728Y794475D01*
X3133399Y795845D01*
X3137896Y797398D01*
X3141217Y799133D01*
Y700868D01*
X3137896Y702603D01*
X3133399Y704155D01*
X3127728Y705525D01*
X3120880Y706713D01*
X3103660Y708539D01*
X3081738Y709635D01*
X3061529Y709912D01*
X3054452Y709725D01*
X3044399Y708900D01*
X3034685Y707523D01*
X3025309Y705597D01*
X3016273Y703120D01*
X3007575Y700093D01*
X3000000Y696851D01*
X3000000Y520000D01*
X2979999Y499999D01*
X2819999Y500000D01*
X2800000Y520000D01*
X2800000Y696851D01*
X2792425Y700093D01*
X2783727Y703120D01*
X2774691Y705597D01*
X2773774Y705785D01*
X2772272Y705525D01*
X2766601Y704155D01*
X2762104Y702602D01*
X2758783Y700867D01*
Y708448D01*
X2755601Y708899D01*
X2745548Y709725D01*
X2735157Y710000D01*
Y790000D01*
X2745548Y790275D01*
X2755601Y791101D01*
X2758783Y791552D01*
Y799133D01*
X2762104Y797397D01*
X2766601Y795845D01*
X2772272Y794475D01*
X2773772Y794215D01*
X2774691Y794403D01*
X2783727Y796880D01*
X2792425Y799907D01*
X2800000Y803149D01*
Y820000D01*
X2815000Y835000D01*
X2985000Y835000D01*
X3000000Y820000D01*
D02*
G37*
G36*
X5764132Y793783D02*
X5688010Y796990D01*
X5689338Y798361D01*
X5690526Y800605D01*
X5691575Y803723D01*
X5692483Y807714D01*
X5693252Y812578D01*
X5694371Y824926D01*
X5694930Y840769D01*
X5695000Y850000D01*
X5765000D01*
X5764132Y793783D01*
D02*
G37*
G36*
X1696390Y803051D02*
X1696914Y797113D01*
X1697787Y791873D01*
X1699010Y787332D01*
X1700581Y783490D01*
X1702503Y780346D01*
X1704773Y777901D01*
X1707393Y776155D01*
X1710362Y775107D01*
X1713680Y774758D01*
X1648696Y773803D01*
X1651088Y775677D01*
X1653228Y777931D01*
X1655117Y780567D01*
X1656753Y783583D01*
X1658138Y786981D01*
X1659271Y790760D01*
X1660152Y794920D01*
X1660782Y799462D01*
X1661159Y804384D01*
X1661285Y809688D01*
X1696215D01*
X1696390Y803051D01*
D02*
G37*
G36*
X1038826Y804362D02*
X1039204Y799446D01*
X1039835Y794910D01*
X1040717Y790754D01*
X1041851Y786979D01*
X1043237Y783583D01*
X1044876Y780568D01*
X1046766Y777933D01*
X1048909Y775678D01*
X1051303Y773803D01*
X986350Y774758D01*
X989666Y775107D01*
X992632Y776154D01*
X995250Y777899D01*
X997518Y780342D01*
X999438Y783483D01*
X1001008Y787322D01*
X1002230Y791859D01*
X1003102Y797094D01*
X1003626Y803027D01*
X1003800Y809658D01*
X1038700D01*
X1038826Y804362D01*
D02*
G37*
G36*
X1197990Y677254D02*
X1196696Y681575D01*
X1194623Y685442D01*
X1191771Y688854D01*
X1188141Y691811D01*
X1183731Y694314D01*
X1178542Y696361D01*
X1172575Y697953D01*
X1165829Y699090D01*
X1158304Y699773D01*
X1150000Y700000D01*
Y750000D01*
X1158304Y750228D01*
X1165829Y750910D01*
X1172575Y752047D01*
X1178542Y753639D01*
X1183731Y755687D01*
X1188141Y758189D01*
X1191771Y761146D01*
X1194623Y764558D01*
X1196696Y768425D01*
X1197990Y772746D01*
Y677254D01*
D02*
G37*
G36*
X2625000Y835000D02*
Y665000D01*
X2610000Y650000D01*
X2360000D01*
X2340000Y670000D01*
Y830000D01*
X2359999Y850000D01*
X2610000D01*
X2625000Y835000D01*
D02*
G37*
G36*
X1048196Y673871D02*
X1045416Y671265D01*
X1042963Y668379D01*
X1040837Y665214D01*
X1039039Y661768D01*
X1037567Y658043D01*
X1036422Y654038D01*
X1035604Y649753D01*
X1035114Y645187D01*
X1034950Y640342D01*
X1000050D01*
X999886Y645187D01*
X999396Y649753D01*
X998578Y654038D01*
X997434Y658043D01*
X995962Y661768D01*
X994163Y665214D01*
X992037Y668379D01*
X989584Y671265D01*
X986804Y673871D01*
X983697Y676197D01*
X1051303D01*
X1048196Y673871D01*
D02*
G37*
G36*
X1713199Y673872D02*
X1710421Y671267D01*
X1707971Y668381D01*
X1705847Y665214D01*
X1704049Y661766D01*
X1702579Y658037D01*
X1701435Y654027D01*
X1700618Y649737D01*
X1700128Y645165D01*
X1699965Y640312D01*
X1665035D01*
X1664871Y645165D01*
X1664381Y649737D01*
X1663564Y654027D01*
X1662421Y658037D01*
X1660950Y661766D01*
X1659153Y665214D01*
X1657029Y668381D01*
X1654578Y671267D01*
X1651801Y673872D01*
X1648696Y676197D01*
X1716303D01*
X1713199Y673872D01*
D02*
G37*
G36*
X1503673Y771181D02*
X1507094Y768834D01*
X1511564Y766764D01*
X1517084Y764969D01*
X1523655Y763451D01*
X1531275Y762209D01*
X1549666Y760552D01*
X1572258Y760000D01*
Y690000D01*
X1560437Y689862D01*
X1531275Y687792D01*
X1523655Y686549D01*
X1517084Y685031D01*
X1511564Y683236D01*
X1507094Y681166D01*
X1503673Y678819D01*
X1501550Y676470D01*
X1500203Y674172D01*
X1498586Y670620D01*
X1497160Y666597D01*
X1495923Y662102D01*
X1494877Y657137D01*
X1493356Y645792D01*
X1492880Y639414D01*
X1492500Y625243D01*
X1442500D01*
X1442405Y632564D01*
X1440979Y651700D01*
X1440123Y657137D01*
X1437840Y666597D01*
X1436414Y670620D01*
X1434797Y674172D01*
X1432990Y677254D01*
X1501303D01*
Y773803D01*
X1503673Y771181D01*
D02*
G37*
G36*
X4973804Y560115D02*
X4971654Y559961D01*
X4969406Y559498D01*
X4967060Y558727D01*
X4964615Y557648D01*
X4962073Y556261D01*
X4959432Y554565D01*
X4956692Y552561D01*
X4950919Y547629D01*
X4947885Y544700D01*
X4934700Y562344D01*
X4937629Y565378D01*
X4942561Y571151D01*
X4944565Y573890D01*
X4946261Y576531D01*
X4947648Y579074D01*
X4948727Y581518D01*
X4949498Y583864D01*
X4949961Y586113D01*
X4950115Y588262D01*
X4973804Y560115D01*
D02*
G37*
G36*
X3344155Y368367D02*
X3341292Y364946D01*
X3338453Y360432D01*
X3335637Y354825D01*
X3332844Y348124D01*
X3330074Y340330D01*
X3324604Y321464D01*
X3319228Y298224D01*
X3316574Y284965D01*
X3254604Y378258D01*
X3265565Y376183D01*
X3285332Y373994D01*
X3294138Y373880D01*
X3302225Y374420D01*
X3309593Y375613D01*
X3316243Y377460D01*
X3322174Y379961D01*
X3327387Y383115D01*
X3331882Y386923D01*
X3344155Y368367D01*
D02*
G37*
G36*
X4106745Y367101D02*
X4103956Y363762D01*
X4101155Y359310D01*
X4098341Y353746D01*
X4095516Y347069D01*
X4089829Y330379D01*
X4084094Y309239D01*
X4078311Y283649D01*
X4017913Y377969D01*
X4028762Y375732D01*
X4048349Y373281D01*
X4057088Y373066D01*
X4065123Y373526D01*
X4072454Y374659D01*
X4079082Y376466D01*
X4085006Y378947D01*
X4090227Y382102D01*
X4094745Y385930D01*
X4106745Y367101D01*
D02*
G37*
G36*
X1700128Y354835D02*
X1700618Y350263D01*
X1701435Y345973D01*
X1702579Y341963D01*
X1704049Y338234D01*
X1705847Y334786D01*
X1707971Y331619D01*
X1710421Y328733D01*
X1713199Y326128D01*
X1716303Y323803D01*
X1648696D01*
X1651801Y326128D01*
X1654578Y328733D01*
X1657029Y331619D01*
X1659153Y334786D01*
X1660950Y338234D01*
X1662421Y341963D01*
X1663564Y345973D01*
X1664381Y350263D01*
X1664871Y354835D01*
X1665035Y359688D01*
X1699965D01*
X1700128Y354835D01*
D02*
G37*
G36*
X1035114Y354813D02*
X1035604Y350247D01*
X1036422Y345962D01*
X1037567Y341957D01*
X1039039Y338232D01*
X1040837Y334786D01*
X1042963Y331621D01*
X1045416Y328735D01*
X1048196Y326129D01*
X1051303Y323803D01*
X983697D01*
X986804Y326129D01*
X989584Y328735D01*
X992037Y331621D01*
X994163Y334786D01*
X995962Y338232D01*
X997434Y341957D01*
X998578Y345962D01*
X999396Y350247D01*
X999886Y354813D01*
X1000050Y359658D01*
X1034950D01*
X1035114Y354813D01*
D02*
G37*
G36*
X1492595Y367436D02*
X1494021Y348300D01*
X1494877Y342863D01*
X1497160Y333403D01*
X1498586Y329380D01*
X1500203Y325828D01*
X1502010Y322746D01*
X1432990D01*
X1434797Y325828D01*
X1436414Y329380D01*
X1437840Y333403D01*
X1439077Y337898D01*
X1440123Y342863D01*
X1441644Y354208D01*
X1442120Y360587D01*
X1442500Y374757D01*
X1492500D01*
X1492595Y367436D01*
D02*
G37*
G36*
X5371486Y376808D02*
X5367306Y372083D01*
X5363577Y366718D01*
X5360299Y360715D01*
X5357473Y354072D01*
X5355099Y346791D01*
X5353175Y338871D01*
X5351703Y330312D01*
X5350683Y321113D01*
X5350114Y311276D01*
X5349996Y300800D01*
X5270800Y379996D01*
X5281276Y380114D01*
X5300311Y381703D01*
X5308871Y383175D01*
X5316791Y385099D01*
X5324072Y387473D01*
X5330715Y390299D01*
X5336718Y393577D01*
X5342083Y397306D01*
X5346808Y401486D01*
X5371486Y376808D01*
D02*
G37*
G36*
X4825634Y348983D02*
X4828387Y346781D01*
X4831526Y344838D01*
X4835051Y343154D01*
X4838960Y341729D01*
X4843255Y340563D01*
X4847936Y339657D01*
X4853002Y339009D01*
X4858454Y338620D01*
X4864291Y338491D01*
Y310091D01*
X4860249Y309925D01*
X4856604Y309427D01*
X4853357Y308597D01*
X4850505Y307435D01*
X4848051Y305941D01*
X4845994Y304115D01*
X4844334Y301956D01*
X4843071Y299467D01*
X4842204Y296644D01*
X4841735Y293490D01*
X4823265Y351444D01*
X4825634Y348983D01*
D02*
G37*
G36*
X4163772Y382102D02*
X4168993Y378947D01*
X4174918Y376466D01*
X4181546Y374659D01*
X4188877Y373526D01*
X4196912Y373066D01*
X4205650Y373281D01*
X4215092Y374170D01*
X4225237Y375732D01*
X4236086Y377969D01*
X4175689Y283649D01*
X4172791Y297000D01*
X4158484Y347069D01*
X4155658Y353745D01*
X4152845Y359309D01*
X4150044Y363761D01*
X4147255Y367101D01*
X4159255Y385930D01*
X4163772Y382102D01*
D02*
G37*
G36*
X3401772D02*
X3406993Y378947D01*
X3412918Y376466D01*
X3419546Y374659D01*
X3426877Y373526D01*
X3434912Y373066D01*
X3443650Y373281D01*
X3453092Y374170D01*
X3463237Y375732D01*
X3474086Y377969D01*
X3413689Y283649D01*
X3410791Y297000D01*
X3396484Y347069D01*
X3393658Y353745D01*
X3390845Y359309D01*
X3388044Y363761D01*
X3385255Y367101D01*
X3397255Y385930D01*
X3401772Y382102D01*
D02*
G37*
G36*
X1197990Y227254D02*
X1196696Y231575D01*
X1194623Y235442D01*
X1191771Y238854D01*
X1188141Y241811D01*
X1183731Y244313D01*
X1178542Y246361D01*
X1172575Y247953D01*
X1165829Y249090D01*
X1158304Y249772D01*
X1150000Y250000D01*
Y300000D01*
X1158304Y300227D01*
X1165829Y300910D01*
X1172575Y302047D01*
X1178542Y303639D01*
X1183731Y305686D01*
X1188141Y308189D01*
X1191771Y311146D01*
X1194623Y314558D01*
X1196696Y318425D01*
X1197990Y322746D01*
Y227254D01*
D02*
G37*
G36*
X5604114Y288724D02*
X5605703Y269688D01*
X5607175Y261129D01*
X5609099Y253209D01*
X5611473Y245927D01*
X5614299Y239285D01*
X5617577Y233281D01*
X5621306Y227917D01*
X5625486Y223192D01*
X5600808Y198513D01*
X5596083Y202694D01*
X5590718Y206423D01*
X5584715Y209700D01*
X5578072Y212526D01*
X5570791Y214901D01*
X5562871Y216825D01*
X5554311Y218296D01*
X5545113Y219317D01*
X5535276Y219886D01*
X5524800Y220004D01*
X5603996Y299200D01*
X5604114Y288724D01*
D02*
G37*
D10*
X3673261Y2423261D02*
G03*
X3665116Y2405800I20139J-20025D01*
G01*
X3823960Y2573960D02*
X3825000Y2575000D01*
X3823960Y2514580D02*
Y2573960D01*
X3665000Y2370000D02*
X3665116Y2405800D01*
X3673261Y2423261D02*
X3720000Y2470000D01*
X3779380D01*
X3823960Y2514580D01*
X3535000Y2015000D02*
X3545000D01*
X3650000Y2355000D02*
X3665000Y2370000D01*
X3545000Y2015000D02*
X3650000Y2120000D01*
Y2355000D01*
X3823400Y3781448D02*
Y3806601D01*
X3823960Y3726600D02*
Y3780888D01*
X3912560Y3895760D02*
X3912560D01*
X3823400Y3781448D02*
X3823960Y3780888D01*
X3823400Y3806601D02*
X3912560Y3895760D01*
X4079200Y4224200D02*
X4095000Y4240000D01*
X3912560Y3895760D02*
X4024200Y4007400D01*
Y4124200D01*
X4079200Y4179200D01*
Y4224200D01*
X3775000Y3725000D02*
Y3826648D01*
X3775000Y3725000D02*
X3775000Y3725000D01*
X3892512Y3944160D02*
X3892512D01*
X3775000Y3826648D02*
X3892512Y3944160D01*
X3892512D02*
X3975800Y4027448D01*
X3920800Y4179200D02*
X3975800Y4124200D01*
X3905000Y4240000D02*
X3920800Y4224200D01*
X3975800Y4027448D02*
Y4124200D01*
X3920800Y4179200D02*
Y4224200D01*
X4095000Y4480000D02*
Y4588722D01*
X4024200Y4659522D02*
X4095000Y4588722D01*
X4074200Y4861450D02*
X4075000Y4862250D01*
X4024200Y4659522D02*
Y4708296D01*
X3975000Y4757496D02*
Y4862250D01*
Y4757496D02*
X4057563D01*
X4074200Y4774132D02*
Y4861450D01*
X4057563Y4757496D02*
X4074200Y4774132D01*
X3975000Y4757496D02*
X4024200Y4708296D01*
X3905000Y4588721D02*
X3975800Y4659521D01*
X3905000Y4480000D02*
Y4588721D01*
X3975800Y4659521D02*
Y4688248D01*
X3925800Y4738248D02*
Y4817350D01*
X3925799Y4817350D02*
Y4861450D01*
X3925800Y4738248D02*
X3975800Y4688248D01*
X3925000Y4862250D02*
X3925799Y4861450D01*
Y4817350D02*
X3925800Y4817350D01*
X4025000Y4862250D02*
Y4948363D01*
X3925000Y4862250D02*
Y4948363D01*
X3941636Y4965000D02*
X4008363D01*
X4025000Y4948363D01*
X3925000D02*
X3941636Y4965000D01*
X4762000Y300000D02*
X4786291Y324291D01*
X4980000Y440000D02*
X5070000D01*
X4864291Y324291D02*
X4980000Y440000D01*
X4786291Y324291D02*
X4864291D01*
X5590000Y1490000D02*
X5880000Y1200000D01*
X5590000Y1490000D02*
Y1865000D01*
X5880000Y740000D02*
Y1200000D01*
X5260000Y630000D02*
X5770000D01*
X5880000Y740000D01*
X5070000Y440000D02*
X5260000Y630000D01*
D11*
X3460000Y870000D02*
D03*
Y1020000D02*
D03*
X5320000Y2355000D02*
D03*
Y2505000D02*
D03*
X5850000Y2510000D02*
D03*
Y2360000D02*
D03*
X4750000Y3625000D02*
D03*
Y2925000D02*
D03*
X5350000Y3300000D02*
D03*
X5820000Y3385000D02*
D03*
X3250000Y2725000D02*
D03*
X5350000Y1425000D02*
D03*
X4400000D02*
D03*
X2975000Y4475000D02*
D03*
X2270000Y4297500D02*
D03*
X3375000Y4475000D02*
D03*
X4050000Y1725000D02*
D03*
X3900000D02*
D03*
X5000000D02*
D03*
X4850000D02*
D03*
X4050000Y600000D02*
D03*
X3900000D02*
D03*
X5000000D02*
D03*
X4850000D02*
D03*
X3250000Y2875000D02*
D03*
X4400000Y1275000D02*
D03*
X5350000D02*
D03*
X3320000Y1020000D02*
D03*
X3375000Y4625000D02*
D03*
X2975000D02*
D03*
X3400000Y4950000D02*
D03*
X4600000Y4945000D02*
D03*
X5580000Y1025000D02*
D03*
X5430000D02*
D03*
X4750000Y2775000D02*
D03*
Y3200000D02*
D03*
Y3475000D02*
D03*
X2270000Y4447500D02*
D03*
X5350000Y3150000D02*
D03*
X5820000Y3235000D02*
D03*
X3900000Y750000D02*
D03*
X4050000D02*
D03*
X4850000D02*
D03*
X5590000Y2015000D02*
D03*
X5000000Y750000D02*
D03*
X3900000Y1575000D02*
D03*
X4050000D02*
D03*
X4850000D02*
D03*
X5000000D02*
D03*
X4600000Y5095000D02*
D03*
X3400000Y5100000D02*
D03*
X4750000Y3350000D02*
D03*
X5590000Y1865000D02*
D03*
X3320000Y870000D02*
D03*
X5430000Y875000D02*
D03*
X5580000D02*
D03*
D12*
X3775000Y2370000D02*
D03*
X3925000D02*
D03*
X1075000Y3125000D02*
D03*
X925000D02*
D03*
X1075000Y2875000D02*
D03*
X925000D02*
D03*
X1075000Y2375000D02*
D03*
X925000D02*
D03*
X4675000Y4225000D02*
D03*
X4525000D02*
D03*
X4675000Y4025000D02*
D03*
X4525000D02*
D03*
X5320000Y2230000D02*
D03*
X5170000D02*
D03*
X1075000Y2625000D02*
D03*
X925000D02*
D03*
X3665000Y2370000D02*
D03*
X3515000D02*
D03*
X1850000Y4900000D02*
D03*
X2575000Y750000D02*
D03*
X3495000Y2520000D02*
D03*
X3550000Y3900000D02*
D03*
X5725000Y750000D02*
D03*
X2725000Y750000D02*
D03*
X3175000Y750000D02*
D03*
X4275000Y2250000D02*
D03*
X4275000Y2400000D02*
D03*
X3100000Y4475000D02*
D03*
X3250000D02*
D03*
X4075000Y1850000D02*
D03*
X3875000D02*
D03*
X5025000D02*
D03*
X4825000D02*
D03*
X1675000Y1050000D02*
D03*
X2325000Y4900000D02*
D03*
X3700000Y3900000D02*
D03*
X3345000Y2520000D02*
D03*
X4125000Y2400000D02*
D03*
X4125000Y2250000D02*
D03*
X4225000Y1850000D02*
D03*
X3725000D02*
D03*
X5175000D02*
D03*
X4675000D02*
D03*
X1525000Y1050000D02*
D03*
X1175000D02*
D03*
X2055000Y4622500D02*
D03*
X2625000Y2550000D02*
D03*
Y2750000D02*
D03*
Y2950000D02*
D03*
X1905000Y4622500D02*
D03*
X3875000Y875000D02*
D03*
X4075000D02*
D03*
X4825000D02*
D03*
X5025000D02*
D03*
X2000000Y4900000D02*
D03*
X2175000D02*
D03*
X2475000Y2950000D02*
D03*
Y2750000D02*
D03*
Y2550000D02*
D03*
X1025000Y1050000D02*
D03*
X3325000Y750000D02*
D03*
X4225000Y875000D02*
D03*
X3725000D02*
D03*
X5575000Y750000D02*
D03*
X4675000Y875000D02*
D03*
X5175000D02*
D03*
D13*
X3765000Y2205000D02*
D03*
X3535000Y2015000D02*
D03*
Y2205000D02*
D03*
X3765000Y2015000D02*
D03*
D14*
X4925000Y3678600D02*
D03*
X1660000Y4278200D02*
D03*
X2900000Y750000D02*
D03*
Y978600D02*
D03*
X4925000Y3450000D02*
D03*
X1660000Y4506800D02*
D03*
D15*
X3625000Y2575000D02*
D03*
Y3725000D02*
D03*
X4225000Y2575000D02*
D03*
X4075000D02*
D03*
X4025000D02*
D03*
X4375000D02*
D03*
X4325000D02*
D03*
X3675000Y3725000D02*
D03*
X4175000Y2575000D02*
D03*
X3825000D02*
D03*
X3875000D02*
D03*
X3725000Y3725000D02*
D03*
X3825000D02*
D03*
X3775000D02*
D03*
X3925000Y2575000D02*
D03*
X4375000Y3725000D02*
D03*
X4175000D02*
D03*
X4225000D02*
D03*
X4125000D02*
D03*
X4325000D02*
D03*
X3875000D02*
D03*
X3925000D02*
D03*
X3975000D02*
D03*
X4025000D02*
D03*
X4075000D02*
D03*
X4275000D02*
D03*
Y2575000D02*
D03*
X4125000D02*
D03*
X3975000D02*
D03*
X3775000D02*
D03*
X3725000D02*
D03*
X3675000D02*
D03*
D16*
X4575000Y2875000D02*
D03*
Y3525000D02*
D03*
X3425000Y2775000D02*
D03*
Y2975000D02*
D03*
X4575000D02*
D03*
X3425000Y2825000D02*
D03*
X4575000Y3475000D02*
D03*
Y2825000D02*
D03*
Y3075000D02*
D03*
X3425000Y3175000D02*
D03*
Y3025000D02*
D03*
Y3075000D02*
D03*
Y3125000D02*
D03*
Y3525000D02*
D03*
Y3225000D02*
D03*
X4575000Y3425000D02*
D03*
X3425000Y2875000D02*
D03*
Y2925000D02*
D03*
Y3275000D02*
D03*
Y3325000D02*
D03*
Y3375000D02*
D03*
Y3425000D02*
D03*
Y3475000D02*
D03*
X4575000Y3375000D02*
D03*
Y3325000D02*
D03*
Y3275000D02*
D03*
Y3225000D02*
D03*
Y3175000D02*
D03*
Y3125000D02*
D03*
Y3025000D02*
D03*
Y2925000D02*
D03*
Y2775000D02*
D03*
D17*
X1467500Y725000D02*
D03*
Y275000D02*
D03*
X1682500Y725000D02*
D03*
Y275000D02*
D03*
X1232500D02*
D03*
Y725000D02*
D03*
X1017500D02*
D03*
Y275000D02*
D03*
D18*
X1675000Y4900000D02*
D03*
X2661250Y4386250D02*
D03*
X3605000Y4475000D02*
D03*
X1675000Y1225000D02*
D03*
X1025000D02*
D03*
D19*
X1847500Y4282500D02*
D03*
X2112500D02*
D03*
Y4472500D02*
D03*
Y4377500D02*
D03*
X1847500Y4472500D02*
D03*
D20*
X2150000Y2657500D02*
D03*
Y2842500D02*
D03*
X2275000D02*
D03*
Y2657500D02*
D03*
D21*
X5687500Y2224914D02*
D03*
X5557500Y2655086D02*
D03*
X5492500D02*
D03*
X5557500Y2224914D02*
D03*
X5622500D02*
D03*
X5492500D02*
D03*
X5622500Y2655086D02*
D03*
D22*
X5190000Y1420500D02*
D03*
X4245000D02*
D03*
X4650000Y1039500D02*
D03*
X3705000D02*
D03*
Y1166500D02*
D03*
X4245000Y1039500D02*
D03*
X4650000Y1166500D02*
D03*
X5190000Y1039500D02*
D03*
X3705000Y1420500D02*
D03*
Y1293500D02*
D03*
X4245000Y1166500D02*
D03*
Y1293500D02*
D03*
X4650000Y1420500D02*
D03*
Y1293500D02*
D03*
X5190000Y1166500D02*
D03*
Y1293500D02*
D03*
D23*
X4000000Y4240000D02*
D03*
Y4480000D02*
D03*
X4095000Y4240000D02*
D03*
X3905000D02*
D03*
X4095000Y4480000D02*
D03*
X3905000D02*
D03*
D24*
X3760000Y4854700D02*
D03*
X4240000D02*
D03*
X4320000D02*
D03*
X3679999D02*
D03*
D25*
X5687500Y2655086D02*
D03*
D26*
X4125000Y4862250D02*
D03*
X3825000D02*
D03*
X4075000D02*
D03*
X3975000D02*
D03*
X3925000D02*
D03*
X4025000D02*
D03*
X4175000D02*
D03*
X3875000D02*
D03*
D27*
X2895000Y2375000D02*
X3150000Y2630000D01*
X1100000Y2375000D02*
X2895000D01*
X3150000Y2630000D02*
X3360000D01*
X4720000Y3020000D02*
X5400000D01*
X5557500Y2862500D01*
Y2655086D02*
Y2862500D01*
X4920000Y3100000D02*
X4990000Y3170000D01*
X5330000D01*
X5350000Y3150000D01*
X5530000D01*
X5639999Y3040000D01*
X5420000Y450000D02*
X5920000D01*
X5270000Y300000D02*
X5420000Y450000D01*
X5920000D02*
X6180000Y710000D01*
Y1165932D01*
X5780000Y3040000D02*
X6180000Y2640000D01*
Y2387253D02*
Y2640000D01*
X5639999Y3040000D02*
X5780000D01*
X6180000Y1165932D02*
Y1183383D01*
X6159556Y1203827D02*
X6180000Y1183383D01*
X6075856Y1203827D02*
X6159556D01*
X6067286Y1212397D02*
X6075856Y1203827D01*
X6067286Y1212397D02*
Y1280957D01*
X6075856Y1289527D01*
X6225498D01*
X6234068Y1298097D01*
Y1366657D01*
X6225498Y1375227D02*
X6234068Y1366657D01*
X6075856Y1375227D02*
X6225498D01*
X6067286Y1383797D02*
X6075856Y1375227D01*
X6067286Y1383797D02*
Y1452358D01*
X6075856Y1460927D01*
X6225498D01*
X6234068Y1469497D01*
Y1538058D01*
X6225498Y1546628D02*
X6234068Y1538058D01*
X6075856Y1546628D02*
X6225498D01*
X6067286Y1555198D02*
X6075856Y1546628D01*
X6067286Y1555198D02*
Y1623758D01*
X6075856Y1632328D01*
X6225498D01*
X6234068Y1640898D01*
Y1709458D01*
X6225498Y1718028D02*
X6234068Y1709458D01*
X6075856Y1718028D02*
X6225498D01*
X6067286Y1726598D02*
X6075856Y1718028D01*
X6067286Y1726598D02*
Y1795158D01*
X6075856Y1803728D01*
X6225498D01*
X6234068Y1812298D01*
Y1880858D01*
X6225498Y1889428D02*
X6234068Y1880858D01*
X6075856Y1889428D02*
X6225498D01*
X6067286Y1897998D02*
X6075856Y1889428D01*
X6067286Y1897998D02*
Y1966558D01*
X6075856Y1975128D01*
X6225498D01*
X6234068Y1983698D01*
Y2052258D01*
X6225498Y2060828D02*
X6234068Y2052258D01*
X6075856Y2060828D02*
X6225498D01*
X6067286Y2069398D02*
X6075856Y2060828D01*
X6067286Y2069398D02*
Y2137958D01*
X6075856Y2146528D01*
X6225498D01*
X6234068Y2155098D01*
Y2223658D01*
X6225498Y2232228D02*
X6234068Y2223658D01*
X6075856Y2232228D02*
X6225498D01*
X6067286Y2240798D02*
X6075856Y2232228D01*
X6067286Y2240798D02*
Y2309359D01*
X6075856Y2317929D01*
X6159556D01*
X6180000Y2338373D01*
Y2387253D01*
X5524000Y300000D02*
X5684000Y140000D01*
X6120000D01*
X5652500Y3237500D02*
X5817500D01*
X5650000Y3240000D02*
X5652500Y3237500D01*
X5817500D02*
X5842550Y3212450D01*
X5872550D01*
X3905000Y3175000D02*
X3980000Y3100000D01*
X4340000D01*
X3555000Y3175000D02*
X3905000D01*
X6120000Y140000D02*
X6362500Y382500D01*
Y2722500D01*
X5872550Y3212450D02*
X6362500Y2722500D01*
X1075000Y2875000D02*
X1094188Y2894188D01*
X1730000Y3405000D02*
X3217500D01*
X1094188Y2894188D02*
X1219188D01*
X1730000Y3405000D01*
X3687500Y3595000D02*
X3717500Y3625000D01*
X1075000Y3125000D02*
Y3135000D01*
X1545000Y3595000D02*
X3687500D01*
X1075000Y3135000D02*
X1097550Y3157550D01*
X1107550D01*
X1545000Y3595000D01*
X1075000Y2625000D02*
X1362500D01*
X1962500Y3225000D01*
X3300000D01*
X3897550Y925544D02*
X3900000Y927994D01*
X3897550Y897550D02*
Y925544D01*
X3875000Y875000D02*
X3897550Y897550D01*
X3715123Y1156377D02*
X3803623D01*
X3900000Y1060000D01*
X3705000Y1166500D02*
X3715123Y1156377D01*
X3900000Y927994D02*
Y1060000D01*
X4109500Y1039500D02*
X4245000D01*
X4060000Y890000D02*
Y990000D01*
Y890000D02*
X4075000Y875000D01*
X4060000Y990000D02*
X4109500Y1039500D01*
X4650000Y1166500D02*
X4697500D01*
X4847550Y925544D02*
X4850000Y927994D01*
X4825000Y875000D02*
X4847550Y897550D01*
X4697500Y1166500D02*
X4850000Y1014000D01*
Y927994D02*
Y1014000D01*
X4847550Y897550D02*
Y925544D01*
X5590000Y2015000D02*
Y2120457D01*
X5557500Y2152957D02*
X5590000Y2120457D01*
X5557500Y2152957D02*
Y2224914D01*
X5622500Y2152957D02*
Y2224914D01*
X5590000Y2120457D02*
X5622500Y2152957D01*
X5320000Y2230000D02*
X5487414D01*
X5492500Y2224914D01*
X5320000Y2230000D02*
Y2355000D01*
X5185877Y1035377D02*
X5190000Y1039500D01*
X5006906Y893094D02*
X5025000Y875000D01*
X5055377Y1035377D02*
X5185877D01*
X5006906Y986906D02*
X5055377Y1035377D01*
X5006906Y893094D02*
Y986906D01*
X2150000Y2842500D02*
X2173425Y2865925D01*
X2193870Y2950000D02*
X2475000D01*
X2173425Y2865925D02*
Y2929556D01*
X2193870Y2950000D01*
X2342500Y2775000D02*
X2452450D01*
X2275000Y2842500D02*
X2342500Y2775000D01*
X2475000Y2750000D02*
Y2752450D01*
X2452450Y2775000D02*
X2475000Y2752450D01*
X2275000Y2657500D02*
X2382500Y2550000D01*
X2475000D01*
X7700000Y2369000D02*
X7733040D01*
X4825000Y4260000D02*
X6417500D01*
X7140000Y3537500D01*
Y3312500D02*
Y3537500D01*
Y3312500D02*
X7450000Y3002500D01*
X7733040Y2369000D02*
X7875000Y2510960D01*
X7450000Y3002500D02*
X7790000D01*
X7875000Y2917500D01*
Y2510960D02*
Y2917500D01*
X4790000Y4225000D02*
X4825000Y4260000D01*
X4675000Y4225000D02*
X4790000D01*
X4675000Y4025000D02*
X6307500D01*
X6854778Y3477722D01*
Y3135222D02*
Y3477722D01*
Y3135222D02*
X6875098Y3114903D01*
X7395070Y2623000D02*
X7700000D01*
X6875098Y3114903D02*
X6887437Y3102564D01*
X6887437D02*
X6887438Y3102562D01*
X6916350D01*
X6962738Y3148950D01*
X6974858D01*
X7023337Y3100471D01*
Y3088351D02*
Y3100471D01*
X6934748Y2999763D02*
X7023337Y3088351D01*
X6934748Y2987643D02*
Y2999763D01*
Y2987643D02*
X6983228Y2939164D01*
X6995347D01*
X7083936Y3027752D01*
X7096056D01*
X7144535Y2979273D01*
Y2967153D02*
Y2979273D01*
X7055947Y2878565D02*
X7144535Y2967153D01*
X7055947Y2866445D02*
Y2878565D01*
Y2866445D02*
X7104426Y2817965D01*
X7116546D01*
X7205134Y2906554D01*
X7217254D01*
X7265733Y2858075D01*
Y2845955D02*
Y2858075D01*
X7177145Y2757366D02*
X7265733Y2845955D01*
X7177145Y2745246D02*
Y2757366D01*
Y2745246D02*
X7225624Y2696768D01*
X7237744D01*
X7326332Y2785356D01*
X7338452D01*
X7386931Y2736877D01*
Y2724757D02*
Y2736877D01*
X7340543Y2678369D02*
X7386931Y2724757D01*
X7340543Y2649457D02*
Y2678369D01*
Y2649457D02*
X7367001Y2623000D01*
X7395070D01*
X3900000Y1575000D02*
X3913094Y1561906D01*
X3705000Y1420500D02*
X3890500D01*
X3913094Y1443094D01*
Y1561906D01*
X3705000Y1293500D02*
Y1420500D01*
X4245000Y1166500D02*
Y1293500D01*
X4030000Y1555001D02*
X4050000Y1575000D01*
X4030000Y1420000D02*
X4146377Y1303623D01*
X4234877D02*
X4245000Y1293500D01*
X4146377Y1303623D02*
X4234877D01*
X4030000Y1420000D02*
Y1555001D01*
X4650000Y1293500D02*
Y1420500D01*
X4820500D02*
X4850000Y1450000D01*
Y1575000D01*
X4650000Y1420500D02*
X4820500D01*
X5619649Y2652235D02*
X5622500Y2655086D01*
X5320000Y2505000D02*
X5585000D01*
X5619649Y2539649D01*
Y2652235D01*
X5622500Y2655086D02*
X5687500D01*
X5190000Y1166500D02*
Y1293500D01*
X5177450Y1306050D02*
X5190000Y1293500D01*
X5000000Y1390000D02*
X5083950Y1306050D01*
X5177450D01*
X5000000Y1390000D02*
Y1575000D01*
X1017500Y275000D02*
Y725000D01*
X1021250Y1046250D02*
X1025000Y1050000D01*
X1021250Y728750D02*
Y1046250D01*
X1017500Y725000D02*
X1021250Y728750D01*
X1075000Y2375000D02*
X1100000D01*
X1025000Y1050000D02*
Y1227994D01*
Y1225000D02*
Y1350000D01*
X1075000Y1400000D02*
Y2375000D01*
X1025000Y1350000D02*
X1075000Y1400000D01*
X3877500Y2717500D02*
X3920000Y2675000D01*
X3447500Y2717500D02*
X3877500D01*
X3360000Y2630000D02*
X3447500Y2717500D01*
X300000Y2369000D02*
X303000Y2372000D01*
X925000D01*
X300000Y2877000D02*
X301000Y2876000D01*
X925000D01*
X300000Y3131000D02*
X303000Y3128000D01*
X925000D01*
X300000Y2623000D02*
X301000Y2624000D01*
X925000D01*
X4225000Y3840000D02*
Y3930000D01*
X4487450Y4192450D02*
X4502450D01*
X4523511Y4213511D01*
Y4228511D01*
X4225000Y3930000D02*
X4487450Y4192450D01*
X4340000Y3857500D02*
X4474950Y3992450D01*
X4502450D01*
X4525000Y4015000D01*
Y4025000D01*
X3320000Y870000D02*
X3460000D01*
X3322500Y752500D02*
X3325000Y750000D01*
X3322500Y752500D02*
Y867500D01*
X3320000Y870000D02*
X3322500Y867500D01*
X3460000Y870000D02*
X3462500Y872500D01*
X3722500D02*
X3725000Y875000D01*
X4225000D02*
X4325000D01*
X3600000Y872500D02*
X3722500D01*
X3597500D02*
X3600000Y875000D01*
X3462500Y872500D02*
X3597500D01*
X5575000Y750000D02*
X5577500Y752500D01*
Y872500D01*
X5580000Y875000D01*
X5430000D02*
X5580000D01*
X5175000Y875000D02*
X5302500D01*
X5430000D02*
X5430000Y875000D01*
X5302500Y875000D02*
X5430000D01*
X4575000D02*
X4675000D01*
D28*
X3624760Y3725240D02*
X3625000Y3725000D01*
X3624760Y3725240D02*
Y3805240D01*
X3610000Y3820000D02*
X3624760Y3805240D01*
X4575000Y3525000D02*
X4575240Y3525240D01*
X4625240D02*
X4670000Y3570000D01*
X4575240Y3525240D02*
X4625240D01*
X3345000Y2775000D02*
X3425000D01*
X3330240Y2760240D02*
X3345000Y2775000D01*
X4575000Y2875000D02*
X4575240Y2875240D01*
X4655240D01*
X4670000Y2890000D01*
X3570000Y2520000D02*
X3614450D01*
X3625000Y2530550D02*
Y2575000D01*
X3614450Y2520000D02*
X3625000Y2530550D01*
X4225240Y2499760D02*
X4250000Y2475000D01*
X4225240Y2499760D02*
Y2574760D01*
X4225000Y2575000D02*
X4225240Y2574760D01*
X2097500Y4297500D02*
X2112500Y4282500D01*
X3425000Y2825000D02*
X3550000D01*
X4450000Y3475000D02*
X4574999D01*
X4575000Y3475000D01*
X4450000Y2825000D02*
X4575000D01*
X4175000Y2700000D02*
X4175000Y2700000D01*
X4175000Y2575000D02*
Y2700000D01*
X4645240Y2824760D02*
X4660000Y2810000D01*
X4575240Y2824760D02*
X4645240D01*
X4575000Y2825000D02*
X4575240Y2824760D01*
X4575000Y3475000D02*
X4750000D01*
X3675240Y3805240D02*
X3690000Y3820000D01*
X3675240Y3725240D02*
Y3805240D01*
X3675000Y3725000D02*
X3675240Y3725240D01*
X3349760Y2825240D02*
X3424760D01*
X3325000Y2850000D02*
X3349760Y2825240D01*
X3424760D02*
X3425000Y2825000D01*
X4150000Y2475000D02*
X4174760Y2499760D01*
Y2574760D01*
X4175000Y2575000D01*
X3775000Y2380000D02*
X3875000Y2480000D01*
Y2575000D01*
X3765000Y2205000D02*
X3775000Y2215000D01*
Y2370000D01*
X4695000Y3375000D02*
X4725000D01*
X4645240Y3424760D02*
X4695000Y3375000D01*
X4575240Y3424760D02*
X4645240D01*
X4575000Y3425000D02*
X4575240Y3424760D01*
X4725000Y3375000D02*
X4750000Y3350000D01*
D29*
X3550000Y3900000D02*
X3565000Y3885000D01*
Y3865000D02*
Y3885000D01*
Y3865000D02*
X3610000Y3820000D01*
X4735000Y3610000D02*
X4750000Y3625000D01*
X4710000Y3610000D02*
X4735000D01*
X4670000Y3570000D02*
X4710000Y3610000D01*
X4886400Y3640000D02*
X4925000Y3678600D01*
X4765000Y3640000D02*
X4886400D01*
X4750000Y3625000D02*
X4765000Y3640000D01*
X3250000Y2725000D02*
X3265000Y2740000D01*
X3310240Y2740240D02*
X3330240Y2760240D01*
X3304290Y2740240D02*
X3310240D01*
X3304050Y2740000D02*
X3304290Y2740240D01*
X3265000Y2740000D02*
X3304050D01*
X4670000Y2890000D02*
X4690000Y2910000D01*
X4735000D01*
X1845350Y4280350D02*
X1847500Y4282500D01*
X1660000Y4278200D02*
X1662150Y4280350D01*
X3125000Y2725000D02*
X3250000D01*
X4735000Y2910000D02*
X4750000Y2925000D01*
X4925000Y3678600D02*
X4951687Y3651913D01*
X5342396Y3307603D02*
X5350000Y3300000D01*
X5820000Y3385000D02*
X5828087Y3376913D01*
X5073087Y3651913D02*
X5075000Y3650000D01*
X4750000Y2925000D02*
X4850000D01*
X3425000Y3900000D02*
X3550000D01*
X1225000Y4375000D02*
X1300000Y4300000D01*
X1375000D01*
X1842396Y4907604D02*
X1850000Y4900000D01*
X1225000Y4800000D02*
X1325000Y4900000D01*
X1675000D01*
X1225000Y4375000D02*
Y4800000D01*
X1467500Y275000D02*
Y725000D01*
X3495000Y2520000D02*
X3570000D01*
X1675000Y4907604D02*
X1842396D01*
X5738906Y2344046D02*
X5806631D01*
X5687600Y2292740D02*
X5738906Y2344046D01*
X5806631D02*
X5807585Y2345000D01*
X5835000D01*
X5850000Y2360000D01*
X4275000Y2250000D02*
Y2400000D01*
X4275000Y2400000D01*
X4260000Y2415000D02*
X4275000Y2400000D01*
X4260000Y2415000D02*
Y2465000D01*
X4250000Y2475000D02*
X4260000Y2465000D01*
X1150000Y275000D02*
X1232500D01*
X1150000Y725000D02*
X1232500D01*
X1425000Y1050000D02*
X1525000D01*
X1175000D02*
X1275000D01*
X5410000Y2660000D02*
X5412706D01*
X5417620Y2655086D01*
X5492500D01*
X5490000Y2797294D02*
Y2800000D01*
Y2797294D02*
X5492399Y2794894D01*
Y2655186D02*
Y2794894D01*
Y2655186D02*
X5492500Y2655086D01*
X4000000Y4480000D02*
Y4600000D01*
X4000000Y4480000D02*
X4000000Y4480000D01*
X4662327Y2812327D02*
X4684653Y2790000D01*
X4735000D01*
X4750000Y2775000D01*
X3690000Y3820000D02*
X3710000Y3840000D01*
Y3890000D01*
X3700000Y3900000D02*
X3710000Y3890000D01*
X3250000Y2875000D02*
X3265000Y2860000D01*
X3315000D01*
X3325000Y2850000D01*
X4125000Y2250000D02*
Y2400000D01*
X4125000Y2400000D01*
X4140000Y2415000D01*
Y2465000D01*
X4150000Y2475000D01*
X2000000Y4900000D02*
X2175000D01*
D30*
X1662150Y4280350D02*
X1845350D01*
D31*
X5610000Y3385000D02*
X5820000D01*
X5525000Y3300000D02*
X5610000Y3385000D01*
X5350000Y3300000D02*
X5525000D01*
X4951687Y3651913D02*
X5073087D01*
X5342396Y3307603D02*
Y3382604D01*
X5075000Y3650000D02*
X5342396Y3382604D01*
X5345500Y1420500D02*
X5350000Y1425000D01*
X5190000Y1420500D02*
X5345500D01*
X4245000D02*
X4395500D01*
X4400000Y1425000D01*
X2245000Y4282500D02*
X2260000Y4297500D01*
X2112500Y4282500D02*
X2245000D01*
X3760000Y4630000D02*
Y4854700D01*
X3605000Y4475000D02*
X3760000Y4630000D01*
X3250000Y4475000D02*
X3375000D01*
X3375000Y4475000D02*
X3605000D01*
X4240000Y4420000D02*
Y4854700D01*
X4180000Y4360000D02*
X4240000Y4420000D01*
X3605000Y4475000D02*
X3720000Y4360000D01*
X4000000Y4240000D02*
Y4360000D01*
X4180000D01*
X3720000D02*
X4000000D01*
X2260281Y4457218D02*
X2270000Y4447500D01*
X2000000Y4380000D02*
X2002500Y4377500D01*
X2177500D01*
X3679999Y4750000D02*
X3680000Y4750000D01*
X3679999Y4750000D02*
Y4854700D01*
X4320000Y4750000D02*
X4320000Y4750000D01*
X4320000Y4750000D02*
Y4854700D01*
X2335000Y4900000D02*
Y4920000D01*
Y4900000D02*
X2450000D01*
X2177500Y4377500D02*
X2237499Y4437500D01*
X2260000D02*
X2270000Y4447500D01*
X2237499Y4437500D02*
X2260000D01*
X2055000Y4622500D02*
X2150000D01*
X3570000Y1040000D02*
X3570500Y1039500D01*
X3705000D01*
X4520000Y1040000D02*
X4520500Y1039500D01*
X4650000D01*
X1847500Y4472500D02*
X1870000D01*
X1905000Y4507499D01*
Y4622500D01*
D32*
X2142500Y2650000D02*
X2150000Y2657500D01*
X1975000Y2650000D02*
X2142500D01*
X1467500Y725000D02*
X1575000D01*
X3495000Y2520000D02*
Y2620000D01*
X5855000Y2360000D02*
X5860000Y2355000D01*
X5730000Y755000D02*
Y850000D01*
X5725000Y750000D02*
X5730000Y755000D01*
X5850000Y2360000D02*
X5850000D01*
X5855000D01*
D33*
X2575000Y750000D02*
Y760000D01*
X5855000Y2360000D02*
X5860000D01*
X5850000Y2260000D02*
Y2360000D01*
X2725000Y750000D02*
X2725000Y750000D01*
X2900000D01*
X2900000Y750000D01*
X3175000D01*
X4400000Y1425000D02*
Y1525000D01*
X5350000Y1425000D02*
Y1525000D01*
X4275000Y2140000D02*
Y2250000D01*
X2661250Y4386250D02*
X2666662D01*
X2260000Y4297500D02*
X2416250D01*
X2657423Y4382423D02*
X2661250Y4386250D01*
X2416250Y4297500D02*
X2501173Y4382423D01*
X2666662Y4386250D02*
X2755412Y4475000D01*
X2501173Y4382423D02*
X2657423D01*
X2755412Y4475000D02*
X3100000D01*
X2416250Y4116250D02*
Y4297500D01*
X2120000Y3820000D02*
X2416250Y4116250D01*
X1160000Y3820000D02*
X2120000D01*
X1060000Y3340000D02*
Y3420000D01*
X1015000Y3465000D02*
X1060000Y3420000D01*
X960000Y3500000D02*
X980000Y3480000D01*
X1015000D01*
Y3675000D01*
X1160000Y3820000D01*
X980000Y3500000D02*
X1015000Y3465000D01*
X3460000Y1020000D02*
Y1120000D01*
X3400000Y4850000D02*
Y4950000D01*
X4600000Y4840000D02*
Y4945000D01*
X4895962Y3425962D02*
X4920000Y3450000D01*
X4895962Y3325962D02*
Y3425962D01*
X4970000Y3440000D02*
Y3474038D01*
X5024350Y3420000D02*
X5060000Y3384350D01*
X4940000Y3450000D02*
X4970000Y3420000D01*
X5024350D01*
X5060000Y3380000D02*
Y3384350D01*
X4900000Y3475000D02*
X4925000Y3450000D01*
X4750000Y3475000D02*
X4900000D01*
X4750000Y2775000D02*
X4850000D01*
X4125000Y2140000D02*
Y2250000D01*
X3420000Y2370000D02*
X3515000D01*
X3410000Y2210000D02*
X3530000D01*
X3535000Y2205000D01*
X3770000Y2010000D02*
X3890000D01*
X3630000Y1850000D02*
X3725000D01*
X4225000D02*
X4320000D01*
X5175000D02*
X5270000D01*
X4580000D02*
X4675000D01*
X5350000Y1180000D02*
Y1275000D01*
X5580000Y1025000D02*
Y1120000D01*
X5430000Y1025000D02*
Y1120000D01*
X3320000Y1020000D02*
Y1120000D01*
X4400000Y1275000D02*
X4400000D01*
Y1180000D02*
Y1275000D01*
X3765000Y2015000D02*
X3770000Y2010000D01*
X3925000Y2260000D02*
Y2370000D01*
Y2260000D02*
X3925000Y2260000D01*
X5080000Y2230000D02*
X5170000D01*
X3245000Y2520000D02*
X3345000D01*
X3700000Y3900000D02*
Y4000000D01*
X4850000Y3200000D02*
X4850000Y3200000D01*
X4750000Y3200000D02*
X4850000D01*
X3150000Y2875000D02*
X3250000D01*
D34*
X2082500Y4282500D02*
X2097500Y4297500D01*
X1930000Y4330000D02*
X1977500Y4282500D01*
X2082500D01*
X1930000Y4330000D02*
Y4420000D01*
X1982500Y4472500D01*
X2112500D01*
D35*
X4041800Y2461800D02*
X4070660Y2490660D01*
Y2570660D01*
X4075000Y2575000D01*
X4041800Y2201800D02*
Y2461800D01*
X3995900Y2155900D02*
X4041800Y2201800D01*
X4045900Y1889100D02*
X4061443Y1873557D01*
Y1863721D02*
Y1873557D01*
X3995900Y1929264D02*
Y2155900D01*
Y1929264D02*
X4036063Y1889100D01*
X4045900D01*
X4035900Y1810900D02*
X4045900D01*
X4015958Y1754100D02*
Y1790958D01*
X4045058Y1725000D02*
X4050000D01*
X4075000Y1840000D02*
Y1850000D01*
X4015958Y1790958D02*
X4035900Y1810900D01*
X4045900D02*
X4075000Y1840000D01*
X4015958Y1754100D02*
X4045058Y1725000D01*
X4021655Y2571656D02*
X4025000Y2575000D01*
X4021655Y2500769D02*
Y2571656D01*
X4000000Y2479114D02*
X4021655Y2500769D01*
X3954100Y2173214D02*
X4000000Y2219114D01*
Y2479114D01*
X3954100Y1929100D02*
Y2173214D01*
X3914100Y1889100D02*
X3954100Y1929100D01*
X3875000Y1860000D02*
X3904100Y1889100D01*
X3914100D01*
X3875000Y1840707D02*
Y1860000D01*
Y1840707D02*
X3904100Y1811607D01*
X3900000Y1725000D02*
X3910000D01*
X3904100Y1811607D02*
X3923393D01*
X3940000Y1795000D01*
Y1755001D02*
Y1795000D01*
X3910000Y1725000D02*
X3940000Y1755001D01*
X4958670Y1850000D02*
X5025000D01*
X4945900Y1862770D02*
X4958670Y1850000D01*
X4379340Y2519774D02*
X4644641Y2254472D01*
X4379340Y2519774D02*
Y2570660D01*
X4375000Y2575000D02*
X4379340Y2570660D01*
X4644641Y2254472D02*
X4644642D01*
X4945900Y1953214D01*
Y1862770D02*
Y1953214D01*
X5025000Y1840000D02*
Y1850000D01*
X4985900Y1810900D02*
X4995900D01*
X4959930Y1766870D02*
Y1784930D01*
X4960900Y1754100D02*
Y1765900D01*
X4990000Y1725000D02*
X5000000D01*
X4995900Y1810900D02*
X5025000Y1840000D01*
X4959930Y1784930D02*
X4985900Y1810900D01*
X4959930Y1766870D02*
X4960900Y1765900D01*
Y1754100D02*
X4990000Y1725000D01*
X4891330Y1850000D02*
X4904100Y1862770D01*
X4825000Y1850000D02*
X4891330D01*
X4329340Y2510660D02*
X4627327Y2212672D01*
X4904100Y1862770D02*
Y1935900D01*
X4627328Y2212672D02*
X4904100Y1935900D01*
X4627327Y2212672D02*
X4627328D01*
X4329340Y2510660D02*
Y2570660D01*
X4325000Y2575000D02*
X4329340Y2570660D01*
X4825000Y1850000D02*
X4825000Y1850000D01*
X4825000Y1840000D02*
X4854100Y1810900D01*
X4864100D02*
X4890070Y1784930D01*
X4889100Y1765900D02*
X4890070Y1766870D01*
X4860000Y1725000D02*
X4889100Y1754100D01*
X4825000Y1840000D02*
Y1850000D01*
X4854100Y1810900D02*
X4864100D01*
X4890070Y1766870D02*
Y1784930D01*
X4889100Y1754100D02*
Y1765900D01*
X4850000Y1725000D02*
X4860000D01*
X3469548Y322452D02*
X3492000Y300000D01*
X3995900Y509986D02*
Y558129D01*
X4020900Y570900D02*
X4050000Y600000D01*
X4008670Y570900D02*
X4020900D01*
X3995900Y558129D02*
X4008670Y570900D01*
X3944114Y458200D02*
X3995900Y509986D01*
X3385900Y401786D02*
X3442314Y458200D01*
X3385900Y381870D02*
X3445318Y322452D01*
X3469548D01*
X3442314Y458200D02*
X3944114D01*
X3385900Y381870D02*
Y401786D01*
X3929100Y570900D02*
X3941329D01*
X3954100Y558129D01*
Y527299D02*
Y558129D01*
X3238000Y300000D02*
X3260452Y322452D01*
X3900000Y600000D02*
X3929100Y570900D01*
X3926800Y500000D02*
X3954100Y527299D01*
X3282826Y322452D02*
X3344100Y383726D01*
X3260452Y322452D02*
X3282826D01*
X3344100Y419100D02*
X3425000Y500000D01*
X3344100Y383726D02*
Y419100D01*
X3425000Y500000D02*
X3926800D01*
X4970900Y570900D02*
X5000000Y600000D01*
X4958671Y570900D02*
X4970900D01*
X4231548Y322452D02*
X4254000Y300000D01*
X4147900Y413786D02*
X4182314Y448200D01*
X4147900Y381870D02*
Y413786D01*
Y381870D02*
X4207318Y322452D01*
X4231548D01*
X4182314Y448200D02*
X4873200D01*
X4939158Y514158D01*
Y551387D02*
X4958671Y570900D01*
X4939158Y514158D02*
Y551387D01*
X4000000Y300000D02*
X4022452Y322452D01*
X4046682D02*
X4106100Y381870D01*
Y431100D01*
X4022452Y322452D02*
X4046682D01*
X4106100Y431100D02*
X4165000Y490000D01*
X4855886D01*
X4860000Y600000D02*
X4889100Y570900D01*
X4855886Y490000D02*
X4897358Y531472D01*
Y558129D01*
X4850000Y600000D02*
X4860000D01*
X4889100Y566387D02*
X4897358Y558129D01*
X4889100Y566387D02*
Y570900D01*
X3940000Y791870D02*
Y810000D01*
X3914100Y835900D02*
X3940000Y810000D01*
X3910000Y750000D02*
X3939100Y779100D01*
X3900000Y750000D02*
X3910000D01*
X3875000Y865000D02*
Y875000D01*
X3939100Y779100D02*
Y790970D01*
X3940000Y791870D01*
X3904100Y835900D02*
X3914100D01*
X3875000Y865000D02*
X3904100Y835900D01*
X4075000Y865000D02*
Y875000D01*
X4035900Y835900D02*
X4045900D01*
X4009929Y791870D02*
Y809930D01*
X4010900Y779100D02*
Y790900D01*
Y779100D02*
X4040000Y750000D01*
X4050000D01*
X4045900Y835900D02*
X4075000Y865000D01*
X4009929Y809930D02*
X4035900Y835900D01*
X4009929Y791870D02*
X4010900Y790900D01*
X4860000Y750000D02*
X4889100Y779100D01*
X4825000Y865000D02*
Y875000D01*
X4854100Y835900D02*
X4864100D01*
X4889100Y790900D02*
X4890070Y791870D01*
X4889100Y779100D02*
Y790900D01*
X4850000Y750000D02*
X4860000D01*
X4825000Y865000D02*
X4854100Y835900D01*
X4864100D02*
X4890070Y809930D01*
Y791870D02*
Y809930D01*
X5025000Y865000D02*
Y875000D01*
X4985900Y835900D02*
X4995900D01*
X4960900Y779100D02*
Y790900D01*
X4959930Y791870D02*
X4960900Y790900D01*
X4995900Y835900D02*
X5025000Y865000D01*
X4960900Y779100D02*
X4990000Y750000D01*
X4959930Y809930D02*
X4985900Y835900D01*
X4959930Y791870D02*
Y809930D01*
X4990000Y750000D02*
X5000000D01*
D36*
X1682500Y275000D02*
Y725000D01*
X1678750Y728750D02*
X1682500Y725000D01*
X1678750Y728750D02*
Y1046250D01*
X1675000Y1050000D02*
X1678750Y1046250D01*
X2090000Y1755000D02*
X2270000D01*
X2765000Y2250000D01*
X1675000Y1340000D02*
X2090000Y1755000D01*
X1675000Y1225000D02*
Y1340000D01*
X1675000Y1050000D02*
Y1225000D01*
X1675000Y1225000D02*
X1675000Y1225000D01*
D37*
X2762500Y2530000D02*
X2982500Y2750000D01*
X2762500Y2472500D02*
Y2530000D01*
X3100000Y2975000D02*
X3425000D01*
X2982500Y2750000D02*
Y2857500D01*
X3100000Y2975000D01*
X4575000D02*
X4577740Y2977740D01*
X4647740D01*
X4690000Y3020000D01*
X4720000D01*
X4665000Y3075000D02*
X4690000Y3100000D01*
X4575000Y3075000D02*
X4665000D01*
X4690000Y3100000D02*
X4920000D01*
X3425000Y3175000D02*
X3555000D01*
X3025000Y3025000D02*
X3425000D01*
X2825000Y2825000D02*
X3025000Y3025000D01*
X2621800Y2556800D02*
X2825000Y2760000D01*
Y2825000D01*
X2600000Y2750000D02*
Y2760000D01*
X2627500Y2787500D01*
X2900000Y3075000D02*
X3425000D01*
X2627500Y2787500D02*
X2662500D01*
X2750000Y2875000D02*
Y2925000D01*
X2900000Y3075000D01*
X2662500Y2787500D02*
X2750000Y2875000D01*
X2600000Y2925000D02*
Y2935000D01*
X3280000Y3125000D02*
X3425000D01*
X3252500Y3152500D02*
X3280000Y3125000D01*
X2802500Y3152500D02*
X3252500D01*
X2652500Y3002500D02*
X2802500Y3152500D01*
X2652500Y2987500D02*
Y3002500D01*
X2627500Y2962500D02*
X2652500Y2987500D01*
X2625000Y2962500D02*
X2627500D01*
X2625000Y2950000D02*
Y2962500D01*
X2600000Y2935000D02*
X2620000Y2955000D01*
X3422260Y3522260D02*
X3425000Y3525000D01*
X3334760Y3522260D02*
X3422260D01*
X3217500Y3405000D02*
X3334760Y3522260D01*
X3717500Y3625000D02*
X3722260Y3629760D01*
Y3722260D01*
X3725000Y3725000D01*
X3300000Y3225000D02*
X3425000D01*
X3920000Y2675000D02*
X3925000Y2670000D01*
Y2575000D02*
Y2670000D01*
X7622137Y1630363D02*
X7676637D01*
X7700000Y1607000D01*
X4375000Y3725000D02*
X4377740Y3727740D01*
Y3802855D01*
X4392385Y3817500D02*
X4455000D01*
X4377740Y3802855D02*
X4392385Y3817500D01*
X6575000Y3015000D02*
Y3355000D01*
X4532500Y3895000D02*
X6035000D01*
X6575000Y3355000D01*
X4455000Y3817500D02*
X4532500Y3895000D01*
X6575000Y3015000D02*
X7435000Y2155000D01*
Y1817500D02*
Y2155000D01*
Y1817500D02*
X7622137Y1630363D01*
X4175000Y3725000D02*
Y3817500D01*
X4125000Y3867500D02*
X4175000Y3817500D01*
X4125000Y3987500D02*
X4570000Y4432500D01*
X4125000Y3867500D02*
Y3987500D01*
X7397271Y3632729D02*
X7400000Y3630000D01*
X6547500Y4432500D02*
X7347271Y3632729D01*
X4570000Y4432500D02*
X6547500D01*
X7347271Y3632729D02*
X7397271D01*
X4225000Y3725000D02*
Y3840000D01*
X4125000Y3610444D02*
X4145444Y3590000D01*
X4125000Y3610444D02*
Y3725000D01*
X4145444Y3590000D02*
X4432500D01*
X4670000Y3827500D01*
X5127500D02*
X5275000Y3680000D01*
X4670000Y3827500D02*
X5127500D01*
X5275000Y3680000D02*
X5872500D01*
X6260000Y3077500D02*
Y3292500D01*
X5872500Y3680000D02*
X6260000Y3292500D01*
Y3077500D02*
X6657500Y2680000D01*
Y2330000D02*
X7127500Y1860000D01*
X7252500D01*
X6657500Y2330000D02*
Y2680000D01*
X4340000Y3855000D02*
Y3857500D01*
X4325000Y3840000D02*
X4340000Y3855000D01*
X4325000Y3725000D02*
Y3840000D01*
X4225000Y5095000D02*
X4600000D01*
X4125000Y4995000D02*
X4225000Y5095000D01*
X4125000Y4862250D02*
Y4995000D01*
X3400000Y5100000D02*
X3720000D01*
X3825000Y4995000D01*
Y4862250D02*
Y4995000D01*
D38*
X7700000Y4401000D02*
D03*
Y4147000D02*
D03*
Y3893000D02*
D03*
Y3639000D02*
D03*
Y3385000D02*
D03*
Y3131000D02*
D03*
Y2877000D02*
D03*
Y2623000D02*
D03*
Y2369000D02*
D03*
Y2115000D02*
D03*
Y1861000D02*
D03*
Y1607000D02*
D03*
Y1353000D02*
D03*
D39*
Y1099000D02*
D03*
D40*
X300000Y2369000D02*
D03*
Y2623000D02*
D03*
Y2877000D02*
D03*
Y3131000D02*
D03*
Y2115000D02*
D03*
D41*
Y3385000D02*
D03*
D42*
X5524000Y300000D02*
D03*
X5270000D02*
D03*
X4254000D02*
D03*
X3492000D02*
D03*
X2476000D02*
D03*
X2730000D02*
D03*
X3238000D02*
D03*
X4000000D02*
D03*
X4762000D02*
D03*
X5016000D02*
D03*
X4508000D02*
D03*
X3746000D02*
D03*
X2984000D02*
D03*
X5778000D02*
D03*
D43*
X2222000D02*
D03*
D44*
X3568000Y4919750D02*
D03*
X4432000D02*
D03*
D45*
Y5337750D02*
D03*
X3568000D02*
D03*
D46*
X7640000Y5140000D02*
D03*
Y360000D02*
D03*
X360000D02*
D03*
Y5140000D02*
D03*
D47*
X4289000Y4969750D02*
D03*
X3711000D02*
D03*
D48*
X7869996Y4759997D02*
D03*
Y4159997D02*
D03*
Y3559997D02*
D03*
Y1759998D02*
D03*
Y1159998D02*
D03*
X7719996Y859998D02*
D03*
X7569996Y4759997D02*
D03*
X7419996Y4459997D02*
D03*
X7569996Y4159997D02*
D03*
X7419996Y3859997D02*
D03*
X7569996Y3559997D02*
D03*
X7419996Y3259998D02*
D03*
X7569996Y2359998D02*
D03*
X7419996Y1459998D02*
D03*
Y859998D02*
D03*
X7119996Y5059997D02*
D03*
X7269996Y4759997D02*
D03*
X7119996Y4459997D02*
D03*
X7269996Y4159997D02*
D03*
Y3559997D02*
D03*
Y2959998D02*
D03*
X7119996Y2659998D02*
D03*
Y2059998D02*
D03*
X7269996Y1759998D02*
D03*
X7119996Y1459998D02*
D03*
Y859998D02*
D03*
X7269996Y559998D02*
D03*
X7119996Y259998D02*
D03*
X6819996Y5059997D02*
D03*
X6969996Y4759997D02*
D03*
X6819996Y4459997D02*
D03*
X6969996Y4159997D02*
D03*
X6819996Y2659998D02*
D03*
X6969996Y2359998D02*
D03*
X6819996Y2059998D02*
D03*
X6969996Y1759998D02*
D03*
Y1159998D02*
D03*
X6819996Y859998D02*
D03*
X6969996Y559998D02*
D03*
X6819996Y259998D02*
D03*
X6519996Y5059997D02*
D03*
X6669996Y4759997D02*
D03*
Y4159997D02*
D03*
Y3559997D02*
D03*
X6519996Y2659998D02*
D03*
Y2059998D02*
D03*
X6669996Y1759998D02*
D03*
X6519996Y1459998D02*
D03*
X6669996Y1159998D02*
D03*
X6519996Y859998D02*
D03*
X6669996Y559998D02*
D03*
X6519996Y259998D02*
D03*
X6219996Y5059997D02*
D03*
X6369996Y4759997D02*
D03*
Y4159997D02*
D03*
X6219996Y3859997D02*
D03*
X5919997Y5059997D02*
D03*
X6069996Y4759997D02*
D03*
Y4159997D02*
D03*
X5919997Y3259998D02*
D03*
Y2659998D02*
D03*
Y1459998D02*
D03*
Y259998D02*
D03*
X5619997Y5059997D02*
D03*
X5769997Y4759997D02*
D03*
Y4159997D02*
D03*
Y3559997D02*
D03*
Y2959998D02*
D03*
Y1759998D02*
D03*
Y559998D02*
D03*
X5319997Y5059997D02*
D03*
X5469997Y4759997D02*
D03*
Y4159997D02*
D03*
Y3559997D02*
D03*
X5319997Y2659998D02*
D03*
X5469997Y2359998D02*
D03*
X5319997Y2059998D02*
D03*
X5469997Y1759998D02*
D03*
Y559998D02*
D03*
X5019997Y5059997D02*
D03*
X5169997Y4759997D02*
D03*
Y4159997D02*
D03*
Y2359998D02*
D03*
X5019997Y2059998D02*
D03*
X4719997Y5059997D02*
D03*
X4869997Y4759997D02*
D03*
Y4159997D02*
D03*
X4719997Y2659998D02*
D03*
X4869997Y2359998D02*
D03*
Y1159998D02*
D03*
X4419997Y4459997D02*
D03*
Y3259998D02*
D03*
X4569997Y1759998D02*
D03*
X4419997Y859998D02*
D03*
X4569997Y559998D02*
D03*
X4119997Y3259998D02*
D03*
X4269997Y2959998D02*
D03*
X4119997Y2059998D02*
D03*
X4269997Y559998D02*
D03*
X3819997Y4459997D02*
D03*
X3969997Y3559997D02*
D03*
X3819997Y3259998D02*
D03*
X3969997Y2959998D02*
D03*
Y1159998D02*
D03*
X3669997Y4159997D02*
D03*
Y2959998D02*
D03*
Y1759998D02*
D03*
X3519997Y1459998D02*
D03*
X3669997Y559998D02*
D03*
X3219997Y5059997D02*
D03*
X3369997Y4159997D02*
D03*
X3219997Y3859997D02*
D03*
Y2059998D02*
D03*
X3369997Y1759998D02*
D03*
X3219997Y1459998D02*
D03*
X3369997Y559998D02*
D03*
X2919997Y5059997D02*
D03*
Y3859997D02*
D03*
X3069997Y2359998D02*
D03*
X2919997Y2059998D02*
D03*
X3069997Y1759998D02*
D03*
X2919997Y1459998D02*
D03*
X3069997Y1159998D02*
D03*
X2619998Y5059997D02*
D03*
Y3859997D02*
D03*
X2769998Y1759998D02*
D03*
X2619998Y1459998D02*
D03*
X2769998Y1159998D02*
D03*
X2319998Y5059997D02*
D03*
X2469998Y4759997D02*
D03*
X2319998Y3859997D02*
D03*
Y2059998D02*
D03*
X2469998Y1759998D02*
D03*
X2319998Y1459998D02*
D03*
X2469998Y1159998D02*
D03*
Y559998D02*
D03*
X2019998Y5059997D02*
D03*
X2169998Y4759997D02*
D03*
Y1159998D02*
D03*
X2019998Y859998D02*
D03*
X2169998Y559998D02*
D03*
X1719998Y5059997D02*
D03*
X1869998Y4759997D02*
D03*
X1719998Y3259998D02*
D03*
Y2659998D02*
D03*
Y2059998D02*
D03*
X1869998Y1759998D02*
D03*
Y1159998D02*
D03*
Y559998D02*
D03*
X1419998Y5059997D02*
D03*
Y3259998D02*
D03*
X1569998Y2959998D02*
D03*
X1419998Y2059998D02*
D03*
X1569998Y1759998D02*
D03*
X1419998Y1459998D02*
D03*
X1569998Y1159998D02*
D03*
X1419998Y859998D02*
D03*
X1569998Y559998D02*
D03*
X1119998Y5059997D02*
D03*
Y4459997D02*
D03*
X1269998Y4159997D02*
D03*
Y1759998D02*
D03*
Y1159998D02*
D03*
X1119998Y859998D02*
D03*
X819998Y5059997D02*
D03*
X969998Y4759997D02*
D03*
X819998Y4459997D02*
D03*
X969998Y4159997D02*
D03*
X819998Y3859997D02*
D03*
Y3259998D02*
D03*
X969998Y1759998D02*
D03*
X819998Y259998D02*
D03*
X669998Y4759997D02*
D03*
X519998Y4459997D02*
D03*
X669998Y4159997D02*
D03*
X519998Y3859997D02*
D03*
X669998Y3559997D02*
D03*
X519998Y3259998D02*
D03*
X669998Y2959998D02*
D03*
Y1759998D02*
D03*
X519998Y1459998D02*
D03*
X669998Y1159998D02*
D03*
X519998Y859998D02*
D03*
X669998Y559998D02*
D03*
X369998Y4759997D02*
D03*
X219998Y4459997D02*
D03*
X369998Y4159997D02*
D03*
X219998Y3859997D02*
D03*
X369998Y3559997D02*
D03*
X219998Y1459998D02*
D03*
X369998Y1159998D02*
D03*
X219998Y859998D02*
D03*
X2850000Y2470000D02*
D03*
Y2250000D02*
D03*
X5687500Y3162500D02*
D03*
X3125000Y2725000D02*
D03*
X5075000Y3650000D02*
D03*
X4850000Y2925000D02*
D03*
X3425000Y3900000D02*
D03*
X1975000Y2650000D02*
D03*
X1575000Y725000D02*
D03*
X2475000Y800000D02*
D03*
Y700000D02*
D03*
X3495000Y2620000D02*
D03*
X2390000Y800000D02*
D03*
Y700000D02*
D03*
X1600000Y4120000D02*
D03*
X1500000D02*
D03*
X1400000D02*
D03*
X1700000D02*
D03*
X1500000Y4210000D02*
D03*
X1400000D02*
D03*
Y4300000D02*
D03*
X1500000D02*
D03*
X4400000Y1525000D02*
D03*
X5350000D02*
D03*
X4275000Y2140000D02*
D03*
X5730000Y850000D02*
D03*
X5850000Y2260000D02*
D03*
X2850000Y630000D02*
D03*
X2950000D02*
D03*
X2850000Y550000D02*
D03*
X2950000D02*
D03*
X960000Y3500000D02*
D03*
X1060000D02*
D03*
Y3340000D02*
D03*
X960000D02*
D03*
Y3420000D02*
D03*
X1060000D02*
D03*
X2765000Y2250000D02*
D03*
X2762500Y2472500D02*
D03*
X3460000Y1120000D02*
D03*
X5950000Y2510000D02*
D03*
X5850000Y2600000D02*
D03*
X7802635Y4977365D02*
D03*
X7640000Y4910000D02*
D03*
X7477365Y4977365D02*
D03*
X7410000Y5140000D02*
D03*
X7477365Y5302635D02*
D03*
X7640000Y5370000D02*
D03*
X7802635Y5302635D02*
D03*
X7870000Y5140000D02*
D03*
X7802635Y197365D02*
D03*
X7640000Y130000D02*
D03*
X7477365Y197365D02*
D03*
X7410000Y360000D02*
D03*
X7477365Y522635D02*
D03*
X7640000Y590000D02*
D03*
X7802635Y522635D02*
D03*
X7870000Y360000D02*
D03*
X522635Y197365D02*
D03*
X360000Y130000D02*
D03*
X197365Y197365D02*
D03*
X130000Y360000D02*
D03*
X197365Y522635D02*
D03*
X360000Y590000D02*
D03*
X522635Y522635D02*
D03*
X590000Y360000D02*
D03*
X360000Y5370000D02*
D03*
X522635Y5302635D02*
D03*
X590000Y5140000D02*
D03*
X522635Y4977365D02*
D03*
X360000Y4910000D02*
D03*
X197365Y4977365D02*
D03*
X130000Y5140000D02*
D03*
X197365Y5302635D02*
D03*
X3550000Y2825000D02*
D03*
X2370000Y4540000D02*
D03*
X3370000Y4730000D02*
D03*
X3500000Y4620000D02*
D03*
X2850000D02*
D03*
X2970000Y4730000D02*
D03*
X2260000Y4540000D02*
D03*
X2370000Y4450000D02*
D03*
X1400000Y4480000D02*
D03*
X1500000D02*
D03*
X1400000Y4570000D02*
D03*
X1500000D02*
D03*
X1400000Y4660000D02*
D03*
X1500000D02*
D03*
X1600000D02*
D03*
X1700000D02*
D03*
X2000000Y4380000D02*
D03*
X4980000Y3320000D02*
D03*
X5060000Y3470000D02*
D03*
Y3380000D02*
D03*
X4890000Y3320000D02*
D03*
X4600000Y4840000D02*
D03*
X3400000Y4850000D02*
D03*
X3680000Y4750000D02*
D03*
X4320000D02*
D03*
X4125000Y2140000D02*
D03*
X2850000Y1100000D02*
D03*
X2950000D02*
D03*
X2450000Y4900000D02*
D03*
X4450000Y3475000D02*
D03*
Y2825000D02*
D03*
X4175000Y2700000D02*
D03*
X3100000Y4625000D02*
D03*
X3250000D02*
D03*
X2150000Y4622500D02*
D03*
X4850000Y2775000D02*
D03*
X3420000Y2370000D02*
D03*
X3410000Y2210000D02*
D03*
X3890000Y2010000D02*
D03*
X3630000Y1850000D02*
D03*
X4320000D02*
D03*
X5270000D02*
D03*
X4580000D02*
D03*
X4400000Y1180000D02*
D03*
X1425000Y1050000D02*
D03*
X1275000D02*
D03*
X1150000Y275000D02*
D03*
Y725000D02*
D03*
X4000000Y4600000D02*
D03*
X5580000Y1120000D02*
D03*
X5430000D02*
D03*
X3320000D02*
D03*
X5410000Y2660000D02*
D03*
X5080000Y2230000D02*
D03*
X5490000Y2800000D02*
D03*
X3925000Y2260000D02*
D03*
X5350000Y1180000D02*
D03*
X4520000Y1040000D02*
D03*
X3570000D02*
D03*
X3245000Y2520000D02*
D03*
X3700000Y4000000D02*
D03*
X3150000Y2875000D02*
D03*
X4850000Y3200000D02*
D03*
X3500000Y4730000D02*
D03*
X2850000D02*
D03*
X3100000D02*
D03*
X3250000D02*
D03*
X3590000Y4670000D02*
D03*
X4440000D02*
D03*
X4530000Y4730000D02*
D03*
Y4620000D02*
D03*
X4340000Y3100000D02*
D03*
X5650000Y3240000D02*
D03*
X7400000Y3630000D02*
D03*
X7252500Y1860000D02*
D03*
X4325000Y875000D02*
D03*
X3600000D02*
D03*
X4575000D02*
D03*
X5302500D02*
D03*
%TF.MD5,a8eb39adc703471647d12317c5612896*%
M02*
