%TF.GenerationSoftware,Altium Limited,Altium Designer,26.2.0 (7)*%
G04 Layer_Physical_Order=4*
G04 Layer_Color=16711680*
%FSLAX45Y45*%
%MOMM*%
%TF.SameCoordinates,98F60570-CFD4-4618-BAC5-DA2D18F82F03*%
%TF.FilePolarity,Positive*%
%TF.FileFunction,Copper,L4,Bot,Signal*%
%TF.Part,Single*%
G01*
G75*
%TA.AperFunction,Conductor*%
%ADD27C,0.34900*%
%ADD32C,0.70000*%
%ADD33C,0.80000*%
%ADD37C,0.25000*%
%TA.AperFunction,ComponentPad*%
%ADD38C,1.57000*%
%ADD39R,1.57000X1.57000*%
%ADD40C,1.55000*%
%ADD41R,1.55000X1.55000*%
%ADD42C,1.60000*%
G04:AMPARAMS|DCode=43|XSize=1.6mm|YSize=1.6mm|CornerRadius=0.4mm|HoleSize=0mm|Usage=FLASHONLY|Rotation=0.000|XOffset=0mm|YOffset=0mm|HoleType=Round|Shape=RoundedRectangle|*
%AMROUNDEDRECTD43*
21,1,1.60000,0.80000,0,0,0.0*
21,1,0.80000,1.60000,0,0,0.0*
1,1,0.80000,0.40000,-0.40000*
1,1,0.80000,-0.40000,-0.40000*
1,1,0.80000,-0.40000,0.40000*
1,1,0.80000,0.40000,0.40000*
%
%ADD43ROUNDEDRECTD43*%
%TA.AperFunction,TestPad*%
%ADD44O,1.00000X2.10000*%
%ADD45O,1.20000X1.80000*%
%TA.AperFunction,ViaPad*%
%ADD46C,6.00000*%
%TA.AperFunction,TestPad*%
%ADD47C,0.65000*%
%TA.AperFunction,ViaPad*%
%ADD48C,0.60000*%
G36*
X1760000Y4360000D02*
X1760000Y4070000D01*
X1750000Y4060000D01*
X1350000D01*
X1340000Y4070000D01*
X1340000Y4360000D01*
X1350000Y4370000D01*
X1750000D01*
X1760000Y4360000D01*
D02*
G37*
G36*
X7419385Y3606838D02*
X7417940Y3604956D01*
X7416665Y3602930D01*
X7415560Y3600761D01*
X7414625Y3598448D01*
X7413860Y3595992D01*
X7413265Y3593391D01*
X7412840Y3590647D01*
X7412585Y3587760D01*
X7412500Y3584728D01*
X7387500D01*
X7387415Y3587760D01*
X7387160Y3590647D01*
X7386735Y3593391D01*
X7386140Y3595992D01*
X7385375Y3598448D01*
X7384440Y3600761D01*
X7383335Y3602930D01*
X7382060Y3604956D01*
X7380615Y3606838D01*
X7379000Y3608576D01*
X7421000D01*
X7419385Y3606838D01*
D02*
G37*
G36*
X1261495Y3711998D02*
X1252586Y3702098D01*
X1245656Y3692199D01*
X1240706Y3682299D01*
X1237736Y3672400D01*
X1236746Y3662500D01*
X1237736Y3652601D01*
X1240706Y3642701D01*
X1245656Y3632802D01*
X1252586Y3622902D01*
X1261495Y3613003D01*
X1197500Y3578002D01*
X1187396Y3587407D01*
X1176881Y3595822D01*
X1165956Y3603246D01*
X1154622Y3609681D01*
X1142877Y3615126D01*
X1130722Y3619581D01*
X1118157Y3623045D01*
X1105182Y3625520D01*
X1091797Y3627005D01*
X1078002Y3627500D01*
Y3697500D01*
X1091797Y3697995D01*
X1105182Y3699480D01*
X1118157Y3701955D01*
X1130722Y3705420D01*
X1142877Y3709875D01*
X1154622Y3715319D01*
X1165956Y3721754D01*
X1176881Y3729179D01*
X1187396Y3737593D01*
X1197500Y3746998D01*
X1261495Y3711998D01*
D02*
G37*
G36*
X377895Y3448350D02*
X379995Y3442400D01*
X383495Y3437150D01*
X388395Y3432600D01*
X394695Y3428750D01*
X402395Y3425600D01*
X411495Y3423150D01*
X421995Y3421400D01*
X433895Y3420350D01*
X447195Y3420000D01*
Y3350000D01*
X433895Y3349650D01*
X421995Y3348600D01*
X411495Y3346850D01*
X402395Y3344400D01*
X394695Y3341250D01*
X388395Y3337400D01*
X383495Y3332850D01*
X379995Y3327600D01*
X377895Y3321650D01*
X377195Y3315000D01*
Y3455000D01*
X377895Y3448350D01*
D02*
G37*
G36*
X1110001Y3529999D02*
X1109999Y3309999D01*
X1090000Y3290000D01*
X930000D01*
X910001Y3309999D01*
Y3530001D01*
X929999Y3549999D01*
X1090000Y3550000D01*
X1110001Y3529999D01*
D02*
G37*
G36*
X5649700Y3210002D02*
X5648632Y3209887D01*
X5647415Y3209525D01*
X5646051Y3208913D01*
X5644539Y3208054D01*
X5642878Y3206946D01*
X5641070Y3205589D01*
X5637009Y3202130D01*
X5632356Y3197678D01*
X5607678Y3222356D01*
X5610028Y3224757D01*
X5615589Y3231070D01*
X5616945Y3232879D01*
X5618054Y3234539D01*
X5618913Y3236051D01*
X5619524Y3237416D01*
X5619887Y3238632D01*
X5620001Y3239700D01*
X5649700Y3210002D01*
D02*
G37*
G36*
X4362260Y3120325D02*
X4363377Y3119722D01*
X4364774Y3119189D01*
X4366451Y3118728D01*
X4368409Y3118337D01*
X4370647Y3118018D01*
X4375964Y3117592D01*
X4382403Y3117450D01*
Y3082550D01*
X4379043Y3082514D01*
X4370647Y3081982D01*
X4368409Y3081662D01*
X4366451Y3081272D01*
X4364774Y3080810D01*
X4363377Y3080278D01*
X4362260Y3079674D01*
X4361424Y3079000D01*
Y3121000D01*
X4362260Y3120325D01*
D02*
G37*
G36*
X4982051Y2943147D02*
X4990059Y2937239D01*
X4998771Y2932027D01*
X5008188Y2927510D01*
X5018311Y2923687D01*
X5029138Y2920560D01*
X5040670Y2918128D01*
X5052908Y2916390D01*
X5065850Y2915348D01*
X5079498Y2915000D01*
X5100000Y2845000D01*
X5086700Y2844300D01*
X5074800Y2842200D01*
X5064300Y2838700D01*
X5055200Y2833800D01*
X5047500Y2827500D01*
X5041200Y2819800D01*
X5036300Y2810700D01*
X5032800Y2800200D01*
X5030700Y2788300D01*
X5030000Y2775000D01*
X4960000Y2795502D01*
X4959653Y2809150D01*
X4958610Y2822092D01*
X4956873Y2834330D01*
X4954440Y2845862D01*
X4951313Y2856690D01*
X4947490Y2866812D01*
X4942973Y2876229D01*
X4937761Y2884942D01*
X4931854Y2892949D01*
X4925252Y2900251D01*
X4974749Y2949749D01*
X4982051Y2943147D01*
D02*
G37*
G36*
X3600000Y2690000D02*
X3586700Y2689300D01*
X3574800Y2687200D01*
X3564300Y2683700D01*
X3555200Y2678800D01*
X3547500Y2672500D01*
X3541200Y2664800D01*
X3536300Y2655700D01*
X3532800Y2645200D01*
X3530700Y2633300D01*
X3530000Y2620000D01*
X3460000D01*
X3459300Y2633300D01*
X3457200Y2645200D01*
X3453700Y2655700D01*
X3448800Y2664800D01*
X3442500Y2672500D01*
X3434800Y2678800D01*
X3425700Y2683700D01*
X3415200Y2687200D01*
X3403300Y2689300D01*
X3390000Y2690000D01*
X3495000Y2760000D01*
X3600000Y2690000D01*
D02*
G37*
G36*
X2781885Y2449337D02*
X2780440Y2447456D01*
X2779165Y2445430D01*
X2778060Y2443261D01*
X2777125Y2440948D01*
X2776360Y2438491D01*
X2775765Y2435891D01*
X2775340Y2433147D01*
X2775085Y2430260D01*
X2775000Y2427228D01*
X2750000D01*
X2749915Y2430260D01*
X2749660Y2433147D01*
X2749235Y2435891D01*
X2748640Y2438491D01*
X2747875Y2440948D01*
X2746940Y2443261D01*
X2745835Y2445430D01*
X2744560Y2447456D01*
X2743115Y2449337D01*
X2741500Y2451076D01*
X2783500D01*
X2781885Y2449337D01*
D02*
G37*
G36*
X2775091Y2293243D02*
X2775366Y2290362D01*
X2775823Y2287642D01*
X2776463Y2285082D01*
X2777285Y2282684D01*
X2778291Y2280446D01*
X2779479Y2278368D01*
X2780850Y2276451D01*
X2782405Y2274695D01*
X2784141Y2273100D01*
X2742288Y2269600D01*
X2743753Y2271452D01*
X2745064Y2273435D01*
X2746221Y2275548D01*
X2747224Y2277790D01*
X2748072Y2280164D01*
X2748766Y2282667D01*
X2749306Y2285300D01*
X2749691Y2288063D01*
X2749923Y2290957D01*
X2750000Y2293981D01*
X2775000Y2296284D01*
X2775091Y2293243D01*
D02*
G37*
G36*
X7796943Y2194266D02*
X7793331Y2190053D01*
X7790112Y2185033D01*
X7787286Y2179205D01*
X7784852Y2172569D01*
X7782811Y2165125D01*
X7781162Y2156873D01*
X7779907Y2147813D01*
X7778574Y2127269D01*
X7778496Y2115785D01*
X7700785Y2193496D01*
X7712269Y2193574D01*
X7732813Y2194907D01*
X7741873Y2196162D01*
X7750125Y2197811D01*
X7757569Y2199852D01*
X7764205Y2202286D01*
X7770033Y2205112D01*
X7775053Y2208331D01*
X7779266Y2211943D01*
X7796943Y2194266D01*
D02*
G37*
G36*
X7274402Y1880707D02*
X7275514Y1880129D01*
X7276907Y1879618D01*
X7278582Y1879176D01*
X7280538Y1878801D01*
X7282775Y1878495D01*
X7288093Y1878086D01*
X7294537Y1877950D01*
X7295253Y1843050D01*
X7291896Y1843013D01*
X7283504Y1842460D01*
X7281266Y1842128D01*
X7279308Y1841722D01*
X7277629Y1841242D01*
X7276230Y1840688D01*
X7275111Y1840061D01*
X7274271Y1839360D01*
X7273571Y1881354D01*
X7274402Y1880707D01*
D02*
G37*
G36*
X7644291Y1805694D02*
X7636937Y1812792D01*
X7622612Y1824746D01*
X7615640Y1829602D01*
X7608796Y1833711D01*
X7602078Y1837073D01*
X7595488Y1839688D01*
X7589024Y1841556D01*
X7582689Y1842677D01*
X7576480Y1843050D01*
X7576252Y1877950D01*
X7582489Y1878327D01*
X7588837Y1879456D01*
X7595295Y1881338D01*
X7601863Y1883973D01*
X7608542Y1887361D01*
X7615331Y1891501D01*
X7622230Y1896395D01*
X7629240Y1902041D01*
X7636360Y1908440D01*
X7643591Y1915592D01*
X7644291Y1805694D01*
D02*
G37*
G36*
X7621805Y1029000D02*
X7621105Y1035650D01*
X7619005Y1041600D01*
X7615505Y1046850D01*
X7610605Y1051400D01*
X7604305Y1055250D01*
X7596605Y1058400D01*
X7587505Y1060850D01*
X7577005Y1062600D01*
X7565105Y1063650D01*
X7551805Y1064000D01*
Y1134000D01*
X7565105Y1134350D01*
X7577005Y1135400D01*
X7587505Y1137150D01*
X7596605Y1139600D01*
X7604305Y1142750D01*
X7610605Y1146600D01*
X7615505Y1151150D01*
X7619005Y1156400D01*
X7621105Y1162350D01*
X7621805Y1169000D01*
Y1029000D01*
D02*
G37*
G36*
X2010495Y1195703D02*
X2011980Y1182318D01*
X2014455Y1169343D01*
X2017920Y1156778D01*
X2022375Y1144623D01*
X2027819Y1132879D01*
X2034254Y1121544D01*
X2041679Y1110619D01*
X2050093Y1100105D01*
X2059498Y1090000D01*
X2024498Y1026005D01*
X2014598Y1034915D01*
X2004699Y1041845D01*
X1994799Y1046794D01*
X1984900Y1049764D01*
X1975000Y1050754D01*
X1965101Y1049764D01*
X1955201Y1046794D01*
X1945302Y1041845D01*
X1935402Y1034915D01*
X1925503Y1026005D01*
X1890502Y1090000D01*
X1899907Y1100105D01*
X1908322Y1110619D01*
X1915746Y1121544D01*
X1922181Y1132879D01*
X1927626Y1144623D01*
X1932080Y1156778D01*
X1935545Y1169343D01*
X1938020Y1182318D01*
X1939505Y1195703D01*
X1940000Y1209498D01*
X2010000D01*
X2010495Y1195703D01*
D02*
G37*
G36*
X5281076Y854000D02*
X5280240Y854674D01*
X5279123Y855278D01*
X5277726Y855811D01*
X5276049Y856272D01*
X5274091Y856662D01*
X5271853Y856982D01*
X5266536Y857408D01*
X5260097Y857550D01*
Y892450D01*
X5263457Y892486D01*
X5271853Y893018D01*
X5274091Y893338D01*
X5276049Y893728D01*
X5277726Y894189D01*
X5279123Y894722D01*
X5280240Y895326D01*
X5281076Y896000D01*
Y854000D01*
D02*
G37*
G36*
X4597260Y895326D02*
X4598377Y894722D01*
X4599774Y894189D01*
X4601451Y893728D01*
X4603409Y893338D01*
X4605647Y893018D01*
X4610964Y892592D01*
X4617403Y892450D01*
Y857550D01*
X4614043Y857514D01*
X4605647Y856982D01*
X4603409Y856662D01*
X4601451Y856272D01*
X4599774Y855811D01*
X4598377Y855278D01*
X4597260Y854674D01*
X4596424Y854000D01*
Y896000D01*
X4597260Y895326D01*
D02*
G37*
G36*
X4303576Y854000D02*
X4302740Y854674D01*
X4301623Y855278D01*
X4300226Y855811D01*
X4298549Y856272D01*
X4296591Y856662D01*
X4294353Y856982D01*
X4289036Y857408D01*
X4282597Y857550D01*
Y892450D01*
X4285957Y892486D01*
X4294353Y893018D01*
X4296591Y893338D01*
X4298549Y893728D01*
X4300226Y894189D01*
X4301623Y894722D01*
X4302740Y895326D01*
X4303576Y896000D01*
Y854000D01*
D02*
G37*
G36*
X3622260Y895326D02*
X3623377Y894722D01*
X3624774Y894189D01*
X3626451Y893728D01*
X3628409Y893338D01*
X3630647Y893018D01*
X3635964Y892592D01*
X3642403Y892450D01*
Y857550D01*
X3639043Y857514D01*
X3630647Y856982D01*
X3628409Y856662D01*
X3626451Y856272D01*
X3624774Y855811D01*
X3623377Y855278D01*
X3622260Y854674D01*
X3621424Y854000D01*
Y896000D01*
X3622260Y895326D01*
D02*
G37*
G36*
X2510000Y850000D02*
X2530001Y829998D01*
X2529998Y669997D01*
X2510000Y650000D01*
X2360000D01*
X2340000Y670000D01*
X2340000Y830000D01*
X2360000Y850000D01*
X2510000Y850000D01*
D02*
G37*
G36*
X2999999Y670000D02*
X3000000Y520000D01*
X2980000Y500000D01*
X2820000Y500000D01*
X2800000Y520000D01*
X2800000Y670000D01*
X2820000Y690000D01*
X2980000Y690000D01*
X2999999Y670000D01*
D02*
G37*
G36*
X2840000Y380000D02*
Y220000D01*
X2810000Y190000D01*
X2130000D01*
X2100000Y220000D01*
Y255882D01*
X2094982Y257015D01*
X2084363Y258673D01*
X2073407Y259668D01*
X2062113Y260000D01*
Y340000D01*
X2073407Y340332D01*
X2084363Y341326D01*
X2094982Y342985D01*
X2100000Y344118D01*
Y380000D01*
X2130000Y410000D01*
X2810000D01*
X2840000Y380000D01*
D02*
G37*
D27*
X5510000Y3100000D02*
X5650000Y3240000D01*
X4342994Y3100000D02*
X5510000D01*
X7699500Y1860500D02*
X7700000Y1861000D01*
X7253000Y1860500D02*
X7699500D01*
X7252500Y1860000D02*
X7253000Y1860500D01*
X3600000Y875000D02*
X4325000D01*
X4575000D02*
X5302500D01*
D32*
X1162500Y3662500D02*
X1975000Y2850000D01*
X1162500Y3662500D02*
X1400000Y3900000D01*
X891250Y3662500D02*
X1162500D01*
X613750Y3385000D02*
X891250Y3662500D01*
X300000Y3385000D02*
X613750D01*
X1575000Y725000D02*
X1975000Y1125000D01*
Y2650000D02*
Y2850000D01*
Y1125000D02*
Y2650000D01*
Y1125000D02*
X2081250Y1018750D01*
X2081250D01*
X2150000Y950001D01*
Y850000D02*
X2250000Y750000D01*
X2150000Y850000D02*
Y950001D01*
X2350000Y750000D02*
X2390000Y710000D01*
X2250000Y750000D02*
X2350000D01*
X2390000Y700000D02*
Y710000D01*
X1400000Y3900000D02*
Y4120000D01*
X4850000Y2925000D02*
X4950000D01*
X1704207Y4124207D02*
X3200793D01*
X7161000Y1099000D02*
X7700000D01*
X4950000Y2925000D02*
X4995000Y2880000D01*
Y2695000D02*
Y2880000D01*
X3495000Y2620000D02*
Y2725000D01*
X3425000Y3900000D02*
X3675000Y3650000D01*
X1700000Y4120000D02*
X1704207Y4124207D01*
X4870000Y2570000D02*
X4995000Y2695000D01*
X4020000Y2570000D02*
X4870000D01*
X4995000Y2880000D02*
X5919000D01*
X3125000Y2725000D02*
X3495000D01*
X3865000D02*
X4020000Y2570000D01*
X3495000Y2725000D02*
X3865000D01*
X3675000Y3650000D02*
X5075000D01*
X1700000Y4027125D02*
X3002125Y2725000D01*
X1700000Y4027125D02*
Y4120000D01*
X3200793Y4124207D02*
X3425000Y3900000D01*
X3002125Y2725000D02*
X3125000D01*
X5075000Y3650000D02*
X5145000Y3720000D01*
X5919000Y2880000D02*
X6400000Y2399000D01*
Y1860000D02*
Y2399000D01*
Y1860000D02*
X7161000Y1099000D01*
X7629500Y2920500D02*
X7632958D01*
X7676458Y2877000D02*
X7700000D01*
X6830000Y3720000D02*
X7629500Y2920500D01*
X5145000Y3720000D02*
X6830000D01*
X7632958Y2920500D02*
X7676458Y2877000D01*
X3223274Y1136411D02*
X3416696Y1329834D01*
X4204834D01*
X4275000Y2140000D02*
X4450000Y1965000D01*
X4400000Y1525000D02*
X4450000D01*
X4204834Y1329834D02*
X4400000Y1525000D01*
X5850000Y1960000D02*
Y2260000D01*
X5415000Y1525000D02*
X5730000Y1210000D01*
X3029852Y605000D02*
X3223274Y798422D01*
Y1136411D01*
X5415000Y1525000D02*
X5850000Y1960000D01*
X5730000Y850000D02*
Y1210000D01*
X2930000Y605000D02*
X3029852D01*
X4450000Y1525000D02*
Y1965000D01*
Y1525000D02*
X5350000D01*
X5415000D01*
D33*
X2476000Y300000D02*
X2730000D01*
X2222000D02*
X2476000D01*
X810000Y3020000D02*
X1010000Y3220000D01*
Y3361924D01*
X1018076Y3340000D02*
X1060000D01*
X1010000Y3331924D02*
X1018076Y3340000D01*
X1525000Y300000D02*
X2222000D01*
X1345000Y480000D02*
X1525000Y300000D01*
X1020000Y480000D02*
X1345000D01*
X810000Y690000D02*
Y3020000D01*
Y690000D02*
X1020000Y480000D01*
D37*
X2762500Y2252500D02*
X2765000Y2250000D01*
X2762500Y2252500D02*
Y2472500D01*
X7700000Y2115000D02*
X7870000Y2285000D01*
X7400000Y3430000D02*
X7570000Y3260000D01*
X7400000Y3430000D02*
Y3630000D01*
X7870000Y2285000D02*
Y3200000D01*
X7810000Y3260000D02*
X7870000Y3200000D01*
X7570000Y3260000D02*
X7810000D01*
D38*
X7700000Y4401000D02*
D03*
Y4147000D02*
D03*
Y3893000D02*
D03*
Y3639000D02*
D03*
Y3385000D02*
D03*
Y3131000D02*
D03*
Y2877000D02*
D03*
Y2623000D02*
D03*
Y2369000D02*
D03*
Y2115000D02*
D03*
Y1861000D02*
D03*
Y1607000D02*
D03*
Y1353000D02*
D03*
D39*
Y1099000D02*
D03*
D40*
X300000Y2369000D02*
D03*
Y2623000D02*
D03*
Y2877000D02*
D03*
Y3131000D02*
D03*
Y2115000D02*
D03*
D41*
Y3385000D02*
D03*
D42*
X5524000Y300000D02*
D03*
X5270000D02*
D03*
X4254000D02*
D03*
X3492000D02*
D03*
X2476000D02*
D03*
X2730000D02*
D03*
X3238000D02*
D03*
X4000000D02*
D03*
X4762000D02*
D03*
X5016000D02*
D03*
X4508000D02*
D03*
X3746000D02*
D03*
X2984000D02*
D03*
X5778000D02*
D03*
D43*
X2222000D02*
D03*
D44*
X3568000Y4919750D02*
D03*
X4432000D02*
D03*
D45*
Y5337750D02*
D03*
X3568000D02*
D03*
D46*
X7640000Y5140000D02*
D03*
Y360000D02*
D03*
X360000D02*
D03*
Y5140000D02*
D03*
D47*
X4289000Y4969750D02*
D03*
X3711000D02*
D03*
D48*
X7869996Y4759997D02*
D03*
Y4159997D02*
D03*
Y3559997D02*
D03*
Y1759998D02*
D03*
Y1159998D02*
D03*
X7719996Y859998D02*
D03*
X7569996Y4759997D02*
D03*
X7419996Y4459997D02*
D03*
X7569996Y4159997D02*
D03*
X7419996Y3859997D02*
D03*
X7569996Y3559997D02*
D03*
X7419996Y3259998D02*
D03*
X7569996Y2359998D02*
D03*
X7419996Y1459998D02*
D03*
Y859998D02*
D03*
X7119996Y5059997D02*
D03*
X7269996Y4759997D02*
D03*
X7119996Y4459997D02*
D03*
X7269996Y4159997D02*
D03*
Y3559997D02*
D03*
Y2959998D02*
D03*
X7119996Y2659998D02*
D03*
Y2059998D02*
D03*
X7269996Y1759998D02*
D03*
X7119996Y1459998D02*
D03*
Y859998D02*
D03*
X7269996Y559998D02*
D03*
X7119996Y259998D02*
D03*
X6819996Y5059997D02*
D03*
X6969996Y4759997D02*
D03*
X6819996Y4459997D02*
D03*
X6969996Y4159997D02*
D03*
X6819996Y2659998D02*
D03*
X6969996Y2359998D02*
D03*
X6819996Y2059998D02*
D03*
X6969996Y1759998D02*
D03*
Y1159998D02*
D03*
X6819996Y859998D02*
D03*
X6969996Y559998D02*
D03*
X6819996Y259998D02*
D03*
X6519996Y5059997D02*
D03*
X6669996Y4759997D02*
D03*
Y4159997D02*
D03*
Y3559997D02*
D03*
X6519996Y2659998D02*
D03*
Y2059998D02*
D03*
X6669996Y1759998D02*
D03*
X6519996Y1459998D02*
D03*
X6669996Y1159998D02*
D03*
X6519996Y859998D02*
D03*
X6669996Y559998D02*
D03*
X6519996Y259998D02*
D03*
X6219996Y5059997D02*
D03*
X6369996Y4759997D02*
D03*
Y4159997D02*
D03*
X6219996Y3859997D02*
D03*
X5919997Y5059997D02*
D03*
X6069996Y4759997D02*
D03*
Y4159997D02*
D03*
X5919997Y3259998D02*
D03*
Y2659998D02*
D03*
Y1459998D02*
D03*
Y259998D02*
D03*
X5619997Y5059997D02*
D03*
X5769997Y4759997D02*
D03*
Y4159997D02*
D03*
Y3559997D02*
D03*
Y2959998D02*
D03*
Y1759998D02*
D03*
Y559998D02*
D03*
X5319997Y5059997D02*
D03*
X5469997Y4759997D02*
D03*
Y4159997D02*
D03*
Y3559997D02*
D03*
X5319997Y2659998D02*
D03*
X5469997Y2359998D02*
D03*
X5319997Y2059998D02*
D03*
X5469997Y1759998D02*
D03*
Y559998D02*
D03*
X5019997Y5059997D02*
D03*
X5169997Y4759997D02*
D03*
Y4159997D02*
D03*
Y2359998D02*
D03*
X5019997Y2059998D02*
D03*
X4719997Y5059997D02*
D03*
X4869997Y4759997D02*
D03*
Y4159997D02*
D03*
X4719997Y2659998D02*
D03*
X4869997Y2359998D02*
D03*
Y1159998D02*
D03*
X4419997Y4459997D02*
D03*
Y3259998D02*
D03*
X4569997Y1759998D02*
D03*
X4419997Y859998D02*
D03*
X4569997Y559998D02*
D03*
X4119997Y3259998D02*
D03*
X4269997Y2959998D02*
D03*
X4119997Y2059998D02*
D03*
X4269997Y559998D02*
D03*
X3819997Y4459997D02*
D03*
X3969997Y3559997D02*
D03*
X3819997Y3259998D02*
D03*
X3969997Y2959998D02*
D03*
Y1159998D02*
D03*
X3669997Y4159997D02*
D03*
Y2959998D02*
D03*
Y1759998D02*
D03*
X3519997Y1459998D02*
D03*
X3669997Y559998D02*
D03*
X3219997Y5059997D02*
D03*
X3369997Y4159997D02*
D03*
X3219997Y3859997D02*
D03*
Y2059998D02*
D03*
X3369997Y1759998D02*
D03*
X3219997Y1459998D02*
D03*
X3369997Y559998D02*
D03*
X2919997Y5059997D02*
D03*
Y3859997D02*
D03*
X3069997Y2359998D02*
D03*
X2919997Y2059998D02*
D03*
X3069997Y1759998D02*
D03*
X2919997Y1459998D02*
D03*
X3069997Y1159998D02*
D03*
X2619998Y5059997D02*
D03*
Y3859997D02*
D03*
X2769998Y1759998D02*
D03*
X2619998Y1459998D02*
D03*
X2769998Y1159998D02*
D03*
X2319998Y5059997D02*
D03*
X2469998Y4759997D02*
D03*
X2319998Y3859997D02*
D03*
Y2059998D02*
D03*
X2469998Y1759998D02*
D03*
X2319998Y1459998D02*
D03*
X2469998Y1159998D02*
D03*
Y559998D02*
D03*
X2019998Y5059997D02*
D03*
X2169998Y4759997D02*
D03*
Y1159998D02*
D03*
X2019998Y859998D02*
D03*
X2169998Y559998D02*
D03*
X1719998Y5059997D02*
D03*
X1869998Y4759997D02*
D03*
X1719998Y3259998D02*
D03*
Y2659998D02*
D03*
Y2059998D02*
D03*
X1869998Y1759998D02*
D03*
Y1159998D02*
D03*
Y559998D02*
D03*
X1419998Y5059997D02*
D03*
Y3259998D02*
D03*
X1569998Y2959998D02*
D03*
X1419998Y2059998D02*
D03*
X1569998Y1759998D02*
D03*
X1419998Y1459998D02*
D03*
X1569998Y1159998D02*
D03*
X1419998Y859998D02*
D03*
X1569998Y559998D02*
D03*
X1119998Y5059997D02*
D03*
Y4459997D02*
D03*
X1269998Y4159997D02*
D03*
Y1759998D02*
D03*
Y1159998D02*
D03*
X1119998Y859998D02*
D03*
X819998Y5059997D02*
D03*
X969998Y4759997D02*
D03*
X819998Y4459997D02*
D03*
X969998Y4159997D02*
D03*
X819998Y3859997D02*
D03*
Y3259998D02*
D03*
X969998Y1759998D02*
D03*
X819998Y259998D02*
D03*
X669998Y4759997D02*
D03*
X519998Y4459997D02*
D03*
X669998Y4159997D02*
D03*
X519998Y3859997D02*
D03*
X669998Y3559997D02*
D03*
X519998Y3259998D02*
D03*
X669998Y2959998D02*
D03*
Y1759998D02*
D03*
X519998Y1459998D02*
D03*
X669998Y1159998D02*
D03*
X519998Y859998D02*
D03*
X669998Y559998D02*
D03*
X369998Y4759997D02*
D03*
X219998Y4459997D02*
D03*
X369998Y4159997D02*
D03*
X219998Y3859997D02*
D03*
X369998Y3559997D02*
D03*
X219998Y1459998D02*
D03*
X369998Y1159998D02*
D03*
X219998Y859998D02*
D03*
X2850000Y2470000D02*
D03*
Y2250000D02*
D03*
X5687500Y3162500D02*
D03*
X3125000Y2725000D02*
D03*
X5075000Y3650000D02*
D03*
X4850000Y2925000D02*
D03*
X3425000Y3900000D02*
D03*
X1975000Y2650000D02*
D03*
X1575000Y725000D02*
D03*
X2475000Y800000D02*
D03*
Y700000D02*
D03*
X3495000Y2620000D02*
D03*
X2390000Y800000D02*
D03*
Y700000D02*
D03*
X1600000Y4120000D02*
D03*
X1500000D02*
D03*
X1400000D02*
D03*
X1700000D02*
D03*
X1500000Y4210000D02*
D03*
X1400000D02*
D03*
Y4300000D02*
D03*
X1500000D02*
D03*
X4400000Y1525000D02*
D03*
X5350000D02*
D03*
X4275000Y2140000D02*
D03*
X5730000Y850000D02*
D03*
X5850000Y2260000D02*
D03*
X2850000Y630000D02*
D03*
X2950000D02*
D03*
X2850000Y550000D02*
D03*
X2950000D02*
D03*
X960000Y3500000D02*
D03*
X1060000D02*
D03*
Y3340000D02*
D03*
X960000D02*
D03*
Y3420000D02*
D03*
X1060000D02*
D03*
X2765000Y2250000D02*
D03*
X2762500Y2472500D02*
D03*
X3460000Y1120000D02*
D03*
X5950000Y2510000D02*
D03*
X5850000Y2600000D02*
D03*
X7802635Y4977365D02*
D03*
X7640000Y4910000D02*
D03*
X7477365Y4977365D02*
D03*
X7410000Y5140000D02*
D03*
X7477365Y5302635D02*
D03*
X7640000Y5370000D02*
D03*
X7802635Y5302635D02*
D03*
X7870000Y5140000D02*
D03*
X7802635Y197365D02*
D03*
X7640000Y130000D02*
D03*
X7477365Y197365D02*
D03*
X7410000Y360000D02*
D03*
X7477365Y522635D02*
D03*
X7640000Y590000D02*
D03*
X7802635Y522635D02*
D03*
X7870000Y360000D02*
D03*
X522635Y197365D02*
D03*
X360000Y130000D02*
D03*
X197365Y197365D02*
D03*
X130000Y360000D02*
D03*
X197365Y522635D02*
D03*
X360000Y590000D02*
D03*
X522635Y522635D02*
D03*
X590000Y360000D02*
D03*
X360000Y5370000D02*
D03*
X522635Y5302635D02*
D03*
X590000Y5140000D02*
D03*
X522635Y4977365D02*
D03*
X360000Y4910000D02*
D03*
X197365Y4977365D02*
D03*
X130000Y5140000D02*
D03*
X197365Y5302635D02*
D03*
X3550000Y2825000D02*
D03*
X2370000Y4540000D02*
D03*
X3370000Y4730000D02*
D03*
X3500000Y4620000D02*
D03*
X2850000D02*
D03*
X2970000Y4730000D02*
D03*
X2260000Y4540000D02*
D03*
X2370000Y4450000D02*
D03*
X1400000Y4480000D02*
D03*
X1500000D02*
D03*
X1400000Y4570000D02*
D03*
X1500000D02*
D03*
X1400000Y4660000D02*
D03*
X1500000D02*
D03*
X1600000D02*
D03*
X1700000D02*
D03*
X2000000Y4380000D02*
D03*
X4980000Y3320000D02*
D03*
X5060000Y3470000D02*
D03*
Y3380000D02*
D03*
X4890000Y3320000D02*
D03*
X4600000Y4840000D02*
D03*
X3400000Y4850000D02*
D03*
X3680000Y4750000D02*
D03*
X4320000D02*
D03*
X4125000Y2140000D02*
D03*
X2850000Y1100000D02*
D03*
X2950000D02*
D03*
X2450000Y4900000D02*
D03*
X4450000Y3475000D02*
D03*
Y2825000D02*
D03*
X4175000Y2700000D02*
D03*
X3100000Y4625000D02*
D03*
X3250000D02*
D03*
X2150000Y4622500D02*
D03*
X4850000Y2775000D02*
D03*
X3420000Y2370000D02*
D03*
X3410000Y2210000D02*
D03*
X3890000Y2010000D02*
D03*
X3630000Y1850000D02*
D03*
X4320000D02*
D03*
X5270000D02*
D03*
X4580000D02*
D03*
X4400000Y1180000D02*
D03*
X1425000Y1050000D02*
D03*
X1275000D02*
D03*
X1150000Y275000D02*
D03*
Y725000D02*
D03*
X4000000Y4600000D02*
D03*
X5580000Y1120000D02*
D03*
X5430000D02*
D03*
X3320000D02*
D03*
X5410000Y2660000D02*
D03*
X5080000Y2230000D02*
D03*
X5490000Y2800000D02*
D03*
X3925000Y2260000D02*
D03*
X5350000Y1180000D02*
D03*
X4520000Y1040000D02*
D03*
X3570000D02*
D03*
X3245000Y2520000D02*
D03*
X3700000Y4000000D02*
D03*
X3150000Y2875000D02*
D03*
X4850000Y3200000D02*
D03*
X3500000Y4730000D02*
D03*
X2850000D02*
D03*
X3100000D02*
D03*
X3250000D02*
D03*
X3590000Y4670000D02*
D03*
X4440000D02*
D03*
X4530000Y4730000D02*
D03*
Y4620000D02*
D03*
X4340000Y3100000D02*
D03*
X5650000Y3240000D02*
D03*
X7400000Y3630000D02*
D03*
X7252500Y1860000D02*
D03*
X4325000Y875000D02*
D03*
X3600000D02*
D03*
X4575000D02*
D03*
X5302500D02*
D03*
%TF.MD5,921ae369f535b8b30d2f114a8013c4d7*%
M02*
