G04*
G04 #@! TF.GenerationSoftware,Altium Limited,Altium Designer,26.1.1 (7)*
G04*
G04 Layer_Physical_Order=1*
G04 Layer_Color=255*
%FSLAX25Y25*%
%MOIN*%
G70*
G04*
G04 #@! TF.SameCoordinates,80A9187B-927A-44A2-B289-347268ADEE1A*
G04*
G04*
G04 #@! TF.FilePolarity,Positive*
G04*
G01*
G75*
%ADD10C,0.00984*%
%ADD11C,0.01968*%
%ADD13C,0.00787*%
%ADD14C,0.01181*%
G04:AMPARAMS|DCode=16|XSize=11.81mil|YSize=45.28mil|CornerRadius=1.48mil|HoleSize=0mil|Usage=FLASHONLY|Rotation=180.000|XOffset=0mil|YOffset=0mil|HoleType=Round|Shape=RoundedRectangle|*
%AMROUNDEDRECTD16*
21,1,0.01181,0.04232,0,0,180.0*
21,1,0.00886,0.04528,0,0,180.0*
1,1,0.00295,-0.00443,0.02116*
1,1,0.00295,0.00443,0.02116*
1,1,0.00295,0.00443,-0.02116*
1,1,0.00295,-0.00443,-0.02116*
%
%ADD16ROUNDEDRECTD16*%
G04:AMPARAMS|DCode=17|XSize=23.62mil|YSize=39.37mil|CornerRadius=2.95mil|HoleSize=0mil|Usage=FLASHONLY|Rotation=180.000|XOffset=0mil|YOffset=0mil|HoleType=Round|Shape=RoundedRectangle|*
%AMROUNDEDRECTD17*
21,1,0.02362,0.03347,0,0,180.0*
21,1,0.01772,0.03937,0,0,180.0*
1,1,0.00591,-0.00886,0.01673*
1,1,0.00591,0.00886,0.01673*
1,1,0.00591,0.00886,-0.01673*
1,1,0.00591,-0.00886,-0.01673*
%
%ADD17ROUNDEDRECTD17*%
G04:AMPARAMS|DCode=18|XSize=31.5mil|YSize=39.37mil|CornerRadius=3.94mil|HoleSize=0mil|Usage=FLASHONLY|Rotation=180.000|XOffset=0mil|YOffset=0mil|HoleType=Round|Shape=RoundedRectangle|*
%AMROUNDEDRECTD18*
21,1,0.03150,0.03150,0,0,180.0*
21,1,0.02362,0.03937,0,0,180.0*
1,1,0.00787,-0.01181,0.01575*
1,1,0.00787,0.01181,0.01575*
1,1,0.00787,0.01181,-0.01575*
1,1,0.00787,-0.01181,-0.01575*
%
%ADD18ROUNDEDRECTD18*%
G04:AMPARAMS|DCode=19|XSize=31.5mil|YSize=39.37mil|CornerRadius=3.94mil|HoleSize=0mil|Usage=FLASHONLY|Rotation=90.000|XOffset=0mil|YOffset=0mil|HoleType=Round|Shape=RoundedRectangle|*
%AMROUNDEDRECTD19*
21,1,0.03150,0.03150,0,0,90.0*
21,1,0.02362,0.03937,0,0,90.0*
1,1,0.00787,0.01575,0.01181*
1,1,0.00787,0.01575,-0.01181*
1,1,0.00787,-0.01575,-0.01181*
1,1,0.00787,-0.01575,0.01181*
%
%ADD19ROUNDEDRECTD19*%
G04:AMPARAMS|DCode=20|XSize=55.12mil|YSize=66.93mil|CornerRadius=6.89mil|HoleSize=0mil|Usage=FLASHONLY|Rotation=270.000|XOffset=0mil|YOffset=0mil|HoleType=Round|Shape=RoundedRectangle|*
%AMROUNDEDRECTD20*
21,1,0.05512,0.05315,0,0,270.0*
21,1,0.04134,0.06693,0,0,270.0*
1,1,0.01378,-0.02657,-0.02067*
1,1,0.01378,-0.02657,0.02067*
1,1,0.01378,0.02657,0.02067*
1,1,0.01378,0.02657,-0.02067*
%
%ADD20ROUNDEDRECTD20*%
%ADD21R,0.03937X0.03937*%
G04:AMPARAMS|DCode=22|XSize=23.62mil|YSize=47.24mil|CornerRadius=2.95mil|HoleSize=0mil|Usage=FLASHONLY|Rotation=180.000|XOffset=0mil|YOffset=0mil|HoleType=Round|Shape=RoundedRectangle|*
%AMROUNDEDRECTD22*
21,1,0.02362,0.04134,0,0,180.0*
21,1,0.01772,0.04724,0,0,180.0*
1,1,0.00591,-0.00886,0.02067*
1,1,0.00591,0.00886,0.02067*
1,1,0.00591,0.00886,-0.02067*
1,1,0.00591,-0.00886,-0.02067*
%
%ADD22ROUNDEDRECTD22*%
G04:AMPARAMS|DCode=23|XSize=23.62mil|YSize=41.34mil|CornerRadius=2.95mil|HoleSize=0mil|Usage=FLASHONLY|Rotation=270.000|XOffset=0mil|YOffset=0mil|HoleType=Round|Shape=RoundedRectangle|*
%AMROUNDEDRECTD23*
21,1,0.02362,0.03543,0,0,270.0*
21,1,0.01772,0.04134,0,0,270.0*
1,1,0.00591,-0.01772,-0.00886*
1,1,0.00591,-0.01772,0.00886*
1,1,0.00591,0.01772,0.00886*
1,1,0.00591,0.01772,-0.00886*
%
%ADD23ROUNDEDRECTD23*%
%ADD24R,0.01200X0.04700*%
G04:AMPARAMS|DCode=25|XSize=61.02mil|YSize=23.62mil|CornerRadius=2.01mil|HoleSize=0mil|Usage=FLASHONLY|Rotation=0.000|XOffset=0mil|YOffset=0mil|HoleType=Round|Shape=RoundedRectangle|*
%AMROUNDEDRECTD25*
21,1,0.06102,0.01961,0,0,0.0*
21,1,0.05701,0.02362,0,0,0.0*
1,1,0.00402,0.02850,-0.00980*
1,1,0.00402,-0.02850,-0.00980*
1,1,0.00402,-0.02850,0.00980*
1,1,0.00402,0.02850,0.00980*
%
%ADD25ROUNDEDRECTD25*%
G04:AMPARAMS|DCode=26|XSize=73.09mil|YSize=19.61mil|CornerRadius=9.8mil|HoleSize=0mil|Usage=FLASHONLY|Rotation=270.000|XOffset=0mil|YOffset=0mil|HoleType=Round|Shape=RoundedRectangle|*
%AMROUNDEDRECTD26*
21,1,0.07309,0.00000,0,0,270.0*
21,1,0.05348,0.01961,0,0,270.0*
1,1,0.01961,0.00000,-0.02674*
1,1,0.01961,0.00000,0.02674*
1,1,0.01961,0.00000,0.02674*
1,1,0.01961,0.00000,-0.02674*
%
%ADD26ROUNDEDRECTD26*%
G04:AMPARAMS|DCode=27|XSize=39.37mil|YSize=27.56mil|CornerRadius=1.38mil|HoleSize=0mil|Usage=FLASHONLY|Rotation=90.000|XOffset=0mil|YOffset=0mil|HoleType=Round|Shape=RoundedRectangle|*
%AMROUNDEDRECTD27*
21,1,0.03937,0.02480,0,0,90.0*
21,1,0.03661,0.02756,0,0,90.0*
1,1,0.00276,0.01240,0.01831*
1,1,0.00276,0.01240,-0.01831*
1,1,0.00276,-0.01240,-0.01831*
1,1,0.00276,-0.01240,0.01831*
%
%ADD27ROUNDEDRECTD27*%
%ADD28R,0.01961X0.07309*%
G04:AMPARAMS|DCode=29|XSize=51.18mil|YSize=43.31mil|CornerRadius=2.17mil|HoleSize=0mil|Usage=FLASHONLY|Rotation=180.000|XOffset=0mil|YOffset=0mil|HoleType=Round|Shape=RoundedRectangle|*
%AMROUNDEDRECTD29*
21,1,0.05118,0.03898,0,0,180.0*
21,1,0.04685,0.04331,0,0,180.0*
1,1,0.00433,-0.02343,0.01949*
1,1,0.00433,0.02343,0.01949*
1,1,0.00433,0.02343,-0.01949*
1,1,0.00433,-0.02343,-0.01949*
%
%ADD29ROUNDEDRECTD29*%
%ADD30R,0.04700X0.01200*%
%ADD37C,0.03937*%
%ADD48R,0.06181X0.06181*%
%ADD49C,0.06181*%
%ADD51C,0.01118*%
%ADD52C,0.02362*%
%ADD53C,0.01375*%
%ADD54C,0.03150*%
%ADD55C,0.02756*%
%ADD56C,0.01374*%
%ADD57C,0.00858*%
%ADD58C,0.03937*%
%ADD59O,0.03937X0.08268*%
%ADD60C,0.02559*%
%ADD61O,0.04724X0.07087*%
%ADD62R,0.06102X0.06102*%
%ADD63C,0.06102*%
%ADD64C,0.06299*%
G04:AMPARAMS|DCode=65|XSize=62.99mil|YSize=62.99mil|CornerRadius=15.75mil|HoleSize=0mil|Usage=FLASHONLY|Rotation=0.000|XOffset=0mil|YOffset=0mil|HoleType=Round|Shape=RoundedRectangle|*
%AMROUNDEDRECTD65*
21,1,0.06299,0.03150,0,0,0.0*
21,1,0.03150,0.06299,0,0,0.0*
1,1,0.03150,0.01575,-0.01575*
1,1,0.03150,-0.01575,-0.01575*
1,1,0.03150,-0.01575,0.01575*
1,1,0.03150,0.01575,0.01575*
%
%ADD65ROUNDEDRECTD65*%
%ADD66C,0.23622*%
%ADD67C,0.02362*%
G36*
X92913Y33465D02*
X102756D01*
X103347Y32874D01*
Y26181D01*
X102756Y25591D01*
X92913D01*
X92126Y26378D01*
Y32677D01*
X92913Y33465D01*
D02*
G37*
G36*
X42913Y129528D02*
X36614Y129527D01*
X35827Y130315D01*
Y138976D01*
X36614Y139764D01*
X42913Y139764D01*
X43701Y138976D01*
X43701Y130315D01*
X42913Y129528D01*
D02*
G37*
G36*
X68898Y159843D02*
X69291Y160236D01*
X69291Y171653D01*
X68898Y172047D01*
X53150D01*
X52756Y171653D01*
X52756Y160236D01*
X53150Y159843D01*
X68898D01*
D02*
G37*
G36*
Y174016D02*
X69291Y174409D01*
X69291Y185827D01*
X68898Y186221D01*
X53150D01*
X52756Y185827D01*
X52756Y174409D01*
X53150Y174016D01*
X68898D01*
D02*
G37*
G36*
X91339Y177953D02*
X92126Y177165D01*
X94488D01*
X95276Y176378D01*
X95276Y174016D01*
X94488Y173228D01*
X88189D01*
X86614Y174803D01*
Y180315D01*
X87402Y181102D01*
X90551Y181102D01*
X91339Y180315D01*
X91339Y177953D01*
D02*
G37*
G36*
X110236Y20472D02*
X110236Y32283D01*
X110827Y32874D01*
X117520Y32874D01*
X118110Y32283D01*
X118110Y20472D01*
X117323Y19685D01*
X111024Y19685D01*
X110236Y20472D01*
D02*
G37*
G36*
Y44488D02*
X111024Y45276D01*
X117323Y45276D01*
X118110Y44488D01*
Y35433D01*
X117323Y34646D01*
X111024D01*
X110236Y35433D01*
Y44488D01*
D02*
G37*
G36*
X228937Y96850D02*
X228150Y97638D01*
Y103543D01*
X228937Y104331D01*
X231496D01*
X232283Y103543D01*
Y101575D01*
X233071Y100787D01*
X235433D01*
X236221Y100000D01*
Y97638D01*
X235433Y96850D01*
X228937D01*
D02*
G37*
G36*
X139764Y183071D02*
X138976Y183858D01*
X136220Y183858D01*
X135039Y185039D01*
Y187402D01*
X133858Y188583D01*
X115748Y188583D01*
X114567Y187402D01*
Y185039D01*
X113386Y183858D01*
X111024D01*
X110236Y183071D01*
Y180709D01*
X111024Y179921D01*
X138976D01*
X139764Y180709D01*
Y183071D01*
D02*
G37*
G36*
X190157Y138583D02*
X190945Y139370D01*
X200000D01*
X201181Y138189D01*
Y129528D01*
X200394Y128740D01*
X191339D01*
X190157Y129921D01*
Y138583D01*
D02*
G37*
D10*
X289263Y143021D02*
X291231D01*
X179921Y174508D02*
X257776D01*
X289263Y143021D01*
X291231D02*
X291339Y142913D01*
X162402Y191427D02*
Y196653D01*
X166339Y200591D01*
X181102D01*
X150591Y191427D02*
Y196654D01*
X146457Y200787D02*
X150591Y196654D01*
X133858Y200787D02*
X146457D01*
X104823Y109744D02*
X108268Y113189D01*
Y115157D02*
X114173Y121063D01*
X108268Y113189D02*
Y115157D01*
X103445Y109744D02*
X104823D01*
X114173Y121063D02*
X134843D01*
X102362Y108661D02*
X103445Y109744D01*
X102362Y108268D02*
Y108661D01*
X111221Y108661D02*
Y111221D01*
X103220Y100661D02*
X111221Y108661D01*
Y111221D02*
X119095Y119095D01*
X134843D01*
X117421Y112500D02*
X122047Y117126D01*
X117421Y108268D02*
Y112500D01*
X122047Y117126D02*
X134843D01*
X162402Y152264D02*
Y156988D01*
X179921Y174508D01*
X162402Y152264D02*
X164370Y150295D01*
X102362Y115551D02*
X103150Y116339D01*
X103347Y116142D02*
Y116634D01*
X103445D01*
X104429Y117618D01*
Y118209D01*
X110335Y124114D01*
X128051D01*
X154527Y101378D02*
Y105118D01*
X154331Y105315D02*
X154527Y105118D01*
X292717Y71555D02*
X300084Y64188D01*
X292717Y71555D02*
Y84842D01*
X258858Y118701D02*
X292717Y84842D01*
X126673Y134055D02*
X131290Y138672D01*
X134735D01*
X164370Y146653D02*
Y150295D01*
X262106Y91732D02*
Y105512D01*
X280610Y73228D02*
X285531D01*
X262106Y91732D02*
X280610Y73228D01*
X246457Y121161D02*
X262106Y105512D01*
X231201Y144882D02*
X246457Y129626D01*
Y121161D02*
Y129626D01*
X207677Y144882D02*
X231201D01*
X183858Y150689D02*
X201870D01*
X207677Y144882D01*
X174508Y141339D02*
X183858Y150689D01*
X163207Y141339D02*
X174508D01*
X162402Y142143D02*
Y146653D01*
Y142143D02*
X163207Y141339D01*
X175394Y150295D02*
X178445Y153347D01*
X237598D02*
X258858Y132087D01*
X178445Y153347D02*
X237598D01*
X258858Y118701D02*
Y132087D01*
X172352Y149719D02*
X172929Y150295D01*
X175394D01*
X172352Y146761D02*
Y149719D01*
X172244Y146653D02*
X172352Y146761D01*
X302230Y64188D02*
X303150Y63268D01*
X300084Y64188D02*
X302230D01*
X108760Y97342D02*
Y99606D01*
X117421Y108268D01*
X128051Y124114D02*
X129134Y123031D01*
X134843D01*
X102362Y115157D02*
Y115551D01*
X134735Y138672D02*
X134843Y138779D01*
X129921Y126969D02*
X134843D01*
X146546Y146546D02*
X146653Y146653D01*
X146546Y142904D02*
Y146546D01*
X146358Y142717D02*
X146546Y142904D01*
X166339Y146653D02*
Y151181D01*
X170276Y146653D02*
Y151181D01*
X170866Y151772D01*
Y151870D01*
X134843Y125000D02*
X139961D01*
X184646Y122047D02*
X193701D01*
X180118Y121063D02*
X183661D01*
X184646Y122047D01*
Y118898D02*
X185827D01*
X182982Y117234D02*
X184646Y118898D01*
X180226Y117234D02*
X182982D01*
X180118Y117126D02*
X180226Y117234D01*
D11*
X78740Y192913D02*
X85630D01*
X65945Y193213D02*
X72535D01*
X137598Y99213D02*
X140551D01*
X57776Y10827D02*
Y28543D01*
X48228Y172244D02*
Y188976D01*
X52165Y192913D02*
X65945D01*
X48228Y188976D02*
X52165Y192913D01*
X72535Y193213D02*
X72835Y192913D01*
X51181Y169291D02*
X54134D01*
X48228Y172244D02*
X51181Y169291D01*
X134843Y153543D02*
X139764D01*
X187008Y115157D02*
X190945D01*
X199728Y143776D02*
X199803Y143701D01*
X229134Y133268D02*
X229452Y132949D01*
X210331Y130221D02*
X210630Y129921D01*
X193898Y144827D02*
X194948Y143776D01*
X186417Y114567D02*
X187008Y115157D01*
X123031Y107283D02*
X127953D01*
X65354Y168433D02*
X65439Y168518D01*
X72652D02*
X72736Y168602D01*
X167323Y97441D02*
X167717Y97047D01*
Y95079D02*
Y97047D01*
Y95079D02*
X168307Y94488D01*
X168307Y94488D02*
X168307Y94488D01*
X168307Y88583D02*
Y94488D01*
X229724Y92323D02*
X230315Y92913D01*
X228645Y92323D02*
X229724D01*
X225941Y92285D02*
X228608D01*
X228645Y92323D01*
X223921Y90265D02*
X225941Y92285D01*
X45276Y10827D02*
X48524D01*
X45276Y28543D02*
X48524D01*
X56102Y41339D02*
X60039D01*
X46260D02*
X50197D01*
X212992Y104724D02*
X213099D01*
X213292Y104531D01*
X216240D01*
X216142Y110130D02*
Y110236D01*
Y110130D02*
X216236Y110035D01*
Y104535D02*
Y110035D01*
Y104535D02*
X216240Y104531D01*
X157480Y176378D02*
Y181102D01*
X157480Y176378D02*
X157480Y176378D01*
X183556Y110722D02*
X184435Y109843D01*
X186417D01*
X187008Y109252D01*
X184646Y114567D02*
X186417D01*
X183858Y113779D02*
X184646Y114567D01*
X128543Y107874D02*
X130081D01*
X130090Y107884D01*
X130324D01*
X131112Y108671D01*
X127953Y107283D02*
X128543Y107874D01*
X187008Y142717D02*
X187598Y143307D01*
X192378D01*
X193898Y144827D01*
X183858Y140551D02*
X185433Y142126D01*
X186417D01*
X187008Y142717D01*
X140354Y152165D02*
X142126Y150394D01*
X140354Y152165D02*
Y152953D01*
X139764Y153543D02*
X140354Y152953D01*
X145276Y150394D02*
X146063Y151181D01*
Y153150D01*
X145669Y153543D02*
X146063Y153150D01*
X127953Y113189D02*
X128543Y112598D01*
X130512D01*
X130905Y112205D01*
X162402Y88583D02*
Y94488D01*
X162402Y94488D01*
X162992Y95079D01*
Y97047D01*
X163386Y97441D01*
D13*
X75984Y170473D02*
Y174016D01*
X78051Y176083D02*
X83169D01*
X75984Y174016D02*
X78051Y176083D01*
X77854Y168602D02*
X81988D01*
X75984Y170473D02*
X77854Y168602D01*
X81988D02*
X82579Y169193D01*
D14*
X142301Y99213D02*
X142717Y99628D01*
Y101378D01*
X140551Y99213D02*
X142301D01*
X134843Y111221D02*
X139764D01*
X175197Y136811D02*
X180118D01*
X180118Y136811D01*
X175197Y111221D02*
X180118D01*
X164370Y106299D02*
X164370Y106299D01*
X164370Y101378D02*
Y106299D01*
X82579Y169193D02*
X83169Y168602D01*
X166339Y101378D02*
X166348Y101368D01*
Y98416D02*
Y101368D01*
Y98416D02*
X167323Y97441D01*
X148622Y87205D02*
Y93307D01*
X148228Y86811D02*
X148622Y87205D01*
X152559Y97638D02*
Y101378D01*
X148622Y93701D02*
X152559Y97638D01*
X182884Y111211D02*
X183465Y110630D01*
X180128Y111211D02*
X182884D01*
X180118Y111221D02*
X180128Y111211D01*
X183277Y113198D02*
X183858Y113779D01*
X180128Y113198D02*
X183277D01*
X180118Y113189D02*
X180128Y113198D01*
X131112Y108671D02*
X131693Y109252D01*
X134843D01*
X180128Y138789D02*
X182096D01*
X183858Y140551D01*
X180118Y138779D02*
X180128Y138789D01*
X186024Y132874D02*
X187008Y131890D01*
X180118Y134843D02*
X180128Y134833D01*
X182884D01*
X184843Y132874D01*
X186024D01*
X180118Y136811D02*
X187008D01*
X142126Y150394D02*
X142707Y149813D01*
Y146663D02*
Y149813D01*
Y146663D02*
X142717Y146653D01*
X144694Y149813D02*
X145276Y150394D01*
X144694Y146663D02*
Y149813D01*
X144685Y146653D02*
X144694Y146663D01*
X131880Y111230D02*
X134833D01*
X130905Y112205D02*
X131880Y111230D01*
X134833D02*
X134843Y111221D01*
X163386Y97441D02*
X164361Y98416D01*
Y101368D01*
X164370Y101378D01*
D16*
X158465Y191427D02*
D03*
X156496D02*
D03*
X154527D02*
D03*
X160433D02*
D03*
X162402D02*
D03*
X164370D02*
D03*
X152559D02*
D03*
X150591D02*
D03*
D17*
X166929Y191130D02*
D03*
X170079D02*
D03*
X148031D02*
D03*
X144882D02*
D03*
D18*
X146653Y34449D02*
D03*
X152559D02*
D03*
X166339D02*
D03*
X160433D02*
D03*
X139764Y153543D02*
D03*
X145669D02*
D03*
X178150Y166339D02*
D03*
X184055D02*
D03*
X178150Y158465D02*
D03*
X184055D02*
D03*
X209449Y87795D02*
D03*
X203543D02*
D03*
X148622Y93307D02*
D03*
X154527D02*
D03*
X144291D02*
D03*
X138386D02*
D03*
X137598Y99213D02*
D03*
X131693D02*
D03*
X168307Y94488D02*
D03*
X162402D02*
D03*
X168307Y88583D02*
D03*
X162402D02*
D03*
X166339Y72835D02*
D03*
X160433D02*
D03*
X152559D02*
D03*
X146653D02*
D03*
X203740D02*
D03*
X197835D02*
D03*
X189961D02*
D03*
X184055D02*
D03*
X197835Y34449D02*
D03*
X203740D02*
D03*
X189961D02*
D03*
X184055D02*
D03*
X130905Y29528D02*
D03*
X125000D02*
D03*
X101378Y29528D02*
D03*
X107283D02*
D03*
X60039Y41339D02*
D03*
X65945D02*
D03*
X40354D02*
D03*
X46260D02*
D03*
X36417Y93504D02*
D03*
X42323D02*
D03*
X36417Y103347D02*
D03*
X42323D02*
D03*
X36417Y113189D02*
D03*
X42323D02*
D03*
X36417Y123031D02*
D03*
X42323D02*
D03*
X97441Y116142D02*
D03*
X103347D02*
D03*
X97441Y108268D02*
D03*
X103347D02*
D03*
X97441Y100394D02*
D03*
X103347D02*
D03*
X75000Y181988D02*
D03*
X80905D02*
D03*
X127953Y176181D02*
D03*
X122047D02*
D03*
X72835Y192913D02*
D03*
X78740D02*
D03*
X225394Y29528D02*
D03*
X85630Y192913D02*
D03*
X91535D02*
D03*
X219488Y29528D02*
D03*
D19*
X220079Y79331D02*
D03*
Y73425D02*
D03*
X127953Y107283D02*
D03*
Y113189D02*
D03*
X229134Y133268D02*
D03*
Y127362D02*
D03*
X210630Y129921D02*
D03*
Y124016D02*
D03*
X209449Y98622D02*
D03*
Y92716D02*
D03*
X230315Y92913D02*
D03*
Y98819D02*
D03*
X153543Y62008D02*
D03*
Y67913D02*
D03*
X159449Y62008D02*
D03*
Y67913D02*
D03*
X190945Y62008D02*
D03*
Y67913D02*
D03*
X196850Y62008D02*
D03*
Y67913D02*
D03*
X173228Y56102D02*
D03*
Y50197D02*
D03*
X210630Y56102D02*
D03*
Y50197D02*
D03*
X196850Y23622D02*
D03*
Y29528D02*
D03*
X190945Y23622D02*
D03*
Y29528D02*
D03*
X159449Y23622D02*
D03*
Y29528D02*
D03*
X153543Y23622D02*
D03*
Y29528D02*
D03*
X136221Y34252D02*
D03*
Y40157D02*
D03*
X130709D02*
D03*
Y34252D02*
D03*
X89370Y169193D02*
D03*
Y175098D02*
D03*
X132874Y176181D02*
D03*
Y182087D02*
D03*
X117126Y176181D02*
D03*
Y182087D02*
D03*
X133858Y194882D02*
D03*
Y200787D02*
D03*
X181102Y194685D02*
D03*
Y200591D02*
D03*
X219685Y34449D02*
D03*
Y40354D02*
D03*
X213779D02*
D03*
Y34449D02*
D03*
X187008Y109252D02*
D03*
Y115157D02*
D03*
Y125984D02*
D03*
Y131890D02*
D03*
Y136811D02*
D03*
Y142717D02*
D03*
D20*
X114173Y29528D02*
D03*
Y38528D02*
D03*
X65354Y168433D02*
D03*
Y177433D02*
D03*
X193898Y135827D02*
D03*
Y144827D02*
D03*
D21*
X84646Y104626D02*
D03*
X89567D02*
D03*
Y111909D02*
D03*
X84646D02*
D03*
D22*
X157480Y166929D02*
D03*
X161221D02*
D03*
X153740D02*
D03*
Y176378D02*
D03*
X157480D02*
D03*
X161221D02*
D03*
D23*
X72736Y168602D02*
D03*
Y176083D02*
D03*
X83169D02*
D03*
Y172343D02*
D03*
Y168602D02*
D03*
D24*
X166339Y101378D02*
D03*
X142717Y146653D02*
D03*
X144685D02*
D03*
X146653D02*
D03*
X148622D02*
D03*
X150591D02*
D03*
X152559D02*
D03*
X154527D02*
D03*
X156496D02*
D03*
X158465D02*
D03*
X160433D02*
D03*
X162402D02*
D03*
X164370D02*
D03*
X166339D02*
D03*
X168307D02*
D03*
X170276D02*
D03*
X172244D02*
D03*
Y101378D02*
D03*
X170276D02*
D03*
X168307D02*
D03*
X164370D02*
D03*
X162402D02*
D03*
X160433D02*
D03*
X158465D02*
D03*
X156496D02*
D03*
X154527D02*
D03*
X152559D02*
D03*
X150591D02*
D03*
X148622D02*
D03*
X146653D02*
D03*
X144685D02*
D03*
X142717D02*
D03*
D25*
X167126Y55925D02*
D03*
X204331D02*
D03*
Y50925D02*
D03*
Y45925D02*
D03*
Y40925D02*
D03*
X183071D02*
D03*
Y45925D02*
D03*
Y50925D02*
D03*
Y55925D02*
D03*
X167126Y50925D02*
D03*
Y45925D02*
D03*
Y40925D02*
D03*
X145866D02*
D03*
Y45925D02*
D03*
Y50925D02*
D03*
Y55925D02*
D03*
D26*
X223917Y87595D02*
D03*
X221358D02*
D03*
X218799D02*
D03*
X216240D02*
D03*
Y104531D02*
D03*
X218799D02*
D03*
X221358D02*
D03*
D27*
X57776Y10827D02*
D03*
X66240D02*
D03*
X57776Y28543D02*
D03*
X66240D02*
D03*
X40059Y10827D02*
D03*
X48524D02*
D03*
X40059Y28543D02*
D03*
X48524D02*
D03*
D28*
X223917Y104531D02*
D03*
D29*
X139173Y86811D02*
D03*
Y79331D02*
D03*
X148228Y86811D02*
D03*
Y79331D02*
D03*
D30*
X134843Y109252D02*
D03*
Y111221D02*
D03*
Y113189D02*
D03*
Y115157D02*
D03*
Y117126D02*
D03*
Y119095D02*
D03*
Y121063D02*
D03*
Y123031D02*
D03*
Y125000D02*
D03*
Y126969D02*
D03*
Y128937D02*
D03*
Y130905D02*
D03*
Y132874D02*
D03*
Y134843D02*
D03*
Y136811D02*
D03*
Y138779D02*
D03*
X180118D02*
D03*
Y136811D02*
D03*
Y134843D02*
D03*
Y132874D02*
D03*
Y130905D02*
D03*
Y128937D02*
D03*
Y126969D02*
D03*
Y125000D02*
D03*
Y123031D02*
D03*
Y121063D02*
D03*
Y119095D02*
D03*
Y117126D02*
D03*
Y115157D02*
D03*
Y113189D02*
D03*
Y111221D02*
D03*
Y109252D02*
D03*
D37*
X141929Y176181D02*
D03*
X104774Y172687D02*
D03*
X65945Y192913D02*
D03*
Y48228D02*
D03*
X40354D02*
D03*
D48*
X303150Y43268D02*
D03*
D49*
Y53268D02*
D03*
Y63268D02*
D03*
Y73268D02*
D03*
Y83268D02*
D03*
Y93268D02*
D03*
Y103268D02*
D03*
Y113268D02*
D03*
Y123268D02*
D03*
Y133268D02*
D03*
Y143268D02*
D03*
Y153268D02*
D03*
Y163268D02*
D03*
Y173268D02*
D03*
D51*
X144617Y95404D02*
G03*
X144296Y94717I793J-788D01*
G01*
X160598Y164535D02*
Y166307D01*
X158433Y162370D02*
X160598Y164535D01*
X158433Y157772D02*
Y162370D01*
X154038Y153376D02*
X158433Y157772D01*
X154362Y164535D02*
Y166307D01*
X156527Y158561D02*
Y162370D01*
X153740Y166929D02*
X154362Y166307D01*
Y164535D02*
X156527Y162370D01*
X160598Y166307D02*
X161221Y166929D01*
X156496Y187303D02*
X158433Y185366D01*
X159747Y187303D02*
X160402Y187958D01*
Y191396D01*
X156496Y187303D02*
X159747D01*
X154527Y194817D02*
X155183Y195472D01*
X157810D02*
X158465Y194817D01*
X155183Y195472D02*
X157810D01*
X154527Y191427D02*
Y194817D01*
X158465Y191427D02*
Y194817D01*
X156496Y187303D02*
Y191427D01*
X158433Y183446D02*
Y185366D01*
X154559Y189659D02*
X154559Y189659D01*
X154527Y191427D02*
X154559Y191396D01*
X154559Y186545D02*
X156527Y184577D01*
X154559Y189659D02*
Y191396D01*
X154559Y186545D02*
Y189659D01*
X156527Y183446D02*
Y184577D01*
X199606Y17323D02*
X207087Y24803D01*
X227165D02*
X231496Y29134D01*
X207087Y24803D02*
X227165D01*
X231496Y29134D02*
Y47244D01*
X220079Y58661D02*
Y73425D01*
Y58661D02*
X231496Y47244D01*
X188437Y12767D02*
X191507D01*
X196063Y17323D01*
X199606D01*
X187480Y11811D02*
X188437Y12767D01*
X160402Y191396D02*
X160433Y191427D01*
X158433Y183446D02*
X161221Y180658D01*
Y176378D02*
Y180658D01*
X153740Y176378D02*
Y180658D01*
X156527Y183446D01*
X150528Y149866D02*
X154038Y153376D01*
X153249Y155282D02*
X156527Y158561D01*
X150528Y148876D02*
X150550Y148854D01*
X154038Y153376D02*
X154038D01*
X148622Y150655D02*
X153249Y155282D01*
X153249D01*
X148622Y146653D02*
X148622Y146653D01*
Y150655D01*
X150550Y146716D02*
Y148854D01*
X150528Y148876D02*
Y149866D01*
X143701Y83465D02*
Y92716D01*
X139567Y79331D02*
X143701Y83465D01*
Y92716D02*
X144291Y93307D01*
X139173Y79331D02*
X139567D01*
X148794Y97244D02*
X150550Y98999D01*
X146457Y97244D02*
X148794D01*
X144617Y95404D02*
X146457Y97244D01*
X144291Y93307D02*
X144296Y94717D01*
X150550Y98999D02*
Y101337D01*
X150591Y101378D01*
D52*
X146457Y171653D02*
X157480D01*
X164567D01*
X157480Y166929D02*
Y171653D01*
X141929Y176181D02*
X146457Y171653D01*
X164567D02*
X166929Y174016D01*
X88987Y175481D02*
X89370Y175098D01*
X78740Y172441D02*
X78839Y172343D01*
X85728D01*
X166929Y174016D02*
Y191130D01*
X132874Y176181D02*
X141929D01*
X127953Y176181D02*
X132874D01*
X141929Y176181D02*
X148031Y182283D01*
Y191130D01*
X144882Y187008D02*
X144882Y187008D01*
X144882Y187008D02*
Y191130D01*
X170079Y187008D02*
X170079Y187008D01*
X170079Y187008D02*
Y191130D01*
X173051Y55925D02*
X173228Y56102D01*
X91929Y192913D02*
Y193701D01*
Y192913D02*
X96457D01*
X199803Y143701D02*
X210331Y133173D01*
Y130221D02*
Y133173D01*
X194948Y143776D02*
X199728D01*
X210630Y129921D02*
X217520D01*
X220866Y133268D01*
X229134D01*
X75000Y177461D02*
Y181988D01*
X73622Y176083D02*
X75000Y177461D01*
X72736Y176083D02*
X73622D01*
X85728Y172343D02*
X88090Y174705D01*
X88976D02*
X89370Y175098D01*
X88090Y174705D02*
X88976D01*
X83169Y168602D02*
X88386D01*
X88976Y169193D01*
X80905Y181988D02*
X84646D01*
X167126Y55925D02*
X173051D01*
X204331D02*
X210453D01*
X210630Y56102D01*
X140551Y40945D02*
X140571Y40925D01*
X145866D01*
X177953Y40945D02*
X177972Y40925D01*
X183071D01*
D53*
X65945Y48228D02*
X65945Y48228D01*
Y41339D02*
Y48228D01*
X65945Y48228D02*
Y52756D01*
X82284Y69095D01*
X89370D02*
X108858Y88583D01*
X82284Y69095D02*
X89370D01*
X65945Y41339D02*
X66092Y41191D01*
Y28691D02*
Y41191D01*
Y28691D02*
X66240Y28543D01*
Y10827D02*
Y28543D01*
D54*
X230512Y92913D02*
X230709D01*
X133858Y190945D02*
Y194882D01*
X181102Y190551D02*
Y194685D01*
X192754Y134880D02*
X193701Y135827D01*
X192754Y130943D02*
Y134880D01*
X195669Y135433D02*
Y136773D01*
X197809Y134646D02*
X199213Y133242D01*
X194488Y135827D02*
X195669Y134646D01*
X197809D01*
X199213Y133071D02*
Y133242D01*
X192913Y136811D02*
X193898Y135827D01*
X187008Y136811D02*
X192913D01*
X38583Y137795D02*
X39961Y136417D01*
Y144685D02*
X45669Y150394D01*
X39961Y137008D02*
Y144685D01*
X38583Y137008D02*
X39961D01*
X37795Y137795D02*
X38583Y137008D01*
X39961Y136417D02*
X41732Y134646D01*
Y131496D02*
Y134646D01*
X45669Y150394D02*
X83465D01*
X95128Y162057D01*
Y169193D01*
X108481Y176181D02*
X122047D01*
X98471Y172536D02*
X104623D01*
X104987Y172687D02*
X108481Y176181D01*
X95128Y169193D02*
X98471Y172536D01*
X230315Y88976D02*
Y92913D01*
X168307Y84252D02*
Y88583D01*
X210630Y56102D02*
Y60039D01*
X101378Y29528D02*
Y29921D01*
X173228Y56102D02*
Y60039D01*
X114173Y29528D02*
X125000D01*
X114173Y29528D02*
X114173Y29528D01*
X107283Y29528D02*
X114173D01*
X107283Y29528D02*
X107283Y29528D01*
X104623Y172536D02*
X104774Y172687D01*
X88976Y169193D02*
X95128D01*
X104774Y172687D02*
X104987D01*
X187008Y109252D02*
X190945D01*
X162402Y84252D02*
Y88583D01*
X134646Y93307D02*
X138386D01*
X134252Y87008D02*
X138976D01*
X139173Y86811D01*
X148425Y79134D02*
X153150D01*
X142913Y72835D02*
X146653D01*
X166339D02*
X170079D01*
X203740D02*
X207480D01*
X180315D02*
X184055D01*
X210630Y46457D02*
Y50197D01*
X219685Y40354D02*
Y44094D01*
X213779Y40354D02*
Y44094D01*
X130709Y40157D02*
Y44094D01*
X136221Y40157D02*
Y44094D01*
X173228Y50197D02*
X173228D01*
Y46457D02*
Y50197D01*
X148228Y79331D02*
X148425Y79134D01*
X154527Y88976D02*
Y93307D01*
Y88976D02*
X154528Y88976D01*
X200000Y87795D02*
X203543D01*
X127756Y99213D02*
X131693D01*
X145669Y153543D02*
Y157480D01*
X190945Y125984D02*
X190945Y125984D01*
X187008Y125984D02*
X190945D01*
X124016Y113189D02*
X127953D01*
D55*
X230315Y92913D02*
X230512D01*
X230315D02*
X230315D01*
X137598Y99213D02*
Y103150D01*
X230512Y92913D02*
X230709Y92716D01*
X225394Y29528D02*
X225590Y29724D01*
Y33465D01*
X57776Y28543D02*
X62008D01*
X77756Y104331D02*
X84350D01*
X84646Y104626D01*
D56*
X11850Y113228D02*
X36417D01*
X290039Y103268D02*
X291144D01*
X288998Y104309D02*
X290039Y103268D01*
X288998Y104309D02*
Y105448D01*
X290824Y107274D01*
Y107751D01*
X288915Y109660D02*
X290824Y107751D01*
X288438Y109660D02*
X288915D01*
X284951Y106172D02*
X288438Y109660D01*
X284473Y106172D02*
X284951D01*
X282565Y108081D02*
X284473Y106172D01*
X282565Y108081D02*
Y108558D01*
X286052Y112046D01*
Y112523D01*
X284144Y114431D02*
X286052Y112523D01*
X283667Y114431D02*
X284144D01*
X280179Y110943D02*
X283667Y114431D01*
X279702Y110943D02*
X280179D01*
X277793Y112852D02*
X279702Y110943D01*
X277793Y112852D02*
Y113329D01*
X281281Y116817D01*
Y117294D01*
X279372Y119203D02*
X281281Y117294D01*
X278895Y119203D02*
X279372D01*
X275407Y115715D02*
X278895Y119203D01*
X274930Y115715D02*
X275407D01*
X273022Y117624D02*
X274930Y115715D01*
X273022Y117624D02*
Y118101D01*
X276509Y121589D01*
Y122066D01*
X274601Y123974D02*
X276509Y122066D01*
X274124Y123974D02*
X274601D01*
X272297Y122148D02*
X274124Y123974D01*
X271159Y122148D02*
X272297D01*
X271159Y122148D02*
X271159Y122148D01*
X270673Y122634D02*
X271159Y122148D01*
X291144Y103268D02*
X303150D01*
X166339Y154724D02*
X176671Y165057D01*
X178091Y165886D02*
Y166477D01*
X177262Y165057D02*
X178091Y165886D01*
X176671Y165057D02*
X177262D01*
X184055Y166339D02*
X188583D01*
X189961Y167717D01*
X96553Y109252D02*
X97441Y108364D01*
Y108268D02*
Y108364D01*
X89567Y111909D02*
X92224Y109252D01*
X96553D01*
X93799Y100394D02*
X97441D01*
X89567Y104626D02*
X93799Y100394D01*
X85568Y115337D02*
X86373Y116142D01*
X85568Y112832D02*
Y115337D01*
X86373Y116142D02*
X97441D01*
X243307Y92062D02*
Y93986D01*
X242502Y91257D02*
X243307Y92062D01*
X239207Y91257D02*
X242502D01*
X238870Y90920D02*
X239207Y91257D01*
X238870Y88220D02*
Y90920D01*
Y88220D02*
X239207Y87883D01*
X245098D01*
X245436Y87546D01*
Y84846D02*
Y87546D01*
X245098Y84509D02*
X245436Y84846D01*
X239207Y84509D02*
X245098D01*
X238870Y84172D02*
X239207Y84509D01*
X238870Y81472D02*
Y84172D01*
Y81472D02*
X239207Y81135D01*
X245098D01*
X245436Y80798D01*
Y78098D02*
Y80798D01*
X245098Y77761D02*
X245436Y78098D01*
X239207Y77761D02*
X245098D01*
X238870Y77424D02*
X239207Y77761D01*
X238870Y74724D02*
Y77424D01*
Y74724D02*
X239207Y74387D01*
X245098D01*
X245436Y74050D01*
Y71350D02*
Y74050D01*
X245098Y71013D02*
X245436Y71350D01*
X239207Y71013D02*
X245098D01*
X238870Y70675D02*
X239207Y71013D01*
X238870Y67976D02*
Y70675D01*
Y67976D02*
X239207Y67639D01*
X245098D01*
X245436Y67301D01*
Y64602D02*
Y67301D01*
X245098Y64265D02*
X245436Y64602D01*
X239207Y64265D02*
X245098D01*
X238870Y63928D02*
X239207Y64265D01*
X238870Y61228D02*
Y63928D01*
Y61228D02*
X239207Y60891D01*
X245098D01*
X245436Y60553D01*
Y57854D02*
Y60553D01*
X245098Y57517D02*
X245436Y57854D01*
X239207Y57517D02*
X245098D01*
X238870Y57179D02*
X239207Y57517D01*
X238870Y54480D02*
Y57179D01*
Y54480D02*
X239207Y54143D01*
X245098D01*
X245436Y53805D01*
Y51106D02*
Y53805D01*
X245098Y50769D02*
X245436Y51106D01*
X239207Y50769D02*
X245098D01*
X238870Y50431D02*
X239207Y50769D01*
X238870Y47732D02*
Y50431D01*
Y47732D02*
X239207Y47395D01*
X242502D01*
X243307Y46590D01*
Y45903D02*
Y46590D01*
X222047Y119685D02*
X227559D01*
X243307Y93986D02*
Y103937D01*
X227559Y119685D02*
X243307Y103937D01*
X139961Y125000D02*
X153740D01*
X156693Y122047D02*
X170866D01*
X153740Y125000D02*
X156693Y122047D01*
X111318Y93601D02*
X121260Y103543D01*
X132283D01*
X135728Y106988D01*
X152657D01*
X154331Y105315D01*
X180118Y34449D02*
X184055D01*
X208760D02*
X213779D01*
X213779Y34449D01*
X203740Y34449D02*
X208760D01*
X213779Y34449D02*
X219685D01*
X219587Y34350D02*
X219685Y34449D01*
X219587Y29626D02*
Y34350D01*
X219488Y29528D02*
X219587Y29626D01*
X136319Y34350D02*
X141634D01*
X141732Y34449D01*
Y34350D02*
X146555D01*
X166339Y34449D02*
X170276D01*
X146555Y34350D02*
X146653Y34449D01*
X136221Y34252D02*
X136319Y34350D01*
X130709Y34252D02*
X130807Y34154D01*
Y29626D02*
Y34154D01*
Y29626D02*
X130905Y29528D01*
X130709Y34252D02*
X136221D01*
X48000Y113944D02*
X68110Y134055D01*
X43078Y113944D02*
X48000D01*
X68110Y134055D02*
X126673D01*
X42323Y113189D02*
X43078Y113944D01*
X43604Y124313D02*
X60827Y141535D01*
X43211Y124313D02*
X43604D01*
X42323Y123425D02*
X43211Y124313D01*
X60827Y141535D02*
X145177D01*
X42323Y123031D02*
Y123425D01*
X11929Y123150D02*
X36417D01*
X11929Y93386D02*
X36417D01*
X40354Y53150D02*
X42323Y55118D01*
Y93504D01*
X40354Y48228D02*
Y53150D01*
Y41339D02*
Y48346D01*
X43307Y93504D02*
X111221D01*
X42323D02*
X43307D01*
X11850Y103307D02*
X36417D01*
X310039Y98857D02*
Y114862D01*
X306693Y118209D02*
X310039Y114862D01*
X293307Y118209D02*
X306693D01*
X304450Y93268D02*
X310039Y98857D01*
X269873Y123434D02*
X270673Y122634D01*
X269873Y123434D02*
Y136918D01*
X230022Y126474D02*
X231203D01*
X250492Y107185D01*
Y15059D02*
Y107185D01*
X229035Y127461D02*
X230022Y126474D01*
X240945Y5512D02*
X250492Y15059D01*
X281102Y130413D02*
X293307Y118209D01*
X281102Y130413D02*
Y139272D01*
X252658Y167717D02*
X281102Y139272D01*
X189961Y167717D02*
X252658D01*
X248327Y158465D02*
X269873Y136918D01*
X184055Y158465D02*
X248327D01*
X303150Y93268D02*
X304450D01*
X84646Y111909D02*
X85568Y112832D01*
X77264Y126969D02*
X129921D01*
X53642Y103347D02*
X77264Y126969D01*
X40059Y28543D02*
X40207Y28691D01*
Y41191D01*
X40354Y41339D01*
X40059Y10827D02*
Y28543D01*
X42323Y103347D02*
X53642D01*
X145177Y141535D02*
X146358Y142717D01*
X11811Y93268D02*
X11929Y93386D01*
X11811Y103268D02*
X11850Y103307D01*
X11811Y113268D02*
X11850Y113228D01*
X11811Y123268D02*
X11929Y123150D01*
X166339Y151181D02*
Y154724D01*
X178150Y158071D02*
Y158465D01*
X177262Y157183D02*
X178150Y158071D01*
X176179Y157183D02*
X177262D01*
X170866Y151870D02*
X176179Y157183D01*
X243307Y27953D02*
Y45903D01*
X233071Y17717D02*
X243307Y27953D01*
X207480Y11811D02*
X213386Y17717D01*
X233071D01*
X217717Y124016D02*
X222047Y119685D01*
X210630Y124016D02*
X217717D01*
X209842Y124803D02*
X210630Y124016D01*
X196457Y124803D02*
X209842D01*
X193701Y122047D02*
X196457Y124803D01*
X222441Y127559D02*
X222539Y127461D01*
X229035D01*
X223780Y5512D02*
X240945D01*
X217480Y11811D02*
X223780Y5512D01*
X196850Y54724D02*
Y62008D01*
X200155Y51419D02*
X203837D01*
X196850Y54724D02*
X200155Y51419D01*
X203837D02*
X204331Y50925D01*
X183071Y55925D02*
X189784D01*
X190945Y57087D02*
Y62008D01*
X189784Y55925D02*
X190945Y57087D01*
X197122Y35161D02*
Y38855D01*
X199031Y40763D01*
X204168D01*
X197122Y35161D02*
X197835Y34449D01*
X204168Y40763D02*
X204331Y40925D01*
X190848Y35337D02*
Y36439D01*
X190945Y36535D02*
Y39921D01*
X184941Y45925D02*
X190945Y39921D01*
X189961Y34449D02*
X190848Y35337D01*
Y36439D02*
X190945Y36535D01*
X183071Y50925D02*
Y55925D01*
X204331Y45925D02*
Y50925D01*
X183071Y45925D02*
X184941D01*
X159843Y38976D02*
X161791Y40925D01*
X159843Y35039D02*
X160433Y34449D01*
X159843Y35039D02*
Y38976D01*
X161791Y40925D02*
X167126D01*
X153543Y36535D02*
Y41732D01*
X145866Y45925D02*
X146265Y45527D01*
X149749D02*
X153543Y41732D01*
X146265Y45527D02*
X149749D01*
X152559Y34449D02*
X153447Y35337D01*
Y36439D01*
X153543Y36535D01*
X145866Y50925D02*
Y55925D01*
X154059Y56815D02*
Y61492D01*
X153169Y55925D02*
X154059Y56815D01*
X145866Y55925D02*
X153169D01*
X158661Y55905D02*
Y61221D01*
X163243Y51324D02*
X166727D01*
X167126Y50925D01*
X158661Y55905D02*
X163243Y51324D01*
X153543Y62008D02*
X154059Y61492D01*
X158661Y61221D02*
X159449Y62008D01*
X167126Y45925D02*
Y50925D01*
X221358Y104531D02*
X223917D01*
X218799D02*
Y112697D01*
X212598Y118898D02*
X218799Y112697D01*
X185827Y118898D02*
X212598D01*
X221246Y99986D02*
Y104419D01*
X219882Y98622D02*
X221246Y99986D01*
X209449Y98622D02*
X219882D01*
X221246Y104419D02*
X221358Y104531D01*
X209449Y87795D02*
Y92716D01*
X216040Y87795D02*
X216240Y87595D01*
X209449Y87795D02*
X216040D01*
X220079Y83483D02*
X221358Y84762D01*
Y87595D01*
X218799Y84762D02*
Y87595D01*
Y84762D02*
X220079Y83483D01*
Y79331D02*
Y83483D01*
D57*
X196457Y29528D02*
X196850D01*
X195273Y31176D02*
Y31887D01*
X196295Y32909D01*
X195311Y30673D02*
X196457Y29528D01*
X196689Y32909D02*
X197835Y34055D01*
X195273Y31176D02*
X195311Y31138D01*
Y30673D02*
Y31138D01*
X196295Y32909D02*
X196689D01*
X197835Y34055D02*
Y34449D01*
X192523Y31176D02*
Y31887D01*
X191500Y32909D02*
X192523Y31887D01*
X189961Y34055D02*
X191106Y32909D01*
X190945Y29528D02*
X191339D01*
X192484Y30673D02*
Y31138D01*
X192523Y31176D01*
X191106Y32909D02*
X191500D01*
X189961Y34055D02*
Y34449D01*
X191339Y29528D02*
X192484Y30673D01*
X153937Y67913D02*
X155118Y69095D01*
Y70669D01*
X158109Y69059D02*
X159254Y67913D01*
X159287Y71295D02*
X160433Y72441D01*
X158109Y70510D02*
X158894Y71295D01*
X160433Y72441D02*
Y72835D01*
X159254Y67913D02*
X159449D01*
X158109Y69059D02*
Y70510D01*
X158894Y71295D02*
X159287D01*
X154464Y71323D02*
X155118Y70669D01*
X153705Y71323D02*
X154464D01*
X153543Y67913D02*
X153937D01*
X152559Y72469D02*
X153705Y71323D01*
X152559Y72469D02*
Y73228D01*
X195311Y69059D02*
X196457Y67913D01*
X195273Y69562D02*
X195311Y69524D01*
X195273Y70273D02*
X196295Y71295D01*
X196689D02*
X197835Y72441D01*
X196457Y67913D02*
X196850D01*
X195311Y69059D02*
Y69524D01*
X195273Y69562D02*
Y70273D01*
X196295Y71295D02*
X196689D01*
X197835Y72441D02*
Y72835D01*
X190945Y67913D02*
X191339D01*
X192484Y69059D02*
Y69524D01*
X192523Y69562D02*
Y70273D01*
X191106Y71295D02*
X191500D01*
X189961Y72441D02*
Y72835D01*
X191339Y67913D02*
X192484Y69059D01*
Y69524D02*
X192523Y69562D01*
X191500Y71295D02*
X192523Y70273D01*
X189961Y72441D02*
X191106Y71295D01*
X189961Y72835D02*
X189961Y72835D01*
X170276Y101378D02*
X170447Y101207D01*
Y98845D02*
Y101207D01*
X194720Y73337D02*
Y76898D01*
X182860Y88759D02*
X194720Y76898D01*
X182860Y88759D02*
X182860D01*
X172244Y101378D02*
X172415Y101207D01*
Y99204D02*
Y101207D01*
X182178Y87113D02*
X182178D01*
X193075Y76217D01*
Y73337D02*
Y76217D01*
X172415Y99204D02*
X182860Y88759D01*
X170447Y98845D02*
X182178Y87113D01*
X189961Y72835D02*
X192572D01*
X193075Y73337D01*
X194720D02*
X195223Y72835D01*
X197835D01*
X153705Y74374D02*
X154098D01*
X152559Y73228D02*
X153705Y74374D01*
X154098D02*
X155673Y75949D01*
Y85560D01*
X158900Y74374D02*
X159287D01*
X157319Y75955D02*
X158900Y74374D01*
X157319Y75955D02*
Y84878D01*
X159899Y73375D02*
Y73762D01*
X159287Y74374D02*
X159899Y73762D01*
X157319Y84878D02*
X159126Y86685D01*
X190393Y19291D02*
X192364Y21263D01*
X161658Y14590D02*
X166358Y19291D01*
X191074Y17646D02*
X194455Y21026D01*
X167040Y17646D02*
X191074D01*
X163303Y13909D02*
X167040Y17646D01*
X166358Y19291D02*
X190393D01*
X194455Y21026D02*
Y21708D01*
X195223Y22476D01*
X190945Y23622D02*
X191218D01*
X192364Y21263D02*
Y22476D01*
X191218Y23622D02*
X192364Y22476D01*
X195223D02*
X195705D01*
X196850Y23622D01*
X163303Y13198D02*
Y13909D01*
X163806Y12695D02*
X166596D01*
X163303Y13198D02*
X163806Y12695D01*
X166596D02*
X167480Y11811D01*
X157480D02*
X158364Y12695D01*
X161155D01*
X161658Y13198D01*
Y14590D01*
X157871Y31176D02*
X157909Y31138D01*
X157871Y31887D02*
X158894Y32909D01*
X159287D02*
X160433Y34055D01*
X159055Y29528D02*
X159449D01*
X157909Y30673D02*
X159055Y29528D01*
X157909Y30673D02*
Y31138D01*
X157871Y31176D02*
Y31887D01*
X158894Y32909D02*
X159287D01*
X160433Y34055D02*
Y34449D01*
X152559Y34055D02*
X153705Y32909D01*
X154098D01*
X155083Y31141D02*
X155118Y31176D01*
X155083Y30673D02*
Y31141D01*
X152559Y34055D02*
Y34449D01*
X153543Y29528D02*
X153937D01*
X155083Y30673D01*
X154098Y32909D02*
X155118Y31890D01*
Y31176D02*
Y31890D01*
X157319Y21974D02*
X157822Y22476D01*
X158303D01*
X159449Y23622D01*
X153852Y16611D02*
X157319Y20078D01*
Y21974D01*
X136006Y16611D02*
X153852D01*
X133303Y13909D02*
X136006Y16611D01*
X133806Y12695D02*
X136596D01*
X133303Y13198D02*
X133806Y12695D01*
X133303Y13198D02*
Y13909D01*
X136596Y12695D02*
X137480Y11811D01*
X153543Y23622D02*
X154689Y22476D01*
X127480Y11811D02*
X128364Y12695D01*
X131155D01*
X155673Y20760D02*
Y21974D01*
X155170Y22476D02*
X155673Y21974D01*
X154689Y22476D02*
X155170D01*
X131658Y13198D02*
Y14590D01*
X135324Y18257D01*
X153170D01*
X155673Y20760D01*
X131155Y12695D02*
X131658Y13198D01*
X157480Y87367D02*
Y97603D01*
X155673Y85560D02*
X157480Y87367D01*
X159126Y86685D02*
Y96921D01*
X160262Y101207D02*
X160433Y101378D01*
X157480Y97603D02*
X158333Y98456D01*
Y101246D01*
X158465Y101378D01*
X160262Y98058D02*
Y101207D01*
X159126Y96921D02*
X160262Y98058D01*
D58*
X65439Y168518D02*
X72652D01*
D59*
X140472Y193691D02*
D03*
X174488D02*
D03*
D60*
X168858Y195659D02*
D03*
X146102D02*
D03*
D61*
X174488Y210148D02*
D03*
X140472D02*
D03*
D62*
X11811Y133268D02*
D03*
D63*
Y123268D02*
D03*
Y113268D02*
D03*
Y103268D02*
D03*
Y93268D02*
D03*
Y83268D02*
D03*
D64*
X197480Y11811D02*
D03*
X187480D02*
D03*
X177480D02*
D03*
X157480D02*
D03*
X147480D02*
D03*
X127480D02*
D03*
X107480D02*
D03*
X97480D02*
D03*
X117480D02*
D03*
X137480D02*
D03*
X167480D02*
D03*
X207480D02*
D03*
X217480D02*
D03*
X227480D02*
D03*
D65*
X87480D02*
D03*
D66*
X300787Y202362D02*
D03*
Y14173D02*
D03*
X14173D02*
D03*
Y202362D02*
D03*
D67*
X291339Y142913D02*
D03*
X309842Y187401D02*
D03*
Y163779D02*
D03*
Y140157D02*
D03*
Y69291D02*
D03*
Y45669D02*
D03*
X303937Y33858D02*
D03*
X298031Y187401D02*
D03*
X292126Y175590D02*
D03*
Y151968D02*
D03*
X298031Y140157D02*
D03*
X292126Y57480D02*
D03*
Y33858D02*
D03*
X280315Y199213D02*
D03*
X286220Y187401D02*
D03*
X280315Y175590D02*
D03*
X286220Y163779D02*
D03*
Y140157D02*
D03*
Y116535D02*
D03*
X280315Y104724D02*
D03*
Y81102D02*
D03*
X286220Y69291D02*
D03*
X280315Y57480D02*
D03*
Y33858D02*
D03*
X286220Y22047D02*
D03*
X280315Y10236D02*
D03*
X268504Y199213D02*
D03*
X274409Y187401D02*
D03*
X268504Y175590D02*
D03*
X274409Y163779D02*
D03*
X268504Y104724D02*
D03*
X274409Y92913D02*
D03*
X268504Y81102D02*
D03*
X274409Y69291D02*
D03*
Y45669D02*
D03*
X268504Y33858D02*
D03*
X274409Y22047D02*
D03*
X268504Y10236D02*
D03*
X256693Y199213D02*
D03*
X262598Y187401D02*
D03*
Y163779D02*
D03*
Y140157D02*
D03*
X256693Y104724D02*
D03*
X262598Y69291D02*
D03*
X256693Y57480D02*
D03*
X262598Y45669D02*
D03*
X256693Y33858D02*
D03*
X262598Y22047D02*
D03*
X256693Y10236D02*
D03*
X244882Y199213D02*
D03*
X250787Y187401D02*
D03*
Y163779D02*
D03*
X244882Y151968D02*
D03*
X233071Y199213D02*
D03*
X238976Y187401D02*
D03*
Y163779D02*
D03*
X233071Y57480D02*
D03*
Y10236D02*
D03*
X221260Y199213D02*
D03*
X227165Y187401D02*
D03*
Y163779D02*
D03*
Y140157D02*
D03*
Y116535D02*
D03*
Y69291D02*
D03*
Y22047D02*
D03*
X209449Y199213D02*
D03*
X215354Y187401D02*
D03*
Y163779D02*
D03*
Y140157D02*
D03*
X209449Y81102D02*
D03*
X215354Y69291D02*
D03*
Y22047D02*
D03*
X197638Y199213D02*
D03*
X203543Y187401D02*
D03*
Y163779D02*
D03*
Y92913D02*
D03*
X197638Y81102D02*
D03*
X185827Y199213D02*
D03*
X191732Y187401D02*
D03*
Y163779D02*
D03*
Y92913D02*
D03*
Y45669D02*
D03*
X179921Y187401D02*
D03*
X174016Y175590D02*
D03*
Y128346D02*
D03*
X179921Y22047D02*
D03*
X162205Y128346D02*
D03*
X168110Y116535D02*
D03*
Y22047D02*
D03*
X156299Y140157D02*
D03*
X150394Y128346D02*
D03*
X156299Y116535D02*
D03*
Y45669D02*
D03*
X144488Y163779D02*
D03*
Y116535D02*
D03*
X138583Y57480D02*
D03*
X144488Y22047D02*
D03*
X126772Y199213D02*
D03*
X132677Y163779D02*
D03*
X126772Y151968D02*
D03*
Y81102D02*
D03*
X132677Y69291D02*
D03*
X126772Y57480D02*
D03*
X132677Y22047D02*
D03*
X114961Y199213D02*
D03*
Y151968D02*
D03*
X120866Y92913D02*
D03*
X114961Y81102D02*
D03*
X120866Y69291D02*
D03*
X114961Y57480D02*
D03*
X120866Y45669D02*
D03*
X103149Y199213D02*
D03*
X109055Y187401D02*
D03*
X103149Y151968D02*
D03*
X109055Y69291D02*
D03*
X103149Y57480D02*
D03*
X109055Y45669D02*
D03*
X91338Y199213D02*
D03*
X97244Y187401D02*
D03*
X91338Y151968D02*
D03*
Y81102D02*
D03*
X97244Y69291D02*
D03*
X91338Y57480D02*
D03*
X97244Y45669D02*
D03*
Y22047D02*
D03*
X79527Y199213D02*
D03*
X85433Y187401D02*
D03*
Y45669D02*
D03*
X79527Y33858D02*
D03*
X85433Y22047D02*
D03*
X67716Y199213D02*
D03*
X73622Y187401D02*
D03*
X67716Y128346D02*
D03*
Y104724D02*
D03*
Y81102D02*
D03*
X73622Y69291D02*
D03*
Y45669D02*
D03*
Y22047D02*
D03*
X55905Y199213D02*
D03*
Y128346D02*
D03*
X61811Y116535D02*
D03*
X55905Y81102D02*
D03*
X61811Y69291D02*
D03*
X55905Y57480D02*
D03*
X61811Y45669D02*
D03*
X55905Y33858D02*
D03*
X61811Y22047D02*
D03*
X44094Y199213D02*
D03*
Y175590D02*
D03*
X50000Y163779D02*
D03*
Y69291D02*
D03*
Y45669D02*
D03*
X44094Y33858D02*
D03*
X32283Y199213D02*
D03*
X38189Y187401D02*
D03*
X32283Y175590D02*
D03*
X38189Y163779D02*
D03*
X32283Y151968D02*
D03*
Y128346D02*
D03*
X38189Y69291D02*
D03*
X32283Y10236D02*
D03*
X26378Y187401D02*
D03*
X20472Y175590D02*
D03*
X26378Y163779D02*
D03*
X20472Y151968D02*
D03*
X26378Y140157D02*
D03*
X20472Y128346D02*
D03*
X26378Y116535D02*
D03*
Y69291D02*
D03*
X20472Y57480D02*
D03*
X26378Y45669D02*
D03*
X20472Y33858D02*
D03*
X26378Y22047D02*
D03*
X14567Y187401D02*
D03*
X8661Y175590D02*
D03*
X14567Y163779D02*
D03*
X8661Y151968D02*
D03*
Y57480D02*
D03*
X14567Y45669D02*
D03*
X8661Y33858D02*
D03*
X230315Y102362D02*
D03*
X234252Y98819D02*
D03*
X132677Y186221D02*
D03*
X124803D02*
D03*
X137795Y181890D02*
D03*
X112205D02*
D03*
X116929Y186221D02*
D03*
X88976Y178740D02*
D03*
X93307Y175197D02*
D03*
X55118Y176378D02*
D03*
X59055D02*
D03*
X55118Y179921D02*
D03*
X59055D02*
D03*
X55118Y183465D02*
D03*
X59055D02*
D03*
X62992D02*
D03*
X66929D02*
D03*
X59055Y169291D02*
D03*
X55118D02*
D03*
Y165748D02*
D03*
X59055D02*
D03*
X66929Y162205D02*
D03*
X55118D02*
D03*
X59055D02*
D03*
X62992D02*
D03*
X78740Y172441D02*
D03*
X196063Y130709D02*
D03*
X199213Y136614D02*
D03*
Y133071D02*
D03*
X192520Y130709D02*
D03*
X181102Y190551D02*
D03*
X41732Y134646D02*
D03*
X37795D02*
D03*
Y131496D02*
D03*
X41732D02*
D03*
X94095Y27559D02*
D03*
Y31496D02*
D03*
X116142Y21654D02*
D03*
X112205D02*
D03*
X116142Y24803D02*
D03*
X112205D02*
D03*
X41732Y137795D02*
D03*
X37795D02*
D03*
X133858Y190945D02*
D03*
X144882Y187008D02*
D03*
X170079D02*
D03*
X137598Y103150D02*
D03*
X230315Y88976D02*
D03*
X225590Y33465D02*
D03*
X168307Y84252D02*
D03*
X162402D02*
D03*
X210630Y60039D02*
D03*
X97441Y27559D02*
D03*
Y31496D02*
D03*
X173228Y60039D02*
D03*
X112205Y43307D02*
D03*
X116142D02*
D03*
X208760Y34449D02*
D03*
X180118D02*
D03*
X141732D02*
D03*
X170276D02*
D03*
X62008Y28543D02*
D03*
X77756Y104331D02*
D03*
X96457Y192913D02*
D03*
X134843Y153543D02*
D03*
X190945Y115157D02*
D03*
X199803Y143701D02*
D03*
X123031Y107283D02*
D03*
X175197Y136811D02*
D03*
Y111221D02*
D03*
X139764D02*
D03*
X164370Y106299D02*
D03*
X122047Y182087D02*
D03*
X127953D02*
D03*
X84646Y181988D02*
D03*
X285531Y73228D02*
D03*
X108760Y97342D02*
D03*
X108858Y88583D02*
D03*
X222441Y127559D02*
D03*
X170866Y122047D02*
D03*
X190945Y109252D02*
D03*
X134646Y93307D02*
D03*
X134252Y87008D02*
D03*
X153150Y79134D02*
D03*
X142913Y72835D02*
D03*
X170079D02*
D03*
X207480D02*
D03*
X180315D02*
D03*
X173228Y46457D02*
D03*
X56102Y41339D02*
D03*
X50197D02*
D03*
X45276Y10827D02*
D03*
Y28543D02*
D03*
X157480Y181102D02*
D03*
X219685Y44094D02*
D03*
X213779D02*
D03*
X130709D02*
D03*
X136221D02*
D03*
X212992Y104724D02*
D03*
X200000Y87795D02*
D03*
X216142Y110236D02*
D03*
X154528Y88976D02*
D03*
X210630Y46457D02*
D03*
X177953Y40945D02*
D03*
X140551D02*
D03*
X127756Y99213D02*
D03*
X145669Y157480D02*
D03*
X124016Y113189D02*
D03*
X190945Y125984D02*
D03*
M02*
