%TF.GenerationSoftware,Altium Limited,Altium Designer,26.2.0 (7)*%
G04 Layer_Color=8421504*
%FSLAX45Y45*%
%MOMM*%
%TF.SameCoordinates,98F60570-CFD4-4618-BAC5-DA2D18F82F03*%
%TF.FilePolarity,Positive*%
%TF.FileFunction,Paste,Top*%
%TF.Part,Single*%
G01*
G75*
%TA.AperFunction,SMDPad,CuDef*%
G04:AMPARAMS|DCode=11|XSize=0.8mm|YSize=1mm|CornerRadius=0.1mm|HoleSize=0mm|Usage=FLASHONLY|Rotation=270.000|XOffset=0mm|YOffset=0mm|HoleType=Round|Shape=RoundedRectangle|*
%AMROUNDEDRECTD11*
21,1,0.80000,0.80000,0,0,270.0*
21,1,0.60000,1.00000,0,0,270.0*
1,1,0.20000,-0.40000,-0.30000*
1,1,0.20000,-0.40000,0.30000*
1,1,0.20000,0.40000,0.30000*
1,1,0.20000,0.40000,-0.30000*
%
%ADD11ROUNDEDRECTD11*%
G04:AMPARAMS|DCode=12|XSize=0.8mm|YSize=1mm|CornerRadius=0.1mm|HoleSize=0mm|Usage=FLASHONLY|Rotation=180.000|XOffset=0mm|YOffset=0mm|HoleType=Round|Shape=RoundedRectangle|*
%AMROUNDEDRECTD12*
21,1,0.80000,0.80000,0,0,180.0*
21,1,0.60000,1.00000,0,0,180.0*
1,1,0.20000,-0.30000,0.40000*
1,1,0.20000,0.30000,0.40000*
1,1,0.20000,0.30000,-0.40000*
1,1,0.20000,-0.30000,-0.40000*
%
%ADD12ROUNDEDRECTD12*%
G04:AMPARAMS|DCode=13|XSize=1.3mm|YSize=1.1mm|CornerRadius=0.055mm|HoleSize=0mm|Usage=FLASHONLY|Rotation=180.000|XOffset=0mm|YOffset=0mm|HoleType=Round|Shape=RoundedRectangle|*
%AMROUNDEDRECTD13*
21,1,1.30000,0.99000,0,0,180.0*
21,1,1.19000,1.10000,0,0,180.0*
1,1,0.11000,-0.59500,0.49500*
1,1,0.11000,0.59500,0.49500*
1,1,0.11000,0.59500,-0.49500*
1,1,0.11000,-0.59500,-0.49500*
%
%ADD13ROUNDEDRECTD13*%
G04:AMPARAMS|DCode=14|XSize=1.4mm|YSize=1.7mm|CornerRadius=0.175mm|HoleSize=0mm|Usage=FLASHONLY|Rotation=90.000|XOffset=0mm|YOffset=0mm|HoleType=Round|Shape=RoundedRectangle|*
%AMROUNDEDRECTD14*
21,1,1.40000,1.35000,0,0,90.0*
21,1,1.05000,1.70000,0,0,90.0*
1,1,0.35000,0.67500,0.52500*
1,1,0.35000,0.67500,-0.52500*
1,1,0.35000,-0.67500,-0.52500*
1,1,0.35000,-0.67500,0.52500*
%
%ADD14ROUNDEDRECTD14*%
%ADD15R,0.30480X1.19380*%
%ADD16R,1.19380X0.30480*%
%TA.AperFunction,TestPad*%
G04:AMPARAMS|DCode=17|XSize=1mm|YSize=0.7mm|CornerRadius=0.035mm|HoleSize=0mm|Usage=FLASHONLY|Rotation=90.000|XOffset=0mm|YOffset=0mm|HoleType=Round|Shape=RoundedRectangle|*
%AMROUNDEDRECTD17*
21,1,1.00000,0.63000,0,0,90.0*
21,1,0.93000,0.70000,0,0,90.0*
1,1,0.07000,0.31500,0.46500*
1,1,0.07000,0.31500,-0.46500*
1,1,0.07000,-0.31500,-0.46500*
1,1,0.07000,-0.31500,0.46500*
%
%ADD17ROUNDEDRECTD17*%
%TA.AperFunction,SMDPad,CuDef*%
G04:AMPARAMS|DCode=19|XSize=0.6mm|YSize=1.05mm|CornerRadius=0.075mm|HoleSize=0mm|Usage=FLASHONLY|Rotation=270.000|XOffset=0mm|YOffset=0mm|HoleType=Round|Shape=RoundedRectangle|*
%AMROUNDEDRECTD19*
21,1,0.60000,0.90000,0,0,270.0*
21,1,0.45000,1.05000,0,0,270.0*
1,1,0.15000,-0.45000,-0.22500*
1,1,0.15000,-0.45000,0.22500*
1,1,0.15000,0.45000,0.22500*
1,1,0.15000,0.45000,-0.22500*
%
%ADD19ROUNDEDRECTD19*%
%ADD20R,1.00000X1.00000*%
G04:AMPARAMS|DCode=21|XSize=1.8565mm|YSize=0.49798mm|CornerRadius=0.24899mm|HoleSize=0mm|Usage=FLASHONLY|Rotation=270.000|XOffset=0mm|YOffset=0mm|HoleType=Round|Shape=RoundedRectangle|*
%AMROUNDEDRECTD21*
21,1,1.85650,0.00000,0,0,270.0*
21,1,1.35852,0.49798,0,0,270.0*
1,1,0.49798,0.00000,-0.67926*
1,1,0.49798,0.00000,0.67926*
1,1,0.49798,0.00000,0.67926*
1,1,0.49798,0.00000,-0.67926*
%
%ADD21ROUNDEDRECTD21*%
G04:AMPARAMS|DCode=22|XSize=1.55mm|YSize=0.6mm|CornerRadius=0.051mm|HoleSize=0mm|Usage=FLASHONLY|Rotation=0.000|XOffset=0mm|YOffset=0mm|HoleType=Round|Shape=RoundedRectangle|*
%AMROUNDEDRECTD22*
21,1,1.55000,0.49800,0,0,0.0*
21,1,1.44800,0.60000,0,0,0.0*
1,1,0.10200,0.72400,-0.24900*
1,1,0.10200,-0.72400,-0.24900*
1,1,0.10200,-0.72400,0.24900*
1,1,0.10200,0.72400,0.24900*
%
%ADD22ROUNDEDRECTD22*%
G04:AMPARAMS|DCode=23|XSize=0.6mm|YSize=1.2mm|CornerRadius=0.075mm|HoleSize=0mm|Usage=FLASHONLY|Rotation=180.000|XOffset=0mm|YOffset=0mm|HoleType=Round|Shape=RoundedRectangle|*
%AMROUNDEDRECTD23*
21,1,0.60000,1.05000,0,0,180.0*
21,1,0.45000,1.20000,0,0,180.0*
1,1,0.15000,-0.22500,0.52500*
1,1,0.15000,0.22500,0.52500*
1,1,0.15000,0.22500,-0.52500*
1,1,0.15000,-0.22500,-0.52500*
%
%ADD23ROUNDEDRECTD23*%
%TA.AperFunction,TestPad*%
G04:AMPARAMS|DCode=24|XSize=0.6mm|YSize=1mm|CornerRadius=0.075mm|HoleSize=0mm|Usage=FLASHONLY|Rotation=180.000|XOffset=0mm|YOffset=0mm|HoleType=Round|Shape=RoundedRectangle|*
%AMROUNDEDRECTD24*
21,1,0.60000,0.85000,0,0,180.0*
21,1,0.45000,1.00000,0,0,180.0*
1,1,0.15000,-0.22500,0.42500*
1,1,0.15000,0.22500,0.42500*
1,1,0.15000,0.22500,-0.42500*
1,1,0.15000,-0.22500,-0.42500*
%
%ADD24ROUNDEDRECTD24*%
%TA.AperFunction,SMDPad,CuDef*%
%ADD25R,0.49798X1.85650*%
%TA.AperFunction,TestPad*%
G04:AMPARAMS|DCode=26|XSize=0.3mm|YSize=1.15mm|CornerRadius=0.0375mm|HoleSize=0mm|Usage=FLASHONLY|Rotation=180.000|XOffset=0mm|YOffset=0mm|HoleType=Round|Shape=RoundedRectangle|*
%AMROUNDEDRECTD26*
21,1,0.30000,1.07500,0,0,180.0*
21,1,0.22500,1.15000,0,0,180.0*
1,1,0.07500,-0.11250,0.53750*
1,1,0.07500,0.11250,0.53750*
1,1,0.07500,0.11250,-0.53750*
1,1,0.07500,-0.11250,-0.53750*
%
%ADD26ROUNDEDRECTD26*%
D11*
X3460000Y870000D02*
D03*
Y1020000D02*
D03*
X5320000Y2355000D02*
D03*
Y2505000D02*
D03*
X5850000Y2510000D02*
D03*
Y2360000D02*
D03*
X4750000Y3625000D02*
D03*
Y2925000D02*
D03*
X5350000Y3300000D02*
D03*
X5820000Y3385000D02*
D03*
X3250000Y2725000D02*
D03*
X5350000Y1425000D02*
D03*
X4400000D02*
D03*
X2975000Y4475000D02*
D03*
X2270000Y4297500D02*
D03*
X3375000Y4475000D02*
D03*
X4050000Y1725000D02*
D03*
X3900000D02*
D03*
X5000000D02*
D03*
X4850000D02*
D03*
X4050000Y600000D02*
D03*
X3900000D02*
D03*
X5000000D02*
D03*
X4850000D02*
D03*
X3250000Y2875000D02*
D03*
X4400000Y1275000D02*
D03*
X5350000D02*
D03*
X3320000Y1020000D02*
D03*
X3375000Y4625000D02*
D03*
X2975000D02*
D03*
X3400000Y4950000D02*
D03*
X4600000Y4945000D02*
D03*
X5580000Y1025000D02*
D03*
X5430000D02*
D03*
X4750000Y2775000D02*
D03*
Y3200000D02*
D03*
Y3475000D02*
D03*
X2270000Y4447500D02*
D03*
X5350000Y3150000D02*
D03*
X5820000Y3235000D02*
D03*
X3900000Y750000D02*
D03*
X4050000D02*
D03*
X4850000D02*
D03*
X5590000Y2015000D02*
D03*
X5000000Y750000D02*
D03*
X3900000Y1575000D02*
D03*
X4050000D02*
D03*
X4850000D02*
D03*
X5000000D02*
D03*
X4600000Y5095000D02*
D03*
X3400000Y5100000D02*
D03*
X4750000Y3350000D02*
D03*
X5590000Y1865000D02*
D03*
X3320000Y870000D02*
D03*
X5430000Y875000D02*
D03*
X5580000D02*
D03*
D12*
X3775000Y2370000D02*
D03*
X3925000D02*
D03*
X1075000Y3125000D02*
D03*
X925000D02*
D03*
X1075000Y2875000D02*
D03*
X925000D02*
D03*
X1075000Y2375000D02*
D03*
X925000D02*
D03*
X4675000Y4225000D02*
D03*
X4525000D02*
D03*
X4675000Y4025000D02*
D03*
X4525000D02*
D03*
X5320000Y2230000D02*
D03*
X5170000D02*
D03*
X1075000Y2625000D02*
D03*
X925000D02*
D03*
X3665000Y2370000D02*
D03*
X3515000D02*
D03*
X1850000Y4900000D02*
D03*
X2575000Y750000D02*
D03*
X3495000Y2520000D02*
D03*
X3550000Y3900000D02*
D03*
X5725000Y750000D02*
D03*
X2725000Y750000D02*
D03*
X3175000Y750000D02*
D03*
X4275000Y2250000D02*
D03*
X4275000Y2400000D02*
D03*
X3100000Y4475000D02*
D03*
X3250000D02*
D03*
X4075000Y1850000D02*
D03*
X3875000D02*
D03*
X5025000D02*
D03*
X4825000D02*
D03*
X1675000Y1050000D02*
D03*
X2325000Y4900000D02*
D03*
X3700000Y3900000D02*
D03*
X3345000Y2520000D02*
D03*
X4125000Y2400000D02*
D03*
X4125000Y2250000D02*
D03*
X4225000Y1850000D02*
D03*
X3725000D02*
D03*
X5175000D02*
D03*
X4675000D02*
D03*
X1525000Y1050000D02*
D03*
X1175000D02*
D03*
X2055000Y4622500D02*
D03*
X2625000Y2550000D02*
D03*
Y2750000D02*
D03*
Y2950000D02*
D03*
X1905000Y4622500D02*
D03*
X3875000Y875000D02*
D03*
X4075000D02*
D03*
X4825000D02*
D03*
X5025000D02*
D03*
X2000000Y4900000D02*
D03*
X2175000D02*
D03*
X2475000Y2950000D02*
D03*
Y2750000D02*
D03*
Y2550000D02*
D03*
X1025000Y1050000D02*
D03*
X3325000Y750000D02*
D03*
X4225000Y875000D02*
D03*
X3725000D02*
D03*
X5575000Y750000D02*
D03*
X4675000Y875000D02*
D03*
X5175000D02*
D03*
D13*
X3765000Y2205000D02*
D03*
X3535000Y2015000D02*
D03*
Y2205000D02*
D03*
X3765000Y2015000D02*
D03*
D14*
X4925000Y3678600D02*
D03*
X1660000Y4278200D02*
D03*
X2900000Y750000D02*
D03*
Y978600D02*
D03*
X4925000Y3450000D02*
D03*
X1660000Y4506800D02*
D03*
D15*
X3625000Y2575000D02*
D03*
Y3725000D02*
D03*
X4225000Y2575000D02*
D03*
X4075000D02*
D03*
X4025000D02*
D03*
X4375000D02*
D03*
X4325000D02*
D03*
X3675000Y3725000D02*
D03*
X4175000Y2575000D02*
D03*
X3825000D02*
D03*
X3875000D02*
D03*
X3725000Y3725000D02*
D03*
X3825000D02*
D03*
X3775000D02*
D03*
X3925000Y2575000D02*
D03*
X4375000Y3725000D02*
D03*
X4175000D02*
D03*
X4225000D02*
D03*
X4125000D02*
D03*
X4325000D02*
D03*
X3875000D02*
D03*
X3925000D02*
D03*
X3975000D02*
D03*
X4025000D02*
D03*
X4075000D02*
D03*
X4275000D02*
D03*
Y2575000D02*
D03*
X4125000D02*
D03*
X3975000D02*
D03*
X3775000D02*
D03*
X3725000D02*
D03*
X3675000D02*
D03*
D16*
X4575000Y2875000D02*
D03*
Y3525000D02*
D03*
X3425000Y2775000D02*
D03*
Y2975000D02*
D03*
X4575000D02*
D03*
X3425000Y2825000D02*
D03*
X4575000Y3475000D02*
D03*
Y2825000D02*
D03*
Y3075000D02*
D03*
X3425000Y3175000D02*
D03*
Y3025000D02*
D03*
Y3075000D02*
D03*
Y3125000D02*
D03*
Y3525000D02*
D03*
Y3225000D02*
D03*
X4575000Y3425000D02*
D03*
X3425000Y2875000D02*
D03*
Y2925000D02*
D03*
Y3275000D02*
D03*
Y3325000D02*
D03*
Y3375000D02*
D03*
Y3425000D02*
D03*
Y3475000D02*
D03*
X4575000Y3375000D02*
D03*
Y3325000D02*
D03*
Y3275000D02*
D03*
Y3225000D02*
D03*
Y3175000D02*
D03*
Y3125000D02*
D03*
Y3025000D02*
D03*
Y2925000D02*
D03*
Y2775000D02*
D03*
D17*
X1467500Y725000D02*
D03*
Y275000D02*
D03*
X1682500Y725000D02*
D03*
Y275000D02*
D03*
X1232500D02*
D03*
Y725000D02*
D03*
X1017500D02*
D03*
Y275000D02*
D03*
D19*
X1847500Y4282500D02*
D03*
X2112500D02*
D03*
Y4472500D02*
D03*
Y4377500D02*
D03*
X1847500Y4472500D02*
D03*
D20*
X2150000Y2657500D02*
D03*
Y2842500D02*
D03*
X2275000D02*
D03*
Y2657500D02*
D03*
D21*
X5687500Y2224914D02*
D03*
X5557500Y2655086D02*
D03*
X5492500D02*
D03*
X5557500Y2224914D02*
D03*
X5622500D02*
D03*
X5492500D02*
D03*
X5622500Y2655086D02*
D03*
D22*
X5190000Y1420500D02*
D03*
X4245000D02*
D03*
X4650000Y1039500D02*
D03*
X3705000D02*
D03*
Y1166500D02*
D03*
X4245000Y1039500D02*
D03*
X4650000Y1166500D02*
D03*
X5190000Y1039500D02*
D03*
X3705000Y1420500D02*
D03*
Y1293500D02*
D03*
X4245000Y1166500D02*
D03*
Y1293500D02*
D03*
X4650000Y1420500D02*
D03*
Y1293500D02*
D03*
X5190000Y1166500D02*
D03*
Y1293500D02*
D03*
D23*
X4000000Y4240000D02*
D03*
Y4480000D02*
D03*
X4095000Y4240000D02*
D03*
X3905000D02*
D03*
X4095000Y4480000D02*
D03*
X3905000D02*
D03*
D24*
X3760000Y4854700D02*
D03*
X4240000D02*
D03*
X4320000D02*
D03*
X3679999D02*
D03*
D25*
X5687500Y2655086D02*
D03*
D26*
X4125000Y4862250D02*
D03*
X3825000D02*
D03*
X4075000D02*
D03*
X3975000D02*
D03*
X3925000D02*
D03*
X4025000D02*
D03*
X4175000D02*
D03*
X3875000D02*
D03*
%TF.MD5,0e21ddce2a101b71e940999f19a7d267*%
M02*
